<svg width="27" height="24" viewBox="0 0 27 24" fill="white" xmlns="http://www.w3.org/2000/svg">
<path d="M22.5176 0.00199336L20.1986 2.49887C22.0801 4.3945 23.259 7.09313 23.259 10.0814C23.259 15.8082 18.9344 20.4664 13.6217 20.4664C8.30909 20.4664 3.98631 15.8082 3.98631 10.0814C3.98631 7.09313 5.16338 4.3945 7.04673 2.49887L4.72962 0C2.25496 2.53683 0.708984 6.11835 0.708984 10.0814C0.708984 17.7558 6.50175 24 13.6236 24C20.7455 24 26.5401 17.7578 26.5401 10.0814C26.5401 6.11835 24.9959 2.53683 22.5194 0L22.5176 0.00199336Z" />
<path d="M19.9835 11.7265L17.6646 14.2274L13.6217 9.8708L11.8996 11.7265L9.58068 14.2254L7.26172 11.7265L13.6217 4.87305L15.9407 7.37193L17.6646 9.2296L19.9835 11.7265Z" fill="#F97E4E"/>
</svg>
