<svg width="212" height="236" viewBox="0 0 212 236" fill="none" xmlns="http://www.w3.org/2000/svg">
<g clip-path="url(#clip0_1972_97732)">
<path d="M172.281 140.829C193.254 140.829 210.256 123.731 210.256 102.64C210.256 81.549 193.254 64.4512 172.281 64.4512C151.308 64.4512 134.307 81.549 134.307 102.64C134.307 123.731 151.308 140.829 172.281 140.829Z" fill="#F97E4E"/>
<path d="M47.3438 140.829C68.3166 140.829 85.3184 123.731 85.3184 102.64C85.3184 81.549 68.3166 64.4512 47.3438 64.4512C26.371 64.4512 9.36914 81.549 9.36914 102.64C9.36914 123.731 26.371 140.829 47.3438 140.829Z" fill="#F97E4E"/>
<path d="M69.6702 71.8184C73.5574 77.8324 75.8 84.949 75.8 92.6669C75.8 113.766 58.8061 130.856 37.8253 130.856C29.453 130.856 21.7285 128.1 15.4492 123.489C22.2268 133.913 33.9382 140.829 47.2941 140.829C68.2748 140.829 85.2687 123.739 85.2687 102.64C85.2687 89.9606 79.1389 78.7345 69.6702 71.8184Z" fill="#F45C33"/>
<path d="M194.608 71.8184C198.495 77.8324 200.737 84.949 200.737 92.6669C200.737 113.766 183.744 130.856 162.763 130.856C154.39 130.856 146.666 128.1 140.387 123.489C147.164 133.963 158.876 140.829 172.232 140.829C193.212 140.829 210.206 123.739 210.206 102.64C210.206 89.9606 204.027 78.7345 194.608 71.8184Z" fill="#F45C33"/>
<path d="M47.3439 142.583C25.4661 142.583 7.625 124.642 7.625 102.64C7.625 80.6391 25.4163 62.6973 47.3439 62.6973C69.2216 62.6973 87.0627 80.6391 87.0627 102.64C87.0627 124.642 69.2216 142.583 47.3439 142.583ZM47.3439 66.2054C27.3598 66.2054 11.1135 82.5435 11.1135 102.64C11.1135 122.737 27.3598 139.075 47.3439 139.075C67.3279 139.075 83.5742 122.737 83.5742 102.64C83.5742 82.5435 67.3279 66.2054 47.3439 66.2054Z" fill="#3031D9"/>
<path d="M47.3434 126.596C57.4995 126.596 65.7327 118.316 65.7327 108.102C65.7327 97.889 57.4995 89.6094 47.3434 89.6094C37.1873 89.6094 28.9541 97.889 28.9541 108.102C28.9541 118.316 37.1873 126.596 47.3434 126.596Z" fill="#3031D9"/>
<path d="M42.8084 112.313C46.9644 112.313 50.3335 108.925 50.3335 104.745C50.3335 100.566 46.9644 97.1777 42.8084 97.1777C38.6523 97.1777 35.2832 100.566 35.2832 104.745C35.2832 108.925 38.6523 112.313 42.8084 112.313Z" fill="white"/>
<path d="M172.281 142.583C150.404 142.583 132.562 124.642 132.562 102.64C132.562 80.6391 150.404 62.6973 172.281 62.6973C194.159 62.6973 212 80.6391 212 102.64C212 124.642 194.159 142.583 172.281 142.583ZM172.281 66.2054C152.297 66.2054 136.051 82.5435 136.051 102.64C136.051 122.737 152.297 139.075 172.281 139.075C192.265 139.075 208.512 122.737 208.512 102.64C208.512 82.5435 192.265 66.2054 172.281 66.2054Z" fill="#3031D9"/>
<path d="M172.281 126.596C182.437 126.596 190.67 118.316 190.67 108.102C190.67 97.889 182.437 89.6094 172.281 89.6094C162.125 89.6094 153.892 97.889 153.892 108.102C153.892 118.316 162.125 126.596 172.281 126.596Z" fill="#3031D9"/>
<path d="M167.746 112.313C171.902 112.313 175.271 108.925 175.271 104.745C175.271 100.566 171.902 97.1777 167.746 97.1777C163.59 97.1777 160.221 100.566 160.221 104.745C160.221 108.925 163.59 112.313 167.746 112.313Z" fill="white"/>
<path d="M2.14274 22.2024C9.91707 29.9203 17.5917 16.7396 42.6091 13.4319C63.4902 10.6755 76.1484 19.4459 79.9857 13.2816C83.7732 7.06708 67.5767 -2.30476 36.878 0.501778C14.1032 2.60668 -6.87748 13.2816 2.14274 22.2024Z" fill="#F97E4E"/>
<path d="M206.318 18.7446C196.6 13.2318 192.115 27.9661 167.696 37.5885C147.363 45.6072 132.412 40.2948 130.12 47.2611C127.777 54.2273 146.416 59.1889 176.616 48.6643C199.092 40.796 217.581 25.1094 206.318 18.7446Z" fill="#F97E4E"/>
<path d="M36.7285 227.23C36.7285 227.23 64.5865 170.899 113.973 172.151C163.36 173.454 180.105 207.935 180.105 207.935C180.105 207.935 158.975 187.688 118.309 190.795C65.7327 194.804 36.7285 227.23 36.7285 227.23Z" fill="#F97E4E"/>
<path d="M177.663 192.95C180.354 196.107 182.198 199.966 183.095 204.026C183.892 207.684 184.241 212.546 181.45 215.502C180.155 216.906 178.211 217.758 176.317 217.307C174.722 216.906 174.025 219.361 175.62 219.762C177.812 220.314 180.155 219.762 181.998 218.409C183.942 216.956 185.188 214.801 185.736 212.395C186.833 207.684 185.686 202.472 183.793 198.062C182.696 195.506 181.201 193.2 179.457 191.096C179.008 190.544 178.111 190.645 177.663 191.096C177.115 191.647 177.214 192.399 177.663 192.95Z" fill="#F97E4E"/>
<path d="M39.9176 233.395C36.3793 233.896 32.4922 232.192 30.3492 229.286C28.0568 226.128 27.8076 221.718 29.6515 218.26C30.4489 216.807 28.2561 215.503 27.4588 216.957C25.6647 220.265 25.3657 224.374 26.7611 227.882C28.1066 231.391 30.9472 233.997 34.4856 235.3C36.479 236.001 38.5222 236.152 40.6153 235.851C41.313 235.751 41.6619 234.899 41.5124 234.247C41.313 233.546 40.6153 233.295 39.9176 233.395Z" fill="#F97E4E"/>
</g>
<defs>
<clipPath id="clip0_1972_97732">
<rect width="212" height="236" fill="white"/>
</clipPath>
</defs>
</svg>
