<svg width="20" height="22" viewBox="0 0 20 22" fill="white" xmlns="http://www.w3.org/2000/svg">
<path d="M6.29643 0.532896C4.86674 0.757896 3.70424 1.55946 3.12768 2.72665C2.71049 3.57977 2.68237 3.89383 2.86987 5.75477C3.02924 7.32508 3.11362 7.7329 3.39018 8.31415C3.70893 8.99383 4.18237 9.57508 4.6933 9.93133C4.89018 10.0673 4.89487 10.0766 4.8808 10.3063C4.86674 10.5407 4.86674 10.5407 4.6558 10.611C4.29955 10.7282 3.49799 11.1266 3.1558 11.3563C2.38237 11.872 1.74487 12.5423 1.30424 13.297C0.910491 13.9766 0.704241 14.6048 0.619866 15.4016C0.568304 15.861 0.582366 16.0391 0.760491 17.8673C0.868304 18.9501 0.980804 19.9298 1.00424 20.047C1.10268 20.4923 1.47299 20.9891 1.89487 21.2329C2.36362 21.5095 2.27924 21.5048 6.95737 21.4907L11.2417 21.4766L11.5136 21.3501C11.6636 21.2798 11.8652 21.1579 11.9636 21.0829L12.1371 20.9423L12.5402 21.1063C13.3042 21.411 13.5949 21.4673 14.4292 21.4673C15.0902 21.4673 15.2355 21.4532 15.6339 21.3454C16.7449 21.0501 17.7058 20.4173 18.3667 19.5454C19.6746 17.8157 19.7496 15.5282 18.5636 13.7516C17.1433 11.6235 14.3871 10.9157 12.1277 12.097L11.6542 12.3407L11.3589 12.0641C10.7214 11.4641 10.0558 11.0376 9.26362 10.7188L8.80424 10.536L8.79018 10.3063C8.77612 10.0766 8.7808 10.072 9.00112 9.9079C9.54955 9.50477 10.0558 8.85321 10.3277 8.20633C10.5714 7.6204 10.6417 7.23133 10.7964 5.70321C10.9558 4.10946 10.9464 3.80946 10.7449 3.20008C10.398 2.16883 9.48393 1.23133 8.43393 0.823521C7.75424 0.56102 6.87299 0.439146 6.29643 0.532896ZM7.72612 1.36727C8.39174 1.55008 9.0808 1.98602 9.48862 2.48758L9.72299 2.77352L9.3058 3.17665C8.15737 4.29696 6.80268 4.99071 5.24174 5.2579C4.76362 5.33758 3.66205 5.37977 3.59643 5.31883C3.57768 5.30008 3.54018 5.00946 3.51674 4.67665C3.46987 4.11883 3.47455 4.03915 3.5683 3.66415C3.69955 3.1204 3.93862 2.7079 4.36987 2.27665C4.86674 1.77977 5.45737 1.46571 6.1558 1.31571C6.53549 1.23602 7.33705 1.26414 7.72612 1.36727ZM10.1355 3.96415C10.173 4.25008 10.1214 5.26258 10.0699 5.31883C9.99487 5.39852 8.12924 5.25321 7.96987 5.15477C7.95112 5.1454 8.10112 5.0329 8.30737 4.91102C8.71987 4.6579 9.31518 4.2079 9.74174 3.81415C9.89643 3.67352 10.0371 3.5704 10.0605 3.58915C10.0792 3.60789 10.1121 3.77665 10.1355 3.96415ZM8.26518 5.98915C8.57924 6.0454 9.05737 6.08758 9.40424 6.09227L9.99955 6.10165L9.97143 6.3829C9.84487 7.6954 9.53549 8.42665 8.82768 9.09227C8.45268 9.44852 7.89955 9.74383 7.43549 9.8329C7.00424 9.91258 6.20737 9.86571 5.83237 9.73446C5.20893 9.51415 4.59955 8.99852 4.23393 8.37977C3.91518 7.8454 3.67143 6.9079 3.67143 6.23758V6.09227L3.90112 6.11571C4.41205 6.16258 5.75737 5.96571 6.4933 5.73602L6.83549 5.62821L7.2808 5.76415C7.52455 5.83446 7.96987 5.93758 8.26518 5.98915ZM6.10893 10.5595C6.54018 10.6485 7.18705 10.6438 7.62299 10.536C7.84799 10.4845 7.99799 10.4657 8.01205 10.4938C8.07299 10.5923 7.97455 11.211 7.86674 11.4266C7.51987 12.1016 6.61987 12.2704 6.05737 11.7641C5.77143 11.5063 5.67299 11.2766 5.64955 10.8173C5.6308 10.447 5.6308 10.4235 5.71518 10.4563C5.76674 10.4751 5.94018 10.522 6.10893 10.5595ZM5.14799 11.7266C5.37768 12.247 5.9308 12.6688 6.5308 12.7813C7.37924 12.9454 8.2933 12.397 8.58862 11.5579C8.63549 11.4313 8.68237 11.3188 8.69174 11.3095C8.70112 11.3001 8.84643 11.3516 9.01518 11.4173C9.30112 11.5345 9.31987 11.5532 9.3058 11.6751C9.27768 11.9423 8.96362 12.4673 8.64487 12.786C8.13393 13.297 7.56205 13.5313 6.84018 13.5313C6.06205 13.5313 5.56518 13.3251 5.02612 12.786C4.66049 12.4204 4.38393 11.9563 4.36049 11.6845C4.35112 11.5579 4.37455 11.5391 4.6558 11.422L4.96049 11.2954L5.00268 11.3938C5.02612 11.4501 5.09174 11.5954 5.14799 11.7266ZM3.71362 12.2891C3.82143 12.6313 3.9433 13.2454 4.74955 17.5391C5.05893 19.1891 5.32143 20.586 5.33549 20.6423L5.35893 20.7501H4.0558C2.6308 20.7501 2.45737 20.7266 2.15268 20.4923C1.96049 20.347 1.77299 20.0516 1.7308 19.836C1.71674 19.7563 1.6183 18.8423 1.51049 17.797C1.37455 16.447 1.33237 15.8048 1.35112 15.5704C1.44487 14.5345 1.87143 13.6016 2.60737 12.7907C2.80424 12.5751 3.52143 11.9845 3.58705 11.9845C3.6058 11.9845 3.66205 12.1204 3.71362 12.2891ZM10.2761 12.111C10.3699 12.1813 10.5855 12.3735 10.7542 12.5376L11.0683 12.8329L10.8527 13.0532C9.38549 14.5673 9.01987 16.836 9.95268 18.6876C10.2667 19.3157 10.7355 19.9063 11.2605 20.3423L11.4667 20.5157L11.2136 20.6329C10.9605 20.7501 10.9511 20.7501 9.62924 20.7501H8.30268L8.32612 20.6423C8.34018 20.586 8.60737 19.1798 8.92143 17.5157C9.87299 12.4438 9.97143 11.9845 10.0792 11.9845C10.0933 11.9845 10.1824 12.0407 10.2761 12.111ZM15.4605 12.4016C15.9761 12.5329 16.7074 12.9032 17.1011 13.236C17.7902 13.8173 18.3152 14.6329 18.5355 15.4766C18.6761 16.011 18.6761 17.0095 18.5355 17.5391C18.0902 19.2079 16.7214 20.4407 15.0105 20.7079C14.3074 20.8157 13.3746 20.6845 12.6996 20.3798C10.3183 19.3016 9.4558 16.3579 10.8855 14.1829C11.1714 13.747 11.7902 13.147 12.2308 12.8845C12.6292 12.6454 13.2105 12.4298 13.6933 12.336C14.1621 12.247 14.9636 12.2798 15.4605 12.4016ZM5.05424 13.7891C5.20424 13.8782 5.41987 13.986 5.53237 14.0282C5.7058 14.0938 5.72924 14.122 5.7058 14.2063C5.64487 14.4126 5.43393 14.7501 5.24643 14.9423C5.08237 15.1157 5.05424 15.1345 5.04018 15.0548C5.0308 15.0032 4.96518 14.661 4.89487 14.2907C4.82455 13.9251 4.7683 13.6251 4.77299 13.6251C4.78237 13.6251 4.90893 13.7001 5.05424 13.7891ZM8.75268 14.3704C8.6683 14.8298 8.60268 15.0782 8.56518 15.0782C8.45268 15.0782 7.93705 14.3188 7.93705 14.1548C7.93705 14.1313 8.04955 14.0657 8.18549 14.0095C8.31674 13.9532 8.52299 13.8454 8.64018 13.7704C8.75737 13.6954 8.86049 13.6438 8.86987 13.6532C8.87455 13.6579 8.82299 13.986 8.75268 14.3704ZM7.29018 14.6001C7.36049 14.7735 7.5058 15.0266 7.60893 15.1626L7.80112 15.4157L7.64643 15.6454L7.49174 15.8704H6.83549H6.17924L6.02455 15.6454L5.86987 15.4157L6.06205 15.1626C6.16518 15.0266 6.31049 14.7735 6.3808 14.6001L6.50737 14.2813H6.83549H7.16362L7.29018 14.6001ZM5.4433 16.1188L5.57924 16.3204L5.47612 16.5548L5.37299 16.7891L5.32143 16.5313C5.1808 15.8376 5.19955 15.7673 5.4433 16.1188ZM8.42924 16.0954C8.41518 16.1938 8.37768 16.3907 8.34487 16.5313L8.28862 16.7891L8.18549 16.5454L8.08705 16.3063L8.22768 16.1141C8.40112 15.8704 8.47143 15.8657 8.42924 16.0954ZM7.72612 17.4079L8.03549 18.186L7.80112 19.4376C7.66987 20.1266 7.56205 20.7032 7.56205 20.722C7.56205 20.736 7.23862 20.7501 6.84018 20.7501C6.13237 20.7501 6.1183 20.7501 6.09487 20.6423C6.0808 20.586 5.97299 20.0095 5.84643 19.3579L5.62612 18.1766L5.94487 17.4032L6.26362 16.6251H6.83549H7.41205L7.72612 17.4079Z" />
<path d="M12.5519 13.761C11.8909 13.9297 11.5206 14.5625 11.7081 15.1954C11.7784 15.4391 11.8441 15.5235 12.2941 15.9875L12.8003 16.5079L12.2941 17.0282C11.8394 17.4922 11.7784 17.5766 11.7034 17.825C11.4925 18.5563 12.0128 19.25 12.7816 19.25C13.1988 19.25 13.4472 19.1094 13.9769 18.575L14.4222 18.1297L14.9425 18.636C15.5097 19.1891 15.655 19.2688 16.0909 19.2688C16.9066 19.2594 17.4456 18.336 17.0519 17.6141C16.9816 17.4922 16.7284 17.1922 16.4847 16.9485L16.0441 16.5125L16.5081 16.0391C17.0519 15.486 17.1738 15.275 17.1738 14.8954C17.1784 14.2391 16.6909 13.7516 16.0394 13.7516C15.6597 13.7516 15.4347 13.8829 14.8956 14.4219L14.4316 14.8907L13.9581 14.4266C13.7003 14.1735 13.405 13.9204 13.3019 13.8688C13.0816 13.7563 12.7488 13.7094 12.5519 13.761ZM13.6113 15.1532C14.4503 15.9829 14.3566 15.9829 15.2003 15.1532C15.5519 14.8063 15.8941 14.5063 15.9597 14.4922C16.2175 14.4266 16.4659 14.675 16.4238 14.961C16.4191 15.0125 16.1284 15.3407 15.7816 15.6922C14.9378 16.5454 14.9378 16.4704 15.7816 17.3235C16.1238 17.675 16.4191 17.9985 16.4331 18.0454C16.4519 18.0922 16.4331 18.2 16.4003 18.2891C16.33 18.4532 16.1706 18.5329 15.9738 18.5047C15.9222 18.5 15.5941 18.2094 15.2425 17.8625C14.3894 17.0188 14.4644 17.0188 13.6019 17.8719C13.0019 18.4672 12.9503 18.5094 12.7816 18.5094C12.6456 18.5094 12.5753 18.4813 12.4956 18.3829C12.2941 18.1532 12.3316 18.0782 13.0441 17.3516C13.9206 16.4563 13.9206 16.5547 13.0394 15.6594C12.4113 15.0219 12.3784 14.9797 12.4066 14.8391C12.4581 14.5813 12.6316 14.45 12.8566 14.4969C12.9222 14.511 13.2456 14.7875 13.6113 15.1532Z" />
</svg>
