<svg width="24" height="24" viewBox="0 0 24 24" fill="white" xmlns="http://www.w3.org/2000/svg">
<path d="M9.56219 0.824902C6.5575 1.30771 4.36375 4.00303 4.51844 7.03115C4.64031 9.51553 6.21063 11.6015 8.56844 12.4218L8.99969 12.5765V13.4155C8.99969 14.0858 8.98563 14.2499 8.94344 14.2171C8.91063 14.1937 8.79813 14.1046 8.695 14.0249C8.25906 13.6874 7.64969 13.4999 6.97469 13.4999C6.64656 13.4999 6.59031 13.514 6.49188 13.6171C6.34656 13.7577 6.34656 13.7812 6.51063 14.4374C6.72625 15.2999 6.74969 15.6374 6.74969 18.1874C6.74969 20.864 6.75906 20.9483 7.0825 21.6093C7.35438 22.1577 7.83719 22.6358 8.395 22.9124C8.96219 23.1937 9.27625 23.2499 10.3497 23.2499H11.2497V22.8749V22.4999H10.3684C9.74031 22.4999 9.41219 22.4812 9.22 22.4296C8.47469 22.2374 7.93563 21.7499 7.62625 20.9858C7.52781 20.7515 7.52313 20.6624 7.49969 18.0233C7.47156 15.4452 7.46688 15.2765 7.36375 14.7937C7.3075 14.5171 7.27 14.278 7.27938 14.2687C7.32625 14.2218 7.77156 14.3577 8.02469 14.4937C8.37156 14.6765 8.63875 14.9718 8.82625 15.3655L8.97625 15.6796L8.99031 16.8421L9.00907 17.9999H9.37938H9.74969L9.75906 12.614C9.77313 7.25615 9.77313 7.22334 9.87156 7.09678C10.0544 6.84834 10.2044 6.77334 10.4997 6.77334C10.795 6.77334 10.945 6.84834 11.1278 7.09678C11.2263 7.22334 11.2263 7.27021 11.2403 11.114L11.2497 14.9999H11.6247H11.995L12.0091 13.739C12.0231 12.5483 12.0278 12.4687 12.1216 12.3468C12.3044 12.0983 12.4544 12.0233 12.7497 12.0233C13.045 12.0233 13.195 12.0983 13.3778 12.3468C13.4716 12.4687 13.4763 12.5437 13.4903 14.114L13.5044 15.7499H13.8747H14.245L14.2591 14.489C14.2731 13.2983 14.2778 13.2187 14.3716 13.0968C14.5544 12.8483 14.7044 12.7733 14.9997 12.7733C15.295 12.7733 15.445 12.8483 15.6278 13.0968C15.7216 13.2187 15.7263 13.2937 15.7403 14.864L15.7544 16.4999H16.1247H16.495L16.5091 15.239C16.5231 14.0483 16.5278 13.9687 16.6216 13.8468C16.8044 13.5983 16.9544 13.5233 17.2497 13.5233C17.545 13.5233 17.695 13.5983 17.8778 13.8468C17.9763 13.9733 17.9763 14.0202 17.9903 17.8968C17.9997 20.564 17.9903 21.8765 17.9528 21.9937C17.8919 22.2046 17.6341 22.439 17.4138 22.4812L17.2497 22.5093V22.8843V23.2593L17.4747 23.2265C17.7513 23.189 18.2013 22.9499 18.3559 22.7671C18.4216 22.6921 18.5294 22.5187 18.5997 22.3874L18.7263 22.1483V17.9999V13.8515L18.5669 13.5562C18.3888 13.2327 18.1919 13.0405 17.8591 12.8812C17.5591 12.7358 16.9403 12.7312 16.645 12.8812C16.5278 12.9374 16.4294 12.9843 16.4247 12.9843C16.42 12.9843 16.3497 12.8671 16.27 12.7265C16.1247 12.4687 15.8716 12.2437 15.5622 12.1077C15.2997 11.9858 14.6528 11.9999 14.395 12.1312C14.2778 12.1874 14.1794 12.2343 14.1747 12.2343C14.1559 12.2343 13.87 11.7093 13.8841 11.6999C14.3903 11.3624 15.1122 10.6405 15.4544 10.1249C16.8372 8.05771 16.8372 5.44209 15.4544 3.3749C15.3231 3.18271 15.0184 2.81709 14.77 2.56396C13.9309 1.70615 12.9466 1.15303 11.7653 0.885839C11.2122 0.759277 10.1481 0.731152 9.56219 0.824902ZM11.32 1.57021C12.9934 1.84209 14.4138 2.87803 15.1638 4.36865C15.9372 5.91084 15.9466 7.5374 15.1872 9.07021C14.8591 9.73584 14.4513 10.2702 13.9356 10.7108C13.3591 11.203 13.2278 11.2687 12.7544 11.2733C12.4919 11.278 12.2903 11.3108 12.1778 11.3624L11.9997 11.4374V10.8093C11.9997 10.2233 12.0044 10.1765 12.0934 10.1483C12.2809 10.0874 12.8763 9.66084 13.1434 9.39365C13.6778 8.85928 14.0341 8.17959 14.1841 7.41553C14.4091 6.24365 14.0059 4.96865 13.1434 4.10615C11.6856 2.64834 9.30906 2.64365 7.85125 4.10146C6.17313 5.77959 6.47313 8.5874 8.46531 9.89053C8.6575 10.0171 8.85907 10.1343 8.90594 10.1483C8.995 10.1765 8.99969 10.228 8.99969 10.978V11.7749L8.87313 11.7421C8.67625 11.6952 7.92625 11.3343 7.63563 11.1468C6.90438 10.678 6.25281 9.94678 5.84031 9.13584C5.0575 7.59834 5.05281 5.91084 5.83094 4.37334C6.35125 3.33271 7.1575 2.54521 8.22625 2.03428C9.22 1.55615 10.2747 1.39678 11.32 1.57021ZM11.1325 3.82021C12.7216 4.15303 13.7669 5.77959 13.4294 7.37803C13.2888 8.04365 12.8247 8.76553 12.2856 9.15928C12.1591 9.25303 12.0466 9.32803 12.0325 9.32803C12.0184 9.32803 11.9997 8.82646 11.9903 8.2124L11.9763 7.10146L11.8169 6.80615C11.6388 6.48271 11.4419 6.29053 11.1091 6.13115C10.7997 5.98115 10.1903 5.98584 9.86688 6.14053C9.57156 6.28584 9.28563 6.56709 9.14032 6.86709C9.02781 7.09209 9.02313 7.13896 9.00907 8.2124L8.995 9.32803L8.84969 9.25303C8.76532 9.21084 8.54969 9.02334 8.36219 8.83115C7.96375 8.43271 7.67781 7.90771 7.57 7.38271C7.12469 5.25459 9.00438 3.3749 11.1325 3.82021Z"/>
</svg>
