<svg width="24" height="24" viewBox="0 0 24 24" fill="white" xmlns="http://www.w3.org/2000/svg">
<path d="M9.56317 0.825024C6.55848 1.30784 4.36473 4.00315 4.51942 7.03127C4.64129 9.51565 6.2116 11.6016 8.56942 12.4219L9.00067 12.5766V13.4156C9.00067 14.086 8.9866 14.25 8.94442 14.2172C8.9116 14.1938 8.7991 14.1047 8.69598 14.025C8.26004 13.6875 7.65067 13.5 6.97567 13.5C6.64754 13.5 6.59129 13.5141 6.49285 13.6172C6.34754 13.7578 6.34754 13.7813 6.5116 14.4375C6.72723 15.3 6.75067 15.6375 6.75067 18.1875C6.75067 20.8641 6.76004 20.9485 7.08348 21.6094C7.35535 22.1578 7.83817 22.636 8.39598 22.9125C8.96317 23.1938 9.27723 23.25 10.3507 23.25H11.2507V22.875V22.5H10.3694C9.74129 22.5 9.41317 22.4813 9.22098 22.4297C8.47567 22.2375 7.9366 21.75 7.62723 20.986C7.52879 20.7516 7.5241 20.6625 7.50067 18.0235C7.47254 15.4453 7.46785 15.2766 7.36473 14.7938C7.30848 14.5172 7.27098 14.2781 7.28035 14.2688C7.32723 14.2219 7.77254 14.3578 8.02567 14.4938C8.37254 14.6766 8.63973 14.9719 8.82723 15.3656L8.97723 15.6797L8.99129 16.8422L9.01004 18H9.38035H9.75067L9.76004 12.6141C9.7741 7.25627 9.7741 7.22346 9.87254 7.0969C10.0554 6.84846 10.2054 6.77346 10.5007 6.77346C10.796 6.77346 10.946 6.84846 11.1288 7.0969C11.2272 7.22346 11.2272 7.27034 11.2413 11.1141L11.2507 15H11.6257H11.996L12.01 13.7391C12.0241 12.5485 12.0288 12.4688 12.1225 12.3469C12.3054 12.0985 12.4554 12.0235 12.7507 12.0235C13.046 12.0235 13.196 12.0985 13.3788 12.3469C13.4725 12.4688 13.4772 12.5438 13.4913 14.1141L13.5054 15.75H13.8757H14.246L14.26 14.4891C14.2741 13.2985 14.2788 13.2188 14.3725 13.0969C14.5554 12.8485 14.7054 12.7735 15.0007 12.7735C15.296 12.7735 15.446 12.8485 15.6288 13.0969C15.7225 13.2188 15.7272 13.2938 15.7413 14.8641L15.7554 16.5H16.1257H16.496L16.51 15.2391C16.5241 14.0485 16.5288 13.9688 16.6225 13.8469C16.8054 13.5985 16.9554 13.5235 17.2507 13.5235C17.546 13.5235 17.696 13.5985 17.8788 13.8469C17.9772 13.9735 17.9772 14.0203 17.9913 17.8969C18.0007 20.5641 17.9913 21.8766 17.9538 21.9938C17.8929 22.2047 17.635 22.4391 17.4147 22.4813L17.2507 22.5094V22.8844V23.2594L17.4757 23.2266C17.7522 23.1891 18.2022 22.95 18.3569 22.7672C18.4225 22.6922 18.5304 22.5188 18.6007 22.3875L18.7272 22.1485V18V13.8516L18.5679 13.5563C18.3897 13.2328 18.1929 13.0406 17.86 12.8813C17.56 12.736 16.9413 12.7313 16.646 12.8813C16.5288 12.9375 16.4304 12.9844 16.4257 12.9844C16.421 12.9844 16.3507 12.8672 16.271 12.7266C16.1257 12.4688 15.8725 12.2438 15.5632 12.1078C15.3007 11.986 14.6538 12 14.396 12.1313C14.2788 12.1875 14.1804 12.2344 14.1757 12.2344C14.1569 12.2344 13.871 11.7094 13.885 11.7C14.3913 11.3625 15.1132 10.6406 15.4554 10.125C16.8382 8.05784 16.8382 5.44221 15.4554 3.37502C15.3241 3.18284 15.0194 2.81721 14.771 2.56409C13.9319 1.70627 12.9475 1.15315 11.7663 0.885962C11.2132 0.759399 10.1491 0.731274 9.56317 0.825024ZM11.321 1.57034C12.9944 1.84221 14.4147 2.87815 15.1647 4.36877C15.9382 5.91096 15.9475 7.53752 15.1882 9.07034C14.86 9.73596 14.4522 10.2703 13.9366 10.711C13.36 11.2031 13.2288 11.2688 12.7554 11.2735C12.4929 11.2781 12.2913 11.311 12.1788 11.3625L12.0007 11.4375V10.8094C12.0007 10.2235 12.0054 10.1766 12.0944 10.1485C12.2819 10.0875 12.8772 9.66096 13.1444 9.39377C13.6788 8.8594 14.035 8.17971 14.185 7.41565C14.41 6.24377 14.0069 4.96877 13.1444 4.10627C11.6866 2.64846 9.31004 2.64377 7.85223 4.10159C6.1741 5.77971 6.4741 8.58752 8.46629 9.89065C8.65848 10.0172 8.86004 10.1344 8.90692 10.1485C8.99598 10.1766 9.00067 10.2281 9.00067 10.9781V11.775L8.8741 11.7422C8.67723 11.6953 7.92723 11.3344 7.6366 11.1469C6.90535 10.6781 6.25379 9.9469 5.84129 9.13596C5.05848 7.59846 5.05379 5.91096 5.83192 4.37346C6.35223 3.33284 7.15848 2.54534 8.22723 2.0344C9.22098 1.55627 10.2757 1.3969 11.321 1.57034ZM11.1335 3.82034C12.7225 4.15315 13.7679 5.77971 13.4304 7.37815C13.2897 8.04377 12.8257 8.76565 12.2866 9.1594C12.16 9.25315 12.0475 9.32815 12.0335 9.32815C12.0194 9.32815 12.0007 8.82659 11.9913 8.21252L11.9772 7.10159L11.8179 6.80627C11.6397 6.48284 11.4429 6.29065 11.11 6.13127C10.8007 5.98127 10.1913 5.98596 9.86785 6.14065C9.57254 6.28596 9.2866 6.56721 9.14129 6.86721C9.02879 7.09221 9.0241 7.13909 9.01004 8.21252L8.99598 9.32815L8.85067 9.25315C8.76629 9.21096 8.55067 9.02346 8.36317 8.83127C7.96473 8.43284 7.67879 7.90784 7.57098 7.38284C7.12567 5.25471 9.00535 3.37502 11.1335 3.82034Z" />
</svg>
