<svg width="20" height="16" viewBox="0 0 20 16" fill="white" xmlns="http://www.w3.org/2000/svg">
<path d="M12.8044 10C10.5252 10 5.97533 11.33 5.97533 14V16H19.6335V14C19.6335 11.33 15.0836 10 12.8044 10ZM5.1217 6V3H3.41442V6H0.853516V8H3.41442V11H5.1217V8H7.68261V6H5.1217ZM12.8044 8C13.71 8 14.5785 7.57857 15.2189 6.82843C15.8592 6.07828 16.219 5.06087 16.219 4C16.219 2.93913 15.8592 1.92172 15.2189 1.17157C14.5785 0.421427 13.71 0 12.8044 0C11.8988 0 11.0303 0.421427 10.39 1.17157C9.74963 1.92172 9.38988 2.93913 9.38988 4C9.38988 5.06087 9.74963 6.07828 10.39 6.82843C11.0303 7.57857 11.8988 8 12.8044 8Z" />
</svg>
