<svg width="28" height="28" viewBox="0 0 28 28" fill="#3031D9" xmlns="http://www.w3.org/2000/svg">
<path d="M12.6667 20.667H15.3334V15.3337H20.6667V12.667H15.3334V7.33366H12.6667V12.667H7.33335V15.3337H12.6667V20.667ZM14 27.3337C12.1556 27.3337 10.4222 26.9834 8.80002 26.283C7.1778 25.5834 5.76669 24.6337 4.56669 23.4337C3.36669 22.2337 2.41691 20.8225 1.71735 19.2003C1.01691 17.5781 0.666687 15.8448 0.666687 14.0003C0.666687 12.1559 1.01691 10.4225 1.71735 8.80033C2.41691 7.1781 3.36669 5.76699 4.56669 4.56699C5.76669 3.36699 7.1778 2.41677 8.80002 1.71633C10.4222 1.01677 12.1556 0.666992 14 0.666992C15.8445 0.666992 17.5778 1.01677 19.2 1.71633C20.8222 2.41677 22.2334 3.36699 23.4334 4.56699C24.6334 5.76699 25.5831 7.1781 26.2827 8.80033C26.9831 10.4225 27.3334 12.1559 27.3334 14.0003C27.3334 15.8448 26.9831 17.5781 26.2827 19.2003C25.5831 20.8225 24.6334 22.2337 23.4334 23.4337C22.2334 24.6337 20.8222 25.5834 19.2 26.283C17.5778 26.9834 15.8445 27.3337 14 27.3337ZM14 24.667C16.9778 24.667 19.5 23.6337 21.5667 21.567C23.6334 19.5003 24.6667 16.9781 24.6667 14.0003C24.6667 11.0225 23.6334 8.50032 21.5667 6.43366C19.5 4.36699 16.9778 3.33366 14 3.33366C11.0222 3.33366 8.50002 4.36699 6.43335 6.43366C4.36669 8.50032 3.33335 11.0225 3.33335 14.0003C3.33335 16.9781 4.36669 19.5003 6.43335 21.567C8.50002 23.6337 11.0222 24.667 14 24.667Z" />
</svg>
