<svg width="22" height="21" viewBox="0 0 22 21" fill="white" xmlns="http://www.w3.org/2000/svg">
<path fill-rule="evenodd" clip-rule="evenodd" d="M5.75 0C6.16421 0 6.5 0.335786 6.5 0.75V1.51272C7.16203 1.49999 7.8914 1.49999 8.69358 1.5H12.8064C13.6086 1.49999 14.338 1.49999 15 1.51272V0.75C15 0.335786 15.3358 0 15.75 0C16.1642 0 16.5 0.335786 16.5 0.75V1.57709C16.7599 1.59691 17.0061 1.62182 17.239 1.65313C18.4114 1.81076 19.3604 2.14288 20.1088 2.89124C20.8571 3.63961 21.1892 4.58855 21.3469 5.76098C21.3972 6.13567 21.431 6.54459 21.4537 6.99007C21.4837 7.07106 21.5 7.15861 21.5 7.25C21.5 7.31932 21.4906 7.38644 21.473 7.45016C21.5 8.25214 21.5 9.16275 21.5 10.1936V12.3064C21.5 14.1442 21.5 15.5998 21.3469 16.739C21.1892 17.9114 20.8571 18.8604 20.1088 19.6088C19.3604 20.3571 18.4114 20.6892 17.239 20.8469C16.0998 21 14.6442 21 12.8064 21H8.69359C6.85583 21 5.40019 21 4.26098 20.8469C3.08856 20.6892 2.13961 20.3571 1.39124 19.6088C0.64288 18.8604 0.310763 17.9114 0.153135 16.739C-2.81632e-05 15.5998 -1.55332e-05 14.1442 3.21616e-07 12.3064V10.1936C-8.55948e-06 9.16275 -1.64267e-05 8.25214 0.027009 7.45017C0.00940558 7.38645 6.79243e-07 7.31932 6.79243e-07 7.25C6.79243e-07 7.15862 0.0163446 7.07105 0.0462687 6.99006C0.0689542 6.54458 0.10276 6.13566 0.153135 5.76098C0.310763 4.58856 0.64288 3.63961 1.39124 2.89124C2.13961 2.14288 3.08856 1.81076 4.26098 1.65313C4.4939 1.62182 4.74006 1.59691 5 1.57709V0.75C5 0.335786 5.33579 0 5.75 0ZM1.51309 8C1.50032 8.65273 1.5 9.39599 1.5 10.25V12.25C1.5 14.1568 1.50159 15.5115 1.63976 16.5392C1.77502 17.5452 2.02869 18.1249 2.4519 18.5481C2.87511 18.9713 3.45476 19.225 4.46085 19.3602C5.48851 19.4984 6.84318 19.5 8.75 19.5H12.75C14.6568 19.5 16.0115 19.4984 17.0392 19.3602C18.0452 19.225 18.6249 18.9713 19.0481 18.5481C19.4713 18.1249 19.725 17.5452 19.8602 16.5392C19.9984 15.5115 20 14.1568 20 12.25V10.25C20 9.39599 19.9997 8.65273 19.9869 8H1.51309ZM19.9183 6.5H1.58168C1.5977 6.31061 1.61685 6.13123 1.63976 5.96085C1.77502 4.95476 2.02869 4.37511 2.4519 3.9519C2.87511 3.52869 3.45476 3.27502 4.46085 3.13976C5.48851 3.00159 6.84318 3 8.75 3H12.75C14.6568 3 16.0115 3.00159 17.0392 3.13976C18.0452 3.27502 18.6249 3.52869 19.0481 3.9519C19.4713 4.37511 19.725 4.95476 19.8602 5.96085C19.8831 6.13123 19.9023 6.31061 19.9183 6.5Z" />
<path d="M9.0174 10.9091L10.5824 13.6697L12.1612 10.9091H13.6708L11.4595 14.4545L13.6893 18H12.1797L10.5824 15.3501L8.9897 18H7.4755L9.68217 14.4545L7.5032 10.9091H9.0174Z" />
</svg>
