<svg width="20" height="20" viewBox="0 0 20 20" fill="white" xmlns="http://www.w3.org/2000/svg">
<path fill-rule="evenodd" clip-rule="evenodd" d="M3.07881 3.06891C6.87414 -0.721068 13.0438 -0.68077 16.8623 3.13778C20.6825 6.95797 20.7212 13.1313 16.9263 16.9262C13.1314 20.7211 6.95805 20.6824 3.13786 16.8622C0.874009 14.5984 -0.0608399 11.5099 0.340593 8.58123C0.396842 8.17085 0.775118 7.88377 1.18549 7.94002C1.59587 7.99627 1.88295 8.37455 1.8267 8.78493C1.48672 11.2652 2.27794 13.881 4.19852 15.8016C7.443 19.0461 12.6665 19.0646 15.8656 15.8655C19.0647 12.6664 19.0461 7.44292 15.8017 4.19844C12.5588 0.955615 7.33901 0.93539 4.13947 4.12957L4.88717 4.13333C5.30138 4.13541 5.63547 4.47288 5.63339 4.88709C5.63131 5.3013 5.29384 5.63539 4.87963 5.63331L2.33408 5.62052C1.92281 5.61845 1.58993 5.28556 1.58786 4.8743L1.57507 2.32874C1.57299 1.91454 1.90708 1.57707 2.32129 1.57498C2.7355 1.5729 3.07297 1.907 3.07505 2.32121L3.07881 3.06891ZM10 5.24992C10.4142 5.24992 10.75 5.58571 10.75 5.99992V9.68926L13.0303 11.9696C13.3232 12.2625 13.3232 12.7374 13.0303 13.0302C12.7374 13.3231 12.2626 13.3231 11.9697 13.0302L9.25 10.3106V5.99992C9.25 5.58571 9.58579 5.24992 10 5.24992Z" />
</svg>
