<svg width="24" height="24" viewBox="0 0 24 24" fill="white" xmlns="http://www.w3.org/2000/svg">
<path d="M1.46094 12.795V13.295V22.1289H6.49609V20.8848L6.51368 20.8907C7.82726 21.3276 9.70059 21.7113 11.5566 22.3751L11.6953 22.4239L11.8379 22.3907C12.4216 22.255 13.9872 21.7682 15.8613 21.1661C17.7355 20.564 19.8771 19.8555 21.4668 19.3067C22.229 19.0431 22.6355 18.1905 22.3555 17.4337V17.4317V17.4297C22.0612 16.6554 21.2114 16.314 20.4844 16.5371L15.582 18.0351C15.5776 17.5249 15.3225 17.0222 14.9082 16.6973L14.8828 16.6777L14.8555 16.6621C12.7617 15.4147 12.5805 15.2599 9.63672 13.6953L9.50196 13.623L9.34962 13.6387C8.34013 13.7467 6.63097 14.0285 6.4961 14.0508V12.7949L1.46094 12.795ZM2.46094 13.795H5.49609V21.1289H2.46094V13.795ZM9.30273 14.6543C11.9951 16.0882 12.3019 16.3052 14.293 17.4922C14.6071 17.7432 14.69 18.0502 14.498 18.3262C14.3939 18.4761 14.2917 18.5351 14.1406 18.5606C13.9911 18.5858 13.7812 18.5592 13.5449 18.4551C12.6443 18.0391 12.1562 17.7714 11.1641 17.2149L10.7285 16.9707L10.2402 17.8418L10.6758 18.0879C11.6712 18.6462 12.2009 18.9356 13.127 19.3633L13.129 19.3653H13.1329C13.5115 19.5342 13.9135 19.6114 14.3067 19.545C14.5267 19.5079 14.7372 19.4155 14.9258 19.2833L20.7774 17.4923C21.0099 17.4209 21.3199 17.5371 21.4161 17.7813C21.5069 18.0312 21.396 18.2731 21.1407 18.3614C19.5618 18.9064 17.4244 19.6149 15.5567 20.2149C13.7418 20.798 12.2129 21.2624 11.7227 21.3829C9.84961 20.7312 7.99264 20.3288 6.82816 19.9415L6.49614 19.8302V15.0665L6.57816 15.0528C6.57816 15.0528 8.29168 14.773 9.30277 14.6544L9.30273 14.6543Z" />
<path d="M16.0723 1.57617C12.506 1.57617 9.60352 4.47682 9.60352 8.04297C9.60352 11.6091 12.506 14.5117 16.0723 14.5117C19.6385 14.5117 22.5391 11.6091 22.5391 8.04297C22.5391 4.47682 19.6385 1.57617 16.0723 1.57617ZM16.0723 2.57617C16.2706 2.57617 16.48 2.66414 16.7227 2.90234C16.9654 3.14055 17.2172 3.52395 17.4316 4.02148C17.6661 4.56553 17.8514 5.24886 17.9766 6.00977H14.168C14.2931 5.24886 14.4784 4.56553 14.7129 4.02148C14.9273 3.52395 15.1792 3.14055 15.4219 2.90234C15.6646 2.66414 15.8739 2.57617 16.0723 2.57617ZM14.1602 2.92383C14.0291 3.14049 13.9048 3.37012 13.7949 3.625C13.5031 4.30206 13.2923 5.1183 13.1582 6.00977H10.998C11.5682 4.58435 12.7178 3.4607 14.1602 2.92383ZM17.9844 2.92383C19.4264 3.46072 20.5768 4.58429 21.1465 6.00977H18.9863C18.8523 5.1183 18.6414 4.30206 18.3496 3.625C18.2398 3.37012 18.1154 3.14049 17.9844 2.92383ZM10.7031 7.00977H10.7695H13.043C13.0185 7.34776 13 7.68931 13 8.04297C13 8.39663 13.0185 8.73818 13.043 9.07617H10.7695H10.7031C10.6393 8.74139 10.6035 8.39665 10.6035 8.04297C10.6035 7.68929 10.6393 7.3445 10.7031 7.00977ZM14.0449 7.00977H18.0996C18.1263 7.34587 18.1445 7.68843 18.1445 8.04297C18.1445 8.3975 18.1263 8.74006 18.0996 9.07617H14.0449C14.0182 8.74006 14 8.3975 14 8.04297C14 7.68843 14.0182 7.34587 14.0449 7.00977ZM19.1016 7.00977H21.375H21.4394C21.5032 7.3445 21.5391 7.68929 21.5391 8.04297C21.5391 8.39665 21.5032 8.74139 21.4394 9.07617H21.375H19.1016C19.126 8.73818 19.1445 8.39663 19.1445 8.04297C19.1445 7.68931 19.126 7.34776 19.1016 7.00977ZM10.998 10.0762H13.1582C13.2923 10.9676 13.5031 11.7839 13.7949 12.4609C13.9048 12.7158 14.0291 12.9454 14.1602 13.1621C12.718 12.6248 11.5681 11.5019 10.998 10.0762ZM14.168 10.0762H17.9766C17.8514 10.8371 17.6661 11.5204 17.4316 12.0645C17.2172 12.562 16.9654 12.9473 16.7227 13.1855C16.48 13.4237 16.2706 13.5117 16.0723 13.5117C15.8739 13.5117 15.6646 13.4237 15.4219 13.1855C15.1792 12.9473 14.9273 12.562 14.7129 12.0645C14.4784 11.5204 14.2931 10.8371 14.168 10.0762ZM18.9863 10.0762H21.1465C20.5768 11.5019 19.4263 12.6248 17.9844 13.1621C18.1154 12.9454 18.2398 12.7158 18.3496 12.4609C18.6414 11.7839 18.8523 10.9676 18.9863 10.0762Z" />
</svg>
