<svg width="20" height="19" viewBox="0 0 20 19" fill="white" xmlns="http://www.w3.org/2000/svg">
<path fill-rule="evenodd" clip-rule="evenodd" d="M18.7508 18.9395H11.4978C11.0838 18.9395 10.7478 18.6035 10.7478 18.1895C10.7478 17.7755 11.0838 17.4395 11.4978 17.4395H18.7508C19.1648 17.4395 19.5008 17.7755 19.5008 18.1895C19.5008 18.6035 19.1648 18.9395 18.7508 18.9395Z" />
<path fill-rule="evenodd" clip-rule="evenodd" d="M11.1106 2.01664L1.69558 13.7916C1.52458 14.0056 1.46158 14.2816 1.52458 14.5466L2.20558 17.4316L5.24458 17.3936C5.53358 17.3906 5.80058 17.2616 5.97758 17.0416C9.19458 13.0166 15.3276 5.34264 15.5016 5.11764C15.6656 4.85164 15.7296 4.47564 15.6436 4.11364C15.5556 3.74264 15.3246 3.42764 14.9916 3.22664C14.9206 3.17764 13.2356 1.86964 13.1836 1.82864C12.5496 1.32064 11.6246 1.40864 11.1106 2.01664ZM1.61358 18.9396C1.26658 18.9396 0.96458 18.7016 0.883579 18.3626L0.0645795 14.8916C-0.104421 14.1726 0.0635795 13.4306 0.524579 12.8546L9.94458 1.07264C9.94858 1.06864 9.95158 1.06364 9.95558 1.05964C10.9886 -0.175357 12.8566 -0.357357 14.1166 0.653643C14.1666 0.692643 15.8396 1.99264 15.8396 1.99264C16.4476 2.35464 16.9226 3.00164 17.1026 3.76764C17.2816 4.52564 17.1516 5.30764 16.7346 5.96864C16.7036 6.01764 16.6766 6.05964 7.14858 17.9796C6.68958 18.5516 6.00158 18.8846 5.26258 18.8936L1.62358 18.9396H1.61358Z" />
</svg>
