<svg width="20" height="20" viewBox="0 0 80 60" fill="none" xmlns="http://www.w3.org/2000/svg">
<g clip-path="url(#clip0_376_15890)">
<path fill-rule="evenodd" clip-rule="evenodd" d="M-5 0H85V60H-5V0Z" fill="#199D00"/>
<path fill-rule="evenodd" clip-rule="evenodd" d="M17.6757 17.0039C17.582 18.4102 17.4414 20.8711 18.6484 21.1289C20.0898 21.2695 19.2929 18.6914 19.8203 18.2227C19.914 17.9883 20.0898 17.9883 20.1015 18.2813V20.4727C20.1015 21.1758 20.5703 21.3867 20.9218 21.5274C21.2968 21.5039 21.5546 21.5274 21.6953 21.8789L21.8828 25.6641C21.8828 25.6641 22.75 25.9219 22.7968 23.543C22.832 22.1367 22.5156 20.9766 22.7031 20.707C22.7031 20.4375 23.0546 20.4258 23.289 20.5547C23.664 20.8125 23.8281 21.1406 24.414 21.0234C25.3046 20.7656 25.8437 20.332 25.8554 19.6524C25.8378 18.9844 25.6989 18.3252 25.4453 17.707C25.4921 17.5899 25.2812 17.2734 25.3281 17.1563C25.4804 17.4141 25.7265 17.3906 25.7734 17.1563C25.6211 16.6641 25.3867 16.1836 25.0117 15.9844C24.6953 15.7031 24.2265 15.75 24.0742 16.3359C23.9804 17.0039 24.3086 17.7891 24.789 18.4453C24.8945 18.6914 25.0351 19.1133 24.9765 19.4883C24.7187 19.6406 24.4609 19.5703 24.2382 19.3477C24.2382 19.3477 23.5351 18.8203 23.5351 18.6914C23.7226 17.4961 23.5703 17.3555 23.4648 17.0156C23.3945 16.5586 23.1718 16.4063 22.9961 16.1016C22.8203 15.9141 22.5859 15.9141 22.4687 16.1016C22.1523 16.6406 22.3046 17.8008 22.5273 18.3281C22.6914 18.8086 22.9375 19.1133 22.8203 19.1133C22.7265 19.3828 22.5273 19.3125 22.375 18.9961C22.2035 18.3302 22.1207 17.6446 22.1289 16.957C22.0703 16.418 22 15.2695 21.6367 14.9649C21.4257 14.6836 21.1093 14.8242 20.9921 15.082C20.9612 15.6056 20.973 16.1307 21.0273 16.6524C21.2617 17.5195 21.3437 18.293 21.4609 19.1719C21.4961 20.3555 20.7812 19.6875 20.8164 19.0899C20.9701 18.3385 20.9581 17.5627 20.7812 16.8164C20.664 16.5117 20.5351 16.4414 20.2421 16.4883C20.0195 16.4883 19.4453 17.1094 19.2812 18.1641C19.2812 18.1641 19.1406 18.7031 19.082 19.1836C19 19.7227 18.6484 20.1211 18.3906 19.1133C18.1796 18.375 18.039 16.582 17.6875 17.0039H17.6757Z" fill="white"/>
<path fill-rule="evenodd" clip-rule="evenodd" d="M21.6016 22.7578L17.8516 24.5625C17.8867 23.707 19.6211 22.1719 20.8164 22.1602C21.5781 22.1719 21.3906 22.4531 21.5898 22.7578H21.6016Z" fill="white"/>
<path fill-rule="evenodd" clip-rule="evenodd" d="M20.9336 23.9297C18.9649 29.0273 25.5625 29.7422 26.3008 24.1406C26.3711 23.9063 26.6524 23.6836 26.6993 24.0586C26.5469 29.1328 21.5899 29.4727 20.7461 27.8789C20.5477 27.3305 20.4484 26.7512 20.4532 26.168C20.336 25.1719 19.8086 25.5586 19.7266 26.543C19.6446 27.0938 19.668 27.2461 19.668 27.7734C19.9258 31.7813 26.3125 30.0586 27.3555 26.7539C27.9063 24.9258 27.2618 23.5781 27.5547 23.5781C28.1875 24.2578 29.0782 23.6719 29.2774 23.4375C29.3594 23.3203 29.5704 23.2383 29.711 23.3906C30.2032 23.7422 31.0704 23.5781 31.2579 22.957C31.3633 22.3359 31.4454 21.7031 31.4688 21.0586C31.0586 21.1758 30.7657 21.2578 30.7305 21.4336L30.6485 21.9727C30.6133 22.1484 30.2735 22.1484 30.25 21.9258C30.0977 21.2227 29.4649 21.1406 29.0782 22.2188C28.8321 22.4297 28.3633 22.4766 28.3165 22.1602C28.375 21.4336 28.0821 21.3398 27.4961 21.6797L26.9336 17.4375C27.168 17.4375 27.4024 17.6133 27.625 17.332C27.3907 16.5703 26.8633 15.0234 26.5704 14.9063C26.4415 14.7422 26.3243 14.8477 26.1368 14.8945C25.8321 14.9883 25.5508 15.2461 25.6446 15.7617C25.9961 17.9648 26.2305 19.6406 26.5938 21.8555C26.6524 22.1016 26.4415 22.4414 26.1602 22.4063C25.6915 22.0898 25.5743 21.4453 24.754 21.4688C24.168 21.4688 23.5118 22.1133 23.4297 22.7227C23.3243 23.2148 23.2891 23.7422 23.4297 24.1641C23.8399 24.6563 24.3321 24.6094 24.7657 24.5039C25.1172 24.3516 25.4102 24 25.5391 24.082C25.6211 24.1875 25.5508 25.3594 23.8633 26.25C22.8438 26.7188 22.0235 26.8125 21.5899 25.9805C21.3204 25.4531 21.6133 23.4727 20.9336 23.9297Z" fill="white"/>
<path fill-rule="evenodd" clip-rule="evenodd" d="M29.336 18.75C29.7227 18.6094 31.5977 16.4531 31.5977 16.4531L31.3164 16.2188C31.211 16.1367 31.2227 16.043 31.3164 15.9609C31.7852 15.6797 31.6328 15.0938 31.3985 14.8125C31.2393 14.7349 31.0643 14.6956 30.8873 14.6976C30.7103 14.6997 30.5362 14.743 30.3789 14.8242C30.0508 15.1406 29.9805 15.6445 30.2383 15.9492C30.4844 16.0664 30.7305 16.3242 30.5664 16.4648C29.793 17.2852 27.6953 18.7031 27.9414 18.75C27.9883 18.8203 29.2891 18.8203 29.3242 18.75H29.336ZM17.9688 26.3672C17.2656 27.4922 17.207 29.168 17.5938 29.6719C17.8047 29.9063 18.1445 30.0117 18.3906 29.9297C18.836 29.7422 19.0352 28.8398 18.9297 28.5234C18.7774 28.2891 18.6602 28.2539 18.5078 28.4414C18.2031 29.0742 18.0742 28.6406 18.0391 28.2891C18.0055 27.6937 18.0369 27.0964 18.1328 26.5078C18.2149 26.0156 18.1328 26.1563 17.9688 26.3672ZM48.0977 24.5742C47.418 23.0977 46.4688 21.6445 46.1758 21.0938C45.2626 19.6501 44.2931 18.2427 43.2695 16.875C42.543 16.0078 44.4649 17.2383 43.0352 15.5039L41.9922 14.625C41.7578 14.4609 41.1953 14.1563 41.1016 14.6484C41.0547 15.0938 41.0781 15.3281 41.1485 15.6914C41.207 15.9258 41.5586 16.3359 41.7344 16.5703C44.1369 19.7525 46.247 23.1452 48.0391 26.707C48.3438 26.5547 48.2735 24.8203 48.0977 24.5742Z" fill="white"/>
<path fill-rule="evenodd" clip-rule="evenodd" d="M45.1093 29.4727C44.9687 29.625 45.4375 30.2695 46.0468 30.2695C47.0547 30.1524 47.9453 29.5899 48.7656 28.0899C49.0989 27.5909 49.3116 27.0212 49.3867 26.4258C49.4859 23.581 49.2579 20.7342 48.707 17.9414C48.6718 17.707 48.707 17.4258 48.7304 17.3555C48.8007 17.2735 49.0234 17.3555 49.1406 17.1563C49.3164 16.9805 48.6718 15.5156 48.3203 14.9649C48.2031 14.707 48.1445 14.543 47.9336 14.9883C47.679 15.4797 47.5578 16.0292 47.582 16.582C48.0625 19.9219 48.2148 22.8399 48.5195 26.1797C48.5547 26.5078 48.5078 26.9766 48.2851 27.1641C47.4009 28.1486 46.3187 28.9353 45.1093 29.4727ZM58.7617 29.4609C58.0351 29.8828 58.0351 30.3633 58.6211 30.375C59.6289 30.2578 60.8242 30.1758 61.6445 28.9336C61.9342 28.3485 62.1017 27.7106 62.1367 27.0586C62.2842 24.2576 62.0993 21.4489 61.5859 18.6914C61.5625 18.457 61.457 17.9063 61.4922 17.8359C61.5625 17.6719 61.8906 17.8477 62.0078 17.6602C62.1718 17.4844 61.1523 16.1719 60.789 15.6094C60.6718 15.3516 60.625 15.1875 60.4023 15.6328C60.1663 16.1287 60.0925 16.6864 60.1914 17.2266C60.7304 20.8594 61.1289 23.5781 61.2109 26.7891C61.164 27.0938 61.1523 27.2578 61.0117 27.6445C60.6953 28.043 60.3437 28.5586 60.0156 28.8047C59.6875 29.0391 58.9843 29.2734 58.7617 29.4609Z" fill="white"/>
<path fill-rule="evenodd" clip-rule="evenodd" d="M59.3008 26.2148C59.3008 25.3594 59.3125 24.6328 59.2891 23.9883C59.2815 23.4424 59.1618 22.9039 58.9375 22.4062C58.7266 21.9258 58.8555 21.539 58.75 21.0234C58.6562 20.5078 58.6797 19.7344 58.5391 19.1367C58.4922 18.9023 58.375 18.1406 58.4102 18.0586C58.4687 17.8945 58.6914 18.0586 58.8086 17.8711C58.9727 17.6953 58.2226 15.7617 57.8476 15.2109C57.7187 14.9648 57.4609 15.0469 57.168 15.4453C56.875 15.7148 56.9805 16.3125 57.0977 16.8867C57.8125 20.6719 58.3633 24.1055 58.2461 27.7031C58.1992 28.0078 59.3008 26.789 59.3008 26.2148ZM53.9453 21.5273C53.4883 21.5039 52.5391 20.625 52.2578 20.1211C52.2118 19.9979 52.1922 19.8665 52.2002 19.7352C52.2083 19.604 52.2439 19.4759 52.3047 19.3594C52.4805 19.2422 52.7383 19.125 52.9375 19.2422C52.9375 19.2422 53.1367 19.5234 53.1016 19.5586C53.3359 19.6758 53.4531 19.6172 53.4766 19.5117C53.4883 19.3359 53.4062 19.2305 53.4062 19.043C53.5117 18.5039 54.1094 18.4219 54.3437 18.7617C54.5078 18.9726 54.5781 19.4062 54.5898 19.6992C54.5898 19.8516 54.3555 19.6758 54.2031 19.6992C54.0742 19.7461 54.0391 19.9101 54.0273 20.0508C54.0039 20.4375 53.957 21.0586 53.9453 21.5156V21.5273ZM45.5312 27.1523C45.6484 26.0039 45.4844 23.9531 45.4727 23.2734C45.41 21.5254 45.2653 19.7813 45.0391 18.0469C44.8984 17.0625 45.4375 18.1523 45.3672 17.5781C45.1914 16.6055 44.6523 15.9375 44.0078 15.0586C43.8086 14.7656 43.8086 14.707 43.4922 15.1289C43.1406 15.9141 43.4453 16.4648 43.5391 17.0859C43.9961 19.1016 44.2656 20.9531 44.3945 22.793C44.5295 24.7042 44.5451 26.622 44.4414 28.5351C44.793 28.5469 45.332 27.9844 45.5312 27.1523Z" fill="white"/>
<path fill-rule="evenodd" clip-rule="evenodd" d="M60.8594 25.3125C60.0508 23.9531 58.8438 22.5 58.5157 21.9492C57.429 20.4317 56.2876 18.9542 55.0938 17.5195C54.0977 16.4648 55.5625 17.3437 54.9063 16.5234C54.3555 15.9258 54.2032 15.7266 53.7227 15.3633C53.4883 15.2109 53.3477 14.918 53.2539 15.4219C53.2166 15.8583 53.2088 16.2968 53.2305 16.7344C53.2305 16.9336 53.4414 17.3203 53.6289 17.5547C56.0547 20.543 58.7149 23.5898 60.8477 27.4219C61.1524 27.2695 61.0469 25.5469 60.8477 25.3125H60.8594Z" fill="white"/>
<path fill-rule="evenodd" clip-rule="evenodd" d="M24.3672 22.8164C24.3086 22.9219 24.1797 23.0508 24.2266 23.1797C24.3086 23.2969 24.3907 23.332 24.5313 23.332C24.6602 23.332 24.8477 23.3672 24.8829 23.2969C24.9532 23.2148 25 23.0625 24.9532 22.9102C24.8125 22.5586 24.4375 22.6992 24.3672 22.8164Z" fill="#1BA400"/>
<path fill-rule="evenodd" clip-rule="evenodd" d="M51.5078 42.4805C52.5859 42.5273 53.2891 42.539 54.2383 42.6445L55.3633 42.5273C56.6055 42.4101 56.6523 44.2969 56.6523 44.2969C56.6523 45.4101 56.2188 45.4687 55.668 45.5859C55.3516 45.6328 55.1992 45.3984 55.0234 45.164C54.7584 45.249 54.4761 45.2651 54.2031 45.2109C53.7461 45.1875 53.3008 45.1875 52.8555 45.1523C52.3867 45.1172 52.1289 45.2109 51.6484 45.164C51.5547 45.3164 51.4141 45.5273 51.1328 45.4687C50.8984 45.4336 50.6055 44.7656 50.6875 44.2383C50.8633 43.8633 50.8047 43.9922 50.8047 43.8281C46.3984 43.7109 41.957 43.5117 37.6445 43.5703C34.2695 43.582 30.9414 43.7226 27.6016 43.8633C25.8203 43.8398 24.4609 43.5586 23.5234 42.1875C23.6172 42.1875 28.0703 42.4336 29.3711 42.3515C31.7734 42.3281 33.9766 42.1289 36.4258 42.0586C41.2539 42.1406 46.0469 42.1406 50.875 42.4805C50.4062 42.164 50.4062 41.4258 51.1094 41.2383C51.168 41.1914 51.2031 41.6015 51.3086 41.5898C51.8828 41.5547 51.625 42.3281 51.5078 42.4805ZM32.1016 15.8555C31.375 17.9414 32.5234 20.2383 33.3203 20.0156C33.9062 20.25 34.2578 19.1484 34.4922 17.9531C34.668 17.6133 34.7852 17.5781 34.8672 17.7539C34.8437 19.3476 34.9844 19.7109 35.3945 20.1914C36.3086 20.8945 37.0703 20.2851 37.1289 20.2266L37.832 19.5117C37.9961 19.3359 38.207 19.3359 38.4297 19.4765C38.6523 19.6758 38.6172 20.0156 39.0859 20.25C39.4844 20.4141 40.3164 20.2969 40.5156 19.957C40.7734 19.5 40.8438 19.3476 40.9609 19.1836C41.1484 18.9375 41.4648 19.043 41.4648 19.125C41.4297 19.2656 41.2422 19.3945 41.3711 19.6523C41.6055 19.8164 41.6523 19.7109 41.7813 19.6758C42.25 19.4414 42.6016 18.4336 42.6016 18.4336C42.6133 18.0586 42.4023 18.082 42.2617 18.1758L41.8984 18.4219C41.6641 18.457 41.2305 18.6094 41.0078 18.2695C40.7852 17.8711 40.7852 17.2969 40.6211 16.8867C40.6211 16.8633 40.3164 16.2422 40.5977 16.207C40.7383 16.2305 41.0313 16.3125 41.0781 16.0664C41.2188 15.8203 40.7734 15.1289 40.457 14.7773C40.1875 14.4844 39.8125 14.4492 39.4492 14.7539C39.1914 14.9883 39.2266 15.2461 39.1797 15.4922C39.1352 15.6685 39.1333 15.8529 39.174 16.0302C39.2148 16.2074 39.2971 16.3725 39.4141 16.5117C39.6719 17.0039 40.1289 17.6484 39.9766 18.5625C39.9766 18.5625 39.707 18.9844 39.2383 18.9258C39.0391 18.8906 38.7227 18.8086 38.5586 17.543C38.4297 16.6055 38.582 15.2695 38.1836 14.6484C38.0312 14.2617 37.9258 13.8984 37.5742 14.543C37.4805 14.8008 37.0703 15.1875 37.3633 15.9726C37.6405 16.6802 37.7215 17.4495 37.5977 18.1992C37.4219 18.457 37.3867 18.5391 37.1641 18.7851C36.8594 19.1367 36.5195 19.043 36.2617 18.914C36.0273 18.7617 35.8398 18.6797 35.7227 18.1523C35.7461 17.332 35.793 15.9844 35.6406 15.7031C35.418 15.2578 35.0547 15.4219 34.9023 15.5625C34.2052 16.3369 33.7385 17.2908 33.5547 18.3164C33.3437 18.9961 33.1211 18.7969 32.9687 18.5273C32.5937 18.1758 32.5586 15.3984 32.1016 15.8555Z" fill="white"/>
<path fill-rule="evenodd" clip-rule="evenodd" d="M34.3047 20.4023C34.6445 20.168 34.4922 20.0039 34.9844 20.4961C35.6197 21.6202 35.9885 22.875 36.0625 24.1641C36.0391 24.4688 36.25 24.6563 36.3555 24.5859C36.4024 23.8828 38.125 22.8984 39.707 22.7578C39.9414 22.6992 39.8242 22.2422 39.8594 22.0078C39.7656 21.1289 40.3516 20.332 41.1719 20.2734C42.2969 20.4375 42.6719 21.0352 42.6953 21.9375C42.5664 23.6953 40.7383 23.9883 39.7188 24.1289C39.5664 24.1875 39.4961 24.2578 39.7188 24.3398L44.0078 24.3633L44.2305 24.4805C44.2539 24.5977 44.1602 24.5039 43.9961 24.7852C43.7602 25.1997 43.6125 25.6585 43.5625 26.1328C42.2852 26.5547 40.961 26.7188 39.625 26.8945C39.1563 27.1289 38.9219 27.4453 39.0156 27.7969C39.1797 28.1836 40.2109 28.582 40.2109 28.5938C40.4102 28.7109 40.6328 29.0039 40.1524 29.6016C38.0664 29.5078 36.4375 28.6172 35.875 27.3633C35.711 27.2344 35.5235 27.3633 35.4063 27.5273C34.586 28.582 33.7891 29.5195 32.3945 30.0352C31.5742 30.2461 30.7188 29.9063 30.3203 29.3672C30.0508 29.0508 30.0625 28.7109 29.9688 28.6406C29.5117 28.8398 25.6445 30.4805 26.1367 29.707C27.0742 28.7109 28.7149 27.9609 30.1445 26.9766C30.25 26.6367 30.4375 25.5117 31 25.1484C31.0352 25.1484 30.918 25.8047 30.9297 26.0859C30.9297 26.3203 30.9063 26.4023 30.9531 26.3438C31.0586 26.2852 32.793 24.9141 32.9453 24.4922C33.1094 24.2578 32.9805 23.6484 32.9805 23.625C32.6524 22.7813 32.1953 22.7109 32.0313 22.2891C31.8789 21.7383 31.9492 21.1055 32.2656 20.918C32.5469 20.6719 32.875 20.6953 33.1914 20.9766C33.543 21.293 33.8477 21.9141 33.9414 22.3711C33.8828 22.5469 33.4727 22.2539 33.3555 22.3359C33.581 22.5951 33.731 22.9113 33.7891 23.25C34.0235 24.2109 33.9531 24.5859 33.7188 25.207C32.9453 26.8359 31.961 27.3164 31.0938 27.9258C31.0703 27.9258 31.0586 28.3359 31.375 28.5586C31.4922 28.6758 31.9492 28.7344 32.4766 28.5586C33.6032 27.9329 34.5142 26.9811 35.0899 25.8281C35.1894 24.9508 35.0934 24.0623 34.8086 23.2266C34.4688 22.4414 34.0703 21.3281 34.0703 21.3047C34.0586 20.8125 34.0938 20.6484 34.3047 20.4023ZM23.0781 15.8789C23.5703 16.1133 24.5078 16.0078 24.461 15.2109L24.4375 14.8477C24.3438 14.6133 24.0625 14.6719 24.0039 14.9063C23.9805 14.9883 24.0391 15.1172 23.9688 15.1523C23.9219 15.1992 23.7695 15.1758 23.7695 14.9531C23.7695 14.8828 23.7227 14.8125 23.6875 14.7656C23.6641 14.7422 23.6406 14.7422 23.582 14.7422C23.5117 14.7422 23.5117 14.7539 23.4766 14.8125C23.4649 14.8711 23.4414 14.9297 23.4414 15C23.4414 15.082 23.3945 15.1055 23.3477 15.1172C23.2774 15.1172 23.2891 15.1172 23.2305 15.0938C23.207 15.0586 23.1719 15.0469 23.1719 14.9766L23.1367 14.7891C23.1133 14.7539 23.0664 14.7305 23.0195 14.7188C22.75 14.7188 22.7266 15.0352 22.75 15.1523C22.7266 15.1758 22.7149 15.7266 23.0781 15.8789Z" fill="white"/>
<path fill-rule="evenodd" clip-rule="evenodd" d="M37.5508 21.9961C38.043 22.2305 39.2266 22.1016 38.9336 21.3398L38.9102 20.9648C38.8047 20.7305 38.5352 20.7891 38.4766 21.0351C38.4532 21.1055 38.5118 21.2344 38.4297 21.2695C38.3946 21.3164 38.2305 21.293 38.2422 21.082C38.2422 21.0117 38.1954 20.9297 38.1602 20.8828C38.1251 20.8711 38.1133 20.8594 38.043 20.8594C37.9844 20.8594 37.9844 20.8828 37.9493 20.9414C37.9258 21 37.9141 21.0586 37.9141 21.1289C37.9024 21.1992 37.8672 21.2226 37.8086 21.2461C37.7501 21.2461 37.7618 21.2461 37.7149 21.2109C37.6797 21.1758 37.6446 21.1641 37.6446 21.1055L37.6094 20.918C37.586 20.8828 37.5391 20.8594 37.4922 20.8476C37.2227 20.8476 37.1993 21.1523 37.211 21.2695C37.1993 21.293 37.1876 21.8555 37.5626 21.9961H37.5508ZM45.9883 19.4648C46.4805 19.6992 47.4063 19.5937 47.3711 18.8086L47.3477 18.4336C47.2422 18.1992 46.9727 18.2578 46.9141 18.4922C46.8907 18.5742 46.9493 18.7031 46.8672 18.75C46.8321 18.7851 46.668 18.7617 46.6797 18.5391C46.6797 18.4687 46.6329 18.3984 46.5977 18.3516C46.5626 18.3281 46.5508 18.3281 46.4805 18.3281C46.4219 18.3281 46.4219 18.3516 46.3868 18.4101L46.3516 18.5859C46.3399 18.668 46.3047 18.7031 46.2461 18.7031C46.1876 18.7031 46.1993 18.7031 46.1524 18.6797C46.1172 18.6445 46.0821 18.6328 46.0821 18.5742C46.0821 18.5156 46.0704 18.4219 46.0469 18.375C46.0235 18.3398 45.9766 18.3281 45.9297 18.3164C45.6602 18.3164 45.6368 18.6211 45.6485 18.7383C45.6368 18.7617 45.6251 19.3125 46.0001 19.4648H45.9883ZM50.3594 25.8281C49.504 26.8008 49.879 28.4062 50.0782 28.7578C50.3594 29.3203 50.5821 29.6836 51.1329 29.9648C51.6368 30.3281 52.0352 30.1055 52.2461 29.8476C52.7501 29.3203 52.7618 27.9726 52.9961 27.7148C53.1602 27.2226 53.5821 27.3047 53.7813 27.5273C53.9677 27.7919 54.2175 28.0055 54.5079 28.1484C54.9766 28.5586 55.5391 28.6406 56.1016 28.2656C56.4766 28.043 56.7227 27.7734 56.9454 27.2226C57.1797 26.5664 57.0626 23.5195 57.004 21.7148L56.5118 19.1953C56.5118 19.1719 56.4532 18 56.3946 17.7305C56.3946 17.6133 56.3594 17.5781 56.4766 17.5898C56.6055 17.707 56.6172 17.707 56.711 17.7422C56.8282 17.7656 56.9454 17.543 56.8633 17.3555L55.6915 15.1758C55.5977 15.082 55.4688 14.9883 55.3165 15.1992C55.2266 15.2806 55.155 15.3801 55.1065 15.4912C55.0581 15.6024 55.0337 15.7225 55.0352 15.8437C55.0704 16.3594 55.1524 16.8867 55.1876 17.4023L55.6563 20.0508C55.8086 21.9258 55.8438 23.4726 55.9961 25.3594C55.9727 26.1562 55.7266 26.8476 55.4922 26.9531C55.4922 26.9531 55.1407 27.1523 54.9063 26.9297C54.7305 26.8594 54.0391 25.7695 54.0391 25.7695C53.6876 25.4531 53.4532 25.5351 53.2071 25.7695C52.504 26.4492 52.1993 27.6914 51.7188 28.5586C51.6016 28.7578 51.2501 28.9101 50.8751 28.5469C49.9141 27.2226 50.4766 25.3476 50.3594 25.8281ZM46.211 14.8476C46.6563 15.0234 46.961 15.9258 46.8672 16.3711C46.7735 16.8984 46.5391 17.4844 46.3751 17.4141C46.1876 17.3437 46.4922 16.875 46.3165 16.3828C46.2227 16.0547 45.6133 15.4687 45.6836 15.3047C45.5665 14.9414 45.9415 14.7773 46.211 14.8359V14.8476Z" fill="white"/>
<path fill-rule="evenodd" clip-rule="evenodd" d="M51.7891 26.3672C51.8712 25.2891 51.7188 24.6328 51.6954 24C51.6719 23.3672 50.9805 18.5391 50.8399 18.0703C50.6641 17.1563 51.5079 17.9531 51.4141 17.4141C51.1212 16.7578 50.4063 15.7852 50.1837 15.211C50.043 14.9766 50.1016 14.7422 49.7969 15.1524C49.5346 15.8715 49.4423 16.6416 49.5274 17.4024C50.254 21.1875 50.9922 24.3281 50.8751 27.9258C51.2266 27.9258 51.6133 27.1406 51.7891 26.3672ZM59.336 16.3711C59.7462 16.5703 59.9805 17.6953 59.9337 18.0117C59.8516 18.5977 59.6407 19.2305 59.4883 19.1484C59.3126 19.0781 59.5235 18.2813 59.4415 18.0352C59.3477 17.6836 58.7969 17.0508 58.8555 16.8633C58.7383 16.4649 59.0899 16.3008 59.336 16.3711ZM29.3712 24.3281C29.7579 24.4805 29.9922 25.3008 29.9571 25.5352C29.8633 25.9688 29.6641 26.4375 29.5118 26.3672C29.3594 26.3203 29.5469 25.7344 29.4766 25.5469C29.4415 25.1133 28.9024 24.8789 28.9141 24.6914C28.8204 24.3399 29.1485 24.2813 29.3829 24.3281H29.3712Z" fill="white"/>
<path fill-rule="evenodd" clip-rule="evenodd" d="M38.6992 25.5703C39.1914 25.5938 39.4375 25.9922 38.9805 26.1563C38.5117 26.3086 38.0781 26.4375 38.0664 27.0938C38.2422 28.0313 37.832 27.7031 37.5977 27.5859C37.3164 27.375 36.5195 26.8828 36.4023 25.8281C36.3906 25.582 36.5898 25.3594 36.9063 25.3594C37.375 25.4883 38.0781 25.5 38.6992 25.5703Z" fill="#1B9D00"/>
<path fill-rule="evenodd" clip-rule="evenodd" d="M19.0703 14.5781C19.6328 14.7422 19.668 15.5859 19.6328 15.832C19.5508 16.2773 19.3516 16.7578 19.211 16.6992C19.0469 16.6406 19.211 16.0312 19.1289 15.8437C19.0469 15.5859 18.5664 15.0937 18.6133 14.9531C18.5078 14.6601 18.8477 14.5195 19.0703 14.5781ZM30.3086 18.5156C29.8633 18.75 29.6992 19.4531 29.9688 19.875C30.2266 20.2266 30.625 20.0977 30.6719 20.0977C31.1055 20.1445 31.3633 19.2891 31.3633 19.2891C31.3633 19.2891 31.375 19.0547 30.8711 19.5117C30.6485 19.5469 30.6367 19.4648 30.5781 19.3477C30.5245 19.1245 30.5451 18.89 30.6367 18.6797C30.7188 18.4687 30.5547 18.375 30.3086 18.5156ZM33.5899 14.25C33.3555 14.4023 32.9219 14.8594 32.9102 15.375C32.8985 15.668 32.8399 15.668 33.0274 15.8437C33.1797 16.0547 33.3086 16.043 33.5899 15.8906C33.6599 15.8465 33.7201 15.7883 33.7665 15.7197C33.8129 15.6511 33.8445 15.5736 33.8594 15.4922C33.9297 15.1641 33.5078 15.6562 33.461 15.2812C33.3672 14.9297 33.6367 14.7891 33.8945 14.4609C33.8945 14.2266 33.8945 14.0742 33.5781 14.25H33.5899ZM36.2149 14.7187C36.1115 15.1455 36.0488 15.581 36.0274 16.0195C35.9571 16.3476 36.3789 16.4883 36.5547 16.0664C36.836 15.3047 36.836 14.9766 36.8594 14.6601C36.7774 14.1562 36.4375 14.168 36.2149 14.7187ZM52.8555 23.1914C52.9024 23.1328 55.1992 21.5039 55.1992 21.5039C55.4336 21.4219 55.375 22.3477 55.2695 22.3359C54.5572 23.0224 53.7379 23.5884 52.8438 24.0117C52.7266 24.0937 52.6211 23.3906 52.8438 23.1914H52.8555ZM54.9297 23.168C55.3399 23.3672 55.5039 24.5508 55.457 24.8672C55.457 25.5 55.0703 25.9922 54.9063 25.9219C54.7422 25.8398 54.9297 25.1367 54.8477 24.8906C54.7539 24.5391 54.4141 23.8945 54.4727 23.707C54.3555 23.3086 54.6836 23.0976 54.9414 23.168H54.9297ZM41.336 28.2539C41.526 28.032 41.7471 27.8386 41.9922 27.6797C42.2266 27.5625 42.4375 27.7734 42.4258 27.7617C42.461 27.9961 42.2852 28.1953 42.3438 28.5C42.3906 28.6172 42.4258 28.7578 42.6485 28.7109C43.0117 28.418 43.3516 28.3945 43.7031 28.3828C43.9961 28.3945 44.0078 28.875 43.8203 28.875C43.1524 29.0156 42.8594 29.2031 42.3789 29.3789C42.1445 29.5195 41.9571 29.3437 41.9571 29.332C41.9571 29.3203 41.8281 29.2031 41.9102 28.8984C41.9336 28.6641 41.8399 28.5234 41.6289 28.5469C41.4883 28.6406 41.3477 28.6875 41.2774 28.5117C41.2422 28.3945 41.2305 28.3242 41.336 28.2539ZM57.3438 28.8867C57.4375 29.0039 57.5078 29.1211 57.332 29.332L56.8985 29.707C56.8281 29.8242 56.7813 30.0351 57.0156 30.0937C57.4375 30.2109 58.4219 29.5664 58.4219 29.5547C58.586 29.4375 58.5391 29.2031 58.5156 29.2031C58.4219 29.0977 58.211 29.168 58.0703 29.1445C58 29.1445 57.7774 29.1211 57.8828 28.9101C57.9615 28.8066 58.0247 28.6921 58.0703 28.5703C58.1289 28.4297 58.0703 28.3359 57.836 28.2539C57.5899 28.207 57.4844 28.2305 57.2149 28.2539C57.0742 28.2773 57.0274 28.3476 56.9922 28.5234C57.0039 28.793 57.168 28.7812 57.3438 28.875V28.8867Z" fill="white"/>
<path fill-rule="evenodd" clip-rule="evenodd" d="M41.4179 22.2305C41.3593 22.3476 41.1484 22.3476 40.9492 22.2305C40.7499 22.1133 40.6328 21.9258 40.7031 21.8203C40.7734 21.7148 40.9726 21.7148 41.1718 21.8203C41.371 21.9258 41.4765 22.125 41.4179 22.2305ZM30.9882 15.9492C30.871 15.9844 30.707 15.8789 30.6367 15.7148C30.5663 15.5508 30.6015 15.4101 30.7187 15.375C30.8359 15.3398 30.9882 15.457 31.0703 15.6094C31.1523 15.7617 31.1054 15.9258 30.9765 15.9609L30.9882 15.9492Z" fill="#259F00"/>
<path fill-rule="evenodd" clip-rule="evenodd" d="M51.6251 43.9453C52.7266 43.9922 53.7579 43.9453 54.8477 44.0039C55.0469 44.1797 54.9063 44.5898 54.7774 44.5664L53.8633 44.5312C53.8516 44.1797 52.961 44.2383 52.9844 44.543C52.504 44.6016 52.0704 44.5312 51.5782 44.5078C51.4376 44.332 51.461 44.0156 51.6251 43.9453Z" fill="#209000"/>
</g>
<defs>
<clipPath id="clip0_376_15890">
<rect width="80" height="60" fill="white"/>
</clipPath>
</defs>
</svg>
