<svg width="22" height="16" viewBox="0 0 22 16" fill="#F77D4E" xmlns="http://www.w3.org/2000/svg">
<path d="M4.4649 0.551614C4.38053 0.575051 4.00553 0.912551 3.47115 1.44693L2.61803 2.30005L2.32272 2.0188C1.97584 1.68599 1.79303 1.57818 1.55865 1.57818C1.05709 1.57818 0.70084 2.03286 0.83209 2.51568C0.878965 2.68443 0.996153 2.82974 1.49772 3.34068C1.83522 3.68286 2.1774 3.99693 2.26178 4.03443C2.45397 4.12818 2.70709 4.12818 2.90865 4.0438C2.99303 4.0063 3.57897 3.45318 4.21178 2.81568C5.08365 1.93443 5.38365 1.6063 5.42584 1.47036C5.52897 1.13755 5.36022 0.757864 5.03209 0.598489C4.82115 0.495364 4.6899 0.481301 4.4649 0.551614Z" />
<path d="M12.3165 0.551465C12.2508 0.574902 11.8149 0.982715 11.3462 1.44678L10.493 2.2999L10.1977 2.01865C9.85084 1.68584 9.66803 1.57803 9.43365 1.57803C8.93209 1.57803 8.57584 2.03271 8.70709 2.51553C8.75397 2.68428 8.87115 2.82959 9.37272 3.34053C9.71022 3.68271 10.0524 3.99678 10.1368 4.03428C10.3149 4.11865 10.568 4.13271 10.7555 4.0624C10.929 3.99678 13.1977 1.7374 13.2821 1.54521C13.4321 1.19834 13.3149 0.832715 12.9774 0.607715C12.8087 0.490527 12.5274 0.46709 12.3165 0.551465Z" />
<path d="M20.1884 0.551351C20.1227 0.574789 19.6868 0.982601 19.2181 1.44666L18.3649 2.29979L18.0696 2.01854C17.9056 1.86385 17.7181 1.6951 17.6431 1.65291C17.4837 1.5451 17.1134 1.54041 16.9212 1.64354C16.579 1.81698 16.4384 2.28573 16.6165 2.63729C16.7337 2.86229 17.8681 3.99198 18.0462 4.0576C18.2149 4.12323 18.4587 4.12323 18.6274 4.06229C18.8009 3.99666 21.0696 1.73729 21.154 1.5451C21.304 1.19823 21.1868 0.832601 20.8493 0.607601C20.6806 0.490414 20.3993 0.466976 20.1884 0.551351Z" />
<path d="M2.68438 5.79688C2.38906 5.87188 1.96719 6.125 1.76094 6.34531C1.65781 6.45781 1.50313 6.69219 1.42344 6.86563C1.2875 7.15156 1.27344 7.22188 1.27344 7.62969C1.27344 8.05156 1.28281 8.09375 1.44688 8.43125C1.65781 8.85781 1.92969 9.12031 2.36563 9.32656C2.65156 9.4625 2.72188 9.47656 3.125 9.47656C3.52813 9.47656 3.59844 9.4625 3.88438 9.32656C4.32031 9.12031 4.59219 8.85781 4.80313 8.43125C4.96719 8.09375 4.97656 8.05156 4.97656 7.625C4.97656 7.19844 4.96719 7.15625 4.80313 6.81875C4.48438 6.18125 3.92188 5.80156 3.22813 5.76875C3.03125 5.75938 2.7875 5.77344 2.68438 5.79688ZM3.38281 7.36719C3.61719 7.59688 3.45312 8 3.125 8C2.93281 8 2.75 7.81719 2.75 7.625C2.75 7.43281 2.93281 7.25 3.125 7.25C3.21406 7.25 3.3125 7.29219 3.38281 7.36719Z" />
<path d="M10.5594 5.79688C10.2641 5.87188 9.84219 6.125 9.63594 6.34531C9.53281 6.45781 9.37813 6.69219 9.29844 6.86563C9.1625 7.15156 9.14844 7.22188 9.14844 7.62969C9.14844 8.05156 9.15781 8.09375 9.32188 8.43125C9.53281 8.85781 9.80469 9.12031 10.2406 9.32656C10.5266 9.4625 10.5969 9.47656 11 9.47656C11.4031 9.47656 11.4734 9.4625 11.7594 9.32656C12.1953 9.12031 12.4672 8.85781 12.6781 8.43125C12.8422 8.09375 12.8516 8.05156 12.8516 7.625C12.8516 7.19844 12.8422 7.15625 12.6781 6.81875C12.3594 6.18125 11.7969 5.80156 11.1031 5.76875C10.9063 5.75938 10.6625 5.77344 10.5594 5.79688ZM11.2578 7.36719C11.3328 7.4375 11.375 7.53594 11.375 7.625C11.375 7.71406 11.3328 7.8125 11.2578 7.88281C11.0281 8.11719 10.625 7.95313 10.625 7.625C10.625 7.43281 10.8078 7.25 11 7.25C11.0891 7.25 11.1875 7.29219 11.2578 7.36719Z" />
<path d="M18.4344 5.79688C18.1391 5.87188 17.7172 6.125 17.5109 6.34531C17.4078 6.45781 17.2531 6.69219 17.1734 6.86563C17.0375 7.15156 17.0234 7.22188 17.0234 7.62969C17.0234 8.05156 17.0328 8.09375 17.1969 8.43125C17.4078 8.85781 17.6797 9.12031 18.1156 9.32656C18.4016 9.4625 18.4719 9.47656 18.875 9.47656C19.2781 9.47656 19.3484 9.4625 19.6344 9.32656C20.0703 9.12031 20.3422 8.85781 20.5531 8.43125C20.7172 8.09375 20.7266 8.05156 20.7266 7.625C20.7266 7.19844 20.7172 7.15625 20.5531 6.81875C20.2344 6.18125 19.6719 5.80156 18.9781 5.76875C18.7813 5.75938 18.5375 5.77344 18.4344 5.79688ZM19.1328 7.36719C19.2078 7.4375 19.25 7.53594 19.25 7.625C19.25 7.71406 19.2078 7.8125 19.1328 7.88281C19.0625 7.95781 18.9641 8 18.875 8C18.7859 8 18.6875 7.95781 18.6172 7.88281C18.5422 7.8125 18.5 7.71406 18.5 7.625C18.5 7.53594 18.5422 7.4375 18.6172 7.36719C18.6875 7.29219 18.7859 7.25 18.875 7.25C18.9641 7.25 19.0625 7.29219 19.1328 7.36719Z" />
<path d="M2.20285 10.3203C1.38254 10.5453 0.716914 11.2344 0.548164 12.05C0.515351 12.2094 0.501289 12.7859 0.510664 13.6625C0.524726 14.9516 0.529414 15.0312 0.623164 15.1531C0.674726 15.2234 0.777851 15.3266 0.848164 15.3781C0.974726 15.4766 1.02629 15.4766 3.12629 15.4766C5.22629 15.4766 5.27785 15.4766 5.40441 15.3781C5.47473 15.3266 5.57785 15.2234 5.62941 15.1531C5.72316 15.0312 5.72785 14.9516 5.74191 13.6625C5.75129 12.7859 5.73723 12.2094 5.70441 12.05C5.53098 11.225 4.86535 10.5359 4.03098 10.3203C3.67941 10.2266 2.54504 10.2312 2.20285 10.3203ZM3.90441 11.8719C4.21379 12.1016 4.22785 12.1437 4.24191 13.1141L4.25598 14H3.13098H2.00129V13.1844C2.00129 12.3359 2.02941 12.1812 2.20285 11.9891C2.39504 11.7828 2.54035 11.75 3.18254 11.7594C3.69816 11.7734 3.79191 11.7875 3.90441 11.8719Z" />
<path d="M10.0779 10.3203C9.25754 10.5453 8.59191 11.2344 8.42316 12.05C8.39035 12.2094 8.37629 12.7859 8.38566 13.6625C8.39973 14.9516 8.40441 15.0312 8.49816 15.1531C8.54973 15.2234 8.65285 15.3266 8.72316 15.3781C8.84973 15.4766 8.90129 15.4766 11.0013 15.4766C13.1013 15.4766 13.1529 15.4766 13.2794 15.3781C13.3497 15.3266 13.4529 15.2234 13.5044 15.1531C13.5982 15.0312 13.6029 14.9516 13.6169 13.6625C13.6263 12.7859 13.6122 12.2094 13.5794 12.05C13.406 11.225 12.7404 10.5359 11.906 10.3203C11.5544 10.2266 10.42 10.2312 10.0779 10.3203ZM11.7794 11.8719C12.0888 12.1016 12.1029 12.1437 12.1169 13.1141L12.131 14H11.006H9.87629V13.1844C9.87629 12.3359 9.90441 12.1812 10.0779 11.9891C10.27 11.7828 10.4154 11.75 11.0575 11.7594C11.5732 11.7734 11.6669 11.7875 11.7794 11.8719Z" />
<path d="M17.9529 10.3203C17.1325 10.5453 16.4669 11.2344 16.2982 12.05C16.2654 12.2094 16.2513 12.7859 16.2607 13.6625C16.2747 14.9516 16.2794 15.0312 16.3732 15.1531C16.4247 15.2234 16.5279 15.3266 16.5982 15.3781C16.7247 15.4766 16.7763 15.4766 18.8763 15.4766C20.9763 15.4766 21.0279 15.4766 21.1544 15.3781C21.2247 15.3266 21.3279 15.2234 21.3794 15.1531C21.4732 15.0312 21.4779 14.9516 21.4919 13.6625C21.5013 12.7859 21.4872 12.2094 21.4544 12.05C21.281 11.225 20.6154 10.5359 19.781 10.3203C19.4294 10.2266 18.295 10.2312 17.9529 10.3203ZM19.6544 11.8719C19.9638 12.1016 19.9779 12.1437 19.9919 13.1141L20.006 14H18.881H17.7513V13.1844C17.7513 12.3359 17.7794 12.1812 17.9529 11.9891C18.145 11.7828 18.2904 11.75 18.9325 11.7594C19.4482 11.7734 19.5419 11.7875 19.6544 11.8719Z" />
</svg>
