<svg width="21" height="21" viewBox="0 0 21 21" fill="#797979" xmlns="http://www.w3.org/2000/svg">
<path d="M17.0291 3.05651L15.7192 1.74658L14.4093 3.05651L13.0993 1.74658L11.7894 3.05651L10.4795 1.74658L9.16953 3.05651L7.8596 1.74658L6.54967 3.05651L5.23974 1.74658L3.9298 3.05651L2.61987 1.74658V19.2123L3.9298 17.9024L5.23974 19.2123L6.54967 17.9024L7.8596 19.2123L9.16953 17.9024L10.4795 19.2123L11.7894 17.9024L13.0993 19.2123L14.4093 17.9024L15.7192 19.2123L17.0291 17.9024L18.3391 19.2123V1.74658L17.0291 3.05651ZM16.5925 16.6711H4.36645V4.28785H16.5925V16.6711ZM5.23974 13.0993H15.7192V14.8459H5.23974V13.0993ZM5.23974 9.60617H15.7192V11.3527H5.23974V9.60617ZM5.23974 6.11302H15.7192V7.8596H5.23974V6.11302Z" fill-opacity="0.88"/>
</svg>
