<svg width="18" height="20" viewBox="0 0 18 20" fill="white" xmlns="http://www.w3.org/2000/svg">
<path d="M9.24364 17.2C7.10955 17.2 5.22301 15.92 4.12182 14C4.14743 12 7.53637 10.9 9.24364 10.9C10.9509 10.9 14.3398 12 14.3655 14C13.2643 15.92 11.3777 17.2 9.24364 17.2ZM9.24364 3C9.92283 3 10.5742 3.31607 11.0545 3.87868C11.5347 4.44129 11.8045 5.20435 11.8045 6C11.8045 6.79565 11.5347 7.55871 11.0545 8.12132C10.5742 8.68393 9.92283 9 9.24364 9C8.56444 9 7.91307 8.68393 7.4328 8.12132C6.95254 7.55871 6.68273 6.79565 6.68273 6C6.68273 5.20435 6.95254 4.44129 7.4328 3.87868C7.91307 3.31607 8.56444 3 9.24364 3ZM9.24364 0C8.12263 0 7.01259 0.258658 5.97691 0.761205C4.94123 1.26375 4.00019 2.00035 3.20752 2.92893C1.60664 4.8043 0.707275 7.34784 0.707275 10C0.707275 12.6522 1.60664 15.1957 3.20752 17.0711C4.00019 17.9997 4.94123 18.7362 5.97691 19.2388C7.01259 19.7413 8.12263 20 9.24364 20C11.5076 20 13.6789 18.9464 15.2798 17.0711C16.8806 15.1957 17.78 12.6522 17.78 10C17.78 4.47 13.9386 0 9.24364 0Z" />
</svg>
