<svg width="14" height="14" viewBox="0 0 14 14" fill="none" xmlns="http://www.w3.org/2000/svg">
<path fill-rule="evenodd" clip-rule="evenodd" d="M3.16732 1.33398C1.33398 1.33398 1.33398 1.47265 1.33398 3.16732V3.18398C1.33398 3.92198 1.33398 4.45532 1.51465 4.68065C1.69132 4.89932 2.21598 5.00065 3.16732 5.00065C4.11865 5.00065 4.64332 4.89865 4.81998 4.67998C5.00065 4.45532 5.00065 3.92198 5.00065 3.18332C5.00065 1.47265 5.00065 1.33398 3.16732 1.33398ZM3.16732 6.00065C2.04332 6.00065 1.19998 5.88265 0.736651 5.30732C0.333984 4.80798 0.333984 4.12665 0.333984 3.18398L0.833984 3.16732H0.333984C0.333984 1.25398 0.454651 0.333984 3.16732 0.333984C5.87998 0.333984 6.00065 1.25398 6.00065 3.16732C6.00065 4.12598 6.00065 4.80798 5.59798 5.30732C5.13465 5.88265 4.29132 6.00065 3.16732 6.00065Z" fill="white"/>
<path fill-rule="evenodd" clip-rule="evenodd" d="M10.5013 1.33398C8.66797 1.33398 8.66797 1.47265 8.66797 3.16732V3.18398C8.66797 3.92198 8.66797 4.45532 8.84864 4.68065C9.0253 4.89932 9.54997 5.00065 10.5013 5.00065C11.4526 5.00065 11.9773 4.89865 12.154 4.67998C12.3346 4.45532 12.3346 3.92198 12.3346 3.18332C12.3346 1.47265 12.3346 1.33398 10.5013 1.33398ZM10.5013 6.00065C9.3773 6.00065 8.53397 5.88265 8.07064 5.30732C7.66797 4.80798 7.66797 4.12665 7.66797 3.18398L8.16797 3.16732H7.66797C7.66797 1.25398 7.78864 0.333984 10.5013 0.333984C13.214 0.333984 13.3346 1.25398 13.3346 3.16732C13.3346 4.12598 13.3346 4.80798 12.932 5.30732C12.4686 5.88265 11.6253 6.00065 10.5013 6.00065Z" fill="white"/>
<path fill-rule="evenodd" clip-rule="evenodd" d="M3.16732 8.66797C1.33398 8.66797 1.33398 8.80664 1.33398 10.5013V10.518C1.33398 11.256 1.33398 11.7893 1.51465 12.0146C1.69132 12.2333 2.21598 12.3346 3.16732 12.3346C4.11865 12.3346 4.64332 12.2326 4.81998 12.014C5.00065 11.7893 5.00065 11.256 5.00065 10.5173C5.00065 8.80664 5.00065 8.66797 3.16732 8.66797ZM3.16732 13.3346C2.04332 13.3346 1.19998 13.2166 0.736651 12.6413C0.333984 12.142 0.333984 11.4606 0.333984 10.518L0.833984 10.5013H0.333984C0.333984 8.58797 0.454651 7.66797 3.16732 7.66797C5.87998 7.66797 6.00065 8.58797 6.00065 10.5013C6.00065 11.46 6.00065 12.142 5.59798 12.6413C5.13465 13.2166 4.29132 13.3346 3.16732 13.3346Z" fill="white"/>
<path fill-rule="evenodd" clip-rule="evenodd" d="M10.5013 8.66797C8.66797 8.66797 8.66797 8.80664 8.66797 10.5013V10.518C8.66797 11.256 8.66797 11.7893 8.84864 12.0146C9.0253 12.2333 9.54997 12.3346 10.5013 12.3346C11.4526 12.3346 11.9773 12.2326 12.154 12.014C12.3346 11.7893 12.3346 11.256 12.3346 10.5173C12.3346 8.80664 12.3346 8.66797 10.5013 8.66797ZM10.5013 13.3346C9.3773 13.3346 8.53397 13.2166 8.07064 12.6413C7.66797 12.142 7.66797 11.4606 7.66797 10.518L8.16797 10.5013H7.66797C7.66797 8.58797 7.78864 7.66797 10.5013 7.66797C13.214 7.66797 13.3346 8.58797 13.3346 10.5013C13.3346 11.46 13.3346 12.142 12.932 12.6413C12.4686 13.2166 11.6253 13.3346 10.5013 13.3346Z" fill="white"/>
</svg>
