<svg width="16" height="16" viewBox="0 0 16 16" stroke="#F45C33"  xmlns="http://www.w3.org/2000/svg">
<path fill-rule="evenodd" clip-rule="evenodd" d="M6.2895 9.68359C3.84161 9.68359 1.75098 10.0536 1.75098 11.5361C1.75098 13.0186 3.82888 13.4019 6.2895 13.4019C8.73803 13.4019 10.828 13.0313 10.828 11.5494C10.828 10.0676 8.75076 9.68359 6.2895 9.68359Z"  stroke-width="1.14625" stroke-linecap="round" stroke-linejoin="round"/>
<path fill-rule="evenodd" clip-rule="evenodd" d="M6.28942 7.56787C7.89609 7.56787 9.19836 6.2656 9.19836 4.65894C9.19836 3.05227 7.89609 1.75 6.28942 1.75C4.68339 1.75 3.38112 3.05227 3.38112 4.65894C3.37539 6.25987 4.66811 7.56214 6.26968 7.56787H6.28942Z"  stroke-width="1.14625" stroke-linecap="round" stroke-linejoin="round"/>
<path d="M12.229 5.51953V8.07313"  stroke-width="1.14625" stroke-linecap="round" stroke-linejoin="round"/>
<path d="M13.5318 6.79692H10.9272"  stroke-width="1.14625" stroke-linecap="round" stroke-linejoin="round"/>
</svg> 