<svg width="33" height="33" viewBox="0 0 33 33" fill="none" xmlns="http://www.w3.org/2000/svg">
<g opacity="0.7">
<path d="M16.5 31.625C16.1353 31.625 15.7856 31.4801 15.5277 31.2223C15.2699 30.9644 15.125 30.6147 15.125 30.25V26.125H9.625C8.89565 26.125 8.19618 25.8353 7.68046 25.3195C7.16473 24.8038 6.875 24.1043 6.875 23.375V9.625C6.875 8.89565 7.16473 8.19618 7.68046 7.68046C8.19618 7.16473 8.89565 6.875 9.625 6.875H28.875C29.6043 6.875 30.3038 7.16473 30.8195 7.68046C31.3353 8.19618 31.625 8.89565 31.625 9.625V23.375C31.625 24.1043 31.3353 24.8038 30.8195 25.3195C30.3038 25.8353 29.6043 26.125 28.875 26.125H23.2375L18.15 31.2262C17.875 31.4737 17.545 31.625 17.1875 31.625H16.5ZM17.875 23.375V27.61L22.11 23.375H28.875V9.625H9.625V23.375H17.875ZM4.125 20.625H1.375V4.125C1.375 3.39565 1.66473 2.69618 2.18046 2.18046C2.69618 1.66473 3.39565 1.375 4.125 1.375H26.125V4.125H4.125V20.625ZM12.375 12.375H26.125V15.125H12.375V12.375ZM12.375 17.875H23.375V20.625H12.375V17.875Z" fill="#F77D4E"/>
</g>
</svg>
