<svg width="28" height="30" viewBox="0 0 28 30" fill="none" xmlns="http://www.w3.org/2000/svg">
<path fill-rule="evenodd" clip-rule="evenodd" d="M26.4164 12.6184H1.90845C1.3392 12.6184 0.877197 12.1564 0.877197 11.5872C0.877197 11.0179 1.3392 10.5559 1.90845 10.5559H26.4164C26.9857 10.5559 27.4477 11.0179 27.4477 11.5872C27.4477 12.1564 26.9857 12.6184 26.4164 12.6184Z" fill="#F77D4E"/>
<path fill-rule="evenodd" clip-rule="evenodd" d="M20.2767 17.9882C19.7075 17.9882 19.24 17.5262 19.24 16.9569C19.24 16.3877 19.6951 15.9257 20.2644 15.9257H20.2767C20.846 15.9257 21.308 16.3877 21.308 16.9569C21.308 17.5262 20.846 17.9882 20.2767 17.9882Z" fill="#F77D4E"/>
<path fill-rule="evenodd" clip-rule="evenodd" d="M14.1752 17.9882C13.6059 17.9882 13.1384 17.5262 13.1384 16.9569C13.1384 16.3877 13.5936 15.9257 14.1628 15.9257H14.1752C14.7444 15.9257 15.2064 16.3877 15.2064 16.9569C15.2064 17.5262 14.7444 17.9882 14.1752 17.9882Z" fill="#F77D4E"/>
<path fill-rule="evenodd" clip-rule="evenodd" d="M8.06083 17.9882C7.49158 17.9882 7.02271 17.5262 7.02271 16.9569C7.02271 16.3877 7.47921 15.9257 8.04846 15.9257H8.06083C8.63008 15.9257 9.09208 16.3877 9.09208 16.9569C9.09208 17.5262 8.63008 17.9882 8.06083 17.9882Z" fill="#F77D4E"/>
<path fill-rule="evenodd" clip-rule="evenodd" d="M20.2767 23.3324C19.7075 23.3324 19.24 22.8704 19.24 22.3011C19.24 21.7319 19.6951 21.2699 20.2644 21.2699H20.2767C20.846 21.2699 21.308 21.7319 21.308 22.3011C21.308 22.8704 20.846 23.3324 20.2767 23.3324Z" fill="#F77D4E"/>
<path fill-rule="evenodd" clip-rule="evenodd" d="M14.1752 23.3324C13.6059 23.3324 13.1384 22.8704 13.1384 22.3011C13.1384 21.7319 13.5936 21.2699 14.1628 21.2699H14.1752C14.7444 21.2699 15.2064 21.7319 15.2064 22.3011C15.2064 22.8704 14.7444 23.3324 14.1752 23.3324Z" fill="#F77D4E"/>
<path fill-rule="evenodd" clip-rule="evenodd" d="M8.06083 23.3324C7.49158 23.3324 7.02271 22.8704 7.02271 22.3011C7.02271 21.7319 7.47921 21.2699 8.04846 21.2699H8.06083C8.63008 21.2699 9.09208 21.7319 9.09208 22.3011C9.09208 22.8704 8.63008 23.3324 8.06083 23.3324Z" fill="#F77D4E"/>
<path fill-rule="evenodd" clip-rule="evenodd" d="M19.7161 6.96263C19.1468 6.96263 18.6848 6.50062 18.6848 5.93138V1.40625C18.6848 0.837 19.1468 0.375 19.7161 0.375C20.2853 0.375 20.7473 0.837 20.7473 1.40625V5.93138C20.7473 6.50062 20.2853 6.96263 19.7161 6.96263Z" fill="#F77D4E"/>
<path fill-rule="evenodd" clip-rule="evenodd" d="M8.60864 6.96263C8.03939 6.96263 7.57739 6.50062 7.57739 5.93138V1.40625C7.57739 0.837 8.03939 0.375 8.60864 0.375C9.17789 0.375 9.63989 0.837 9.63989 1.40625V5.93138C9.63989 6.50062 9.17789 6.96263 8.60864 6.96263Z" fill="#F77D4E"/>
<mask id="mask0_1142_10311" style="mask-type:alpha" maskUnits="userSpaceOnUse" x="0" y="2" width="28" height="28">
<path fill-rule="evenodd" clip-rule="evenodd" d="M0.75 2.54626H27.5625V29.9375H0.75V2.54626Z" fill="white"/>
</mask>
<g mask="url(#mask0_1142_10311)">
<path fill-rule="evenodd" clip-rule="evenodd" d="M8.34137 4.60876C4.776 4.60876 2.8125 6.51039 2.8125 9.96301V22.4054C2.8125 25.9336 4.776 27.8751 8.34137 27.8751H19.9711C23.5365 27.8751 25.5 25.9694 25.5 22.5099V9.96301C25.5055 8.26489 25.049 6.94489 24.1429 6.03739C23.2106 5.10239 21.7737 4.60876 19.9835 4.60876H8.34137ZM19.9711 29.9376H8.34137C3.6595 29.9376 0.75 27.0515 0.75 22.4054V9.96301C0.75 5.38701 3.6595 2.54626 8.34137 2.54626H19.9835C22.3334 2.54626 24.2763 3.25026 25.6031 4.57989C26.8915 5.87376 27.5694 7.73414 27.5625 9.96576V22.5099C27.5625 27.0914 24.653 29.9376 19.9711 29.9376V29.9376Z" fill="#F77D4E"/>
</g>
</svg>
