<svg width="33" height="33" viewBox="0 0 33 33" fill="none" xmlns="http://www.w3.org/2000/svg">
<g opacity="0.7">
<mask id="mask0_434_86127" style="mask-type:alpha" maskUnits="userSpaceOnUse" x="9" y="2" width="14" height="13">
<path fill-rule="evenodd" clip-rule="evenodd" d="M9.91504 2.75H22.3753V14.1703H9.91504V2.75Z" fill="white"/>
</mask>
<g mask="url(#mask0_434_86127)">
<path fill-rule="evenodd" clip-rule="evenodd" d="M21.344 14.1704C20.7748 14.1704 20.3128 13.7084 20.3128 13.1391V8.97013C20.3128 6.67801 18.4497 4.81213 16.1575 4.81213C15.0424 4.85063 13.9974 5.23563 13.2082 6.01663C12.4189 6.79901 11.9817 7.83988 11.9775 8.94951V13.1391C11.9775 13.7084 11.5155 14.1704 10.9463 14.1704C10.377 14.1704 9.91504 13.7084 9.91504 13.1391V8.97013C9.92191 7.28026 10.575 5.72101 11.7562 4.55226C12.9359 3.38213 14.5199 2.79776 16.1617 2.74963C19.5868 2.74963 22.3753 5.54088 22.3753 8.97013V13.1391C22.3753 13.7084 21.9133 14.1704 21.344 14.1704" fill="#F77D4E"/>
</g>
<mask id="mask1_434_86127" style="mask-type:alpha" maskUnits="userSpaceOnUse" x="2" y="8" width="28" height="23">
<path fill-rule="evenodd" clip-rule="evenodd" d="M2.75 8.90259H29.5622V30.2495H2.75V8.90259Z" fill="white"/>
</mask>
<g mask="url(#mask1_434_86127)">
<path fill-rule="evenodd" clip-rule="evenodd" d="M9.63576 10.9651C6.97651 10.9651 4.81226 13.1266 4.81226 15.7845V23.369C4.81226 26.0255 6.97651 28.187 9.63576 28.187H22.6763C25.3355 28.187 27.4998 26.0255 27.4998 23.369V15.7845C27.4998 13.1266 25.3355 10.9651 22.6763 10.9651H9.63576ZM22.6763 30.2495H9.63576C5.83938 30.2495 2.74976 27.1626 2.74976 23.369V15.7845C2.74976 11.9895 5.83938 8.90259 9.63576 8.90259H22.6763C26.474 8.90259 29.5623 11.9895 29.5623 15.7845V23.369C29.5623 27.1626 26.474 30.2495 22.6763 30.2495V30.2495Z" fill="#F77D4E"/>
</g>
</g>
</svg>
