<svg width="14" height="15" viewBox="0 0 14 15" fill="#fff" xmlns="http://www.w3.org/2000/svg">
<path fill-rule="evenodd" clip-rule="evenodd" d="M12.7792 6.60156H0.896484C0.620484 6.60156 0.396484 6.37756 0.396484 6.10156C0.396484 5.82556 0.620484 5.60156 0.896484 5.60156H12.7792C13.0552 5.60156 13.2792 5.82556 13.2792 6.10156C13.2792 6.37756 13.0552 6.60156 12.7792 6.60156Z" />
<path fill-rule="evenodd" clip-rule="evenodd" d="M9.8015 9.20508C9.52549 9.20508 9.29883 8.98108 9.29883 8.70508C9.29883 8.42908 9.51949 8.20508 9.7955 8.20508H9.8015C10.0775 8.20508 10.3015 8.42908 10.3015 8.70508C10.3015 8.98108 10.0775 9.20508 9.8015 9.20508Z" />
<path fill-rule="evenodd" clip-rule="evenodd" d="M6.84251 9.20508C6.56651 9.20508 6.33984 8.98108 6.33984 8.70508C6.33984 8.42908 6.56051 8.20508 6.83651 8.20508H6.84251C7.11851 8.20508 7.34251 8.42908 7.34251 8.70508C7.34251 8.98108 7.11851 9.20508 6.84251 9.20508Z" />
<path fill-rule="evenodd" clip-rule="evenodd" d="M3.87833 9.20508C3.60233 9.20508 3.375 8.98108 3.375 8.70508C3.375 8.42908 3.59633 8.20508 3.87233 8.20508H3.87833C4.15433 8.20508 4.37833 8.42908 4.37833 8.70508C4.37833 8.98108 4.15433 9.20508 3.87833 9.20508Z" />
<path fill-rule="evenodd" clip-rule="evenodd" d="M9.8015 11.7969C9.52549 11.7969 9.29883 11.5729 9.29883 11.2969C9.29883 11.0209 9.51949 10.7969 9.7955 10.7969H9.8015C10.0775 10.7969 10.3015 11.0209 10.3015 11.2969C10.3015 11.5729 10.0775 11.7969 9.8015 11.7969Z" />
<path fill-rule="evenodd" clip-rule="evenodd" d="M6.84251 11.7969C6.56651 11.7969 6.33984 11.5729 6.33984 11.2969C6.33984 11.0209 6.56051 10.7969 6.83651 10.7969H6.84251C7.11851 10.7969 7.34251 11.0209 7.34251 11.2969C7.34251 11.5729 7.11851 11.7969 6.84251 11.7969Z" />
<path fill-rule="evenodd" clip-rule="evenodd" d="M3.87833 11.7969C3.60233 11.7969 3.375 11.5729 3.375 11.2969C3.375 11.0209 3.59633 10.7969 3.87233 10.7969H3.87833C4.15433 10.7969 4.37833 11.0209 4.37833 11.2969C4.37833 11.5729 4.15433 11.7969 3.87833 11.7969Z" />
<path fill-rule="evenodd" clip-rule="evenodd" d="M9.5293 3.86002C9.2533 3.86002 9.0293 3.63602 9.0293 3.36002V1.16602C9.0293 0.890016 9.2533 0.666016 9.5293 0.666016C9.8053 0.666016 10.0293 0.890016 10.0293 1.16602V3.36002C10.0293 3.63602 9.8053 3.86002 9.5293 3.86002Z" />
<path fill-rule="evenodd" clip-rule="evenodd" d="M4.14453 3.86002C3.86853 3.86002 3.64453 3.63602 3.64453 3.36002V1.16602C3.64453 0.890016 3.86853 0.666016 4.14453 0.666016C4.42053 0.666016 4.64453 0.890016 4.64453 1.16602V3.36002C4.64453 3.63602 4.42053 3.86002 4.14453 3.86002Z" />
<mask id="mask0_475_2569" style="mask-type:alpha" maskUnits="userSpaceOnUse" x="0" y="1">
<path fill-rule="evenodd" clip-rule="evenodd" d="M0.333984 1.71875H13.334V14.9993H0.333984V1.71875Z" />
</mask>
<g mask="url(#mask0_475_2569)">
<path fill-rule="evenodd" clip-rule="evenodd" d="M4.01465 2.71875C2.28598 2.71875 1.33398 3.64075 1.33398 5.31475V11.3474C1.33398 13.0581 2.28598 13.9994 4.01465 13.9994H9.65332C11.382 13.9994 12.334 13.0754 12.334 11.3981V5.31475C12.3367 4.49142 12.1153 3.85142 11.676 3.41142C11.224 2.95808 10.5273 2.71875 9.65932 2.71875H4.01465ZM9.65332 14.9994H4.01465C1.74465 14.9994 0.333984 13.6001 0.333984 11.3474V5.31475C0.333984 3.09608 1.74465 1.71875 4.01465 1.71875H9.65932C10.7987 1.71875 11.7407 2.06008 12.384 2.70475C13.0087 3.33208 13.3373 4.23408 13.334 5.31608V11.3981C13.334 13.6194 11.9233 14.9994 9.65332 14.9994Z" />
</g>
</svg>
