<svg width="24" height="24" viewBox="0 0 24 24" fill="none" xmlns="http://www.w3.org/2000/svg">
<g clip-path="url(#clip0_350_85755)">
<path d="M21.375 3.75H19.5V2.25C19.5 1.42275 18.8272 0.75 18 0.75C17.1728 0.75 16.5 1.42275 16.5 2.25V3.75H7.5V2.25C7.5 1.42275 6.82725 0.75 6 0.75C5.17275 0.75 4.5 1.42275 4.5 2.25V3.75H2.625C1.59113 3.75 0.75 4.59113 0.75 5.625V21.375C0.75 22.4089 1.59113 23.25 2.625 23.25H21.375C22.4089 23.25 23.25 22.4089 23.25 21.375V5.625C23.25 4.59113 22.4089 3.75 21.375 3.75ZM17.25 2.25C17.25 1.83637 17.5864 1.5 18 1.5C18.4136 1.5 18.75 1.83637 18.75 2.25V5.25C18.75 5.66363 18.4136 6 18 6C17.5864 6 17.25 5.66363 17.25 5.25V2.25ZM5.25 2.25C5.25 1.83637 5.58637 1.5 6 1.5C6.41363 1.5 6.75 1.83637 6.75 2.25V5.25C6.75 5.66363 6.41363 6 6 6C5.58637 6 5.25 5.66363 5.25 5.25V2.25ZM2.625 4.5H4.5V5.25C4.5 6.07725 5.17275 6.75 6 6.75C6.82725 6.75 7.5 6.07725 7.5 5.25V4.5H16.5V5.25C16.5 6.07725 17.1728 6.75 18 6.75C18.8272 6.75 19.5 6.07725 19.5 5.25V4.5H21.375C21.9953 4.5 22.5 5.00475 22.5 5.625V8.25H1.5V5.625C1.5 5.00475 2.00475 4.5 2.625 4.5ZM21.375 22.5H2.625C2.00475 22.5 1.5 21.9953 1.5 21.375V9H22.5V21.375C22.5 21.9953 21.9953 22.5 21.375 22.5Z" fill="white"/>
<path d="M12.375 6.75H11.625V7.5H12.375V6.75Z" fill="white"/>
<path d="M13.875 6.75H13.125V7.5H13.875V6.75Z" fill="white"/>
<path d="M10.875 6.75H10.125V7.5H10.875V6.75Z" fill="white"/>
<path d="M11.6251 21C9.22585 21 7.15248 19.3534 6.5566 17.0809L8.1316 17.6059L8.36898 16.8945L6.11898 16.1445C5.98398 16.0995 5.83548 16.1348 5.73535 16.2353L4.23535 17.7353L4.7656 18.2655L5.81635 17.2148C6.47748 19.8413 8.86285 21.75 11.6251 21.75C14.6161 21.75 17.1699 19.5143 17.5662 16.5495L16.823 16.4501C16.4761 19.044 14.2419 21 11.6251 21Z" fill="white"/>
<path d="M17.4341 14.2856C16.7726 11.6588 14.3872 9.75 11.625 9.75C8.63396 9.75 6.08021 11.9857 5.68384 14.9505L6.42709 15.0499C6.77396 12.456 9.00821 10.5 11.625 10.5C14.0242 10.5 16.0976 12.1466 16.6935 14.4191L15.1185 13.8941L14.8811 14.6055L17.1311 15.3555C17.1701 15.3686 17.2106 15.375 17.25 15.375C17.3478 15.375 17.4438 15.3364 17.5151 15.2651L19.0151 13.7651L18.4848 13.2349L17.4341 14.2856Z" fill="white"/>
<path d="M11.5151 17.5151L14.1401 14.8901L13.6099 14.3599L11.25 16.7197L10.3901 15.8599L9.85986 16.3901L10.9849 17.5151C11.058 17.5882 11.154 17.625 11.25 17.625C11.346 17.625 11.442 17.5882 11.5151 17.5151Z" fill="white"/>
</g>
<defs>
<clipPath id="clip0_350_85755">
<rect width="24" height="24" fill="white"/>
</clipPath>
</defs>
</svg>
