<svg width="14" height="14" viewBox="0 0 14 14" fill="none" xmlns="http://www.w3.org/2000/svg">
<path fill-rule="evenodd" clip-rule="evenodd" d="M2.71905 3.56499L3.12105 8.34632C3.15038 8.71432 3.45105 8.99032 3.81838 8.99032H3.82105H11.095H11.0964C11.4437 8.99032 11.7404 8.73166 11.7897 8.38833L12.423 4.01566C12.4377 3.91166 12.4117 3.80766 12.3484 3.72366C12.2857 3.63899 12.1937 3.58432 12.0897 3.56966C11.9504 3.57499 6.16838 3.56699 2.71905 3.56499ZM3.81705 9.99032C2.93905 9.99032 2.19571 9.30499 2.12438 8.42832L1.51371 1.16566L0.509047 0.992325C0.23638 0.944325 0.05438 0.686325 0.101047 0.413658C0.149047 0.140991 0.41238 -0.036342 0.679047 0.00632469L2.06571 0.246325C2.28905 0.285658 2.45905 0.470991 2.47838 0.697658L2.63505 2.56499C12.1524 2.56899 12.183 2.57366 12.229 2.57899C12.6004 2.63299 12.927 2.82699 13.1497 3.12566C13.3724 3.42366 13.4657 3.79099 13.4124 4.15899L12.7797 8.53099C12.6604 9.36299 11.9377 9.99032 11.0977 9.99032H11.0944H3.82238H3.81705Z" fill="white"/>
<path fill-rule="evenodd" clip-rule="evenodd" d="M10.0257 6.0293H8.17773C7.90107 6.0293 7.67773 5.8053 7.67773 5.5293C7.67773 5.2533 7.90107 5.0293 8.17773 5.0293H10.0257C10.3017 5.0293 10.5257 5.2533 10.5257 5.5293C10.5257 5.8053 10.3017 6.0293 10.0257 6.0293Z" fill="white"/>
<path fill-rule="evenodd" clip-rule="evenodd" d="M3.52935 11.8008C3.73002 11.8008 3.89202 11.9628 3.89202 12.1634C3.89202 12.3641 3.73002 12.5268 3.52935 12.5268C3.32802 12.5268 3.16602 12.3641 3.16602 12.1634C3.16602 11.9628 3.32802 11.8008 3.52935 11.8008Z" fill="white"/>
<mask id="mask0_475_9132" style="mask-type:alpha" maskUnits="userSpaceOnUse" x="3" y="11" width="1" height="2">
<path fill-rule="evenodd" clip-rule="evenodd" d="M3.16602 12.1634C3.16602 12.3648 3.32802 12.5274 3.53002 12.5274C3.73068 12.5274 3.89268 12.3648 3.89268 12.1634C3.89268 11.9628 3.73068 11.8008 3.53002 11.8008C3.32802 11.8008 3.16602 11.9628 3.16602 12.1634Z" fill="white"/>
</mask>
<g mask="url(#mask0_475_9132)">
<path fill-rule="evenodd" clip-rule="evenodd" d="M-0.166016 15.8595H7.22665V8.4668H-0.166016V15.8595Z" fill="white"/>
</g>
<path fill-rule="evenodd" clip-rule="evenodd" d="M3.52868 12.0268C3.45335 12.0268 3.39202 12.0881 3.39202 12.1634C3.39202 12.3148 3.66602 12.3148 3.66602 12.1634C3.66602 12.0881 3.60402 12.0268 3.52868 12.0268ZM3.52868 13.0268C3.05268 13.0268 2.66602 12.6394 2.66602 12.1634C2.66602 11.6874 3.05268 11.3008 3.52868 11.3008C4.00468 11.3008 4.39202 11.6874 4.39202 12.1634C4.39202 12.6394 4.00468 13.0268 3.52868 13.0268Z" fill="white"/>
<path fill-rule="evenodd" clip-rule="evenodd" d="M11.0489 11.8008C11.2495 11.8008 11.4122 11.9628 11.4122 12.1634C11.4122 12.3641 11.2495 12.5268 11.0489 12.5268C10.8475 12.5268 10.6855 12.3641 10.6855 12.1634C10.6855 11.9628 10.8475 11.8008 11.0489 11.8008Z" fill="white"/>
<mask id="mask1_475_9132" style="mask-type:alpha" maskUnits="userSpaceOnUse" x="10" y="11" width="2" height="2">
<path fill-rule="evenodd" clip-rule="evenodd" d="M10.6875 12.1634C10.6875 12.3648 10.8495 12.5274 11.0508 12.5274C11.2508 12.5274 11.4142 12.3648 11.4142 12.1634C11.4142 11.9628 11.2508 11.8008 11.0508 11.8008C10.8495 11.8008 10.6875 11.9628 10.6875 12.1634Z" fill="white"/>
</mask>
<g mask="url(#mask1_475_9132)">
<path fill-rule="evenodd" clip-rule="evenodd" d="M7.35352 15.8595H14.7469V8.4668H7.35352V15.8595Z" fill="white"/>
</g>
<path fill-rule="evenodd" clip-rule="evenodd" d="M11.0502 12.0268C10.9755 12.0268 10.9142 12.0881 10.9142 12.1634C10.9148 12.3161 11.1882 12.3148 11.1875 12.1634C11.1875 12.0881 11.1255 12.0268 11.0502 12.0268ZM11.0502 13.0268C10.5742 13.0268 10.1875 12.6394 10.1875 12.1634C10.1875 11.6874 10.5742 11.3008 11.0502 11.3008C11.5268 11.3008 11.9142 11.6874 11.9142 12.1634C11.9142 12.6394 11.5268 13.0268 11.0502 13.0268Z" fill="white"/>
</svg>
