<svg width="20" height="21" viewBox="0 0 20 21" fill="#3031D9" xmlns="http://www.w3.org/2000/svg">
<path d="M14.188 0.958984C17.3978 0.958984 20 3.75446 20 7.20273V14.6742C20 18.1225 17.3978 20.918 14.188 20.918H5.81204C2.60219 20.918 0 18.1225 0 14.6742V7.20273C0 3.75446 2.60219 0.958984 5.81204 0.958984H14.188ZM14.188 2.52053H5.81204C3.40498 2.52053 1.45358 4.61687 1.45358 7.20273V14.6742C1.45358 17.2601 3.40498 19.3564 5.81204 19.3564H14.188C16.595 19.3564 18.5464 17.2601 18.5464 14.6742L18.546 14.383L15.3499 14.3839C13.5084 14.3826 12.0159 12.78 12.0147 10.8014C12.0147 8.88915 13.4101 7.32742 15.1673 7.22433L15.3504 7.21892L18.546 7.21875L18.5464 7.20273C18.5464 4.69293 16.7081 2.64427 14.3991 2.52593L14.188 2.52053ZM18.546 8.77976L15.3508 8.78046C14.3109 8.78115 13.4683 9.68571 13.4683 10.8009C13.4689 11.8641 14.2329 12.735 15.2033 12.8161L15.3504 12.8223L18.546 12.822V8.77976ZM15.7942 9.95648C16.1956 9.95648 16.521 10.306 16.521 10.7372C16.521 11.1325 16.2475 11.4592 15.8928 11.5109L15.7942 11.518H15.4921C15.0907 11.518 14.7653 11.1685 14.7653 10.7372C14.7653 10.342 15.0388 10.0153 15.3935 9.9636L15.4921 9.95648H15.7942ZM10.3539 5.68335C10.7553 5.68335 11.0807 6.03291 11.0807 6.46412C11.0807 6.85939 10.8073 7.18606 10.4525 7.23776L10.3539 7.24489H5.12203C4.72063 7.24489 4.39524 6.89533 4.39524 6.46412C4.39524 6.06884 4.66866 5.74217 5.0234 5.69047L5.12203 5.68335H10.3539Z" />
</svg>
