<svg width="22" height="24" viewBox="0 0 22 24" fill="white" xmlns="http://www.w3.org/2000/svg">
<path d="M1.12565 0.0468769C1.0694 0.0703144 0.985024 0.145313 0.938149 0.220314C0.858461 0.34219 0.853774 0.782814 0.839711 10.1016C0.830336 15.4641 0.839711 19.9594 0.853774 20.0953C0.877211 20.2688 0.919399 20.3719 1.00377 20.4563L1.12565 20.5781H7.04596C10.4163 20.5781 12.971 20.5969 12.971 20.6203C12.971 20.6438 12.8022 21.0234 12.596 21.4641C12.2069 22.2984 12.16 22.4859 12.296 22.6781C12.385 22.8047 12.6006 22.9219 12.746 22.9219C12.8069 22.9219 13.1303 22.8188 13.4632 22.6922C13.8006 22.5656 14.0866 22.4766 14.1006 22.4906C14.1194 22.5094 14.2319 22.7953 14.3585 23.1328C14.485 23.4703 14.6303 23.7891 14.6866 23.8453C14.7428 23.9016 14.8647 23.9625 14.9632 23.9813C15.2585 24.0328 15.3288 23.9391 15.9335 22.6875C16.2381 22.0641 16.4913 21.5438 16.5006 21.5344C16.5053 21.525 16.7538 22.0266 17.0491 22.6453C17.6069 23.8172 17.7288 24 17.9772 24C18.0475 24 18.1694 23.9625 18.2444 23.9109C18.3663 23.8406 18.4272 23.7234 18.6381 23.1516C18.7741 22.7813 18.8913 22.4719 18.9007 22.4625C18.9053 22.4578 19.2194 22.5703 19.5991 22.7109C20.246 22.9547 20.2928 22.9641 20.4382 22.9078C20.6397 22.8234 20.71 22.725 20.7335 22.5141C20.7475 22.3641 20.6491 22.1156 20.0585 20.8594L19.3647 19.3828L19.5288 19.3359C19.6319 19.3031 19.735 19.2281 19.8006 19.1297C19.9038 18.9797 19.9085 18.9234 19.9085 18.1594V17.3438L20.5178 16.7203C21.1131 16.1156 21.1272 16.0969 21.1272 15.8953C21.1272 15.6938 21.1131 15.675 20.5178 15.0703L19.9085 14.4563V13.65C19.9085 12.7922 19.8757 12.6234 19.6788 12.5156C19.6225 12.4875 19.2335 12.4688 18.7507 12.4688H17.9163L17.3397 11.8922L16.7678 11.3203V8.39063C16.7632 6.18281 16.7491 5.4375 16.7069 5.35781C16.6178 5.19375 11.6116 0.140627 11.4663 0.0656261C11.3538 0.00937653 10.6085 1.90735e-06 6.2819 0.00468826C3.47877 0.00468826 1.1819 0.0234394 1.12565 0.0468769ZM10.7678 3.40781L10.7913 5.80781L10.8991 5.91563L11.0069 6.02344L13.3928 6.0375L15.7835 6.05156V8.87344V11.6953L15.3991 12.0797L15.01 12.4688H14.1756H13.3366L13.2007 12.6047C13.121 12.6844 13.0647 12.7922 13.0647 12.8625V12.9844H8.27409C3.80221 12.9844 3.4694 12.9891 3.31471 13.0688C3.09909 13.1766 3.01002 13.4203 3.0944 13.6734C3.1319 13.8 3.19752 13.875 3.31471 13.9313C3.4694 14.0109 3.80221 14.0156 8.25065 14.0156H13.0178V14.2125C13.0178 14.4 12.9944 14.4328 12.4131 15.0188C12.085 15.3563 11.7991 15.6844 11.7803 15.7406C11.696 16.0078 11.7757 16.1391 12.4085 16.7344L13.0178 17.3063V18.1641C13.0178 18.9984 13.0225 19.0219 13.1303 19.1391C13.1913 19.2047 13.3178 19.275 13.4116 19.2891C13.5944 19.3266 13.5944 19.3266 13.5522 19.4859L13.5241 19.5938H7.69284H1.86159V10.2891V0.984377L6.30534 0.993752L10.7444 1.00781L10.7678 3.40781ZM13.4397 3.39844L15.1038 5.0625H13.4256H11.7522V3.39844C11.7522 2.48438 11.7569 1.73438 11.7663 1.73438C11.771 1.73438 12.5257 2.48438 13.4397 3.39844ZM16.885 12.8953C17.1194 13.1297 17.3631 13.35 17.4335 13.3875C17.5272 13.4344 17.7428 13.4531 18.2444 13.4531H18.9241V14.1844V14.9203L19.4163 15.4172L19.9085 15.9188L19.4163 16.4063L18.9241 16.8984V17.6109V18.3281H18.2913C17.8507 18.3281 17.6069 18.3469 17.5038 18.3938C17.4194 18.4313 17.1663 18.6516 16.9319 18.8859C16.7022 19.1203 16.4913 19.3125 16.4632 19.3125C16.435 19.3125 16.2147 19.1109 15.971 18.8672C15.6663 18.5625 15.4741 18.4031 15.3616 18.375C15.2725 18.3469 14.9303 18.3281 14.6022 18.3281H14.0069L13.9928 17.6016L13.9788 16.875L13.4866 16.3828L12.9991 15.8906L13.5006 15.3844L14.0022 14.8734V14.1609V13.4531H14.7147H15.4225L15.9194 12.9609C16.1913 12.6891 16.4256 12.4688 16.4397 12.4688C16.4538 12.4688 16.6553 12.6609 16.885 12.8953ZM15.4928 19.7063C15.7319 19.9453 15.9241 20.1797 15.9241 20.2266C15.9241 20.2969 15.31 21.6844 15.1085 22.0688C15.0522 22.1766 15.0475 22.1719 14.9632 21.9516C14.8085 21.5297 14.7475 21.4313 14.5928 21.3563C14.4522 21.2906 14.4147 21.2906 14.1241 21.3797C13.9507 21.4313 13.7913 21.4688 13.7678 21.4594C13.7303 21.4453 13.8522 21.1734 14.5319 19.7203C14.7428 19.275 14.7475 19.2656 14.9022 19.2656C15.0428 19.2656 15.1178 19.3219 15.4928 19.7063ZM18.7132 20.3953C18.9897 20.9859 19.2053 21.4828 19.1913 21.4969C19.1819 21.5109 19.06 21.4781 18.9288 21.4219C18.7975 21.3703 18.6241 21.3281 18.5491 21.3281C18.3428 21.3281 18.146 21.5344 18.0147 21.8859C17.921 22.1484 17.8975 22.1766 17.8553 22.0969C17.8319 22.05 17.6257 21.6234 17.4053 21.15C17.0585 20.4141 17.0069 20.2781 17.0538 20.1891C17.0819 20.1328 17.2788 19.9125 17.485 19.6969C17.8225 19.3547 17.8881 19.3125 18.0382 19.3125H18.2069L18.7132 20.3953Z" />
<path d="M3.20799 6.58615C3.00643 6.78771 3.0158 7.14865 3.22674 7.34084C3.32049 7.42521 3.44705 7.4299 5.93143 7.44396C7.83455 7.45334 8.57518 7.43928 8.67362 7.40178C8.85643 7.32209 8.9408 7.18615 8.9408 6.94709C8.9408 6.78303 8.91268 6.7174 8.80487 6.6049L8.66893 6.46896H5.99705H3.32987L3.20799 6.58615Z"/>
<path d="M3.31164 9.81107C3.24601 9.84388 3.15695 9.94701 3.11007 10.0454C3.03507 10.1908 3.03039 10.2423 3.07726 10.3829C3.10539 10.472 3.18507 10.5892 3.2507 10.6408C3.36789 10.7345 3.42882 10.7345 8.82882 10.7345C14.8804 10.7345 14.4538 10.7579 14.5616 10.4251C14.6366 10.2095 14.5804 10.0126 14.4116 9.86732L14.271 9.75013H8.85226C4.62414 9.75013 3.4007 9.76419 3.31164 9.81107Z" />
<path d="M3.22902 16.4296C3.06027 16.5702 3.00871 16.7812 3.09777 16.9874C3.23371 17.3108 3.08371 17.2968 6.11183 17.2968H8.83996L8.96183 17.189C9.19621 16.9874 9.19152 16.5983 8.95714 16.4108C8.83527 16.3124 8.78839 16.3124 6.09777 16.3124H3.36964L3.22902 16.4296Z" />
</svg>
