<svg width="15" height="15" viewBox="0 0 15 15" fill="none" xmlns="http://www.w3.org/2000/svg">
<path fill-rule="evenodd" clip-rule="evenodd" d="M4.74609 11.7081C4.47009 11.7081 4.24609 11.4841 4.24609 11.2081V6.63477C4.24609 6.35877 4.47009 6.13477 4.74609 6.13477C5.02209 6.13477 5.24609 6.35877 5.24609 6.63477V11.2081C5.24609 11.4841 5.02209 11.7081 4.74609 11.7081Z" fill="white"/>
<path fill-rule="evenodd" clip-rule="evenodd" d="M7.85742 11.7073C7.58142 11.7073 7.35742 11.4833 7.35742 11.2073V4.44531C7.35742 4.16931 7.58142 3.94531 7.85742 3.94531C8.13342 3.94531 8.35742 4.16931 8.35742 4.44531V11.2073C8.35742 11.4833 8.13342 11.7073 7.85742 11.7073Z" fill="white"/>
<path fill-rule="evenodd" clip-rule="evenodd" d="M10.918 11.7068C10.642 11.7068 10.418 11.4828 10.418 11.2068V9.05078C10.418 8.77478 10.642 8.55078 10.918 8.55078C11.194 8.55078 11.418 8.77478 11.418 9.05078V11.2068C11.418 11.4828 11.194 11.7068 10.918 11.7068Z" fill="white"/>
<path fill-rule="evenodd" clip-rule="evenodd" d="M4.70868 1.66602C2.86068 1.66602 1.66602 2.93068 1.66602 4.88935V10.776C1.66602 12.7347 2.86068 13.9993 4.70868 13.9993H10.9567C12.8053 13.9993 13.9993 12.7347 13.9993 10.776V4.88935C13.9993 2.93068 12.8053 1.66602 10.9567 1.66602H4.70868ZM10.9567 14.9993H4.70868C2.29068 14.9993 0.666016 13.302 0.666016 10.776V4.88935C0.666016 2.36335 2.29068 0.666016 4.70868 0.666016H10.9567C13.3747 0.666016 14.9993 2.36335 14.9993 4.88935V10.776C14.9993 13.302 13.3747 14.9993 10.9567 14.9993Z" fill="white"/>
</svg>
