<svg width="24" height="24" viewBox="0 0 24 24" fill="white" xmlns="http://www.w3.org/2000/svg">
<path d="M0.965883 1.35938C0.614321 1.47187 0.309633 1.82344 0.258071 2.175C0.244008 2.27812 0.234633 6.7875 0.244008 12.1875C0.258071 21.225 0.262758 22.0172 0.337758 22.1484C0.436196 22.3312 0.637758 22.5328 0.820571 22.6312C0.951821 22.7062 1.81432 22.7109 12.0237 22.7109H23.0862L23.2831 22.6078C23.869 22.2937 23.9815 21.5625 23.5221 21.0656C23.1753 20.6906 24.1081 20.7187 12.5534 20.7187H2.25026V11.4422C2.25026 4.63594 2.2362 2.12812 2.1987 2.01094C2.11432 1.77187 1.9362 1.55625 1.72995 1.44844C1.50963 1.34062 1.16276 1.29844 0.965883 1.35938Z" />
<path d="M16.9461 4.19531C16.2571 4.5375 16.2477 5.48906 16.9321 5.83125L17.1758 5.95312H18.6758H20.1805L16.9696 9.16406C15.2024 10.9312 13.7493 12.375 13.7352 12.375C13.7211 12.3703 13.3555 11.9109 12.9243 11.3437C12.2774 10.5047 12.0993 10.2984 11.9352 10.2188C11.6961 10.1062 11.2649 10.0922 11.0446 10.1953C10.9649 10.2328 9.32426 11.8406 7.39769 13.7672L3.90082 17.2734L3.84926 17.5266C3.75551 17.9672 3.92894 18.3797 4.30394 18.6C4.48676 18.7031 4.58051 18.7266 4.82894 18.7266C5.02582 18.7219 5.18519 18.6937 5.28363 18.6422C5.36801 18.6 6.76957 17.2219 8.40082 15.5859C10.0321 13.95 11.3821 12.6141 11.3961 12.6187C11.4149 12.6281 11.7805 13.0922 12.2118 13.65C13.0883 14.7891 13.1727 14.8594 13.6555 14.8594C13.7961 14.8594 13.9743 14.8359 14.0493 14.8078C14.1243 14.7844 15.8164 13.1297 17.8836 11.0578C19.9227 9.02344 21.6008 7.35938 21.6196 7.35938C21.6383 7.35938 21.6571 8.0625 21.6664 8.91562C21.6805 10.2656 21.6899 10.4953 21.7602 10.6172C21.9336 10.9359 22.2899 11.1562 22.6321 11.1562C22.8571 11.1562 23.2508 10.9641 23.3727 10.7953C23.5789 10.5141 23.5789 10.4906 23.5321 7.58437C23.4899 4.8375 23.4899 4.81406 23.3821 4.59844C23.3164 4.46719 23.1946 4.32656 23.0727 4.24219L22.8664 4.10156L20.0258 4.0875L17.1805 4.07812L16.9461 4.19531Z" />
</svg>
