<svg width="21" height="21" viewBox="0 0 21 21" fill="none" xmlns="http://www.w3.org/2000/svg">
<path d="M8.99668 0.348442C6.73731 0.639067 4.66543 1.69844 3.06231 3.37188C0.563869 5.9875 -0.289257 9.77032 0.840431 13.2344C2.03574 16.8813 5.23262 19.5109 9.06231 19.9844C9.63418 20.0547 10.942 20.0406 11.5561 19.9609C14.4436 19.5813 17.0592 17.8891 18.6248 15.3906C19.4076 14.1438 19.9326 12.5922 20.0779 11.0828C20.3123 8.65938 19.5951 6.14688 18.1045 4.17813C17.7154 3.66719 16.9186 2.85157 16.4217 2.45313C15.0061 1.32344 13.3139 0.596878 11.5561 0.367191C10.9748 0.292191 9.53574 0.282816 8.99668 0.348442ZM11.8982 1.84375C15.367 2.58907 17.9592 5.2375 18.5873 8.67813C18.7279 9.46094 18.7279 10.8672 18.5873 11.65C18.1514 14.0266 16.7311 16.1125 14.6826 17.3828C13.8764 17.8844 12.892 18.2734 11.8748 18.4938C11.4436 18.5875 11.2467 18.5969 10.2576 18.6016C9.25918 18.6016 9.07637 18.5875 8.61699 18.4938C5.12481 17.7625 2.53262 15.1328 1.88106 11.6594C1.73574 10.8766 1.73574 9.47969 1.88106 8.67813C2.50918 5.2375 5.19981 2.5 8.59356 1.84844C9.32012 1.70782 9.28731 1.7125 10.3982 1.72657C11.2373 1.73594 11.5186 1.75938 11.8982 1.84375Z" fill="#F77D4E"/>
<path d="M11.2656 9.74219L8.47656 12.5312L7.10781 11.1625L5.73438 9.78906L5.23281 10.2953L4.72656 10.7969L6.60156 12.6719L8.47656 14.5469L11.7813 11.2422L15.0859 7.9375L14.5938 7.44531C14.3219 7.17344 14.0922 6.95312 14.0781 6.95312C14.0641 6.95312 12.7984 8.20937 11.2656 9.74219Z" fill="#F77D4E"/>
</svg>
