<svg width="22" height="21" viewBox="0 0 22 21" fill="#797979E0" xmlns="http://www.w3.org/2000/svg">
<path fill-rule="evenodd" clip-rule="evenodd" d="M17.0453 16.5934C18.6128 15.0382 19.5835 12.8825 19.5835 10.5C19.5835 5.75952 15.7406 1.91663 11.0001 1.91663C6.25965 1.91663 2.41675 5.75952 2.41675 10.5C2.41675 12.7972 3.31922 14.8837 4.78897 16.4242C6.07041 14.4251 8.31199 13.0991 10.8645 13.0991C13.4885 13.0991 15.7838 14.5002 17.0453 16.5934ZM15.8747 17.5658C14.9034 15.7967 13.0231 14.5991 10.8645 14.5991C8.76236 14.5991 6.92409 15.735 5.93232 17.4283C7.35253 18.4689 9.10456 19.0833 11.0001 19.0833C12.8106 19.0833 14.4902 18.5228 15.8747 17.5658ZM11.0001 20.5833C16.569 20.5833 21.0835 16.0689 21.0835 10.5C21.0835 4.9311 16.569 0.416626 11.0001 0.416626C5.43122 0.416626 0.916748 4.9311 0.916748 10.5C0.916748 16.0689 5.43122 20.5833 11.0001 20.5833ZM11 10.5688C11.997 10.5688 12.8053 9.76057 12.8053 8.76355C12.8053 7.76653 11.997 6.95828 11 6.95828C10.003 6.95828 9.19476 7.76653 9.19476 8.76355C9.19476 9.76057 10.003 10.5688 11 10.5688ZM11 12.0688C12.8255 12.0688 14.3053 10.589 14.3053 8.76355C14.3053 6.9381 12.8255 5.45828 11 5.45828C9.17458 5.45828 7.69476 6.9381 7.69476 8.76355C7.69476 10.589 9.17458 12.0688 11 12.0688Z" fill-opacity="0.47"/>
</svg>
