<svg width="24" height="24" viewBox="0 0 24 24" fill="none" xmlns="http://www.w3.org/2000/svg">
<path d="M0.75 23.625H6.75C6.95738 23.625 7.125 23.457 7.125 23.25V12C7.125 11.6974 6.94388 11.4372 6.68475 11.319L6.36337 10.0339C6.32175 9.86704 6.17212 9.75004 6 9.75004H5.48175L4.08525 6.95741C3.95775 6.70316 3.54187 6.70316 3.41437 6.95741L2.01825 9.75004H1.5C1.32788 9.75004 1.17825 9.86704 1.13625 10.0339L0.814875 11.319C0.556125 11.4372 0.375 11.6974 0.375 12V23.25C0.375 23.457 0.542625 23.625 0.75 23.625ZM4.5 22.875H3V21H4.5V22.875ZM6.375 22.875H5.25V20.625C5.25 20.418 5.08238 20.25 4.875 20.25H2.625C2.41762 20.25 2.25 20.418 2.25 20.625V22.875H1.125V12H6.375V22.875ZM3.75 7.96354L4.64325 9.75004H2.85675L3.75 7.96354ZM5.70712 10.5L5.895 11.25H1.60538L1.79325 10.5H5.70712Z" fill="#333299"/>
<path d="M22.875 16.875H17.625C17.2114 16.875 16.875 17.2114 16.875 17.625V23.25C16.875 23.457 17.0426 23.625 17.25 23.625H23.25C23.4574 23.625 23.625 23.457 23.625 23.25V17.625C23.625 17.2114 23.2886 16.875 22.875 16.875ZM21 22.875H19.5V22.125H21V22.875ZM22.875 22.875H21.75V21.75C21.75 21.543 21.5824 21.375 21.375 21.375H19.125C18.9176 21.375 18.75 21.543 18.75 21.75V22.875H17.625V17.625H22.875V22.875Z" fill="#333299"/>
<path d="M2.625 12.75H1.875V13.5H2.625V12.75Z" fill="#333299"/>
<path d="M4.125 12.75H3.375V13.5H4.125V12.75Z" fill="#333299"/>
<path d="M5.625 12.75H4.875V13.5H5.625V12.75Z" fill="#333299"/>
<path d="M2.625 14.25H1.875V15H2.625V14.25Z" fill="#333299"/>
<path d="M4.125 14.25H3.375V15H4.125V14.25Z" fill="#333299"/>
<path d="M5.625 14.25H4.875V15H5.625V14.25Z" fill="#333299"/>
<path d="M10.875 16.5H10.125V17.25H10.875V16.5Z" fill="#333299"/>
<path d="M12.375 16.5H11.625V17.25H12.375V16.5Z" fill="#333299"/>
<path d="M13.875 16.5H13.125V17.25H13.875V16.5Z" fill="#333299"/>
<path d="M19.125 18.375H18.375V19.125H19.125V18.375Z" fill="#333299"/>
<path d="M20.625 18.375H19.875V19.125H20.625V18.375Z" fill="#333299"/>
<path d="M22.125 18.375H21.375V19.125H22.125V18.375Z" fill="#333299"/>
<path d="M19.125 19.875H18.375V20.625H19.125V19.875Z" fill="#333299"/>
<path d="M20.625 19.875H19.875V20.625H20.625V19.875Z" fill="#333299"/>
<path d="M22.125 19.875H21.375V20.625H22.125V19.875Z" fill="#333299"/>
<path d="M10.875 18H10.125V18.75H10.875V18Z" fill="#333299"/>
<path d="M12.375 18H11.625V18.75H12.375V18Z" fill="#333299"/>
<path d="M13.875 18H13.125V18.75H13.875V18Z" fill="#333299"/>
<path d="M10.875 19.5H10.125V20.25H10.875V19.5Z" fill="#333299"/>
<path d="M12.375 19.5H11.625V20.25H12.375V19.5Z" fill="#333299"/>
<path d="M13.875 19.5H13.125V20.25H13.875V19.5Z" fill="#333299"/>
<path d="M2.625 15.75H1.875V16.5H2.625V15.75Z" fill="#333299"/>
<path d="M4.125 15.75H3.375V16.5H4.125V15.75Z" fill="#333299"/>
<path d="M5.625 15.75H4.875V16.5H5.625V15.75Z" fill="#333299"/>
<path d="M2.625 17.25H1.875V18H2.625V17.25Z" fill="#333299"/>
<path d="M4.125 17.25H3.375V18H4.125V17.25Z" fill="#333299"/>
<path d="M5.625 17.25H4.875V18H5.625V17.25Z" fill="#333299"/>
<path d="M2.625 18.75H1.875V19.5H2.625V18.75Z" fill="#333299"/>
<path d="M4.125 18.75H3.375V19.5H4.125V18.75Z" fill="#333299"/>
<path d="M5.625 18.75H4.875V19.5H5.625V18.75Z" fill="#333299"/>
<path d="M15.375 13.5H8.625C8.41762 13.5 8.25 13.668 8.25 13.875V15.375C8.25 15.582 8.41762 15.75 8.625 15.75V23.25C8.625 23.457 8.79262 23.625 9 23.625H15C15.2074 23.625 15.375 23.457 15.375 23.25V15.75C15.5824 15.75 15.75 15.582 15.75 15.375V13.875C15.75 13.668 15.5824 13.5 15.375 13.5ZM9 14.25H15V15H9V14.25ZM12.75 22.875H11.25V21.75H12.75V22.875ZM14.625 22.875H13.5V21.375C13.5 21.168 13.3324 21 13.125 21H10.875C10.6676 21 10.5 21.168 10.5 21.375V22.875H9.375V15.75H14.625V22.875Z" fill="#333299"/>
</svg>
