<svg width="24" height="24" viewBox="0 0 24 24" fill="none" xmlns="http://www.w3.org/2000/svg">
<path d="M12.7007 14.2001C12.2056 13.4997 11.4104 13.0717 10.5579 13.0393C10.5398 13.0372 10.5215 13.0361 10.503 13.0361C9.41853 13.0361 8.52242 12.2166 8.40022 11.1644C8.71245 10.937 9.00055 10.6485 9.25587 10.3028C9.7722 9.60375 10.1074 8.73029 10.2316 7.78571C10.2697 7.74432 10.3017 7.69613 10.3248 7.64129C10.5434 7.1207 10.6542 6.5649 10.6542 5.98932C10.6542 3.77584 8.98072 1.9751 6.92375 1.9751C6.39177 1.9751 5.87563 2.09594 5.38776 2.33439C5.20537 2.34977 5.02663 2.38258 4.85502 2.43227C3.13537 2.9291 2.16342 5.00837 2.68846 7.06726C2.74129 7.2744 2.80846 7.47812 2.88824 7.6727C2.90999 7.72585 2.94046 7.77254 2.97637 7.81332C3.17442 9.26747 3.86268 10.4774 4.80398 11.1618C4.68299 12.2152 3.78623 13.0362 2.70084 13.0362C2.68415 13.0362 2.66765 13.0371 2.65134 13.0387C1.18054 13.0907 0 14.3025 0 15.7858V18.7454C0 19.0216 0.223828 19.2454 0.499968 19.2454H9.33359C9.60968 19.2454 9.83356 19.0216 9.83356 18.7454C9.83356 18.4693 9.60968 18.2455 9.33359 18.2455H0.999889V15.7857C0.999889 14.8208 1.78486 14.0359 2.74973 14.0359C2.76642 14.0359 2.78292 14.035 2.79923 14.0334C3.15937 14.0221 3.50423 13.9497 3.82382 13.8258L6.19086 17.2422C6.28424 17.3769 6.4378 17.4574 6.60182 17.4574C6.76583 17.4574 6.91939 17.377 7.01277 17.2422L9.37986 13.8258C9.6995 13.9497 10.0443 14.0221 10.4044 14.0334C10.4208 14.035 10.4373 14.0359 10.4539 14.0359C11.0214 14.0359 11.556 14.313 11.8841 14.7772C11.9815 14.915 12.1359 14.9886 12.2928 14.9886C12.3926 14.9886 12.4933 14.9588 12.5809 14.8969C12.8065 14.7376 12.86 14.4256 12.7007 14.2001ZM5.13243 3.39269C5.26358 3.35481 5.40229 3.33231 5.54474 3.32589C5.61815 3.32261 5.68977 3.3032 5.75483 3.26903C6.12636 3.07385 6.51955 2.97485 6.92356 2.97485C8.39872 2.97485 9.60359 4.273 9.65187 5.88868C9.35122 5.66134 8.9772 5.5262 8.57211 5.5262H5.95747C5.82725 5.5262 5.7036 5.48533 5.60005 5.40803C5.51141 5.34189 5.44297 5.25311 5.40205 5.15106C5.3076 4.91603 5.07393 4.76922 4.8216 4.78515C4.56773 4.80142 4.35412 4.97786 4.29013 5.22395C4.16259 5.71393 3.92446 6.17026 3.6007 6.55778C3.34138 5.10812 3.99435 3.72152 5.13243 3.39269ZM3.95995 7.62681C4.39663 7.22649 4.75002 6.74134 4.99677 6.20556C4.99846 6.20682 5.00019 6.20809 5.00193 6.20936C5.27966 6.41664 5.61004 6.52614 5.95743 6.52614H8.57206C8.88612 6.52614 9.15739 6.70989 9.28615 6.97506C9.28283 8.01366 8.9869 8.98383 8.4515 9.70857C7.94661 10.392 7.28971 10.7684 6.60172 10.7684C5.96502 10.7684 5.34515 10.4395 4.85629 9.8423C4.38201 9.26297 4.06818 8.48316 3.95995 7.62681ZM6.60177 16.0796L4.68848 13.3181C5.20176 12.8922 5.57591 12.3048 5.73411 11.6349C6.01269 11.7221 6.30322 11.7684 6.60172 11.7684C6.89863 11.7684 7.18939 11.7233 7.46984 11.6363C7.62824 12.3056 8.00225 12.8924 8.51516 13.318L6.60177 16.0796Z" fill="#333299"/>
<path d="M21.3487 15.8182C21.3324 15.8166 21.3159 15.8157 21.2992 15.8157C20.2132 15.8157 19.3161 14.994 19.1958 13.9396C19.8081 13.4938 20.313 12.8252 20.6457 12.0122C20.6934 12.168 20.8153 12.2938 20.9757 12.3436C21.0244 12.3586 21.0743 12.366 21.1237 12.366C21.2752 12.366 21.4218 12.297 21.5182 12.1732C22.2158 11.2773 22.5783 10.1113 22.5393 8.89C22.501 7.69188 22.0798 6.56711 21.3533 5.72299C20.6094 4.85871 19.6274 4.37773 18.5871 4.36779C18.5319 4.36554 18.3947 4.37027 18.3725 4.37163C17.8381 4.12919 17.2733 4.01595 16.6917 4.03441C15.4905 4.0728 14.3856 4.67149 13.5807 5.72018C12.7984 6.73928 12.3921 8.06852 12.4367 9.46314C12.4443 9.69943 12.4629 9.91703 12.4931 10.1242C12.5745 10.7185 12.7383 11.2877 12.9797 11.816C13.0565 11.9841 13.2199 12.0961 13.4044 12.1072C13.5883 12.1183 13.7644 12.0267 13.8609 11.8689C13.9011 11.8032 13.9528 11.7212 14.0099 11.6409C14.2328 12.318 14.5735 12.9263 15.0061 13.4066C15.1907 13.6115 15.39 13.7897 15.5999 13.9417C15.4787 14.9949 14.582 15.8156 13.4968 15.8156C13.4801 15.8156 13.4636 15.8165 13.4473 15.8181C11.9766 15.8702 10.7961 17.0822 10.7961 18.5653V21.525C10.7961 21.8011 11.02 22.025 11.2961 22.025H23.4998C23.7759 22.025 23.9998 21.8011 23.9998 21.525V18.5653C23.9999 17.0823 22.8193 15.8704 21.3487 15.8182ZM13.5989 10.5762C13.5496 10.3836 13.5109 10.1861 13.4832 9.98434C13.4579 9.81053 13.4426 9.62959 13.4362 9.43126C13.399 8.26703 13.732 7.16528 14.3739 6.32908C14.993 5.52246 15.8275 5.06252 16.7237 5.03388C16.7536 5.0329 17.3981 4.99662 18.0559 5.32811C18.1294 5.36515 18.2142 5.38235 18.2967 5.38001C18.3062 5.37972 18.5628 5.36758 18.5703 5.36768C19.3212 5.37265 20.0404 5.73054 20.5954 6.37535C21.1735 7.04697 21.5089 7.95137 21.5399 8.92201C21.5567 9.44922 21.4827 9.9617 21.3258 10.4332C21.2786 10.3073 21.2259 10.1833 21.1679 10.0614C20.6852 9.03437 19.8726 8.23886 18.8799 7.82134C18.7541 7.76847 18.6123 7.76927 18.4871 7.82355C18.362 7.87778 18.2645 7.98081 18.2172 8.10878C18.1506 8.28859 18.07 8.46376 17.9774 8.62937C17.7156 9.09747 17.1879 9.37595 16.6011 9.35542C16.513 9.35242 16.4236 9.35228 16.3355 9.35509C15.9032 9.36892 15.4816 9.45133 15.0802 9.60081C14.6837 9.75043 14.0174 10.1259 13.5989 10.5762ZM14.8288 10.8483C15.0184 10.7213 15.2201 10.6167 15.4313 10.5369C15.7287 10.4262 16.0436 10.3648 16.3674 10.3544C16.4335 10.3523 16.5004 10.3524 16.5664 10.3547C17.5318 10.3877 18.4047 9.91379 18.8501 9.11734C18.8775 9.06836 18.9041 9.01862 18.9298 8.96842C19.3858 9.24934 19.7756 9.64529 20.0687 10.1259C20.0661 10.1407 20.064 10.1555 20.0627 10.1708C19.9861 11.1194 19.6588 11.99 19.1413 12.6221C18.6524 13.2194 18.0326 13.5482 17.3958 13.5482C16.2188 13.5481 15.1717 12.4293 14.8288 10.8483ZM16.5305 14.4137C16.8119 14.5016 17.1021 14.548 17.3958 14.548C17.6951 14.548 17.9863 14.5014 18.2656 14.4138C18.4664 15.2652 19.017 15.9825 19.7571 16.4057C19.4684 17.4489 18.5089 18.1991 17.3981 18.1991C16.2873 18.1991 15.3279 17.4489 15.0392 16.4056C15.7792 15.9825 16.3298 15.2651 16.5305 14.4137ZM23 21.0252H11.7962V18.5654C11.7962 17.6006 12.5811 16.8156 13.546 16.8156C13.5627 16.8156 13.5792 16.8147 13.5955 16.8131C13.7677 16.8077 13.9365 16.7887 14.1006 16.7564C14.5349 18.1822 15.8637 19.1991 17.3981 19.1991C18.9325 19.1991 20.2613 18.1822 20.6957 16.7565C20.8597 16.7888 21.0285 16.8077 21.2006 16.8131C21.2169 16.8147 21.2334 16.8156 21.2501 16.8156C22.215 16.8156 23 17.6005 23 18.5654V21.0252Z" fill="#333299"/>
</svg>
