<svg width="20" height="20" viewBox="0 0 20 20" fill="white" xmlns="http://www.w3.org/2000/svg">
<path fill-rule="evenodd" clip-rule="evenodd" d="M10 1.5C5.313 1.5 1.5 5.313 1.5 10C1.5 14.687 5.313 18.5 10 18.5C14.687 18.5 18.5 14.687 18.5 10C18.5 5.313 14.687 1.5 10 1.5ZM10 20C4.486 20 0 15.514 0 10C0 4.486 4.486 0 10 0C15.514 0 20 4.486 20 10C20 15.514 15.514 20 10 20Z" />
<path fill-rule="evenodd" clip-rule="evenodd" d="M13.4312 13.6927C13.3002 13.6927 13.1682 13.6587 13.0472 13.5877L9.27719 11.3387C9.05119 11.2027 8.91119 10.9577 8.91119 10.6937V5.8457C8.91119 5.4317 9.24719 5.0957 9.66119 5.0957C10.0762 5.0957 10.4112 5.4317 10.4112 5.8457V10.2677L13.8162 12.2977C14.1712 12.5107 14.2882 12.9707 14.0762 13.3267C13.9352 13.5617 13.6862 13.6927 13.4312 13.6927Z"/>
</svg>
