<svg width="24" height="24" viewBox="0 0 24 24" fill="white" xmlns="http://www.w3.org/2000/svg">
<path d="M2.18438 0.801562C1.89375 0.871875 1.46719 1.12031 1.26094 1.34531C1.15781 1.45781 1.00313 1.69219 0.923438 1.86562L0.773438 2.17969V4.5V6.82031L0.923438 7.13437C1.12969 7.57031 1.39219 7.84219 1.81875 8.05312L2.175 8.22656L3.65156 8.24062L5.13281 8.25469L6.62813 9.37969C7.77188 10.2375 8.15625 10.5 8.25938 10.5C8.42344 10.5 8.625 10.3125 8.625 10.1625C8.625 10.1016 8.55938 9.68437 8.48438 9.23438C8.40938 8.78437 8.34375 8.38125 8.34375 8.33906C8.34375 8.26875 8.43281 8.25937 9.08438 8.24531L9.825 8.22656L10.1813 8.05312C10.6078 7.84219 10.8703 7.57031 11.0766 7.13437L11.2266 6.82031V4.49531V2.175L11.0531 1.81875C10.8422 1.39219 10.5703 1.12969 10.1344 0.923437L9.82031 0.773438L6.09375 0.764062C3.94219 0.759375 2.29219 0.778125 2.18438 0.801562ZM9.72188 1.55625C9.97969 1.63125 10.3688 2.02031 10.4438 2.27812C10.5234 2.55 10.5234 6.45 10.4438 6.72187C10.3688 6.97969 9.97969 7.36875 9.72188 7.44375C9.6 7.48125 9.19688 7.5 8.62969 7.5C7.73906 7.5 7.72969 7.5 7.61719 7.61719C7.47656 7.75781 7.47188 7.78594 7.6125 8.5875C7.66875 8.94375 7.71094 9.23438 7.70156 9.23438C7.69219 9.23438 7.16719 8.84531 6.52969 8.36719L5.37656 7.5H3.92344C2.92031 7.5 2.41406 7.48125 2.27813 7.44375C2.02031 7.36875 1.63125 6.97969 1.55625 6.72187C1.47656 6.45 1.47656 2.55 1.55625 2.27812C1.62656 2.03906 2.02031 1.63594 2.25 1.56094C2.49375 1.48594 9.45938 1.48125 9.72188 1.55625Z" />
<path d="M3.75083 2.31088C3.52114 2.38588 3.12739 2.78901 3.05708 3.02807C2.92583 3.4687 3.01958 3.82026 3.35239 4.14838C3.83052 4.6312 4.49145 4.62182 4.93677 4.12495C5.35864 3.6562 5.35864 3.0937 4.93677 2.62495C4.63208 2.28745 4.19614 2.17026 3.75083 2.31088ZM4.38364 3.11713C4.61802 3.34682 4.45395 3.74995 4.12583 3.74995C3.93364 3.74995 3.75083 3.56713 3.75083 3.37495C3.75083 3.18276 3.93364 2.99995 4.12583 2.99995C4.21489 2.99995 4.31333 3.04213 4.38364 3.11713Z" />
<path d="M5.71875 4.24219L3.86719 6.09375L4.13906 6.36094L4.40625 6.63281L6.25781 4.78125C7.275 3.76406 8.10938 2.90625 8.10938 2.88281C8.10938 2.82187 7.67813 2.39062 7.61719 2.39062C7.58906 2.39062 6.73594 3.225 5.71875 4.24219Z" />
<path d="M7.50083 4.56088C7.27114 4.63588 6.87739 5.03901 6.80708 5.27807C6.67583 5.7187 6.76958 6.07026 7.10239 6.39838C7.58052 6.8812 8.24145 6.87182 8.68677 6.37495C9.10864 5.9062 9.10864 5.3437 8.68677 4.87495C8.38208 4.53745 7.94614 4.42026 7.50083 4.56088ZM8.13364 5.36713C8.36802 5.59682 8.20395 5.99995 7.87583 5.99995C7.68364 5.99995 7.50083 5.81713 7.50083 5.62495C7.50083 5.43276 7.68364 5.24995 7.87583 5.24995C7.96489 5.24995 8.06333 5.29213 8.13364 5.36713Z" />
<path d="M13.395 2.775C13.245 2.79375 12.9637 2.87344 12.7622 2.95312C12.5653 3.03281 12.3122 3.1125 12.1997 3.12656L11.9981 3.15469V3.52969V3.90469L12.2466 3.87656C12.3778 3.8625 12.6169 3.80625 12.7716 3.75C12.9262 3.69375 13.1372 3.61406 13.2356 3.57656C13.3387 3.53906 13.5403 3.50625 13.6856 3.50625C13.995 3.50156 14.4356 3.59531 14.4356 3.66562C14.4356 3.72656 13.4091 6.05625 13.3575 6.10781C13.3387 6.13125 13.2075 6.12656 13.0669 6.09844C12.9262 6.075 12.6262 6.0375 12.4059 6.01875L11.9981 5.98594V6.35625V6.73125L12.5044 6.78281C13.77 6.92344 14.8247 7.42031 15.7012 8.29687C16.4184 9.01875 16.8825 9.85781 17.1403 10.9172C17.2059 11.1797 17.22 11.6437 17.2341 13.9266L17.2528 16.6266L16.5825 16.6547C15.8372 16.6781 15.3684 16.7906 14.7731 17.0719L14.4591 17.2266L12.8419 17.25C11.2809 17.2734 11.2153 17.2781 11.0137 17.3812C10.6762 17.5453 10.4794 17.7375 10.3106 18.0562C10.1653 18.3234 10.1512 18.3891 10.1466 18.7359C10.1466 18.9516 10.1419 19.125 10.1419 19.125C10.1372 19.125 9.44343 18.8062 8.59499 18.4172C7.74655 18.0281 6.98249 17.7 6.9028 17.6859L6.74812 17.6578V14.6531C6.74812 12.2859 6.76218 11.5547 6.81374 11.2031C6.85124 10.9594 6.89812 10.7203 6.91218 10.6781C6.93562 10.6172 6.89343 10.5891 6.69187 10.5328C6.14812 10.3734 6.20905 10.3453 6.11062 10.8141C6.03093 11.1844 6.02155 11.5406 6.00749 14.4891L5.99343 17.7516L5.88093 17.8031C5.68405 17.8922 5.41218 18.1734 5.29499 18.4078C5.1403 18.7078 5.11218 19.2094 5.22468 19.5516C5.37468 19.9922 5.54343 20.1187 8.03718 21.6141C9.46687 22.4719 10.4559 23.0344 10.6622 23.1094L10.9903 23.2266L17.1216 23.2406L23.2481 23.25V22.875V22.5H21.5606H19.8731V20.4375V18.375H21.5606H23.2481V18V17.625H21.4387H19.6341L19.3669 17.4422C19.0434 17.2266 18.6825 17.0391 18.3028 16.8984L18.0216 16.7906L17.9934 13.9875C17.9653 10.9266 17.9653 10.9547 17.67 10.0734C17.1731 8.59219 15.9637 7.23281 14.5622 6.58594C14.3653 6.49687 14.1872 6.42188 14.1591 6.42188C14.1309 6.42188 14.1075 6.39375 14.1075 6.36094C14.1075 6.32812 14.3934 5.6625 14.7403 4.87969C15.0872 4.09687 15.3731 3.4125 15.3731 3.35156C15.3731 3.14531 15.2325 3.04688 14.7637 2.925C14.2153 2.77969 13.7466 2.72812 13.395 2.775ZM17.9512 17.5734C18.195 17.6531 18.5606 17.8219 18.7622 17.9391L19.1231 18.1594V20.3297V22.5L15.1059 22.4906C12.0216 22.4766 11.0419 22.4625 10.9106 22.4156C10.6059 22.3125 6.26999 19.6922 6.0778 19.4953C5.91843 19.3312 5.90437 19.2937 5.90437 19.0594C5.90437 18.8531 5.9278 18.7781 6.02624 18.6562C6.19968 18.4547 6.40124 18.3609 6.6028 18.3891C6.69655 18.3984 7.67624 18.825 8.78249 19.3312L10.7934 20.25H12.7809H14.7684L14.8809 20.1328C15.0216 19.9969 15.0309 19.7859 14.9091 19.6359L14.82 19.5234L13.0856 19.5C11.4216 19.4766 11.3419 19.4719 11.22 19.3781C10.9716 19.1953 10.8966 19.0453 10.8966 18.75C10.8966 18.4547 10.9716 18.3047 11.22 18.1219C11.3419 18.0281 11.4262 18.0234 12.9966 18L14.6466 17.9766L14.9934 17.7937C15.1856 17.6953 15.5372 17.5641 15.7669 17.5031C16.1419 17.4047 16.2731 17.3906 16.8497 17.4047C17.4403 17.4187 17.5528 17.4375 17.9512 17.5734Z" />
<path d="M11.6275 9.375V9.75H11.4493C10.8868 9.75 10.3478 10.1437 10.1931 10.6641C10.0478 11.1703 10.2118 11.7469 10.5915 12.0469C10.6853 12.1172 11.2525 12.4219 11.8525 12.7219C12.7478 13.1719 12.9587 13.2937 13.0337 13.4203C13.1462 13.6031 13.1509 13.7953 13.0478 13.9734C12.8978 14.2266 12.7759 14.25 11.5853 14.25H10.5025V14.625V15H11.065H11.6275V15.375V15.75H12.0025H12.3775V15.375V15H12.5556C13.1181 15 13.6572 14.6062 13.8118 14.0859C13.9525 13.5938 13.7931 13.0172 13.4368 12.7172C13.3618 12.6562 12.7947 12.3516 12.1806 12.0422C11.2618 11.5828 11.0462 11.4562 10.9712 11.3297C10.8587 11.1469 10.854 10.9547 10.9525 10.7812C11.1118 10.5141 11.1868 10.5 12.3962 10.5H13.5025V10.125V9.75H12.94H12.3775V9.375V9H12.0025H11.6275V9.375Z" />
<path d="M20.625 21.375V21.75H21H21.375V21.375V21H21H20.625V21.375Z" />
</svg>
