<svg width="22" height="17" viewBox="0 0 22 17" fill="#3031D9" xmlns="http://www.w3.org/2000/svg">
<path fill-rule="evenodd" clip-rule="evenodd" d="M0 4.79687C0 2.17352 2.12665 0.046875 4.75 0.046875H16.75C19.3734 0.046875 21.5 2.17352 21.5 4.79687V4.99877V11.5035C21.5 14.1269 19.3734 16.2535 16.75 16.2535H4.75C2.12665 16.2535 0 14.1269 0 11.5035V4.99877V4.79687ZM1.54602 4.24877H19.954C19.6935 2.71484 18.3581 1.54688 16.75 1.54688H4.75C3.14188 1.54688 1.80655 2.71484 1.54602 4.24877ZM20 5.74877H1.5V11.5035C1.5 13.2984 2.95507 14.7535 4.75 14.7535H16.75C18.5449 14.7535 20 13.2984 20 11.5035V5.74877ZM12 11.3016C12 10.8874 12.3358 10.5516 12.75 10.5516H16.75C17.1642 10.5516 17.5 10.8874 17.5 11.3016C17.5 11.7158 17.1642 12.0516 16.75 12.0516H12.75C12.3358 12.0516 12 11.7158 12 11.3016Z" />
</svg>
