<svg width="16" height="24" viewBox="0 0 16 24" fill="white" xmlns="http://www.w3.org/2000/svg">
<path d="M15.4216 14.8071L15.4212 14.8068L15.421 14.8065C15.3012 14.6728 15.1471 14.5745 14.9753 14.5224L8.48501 12.5607C8.17053 12.4648 7.83462 12.4648 7.52013 12.5606L1.02914 14.5225C0.857532 14.5747 0.703517 14.6729 0.583872 14.8065L0.583595 14.8068L0.583276 14.8071C0.424042 14.9858 0.336021 15.2168 0.335945 15.4562V20.6171C0.335106 20.8266 0.402086 21.0307 0.526869 21.1989C0.651652 21.3671 0.827534 21.4904 1.02821 21.5503L7.51742 23.5211C7.67453 23.5692 7.83791 23.5935 8.0022 23.5934C8.02468 23.5934 8.04706 23.5903 8.06876 23.5844C8.06821 23.5866 8.06793 23.5889 8.06738 23.591C8.2095 23.586 8.35036 23.5625 8.48645 23.5213L14.9813 21.5486C15.1808 21.4878 15.3553 21.3644 15.4791 21.1966C15.6028 21.0288 15.6692 20.8256 15.6684 20.6171V15.4562C15.6685 15.2169 15.5806 14.9859 15.4216 14.8071ZM7.74438 23.0485C7.71866 23.0425 7.69313 23.0357 7.6678 23.0279L1.17804 21.057C1.08343 21.0287 1.0005 20.9706 0.94165 20.8913C0.882801 20.8121 0.851196 20.7159 0.851561 20.6171V15.4562C0.851571 15.3962 0.863345 15.3368 0.886215 15.2814L7.60405 17.3219L7.6285 17.3293L7.74438 17.3645V23.0485ZM8.0022 16.9039L1.48337 14.9239L7.66967 13.0541C7.88673 12.988 8.11855 12.988 8.33559 13.0542L14.5214 14.9239L12.4906 15.5407L9.45424 14.6255C9.42108 14.6152 9.38562 14.6149 9.35228 14.6246L7.82159 15.0592C7.80199 15.0648 7.78473 15.0766 7.77239 15.0928C7.76005 15.109 7.75329 15.1288 7.75313 15.1492C7.75297 15.1696 7.75941 15.1895 7.77149 15.2059C7.78357 15.2223 7.80064 15.2344 7.82014 15.2403L10.6647 16.0953L8.0022 16.9039ZM15.1528 20.6171C15.1533 20.7151 15.1222 20.8107 15.0641 20.8897C15.0061 20.9686 14.9241 21.0268 14.8304 21.0556L8.33586 23.0281C8.31082 23.0358 8.28554 23.0426 8.26001 23.0485V17.3645L11.1003 16.5019V18.6124C11.1003 18.6404 11.1067 18.6681 11.1192 18.6933C11.1316 18.7184 11.1497 18.7404 11.1721 18.7574C11.1944 18.7744 11.2203 18.786 11.2479 18.7914C11.2754 18.7967 11.3038 18.7956 11.3309 18.7882L12.8015 18.3831C12.84 18.3726 12.874 18.3496 12.8982 18.3178C12.9224 18.2861 12.9355 18.2472 12.9355 18.2073V16.0018C12.9355 15.983 12.9343 15.9643 12.9319 15.9456V15.9456L15.1528 15.271L15.1528 20.6171Z" />
<path d="M8.70312 22.2465L10.7481 21.5884V21.0642L8.70312 21.7223V22.2465Z" />
<path d="M8.70312 21.2868L10.7481 20.6287V20.1045L8.70312 20.7626V21.2868Z" />
<path d="M7.38489 11.0078C7.5665 11.1176 7.77466 11.1756 7.98685 11.1756C8.19904 11.1756 8.4072 11.1176 8.58881 11.0078C9.7968 10.2793 12.4014 8.17301 12.3955 3.55823C12.3962 3.39488 12.3353 3.23728 12.2249 3.11687C12.1145 2.99646 11.9628 2.92209 11.8 2.9086C11.0077 2.84871 9.56591 2.52703 8.53907 1.07136C8.47685 0.982659 8.39419 0.910253 8.29806 0.860265C8.20194 0.810278 8.09519 0.78418 7.98685 0.78418C7.8785 0.78418 7.77175 0.810278 7.67563 0.860265C7.57951 0.910253 7.49684 0.982659 7.43463 1.07136C6.4078 2.52703 4.966 2.84871 4.17372 2.9086C4.01092 2.92208 3.85919 2.99645 3.7488 3.11686C3.6384 3.23727 3.57746 3.39487 3.57813 3.55823C3.57229 8.17301 6.17688 10.2793 7.38489 11.0078ZM4.95323 3.88858C6.0262 3.69748 7.00893 3.16545 7.75552 2.37147C7.7852 2.33988 7.82104 2.31471 7.86082 2.2975C7.90061 2.28029 7.9435 2.27141 7.98685 2.27141C8.03019 2.27141 8.07308 2.28029 8.11287 2.2975C8.15265 2.31471 8.18849 2.33988 8.21817 2.37147C8.96473 3.16548 9.94747 3.69752 11.0204 3.88859C11.097 3.90264 11.1658 3.9441 11.2141 4.0052C11.2623 4.06631 11.2866 4.14289 11.2825 4.22063C11.0859 7.82614 9.00206 9.47416 8.08033 10.0301C8.0522 10.0472 8.01988 10.0563 7.98691 10.0564C7.95394 10.0564 7.92161 10.0473 7.89347 10.0301C6.97167 9.47416 4.88785 7.8261 4.69123 4.22062C4.68709 4.14289 4.71141 4.06631 4.75963 4.00521C4.80784 3.9441 4.87667 3.90264 4.95323 3.88858Z" />
<path d="M8.0063 7.90888C8.46844 7.90848 8.91292 7.73129 9.24859 7.41364C9.58426 7.096 9.78569 6.66196 9.81156 6.20054H9.24055C9.2212 6.44044 9.13236 6.6695 8.9849 6.85971C8.83744 7.04992 8.63775 7.19304 8.41024 7.27156C8.18273 7.35008 7.93728 7.3606 7.70389 7.30183C7.4705 7.24307 7.25929 7.11756 7.09609 6.94067C6.9329 6.76377 6.82479 6.54315 6.78498 6.30579C6.74518 6.06843 6.77541 5.82462 6.87198 5.60416C6.96854 5.38371 7.12725 5.19617 7.32871 5.06449C7.53016 4.9328 7.76563 4.86268 8.0063 4.86269V4.29273C7.76862 4.29234 7.53319 4.33883 7.31349 4.42952C7.09378 4.52021 6.89412 4.65334 6.72592 4.82127C6.55771 4.9892 6.42427 5.18865 6.33322 5.40821C6.24218 5.62776 6.19531 5.86312 6.19531 6.1008C6.19531 6.33849 6.24218 6.57384 6.33322 6.79339C6.42427 7.01295 6.55771 7.2124 6.72592 7.38033C6.89412 7.54827 7.09378 7.68139 7.31349 7.77208C7.53319 7.86277 7.76862 7.90926 8.0063 7.90888Z" />
<path d="M7.50578 5.5071L7.04688 5.92658L7.73018 6.67415C7.75908 6.70576 7.7942 6.73107 7.83334 6.74847C7.87247 6.76588 7.91479 6.77501 7.95762 6.77529H7.95965C8.00215 6.77529 8.04419 6.76658 8.08318 6.7497C8.12218 6.73281 8.1573 6.70812 8.18638 6.67713L9.63694 5.13101L9.18346 4.70557L7.96261 6.00685L7.50578 5.5071Z" />
</svg>
