<svg width="779" height="464" viewBox="0 0 779 464" fill="none" xmlns="http://www.w3.org/2000/svg">
<g filter="url(#filter0_dd_2350_93670)">
<path d="M513.933 34.3249C513.933 24.0967 522.205 15.8052 532.409 15.8052L756.128 15.8052C766.331 15.8052 774.603 24.0967 774.603 34.3249L774.603 359.627C774.603 369.855 766.331 378.147 756.128 378.147L532.409 378.147C522.205 378.147 513.933 369.855 513.933 359.627L513.933 34.3249Z" fill="#3A4245"/>
</g>
<path d="M515.539 34.3248C515.539 24.9861 523.092 17.4155 532.408 17.4155L756.127 17.4155C765.444 17.4155 772.997 24.9861 772.997 34.3248L772.997 359.627C772.997 368.966 765.444 376.536 756.127 376.536L532.408 376.536C523.092 376.536 515.539 368.966 515.539 359.627L515.539 34.3248Z" fill="#121515"/>
<path fill-rule="evenodd" clip-rule="evenodd" d="M774.604 44.3899C775.047 44.3899 775.407 44.5197 775.407 44.6798L775.407 58.5937C775.407 58.7538 775.047 58.8836 774.604 58.8836L774.604 44.3899Z" fill="#121515"/>
<path fill-rule="evenodd" clip-rule="evenodd" d="M774.604 61.7017C775.047 61.7017 775.407 61.835 775.407 61.9996L775.407 76.3C775.407 76.4645 775.047 76.5979 774.604 76.5979L774.604 61.7017Z" fill="#121515"/>
<path fill-rule="evenodd" clip-rule="evenodd" d="M731.226 15.8052C731.226 15.3605 731.449 15 731.724 15L755.63 15C755.905 15 756.128 15.3605 756.128 15.8052L731.226 15.8052Z" fill="#121515"/>
<mask id="mask0_2350_93670" style="mask-type:alpha" maskUnits="userSpaceOnUse" x="529" y="31" width="231" height="332">
<path d="M529.195 36.3378C529.195 33.4473 531.533 31.104 534.417 31.104L754.119 31.104C757.003 31.104 759.341 33.4473 759.341 36.3378L759.341 357.614C759.341 360.505 757.003 362.848 754.119 362.848L534.417 362.848C531.533 362.848 529.195 360.505 529.195 357.614L529.195 36.3378Z" fill="white"/>
</mask>
<g mask="url(#mask0_2350_93670)">
<path d="M529.195 36.3378C529.195 33.4473 531.533 31.104 534.417 31.104L754.119 31.104C757.003 31.104 759.341 33.4473 759.341 36.3378L759.341 357.614C759.341 360.505 757.003 362.848 754.119 362.848L534.417 362.848C531.533 362.848 529.195 360.505 529.195 357.614L529.195 36.3378Z" fill="#FAFAFA"/>
</g>
<g filter="url(#filter1_d_2350_93670)">
<g filter="url(#filter2_f_2350_93670)">
<path d="M105.846 373.827H563.993C568.936 373.827 580.901 375.126 590.717 376.729C600.532 378.332 603.884 379.631 598.203 379.631H71.6359C65.9545 379.631 69.3062 378.332 79.122 376.729C88.9379 375.126 100.902 373.827 105.846 373.827Z" fill="black" fill-opacity="0.4"/>
</g>
<g filter="url(#filter3_dd_2350_93670)">
<path d="M99.2344 67.0003C99.2344 59.1983 99.2344 55.2973 100.747 52.3173C102.078 49.696 104.202 47.5649 106.813 46.2293C109.783 44.7109 113.67 44.7109 121.444 44.7109H548.106C555.88 44.7109 559.767 44.7109 562.736 46.2293C565.348 47.5649 567.471 49.696 568.802 52.3173C570.315 55.2973 570.315 59.1983 570.315 67.0003V346.894C570.315 354.696 570.315 358.597 568.802 361.577C567.471 364.198 565.348 366.329 562.736 367.665C559.767 369.183 555.88 369.183 548.106 369.183H121.444C113.67 369.183 109.783 369.183 106.813 367.665C104.202 366.329 102.078 364.198 100.747 361.577C99.2344 358.597 99.2344 354.696 99.2344 346.894V67.0003Z" fill="#3A4245"/>
</g>
<path d="M100.391 66.3037C100.391 59.1519 100.391 55.576 101.777 52.8443C102.997 50.4415 104.944 48.488 107.338 47.2637C110.06 45.8718 113.623 45.8718 120.749 45.8718H548.799C555.925 45.8718 559.488 45.8718 562.21 47.2637C564.605 48.488 566.551 50.4415 567.771 52.8443C569.158 55.576 569.158 59.1519 569.158 66.3037V347.59C569.158 354.742 569.158 358.318 567.771 361.05C566.551 363.453 564.605 365.406 562.21 366.631C559.488 368.022 555.925 368.022 548.799 368.022H120.749C113.623 368.022 110.06 368.022 107.338 366.631C104.944 365.406 102.997 363.453 101.777 361.05C100.391 358.318 100.391 354.742 100.391 347.59V66.3037Z" fill="#262C2D"/>
<path d="M101.548 65.6072C101.548 59.1055 101.548 55.8547 102.809 53.3714C103.918 51.187 105.687 49.411 107.864 48.298C110.338 47.0327 113.577 47.0327 120.056 47.0327H549.494C555.972 47.0327 559.211 47.0327 561.686 48.298C563.862 49.411 565.632 51.187 566.741 53.3714C568.001 55.8547 568.001 59.1055 568.001 65.6072V348.287C568.001 354.789 568.001 358.039 566.741 360.523C565.632 362.707 563.862 364.483 561.686 365.596C559.211 366.861 555.972 366.861 549.494 366.861H120.056C113.577 366.861 110.338 366.861 107.864 365.596C105.687 364.483 103.918 362.707 102.809 360.523C101.548 358.039 101.548 354.789 101.548 348.287V65.6072Z" fill="#121515"/>
<rect x="101.548" y="351.479" width="466.454" height="8.70679" fill="#262C2D"/>
<mask id="mask1_2350_93670" style="mask-type:alpha" maskUnits="userSpaceOnUse" x="111" y="63" width="448" height="282">
<rect x="111.38" y="63.8657" width="446.789" height="280.358" fill="white"/>
</mask>
<g mask="url(#mask1_2350_93670)">
<rect x="111.38" y="63.8657" width="446.789" height="280.358" fill="#FAFAFA"/>
</g>
<path fill-rule="evenodd" clip-rule="evenodd" d="M334.775 57.7711C335.654 57.7711 336.366 57.0564 336.366 56.1749C336.366 55.2933 335.654 54.5786 334.775 54.5786C333.897 54.5786 333.185 55.2933 333.185 56.1749C333.185 57.0564 333.897 57.7711 334.775 57.7711Z" fill="#262C2D"/>
<path fill-rule="evenodd" clip-rule="evenodd" d="M334.775 57.1725C335.324 57.1725 335.769 56.7259 335.769 56.1749C335.769 55.6239 335.324 55.1772 334.775 55.1772C334.226 55.1772 333.781 55.6239 333.781 56.1749C333.781 56.7259 334.226 57.1725 334.775 57.1725Z" fill="#121515"/>
<path opacity="0.4" fill-rule="evenodd" clip-rule="evenodd" d="M334.775 55.9752C334.885 55.9752 334.974 55.8859 334.974 55.7757C334.974 55.6655 334.885 55.5762 334.775 55.5762C334.665 55.5762 334.576 55.6655 334.576 55.7757C334.576 55.8859 334.665 55.9752 334.775 55.9752Z" fill="#636F73"/>
<path d="M44 360.767C44 360.446 44.2589 360.186 44.5784 360.186H334.196C334.516 360.186 334.774 360.446 334.774 360.767V369.183H44V360.767Z" fill="url(#paint0_linear_2350_93670)"/>
<path d="M625.404 360.767C625.404 360.446 625.145 360.186 624.826 360.186H335.208C334.889 360.186 334.63 360.446 334.63 360.767V369.183H625.404V360.767Z" fill="url(#paint1_linear_2350_93670)"/>
<path d="M299.928 366.571H369.621C373.294 366.571 376.272 363.713 376.272 360.186H293.276C293.276 363.713 296.254 366.571 299.928 366.571Z" fill="#4E4F53"/>
<path d="M299.928 366.571H369.621C373.294 366.571 376.272 363.713 376.272 360.186H293.276C293.276 363.713 296.254 366.571 299.928 366.571Z" fill="url(#paint2_linear_2350_93670)"/>
<path fill-rule="evenodd" clip-rule="evenodd" d="M334.341 369.183H44C44 369.183 56.7241 377.309 98.5112 377.309H334.341H334.919H571.038C612.825 377.309 625.549 369.183 625.549 369.183H334.919H334.341Z" fill="url(#paint3_linear_2350_93670)"/>
</g>
<path d="M626.349 219.709H626.749C626.969 219.709 627.149 219.889 627.149 220.111V246.334C627.149 246.555 626.969 246.735 626.749 246.735H626.349V219.709Z" fill="#1C3343"/>
<path d="M515.158 252.354L514.758 252.354C514.537 252.354 514.358 252.175 514.358 251.953L514.358 236.166C514.358 235.944 514.537 235.764 514.758 235.764L515.158 235.764L515.158 252.354Z" fill="#1C3343"/>
<path d="M515.158 230.413L514.758 230.413C514.537 230.413 514.358 230.233 514.358 230.011L514.358 214.224C514.358 214.002 514.537 213.823 514.758 213.823L515.158 213.823L515.158 230.413Z" fill="#213744"/>
<path d="M515.158 205.795L514.758 205.795C514.537 205.795 514.358 205.615 514.358 205.394L514.358 197.634C514.358 197.412 514.537 197.233 514.758 197.233L515.158 197.233L515.158 205.795Z" fill="#213744"/>
<path d="M515.158 185.192C515.158 178.717 515.158 175.48 516.006 172.86C517.721 167.565 521.858 163.414 527.134 161.693C529.745 160.842 532.971 160.842 539.423 160.842H602.084C608.536 160.842 611.762 160.842 614.372 161.693C619.649 163.414 623.786 167.565 625.5 172.86C626.348 175.48 626.348 178.717 626.348 185.192V366.076C626.348 372.551 626.348 375.788 625.5 378.408C623.786 383.703 619.649 387.854 614.372 389.575C611.762 390.426 608.536 390.426 602.084 390.426H539.423C532.971 390.426 529.745 390.426 527.134 389.575C521.858 387.854 517.721 383.703 516.006 378.408C515.158 375.788 515.158 372.551 515.158 366.076V185.192Z" fill="#213744"/>
<path fill-rule="evenodd" clip-rule="evenodd" d="M602.19 161.377H539.316C532.943 161.377 529.819 161.38 527.299 162.202C522.185 163.87 518.175 167.893 516.514 173.025C515.695 175.554 515.691 178.689 515.691 185.085V366.183C515.691 372.579 515.695 375.713 516.514 378.243C518.175 383.375 522.185 387.398 527.299 389.066C529.819 389.888 532.943 389.891 539.316 389.891H602.19C608.564 389.891 611.687 389.888 614.208 389.066C619.322 387.398 623.331 383.375 624.993 378.243C625.812 375.713 625.815 372.579 625.815 366.183V185.085C625.815 178.689 625.812 175.554 624.993 173.025C623.331 167.893 619.322 163.87 614.208 162.202C611.687 161.38 608.564 161.377 602.19 161.377ZM516.26 172.943C515.425 175.522 515.425 178.71 515.425 185.085V366.183C515.425 372.558 515.425 375.746 516.26 378.325C517.948 383.539 522.021 387.626 527.217 389.32C529.787 390.158 532.963 390.158 539.316 390.158H602.19C608.543 390.158 611.719 390.158 614.29 389.32C619.485 387.626 623.558 383.539 625.246 378.325C626.082 375.746 626.082 372.558 626.082 366.183V185.085C626.082 178.71 626.082 175.522 625.246 172.943C623.558 167.729 619.485 163.642 614.29 161.948C611.719 161.109 608.543 161.109 602.19 161.109H539.316C532.963 161.109 529.787 161.109 527.217 161.948C522.021 163.642 517.948 167.729 516.26 172.943Z" fill="#8EADC1"/>
<path d="M516.491 184.656C516.491 178.68 516.491 175.692 517.274 173.273C518.857 168.386 522.675 164.554 527.546 162.965C529.956 162.18 532.934 162.18 538.889 162.18H602.617C608.573 162.18 611.55 162.18 613.96 162.965C618.831 164.554 622.649 168.386 624.232 173.273C625.015 175.692 625.015 178.68 625.015 184.656V366.611C625.015 372.588 625.015 375.576 624.232 377.994C622.649 382.882 618.831 386.714 613.96 388.302C611.55 389.088 608.573 389.088 602.617 389.088H538.889C532.934 389.088 529.956 389.088 527.546 388.302C522.675 386.714 518.857 382.882 517.274 377.994C516.491 375.576 516.491 372.588 516.491 366.611V184.656Z" fill="#121515"/>
<rect x="602.617" y="160.842" width="1.59985" height="1.3379" fill="#36454C"/>
<rect x="625.016" y="183.854" width="1.33321" height="1.60548" fill="#36454C"/>
<rect x="515.158" y="183.854" width="1.33322" height="1.60548" fill="#36454C"/>
<rect x="515.158" y="365.809" width="1.33322" height="1.60548" fill="#36454C"/>
<rect x="625.016" y="365.809" width="1.33321" height="1.60548" fill="#36454C"/>
<rect x="537.29" y="389.088" width="1.59986" height="1.33791" fill="#36454C"/>
<mask id="mask2_2350_93670" style="mask-type:alpha" maskUnits="userSpaceOnUse" x="520" y="165" width="102" height="221">
<path d="M543.423 168.602V167.397C543.423 166.585 542.766 165.926 541.956 165.926L538.522 165.926C533.153 165.926 530.468 165.926 528.327 166.738C524.962 168.014 522.305 170.68 521.034 174.057C520.225 176.205 520.225 178.899 520.225 184.287V366.981C520.225 372.368 520.225 375.062 521.034 377.211C522.305 380.588 524.962 383.254 528.327 384.53C530.468 385.342 533.153 385.342 538.522 385.342H602.985C608.354 385.342 611.039 385.342 613.18 384.53C616.545 383.254 619.202 380.588 620.473 377.211C621.282 375.062 621.282 372.368 621.282 366.981V184.287C621.282 178.899 621.282 176.205 620.473 174.057C619.202 170.68 616.545 168.014 613.18 166.738C611.039 165.926 608.354 165.926 602.985 165.926L599.551 165.926C598.741 165.926 598.084 166.585 598.084 167.397V168.602L598.065 168.601L598.084 168.735C598.084 171.913 595.518 174.488 592.352 174.488H549.155C545.989 174.488 543.423 171.913 543.423 168.735L543.442 168.601L543.423 168.602Z" fill="#C4C4C4"/>
</mask>
<g mask="url(#mask2_2350_93670)">
<rect x="520.225" y="165.926" width="101.058" height="219.416" fill="#FAFAFA"/>
</g>
<path fill-rule="evenodd" clip-rule="evenodd" d="M582.085 171.545C583.263 171.545 584.218 170.587 584.218 169.404C584.218 168.222 583.263 167.264 582.085 167.264C580.907 167.264 579.952 168.222 579.952 169.404C579.952 170.587 580.907 171.545 582.085 171.545Z" fill="#262C2D"/>
<path fill-rule="evenodd" clip-rule="evenodd" d="M582.085 170.742C582.821 170.742 583.418 170.143 583.418 169.404C583.418 168.665 582.821 168.066 582.085 168.066C581.349 168.066 580.752 168.665 580.752 169.404C580.752 170.143 581.349 170.742 582.085 170.742Z" fill="#121515"/>
<path opacity="0.4" fill-rule="evenodd" clip-rule="evenodd" d="M582.085 169.137C582.232 169.137 582.352 169.017 582.352 168.869C582.352 168.721 582.232 168.602 582.085 168.602C581.938 168.602 581.818 168.721 581.818 168.869C581.818 169.017 581.938 169.137 582.085 169.137Z" fill="#636F73"/>
<path fill-rule="evenodd" clip-rule="evenodd" d="M564.221 169.404C564.221 168.961 564.58 168.602 565.023 168.602H576.483C576.927 168.602 577.286 168.961 577.286 169.404C577.286 169.848 576.927 170.207 576.483 170.207H565.023C564.58 170.207 564.221 169.848 564.221 169.404Z" fill="#262C2D"/>
<defs>
<filter id="filter0_dd_2350_93670" x="509.933" y="13.8052" width="268.671" height="370.342" filterUnits="userSpaceOnUse" color-interpolation-filters="sRGB">
<feFlood flood-opacity="0" result="BackgroundImageFix"/>
<feColorMatrix in="SourceAlpha" type="matrix" values="0 0 0 0 0 0 0 0 0 0 0 0 0 0 0 0 0 0 127 0" result="hardAlpha"/>
<feOffset/>
<feGaussianBlur stdDeviation="1"/>
<feColorMatrix type="matrix" values="0 0 0 0 0 0 0 0 0 0.0823529 0 0 0 0 0.25098 0 0 0 0.14 0"/>
<feBlend mode="normal" in2="BackgroundImageFix" result="effect1_dropShadow_2350_93670"/>
<feColorMatrix in="SourceAlpha" type="matrix" values="0 0 0 0 0 0 0 0 0 0 0 0 0 0 0 0 0 0 127 0" result="hardAlpha"/>
<feOffset dy="2"/>
<feGaussianBlur stdDeviation="2"/>
<feColorMatrix type="matrix" values="0 0 0 0 0 0 0 0 0 0.0823529 0 0 0 0 0.25098 0 0 0 0.05 0"/>
<feBlend mode="normal" in2="effect1_dropShadow_2350_93670" result="effect2_dropShadow_2350_93670"/>
<feBlend mode="normal" in="SourceGraphic" in2="effect2_dropShadow_2350_93670" result="shape"/>
</filter>
<filter id="filter1_d_2350_93670" x="0" y="0.710938" width="709.549" height="464.081" filterUnits="userSpaceOnUse" color-interpolation-filters="sRGB">
<feFlood flood-opacity="0" result="BackgroundImageFix"/>
<feColorMatrix in="SourceAlpha" type="matrix" values="0 0 0 0 0 0 0 0 0 0 0 0 0 0 0 0 0 0 127 0" result="hardAlpha"/>
<feOffset dx="20" dy="20"/>
<feGaussianBlur stdDeviation="32"/>
<feColorMatrix type="matrix" values="0 0 0 0 0 0 0 0 0 0 0 0 0 0 0 0 0 0 0.2 0"/>
<feBlend mode="normal" in2="BackgroundImageFix" result="effect1_dropShadow_2350_93670"/>
<feBlend mode="normal" in="SourceGraphic" in2="effect1_dropShadow_2350_93670" result="shape"/>
</filter>
<filter id="filter2_f_2350_93670" x="57.8701" y="362.827" width="554.099" height="27.8044" filterUnits="userSpaceOnUse" color-interpolation-filters="sRGB">
<feFlood flood-opacity="0" result="BackgroundImageFix"/>
<feBlend mode="normal" in="SourceGraphic" in2="BackgroundImageFix" result="shape"/>
<feGaussianBlur stdDeviation="5.5" result="effect1_foregroundBlur_2350_93670"/>
</filter>
<filter id="filter3_dd_2350_93670" x="95.2344" y="42.7109" width="479.081" height="332.472" filterUnits="userSpaceOnUse" color-interpolation-filters="sRGB">
<feFlood flood-opacity="0" result="BackgroundImageFix"/>
<feColorMatrix in="SourceAlpha" type="matrix" values="0 0 0 0 0 0 0 0 0 0 0 0 0 0 0 0 0 0 127 0" result="hardAlpha"/>
<feOffset/>
<feGaussianBlur stdDeviation="1"/>
<feColorMatrix type="matrix" values="0 0 0 0 0 0 0 0 0 0.0823529 0 0 0 0 0.25098 0 0 0 0.14 0"/>
<feBlend mode="normal" in2="BackgroundImageFix" result="effect1_dropShadow_2350_93670"/>
<feColorMatrix in="SourceAlpha" type="matrix" values="0 0 0 0 0 0 0 0 0 0 0 0 0 0 0 0 0 0 127 0" result="hardAlpha"/>
<feOffset dy="2"/>
<feGaussianBlur stdDeviation="2"/>
<feColorMatrix type="matrix" values="0 0 0 0 0 0 0 0 0 0.0823529 0 0 0 0 0.25098 0 0 0 0.05 0"/>
<feBlend mode="normal" in2="effect1_dropShadow_2350_93670" result="effect2_dropShadow_2350_93670"/>
<feBlend mode="normal" in="SourceGraphic" in2="effect2_dropShadow_2350_93670" result="shape"/>
</filter>
<linearGradient id="paint0_linear_2350_93670" x1="44" y1="364.829" x2="334.774" y2="364.829" gradientUnits="userSpaceOnUse">
<stop stop-color="#303135"/>
<stop offset="0.0218797" stop-color="#535458"/>
<stop offset="0.0363004" stop-color="#4D4E52"/>
<stop offset="0.05818" stop-color="#333438"/>
<stop offset="0.0865241" stop-color="#35363A"/>
<stop offset="0.135753" stop-color="#4E4F53"/>
<stop offset="0.756906" stop-color="#818286"/>
<stop offset="1" stop-color="#818286"/>
</linearGradient>
<linearGradient id="paint1_linear_2350_93670" x1="625.404" y1="364.829" x2="334.63" y2="364.829" gradientUnits="userSpaceOnUse">
<stop stop-color="#303135"/>
<stop offset="0.0218797" stop-color="#535458"/>
<stop offset="0.0363004" stop-color="#4D4E52"/>
<stop offset="0.05818" stop-color="#333438"/>
<stop offset="0.0865241" stop-color="#35363A"/>
<stop offset="0.135753" stop-color="#4E4F53"/>
<stop offset="0.756906" stop-color="#818286"/>
<stop offset="1" stop-color="#818286"/>
</linearGradient>
<linearGradient id="paint2_linear_2350_93670" x1="293.276" y1="363.379" x2="376.272" y2="363.379" gradientUnits="userSpaceOnUse">
<stop stop-opacity="0.5"/>
<stop offset="0.139373" stop-color="#818487" stop-opacity="0"/>
<stop offset="0.860627" stop-color="#818487" stop-opacity="0"/>
<stop offset="1" stop-opacity="0.5"/>
</linearGradient>
<linearGradient id="paint3_linear_2350_93670" x1="334.774" y1="369.183" x2="334.774" y2="377.309" gradientUnits="userSpaceOnUse">
<stop stop-color="#303135"/>
<stop offset="1" stop-color="#08090D"/>
</linearGradient>
</defs>
</svg>
