<svg width="15" height="15" viewBox="0 0 15 15" fill="none" xmlns="http://www.w3.org/2000/svg">
<path fill-rule="evenodd" clip-rule="evenodd" d="M6.47471 6.475L5.77671 8.70633L8.00737 8.00766L8.70604 5.77633L6.47471 6.475ZM5.01404 9.96833C4.88337 9.96833 4.75537 9.917 4.66004 9.82233C4.52871 9.69033 4.48071 9.49633 4.53671 9.31966L5.59871 5.927C5.64737 5.76966 5.77004 5.64766 5.92604 5.599L9.31871 4.537C9.49671 4.48033 9.69004 4.529 9.82204 4.66033C9.95337 4.79233 10.0014 4.98633 9.94537 5.163L8.88404 8.55566C8.83537 8.71233 8.71204 8.835 8.55604 8.88366L5.16337 9.94566C5.11404 9.961 5.06337 9.96833 5.01404 9.96833Z" fill="white"/>
<mask id="mask0_475_11021" style="mask-type:alpha" maskUnits="userSpaceOnUse" x="0" y="0" width="15" height="15">
<path fill-rule="evenodd" clip-rule="evenodd" d="M0.333984 0.333984H14.1485V14.1485H0.333984V0.333984Z" fill="white"/>
</mask>
<g mask="url(#mask0_475_11021)">
<path fill-rule="evenodd" clip-rule="evenodd" d="M7.24132 1.33398C3.98398 1.33398 1.33398 3.98465 1.33398 7.24132C1.33398 10.4987 3.98398 13.1487 7.24132 13.1487C10.4987 13.1487 13.1487 10.4987 13.1487 7.24132C13.1487 3.98465 10.4987 1.33398 7.24132 1.33398ZM7.24132 14.1487C3.43265 14.1487 0.333984 11.05 0.333984 7.24132C0.333984 3.43265 3.43265 0.333984 7.24132 0.333984C11.05 0.333984 14.1487 3.43265 14.1487 7.24132C14.1487 11.05 11.05 14.1487 7.24132 14.1487Z" fill="white"/>
</g>
</svg>
