<svg width="200" height="145" viewBox="0 0 200 145" fill="none" xmlns="http://www.w3.org/2000/svg">
<g clip-path="url(#clip0_100_2543)">
<path d="M180.522 56.8306H180.467L148.681 70.3763L105.191 88.9099C105.021 88.9812 104.839 89.0184 104.654 89.0194C104.47 89.0203 104.287 88.985 104.116 88.9154L59.2479 70.3376L26.681 56.8527L26.6313 56.8306H26.5759C26.062 56.8311 25.5694 57.0351 25.206 57.3977C24.8427 57.7604 24.6383 58.252 24.6377 58.7649V142.77C24.6383 143.282 24.8427 143.774 25.206 144.137C25.5694 144.499 26.062 144.703 26.5759 144.704H180.522C181.036 144.703 181.529 144.499 181.892 144.137C182.255 143.774 182.46 143.282 182.46 142.77V58.7649C182.46 58.252 182.255 57.7604 181.892 57.3977C181.529 57.0351 181.036 56.8311 180.522 56.8306Z" fill="white"/>
<path d="M180.66 57.3831C180.604 57.3831 180.548 57.3658 180.502 57.3335L103.928 4.11117C103.695 3.94996 103.418 3.8638 103.134 3.86428C102.851 3.86476 102.574 3.95186 102.342 4.11386L26.3194 57.333C26.2592 57.3748 26.185 57.3911 26.1128 57.3783C26.0407 57.3655 25.9765 57.3247 25.9345 57.2649C25.8924 57.205 25.8758 57.1309 25.8884 57.0589C25.9009 56.9868 25.9415 56.9227 26.0013 56.8805L102.024 3.66134C102.349 3.43457 102.737 3.31267 103.134 3.31201C103.531 3.31136 103.918 3.43199 104.244 3.6577L180.818 56.8799C180.867 56.9136 180.903 56.9617 180.922 57.0174C180.941 57.0731 180.942 57.1334 180.924 57.1896C180.907 57.2457 180.871 57.2947 180.824 57.3295C180.776 57.3643 180.719 57.3831 180.66 57.3831H180.66Z" fill="#3F3D56"/>
<path d="M30.6636 59.2697L103.21 5.61084L176.306 63.0876L106.948 104.123L69.2917 95.5567L30.6636 59.2697Z" fill="#E6E6E6"/>
<path d="M72.4701 129.469H36.6305C36.1864 129.469 35.7603 129.294 35.4458 128.981C35.1313 128.668 34.9543 128.243 34.9536 127.8C34.953 127.357 35.1287 126.932 35.4423 126.618C35.7558 126.304 36.1815 126.127 36.6256 126.126H72.4701C72.9142 126.126 73.3404 126.301 73.6548 126.614C73.9693 126.927 74.1464 127.352 74.147 127.795C74.1477 128.238 73.9719 128.664 73.6583 128.977C73.3448 129.291 72.9192 129.468 72.4751 129.469H72.4701Z" fill="#F97E4E"/>
<path d="M49.4893 122.284H36.6308C36.1869 122.284 35.7611 122.109 35.4468 121.796C35.1326 121.483 34.9557 121.058 34.9551 120.615C34.9544 120.172 35.13 119.747 35.4433 119.433C35.7566 119.12 36.182 118.943 36.6259 118.942H49.4893C49.7092 118.941 49.9272 118.984 50.1306 119.068C50.334 119.151 50.5189 119.274 50.6747 119.429C50.8305 119.584 50.9543 119.768 51.0388 119.971C51.1233 120.174 51.167 120.391 51.1673 120.611C51.1676 120.83 51.1246 121.048 51.0407 121.25C50.9568 121.453 50.8336 121.638 50.6782 121.793C50.5228 121.949 50.3383 122.072 50.1352 122.156C49.932 122.24 49.7142 122.284 49.4942 122.284H49.4893Z" fill="#F97E4E"/>
<path d="M104.23 89.157C103.957 89.1573 103.688 89.1045 103.435 89.0017L58.6938 70.474V12.4792C58.6944 11.9664 58.8988 11.4748 59.2622 11.1121C59.6255 10.7495 60.1182 10.5455 60.632 10.5449H146.465C146.979 10.5455 147.472 10.7495 147.835 11.1121C148.198 11.4748 148.403 11.9664 148.403 12.4792V70.5145L148.319 70.5504L105.048 88.9926C104.789 89.1013 104.511 89.1572 104.23 89.157Z" fill="white"/>
<path d="M104.23 89.295C103.94 89.2953 103.652 89.2392 103.383 89.1296L58.5557 70.5663V12.4792C58.5563 11.9298 58.7753 11.403 59.1646 11.0144C59.5539 10.6259 60.0817 10.4074 60.6323 10.4067H146.466C147.016 10.4074 147.544 10.6259 147.933 11.0144C148.323 11.403 148.542 11.9298 148.542 12.4792V70.6057L105.103 89.1196C104.827 89.2356 104.53 89.2953 104.23 89.295ZM59.1094 70.1971L103.594 88.6186C104.009 88.7867 104.474 88.7839 104.887 88.6109L147.988 70.2408V12.4792C147.988 12.0763 147.827 11.69 147.542 11.4051C147.256 11.1202 146.869 10.9599 146.466 10.9594H60.6323C60.2285 10.9599 59.8415 11.1202 59.556 11.4051C59.2705 11.69 59.1099 12.0763 59.1094 12.4792L59.1094 70.1971Z" fill="#3F3D56"/>
<path d="M180.106 56.8306H180.051L148.265 70.3763L104.775 88.9099C104.605 88.9812 104.423 89.0184 104.239 89.0194C104.054 89.0203 103.872 88.985 103.701 88.9154L58.8324 70.3376L26.2655 56.8527L26.2158 56.8306H26.1603C25.6465 56.8311 25.1538 57.0351 24.7905 57.3977C24.4271 57.7604 24.2227 58.252 24.2222 58.7649V142.77C24.2227 143.282 24.4271 143.774 24.7905 144.137C25.1538 144.499 25.6465 144.703 26.1603 144.704H180.106C180.62 144.703 181.113 144.499 181.476 144.137C181.84 143.774 182.044 143.282 182.045 142.77V58.7649C182.044 58.252 181.84 57.7604 181.476 57.3977C181.113 57.0351 180.62 56.8311 180.106 56.8306ZM181.491 142.77C181.491 143.136 181.345 143.487 181.085 143.746C180.826 144.005 180.474 144.151 180.106 144.151H26.1603C25.7932 144.151 25.4412 144.005 25.1816 143.746C24.922 143.487 24.7761 143.136 24.7759 142.77V58.7649C24.7764 58.4076 24.9153 58.0643 25.1635 57.8068C25.4117 57.5493 25.75 57.3976 26.1077 57.3832L58.8324 70.9345L103.488 89.4266C103.971 89.6229 104.513 89.6199 104.994 89.4183L148.265 70.976L180.162 57.3832C180.519 57.3986 180.856 57.5508 181.104 57.8082C181.351 58.0655 181.49 58.4082 181.491 58.7649V142.77Z" fill="#3F3D56"/>
<path d="M97.2646 32.2235H66.8076C66.2207 32.2227 65.6581 31.9894 65.2434 31.575C64.8287 31.1605 64.5957 30.5987 64.5957 30.0129C64.5957 29.4271 64.8287 28.8653 65.2434 28.4508C65.6581 28.0363 66.2207 27.8031 66.8076 27.8022H97.2646C97.8515 27.8031 98.4141 28.0363 98.8289 28.4508C99.2436 28.8653 99.4765 29.4271 99.4765 30.0129C99.4765 30.5987 99.2436 31.1605 98.8289 31.575C98.4141 31.9894 97.8515 32.2227 97.2646 32.2235Z" fill="#F97E4E"/>
<path d="M81.482 22.8285H66.8073C66.2199 22.8285 65.6565 22.5956 65.2411 22.181C64.8257 21.7665 64.5923 21.2042 64.5923 20.6179C64.5923 20.0316 64.8257 19.4693 65.2411 19.0547C65.6565 18.6401 66.2199 18.4072 66.8073 18.4072H81.482C82.0695 18.4072 82.6329 18.6401 83.0483 19.0547C83.4637 19.4693 83.6971 20.0316 83.6971 20.6179C83.6971 21.2042 83.4637 21.7665 83.0483 22.181C82.6329 22.5956 82.0695 22.8285 81.482 22.8285Z" fill="#F97E4E"/>
<path d="M126.328 54.33H79.812C79.2251 54.3292 78.6625 54.0959 78.2478 53.6814C77.833 53.2669 77.6001 52.7051 77.6001 52.1193C77.6001 51.5336 77.833 50.9718 78.2478 50.5573C78.6625 50.1428 79.2251 49.9095 79.812 49.9087H126.328C126.915 49.9095 127.478 50.1428 127.892 50.5573C128.307 50.9718 128.54 51.5336 128.54 52.1193C128.54 52.7051 128.307 53.2669 127.892 53.6814C127.478 54.0959 126.915 54.3292 126.328 54.33Z" fill="#CCCCCC"/>
<path d="M126.328 64.5541H79.8122C79.2247 64.5541 78.6613 64.3212 78.2459 63.9066C77.8305 63.4921 77.5972 62.9298 77.5972 62.3435C77.5972 61.7572 77.8305 61.1949 78.2459 60.7803C78.6613 60.3657 79.2247 60.1328 79.8122 60.1328H126.328C126.916 60.1328 127.479 60.3657 127.895 60.7803C128.31 61.1949 128.543 61.7572 128.543 62.3435C128.543 62.9298 128.31 63.4921 127.895 63.9066C127.479 64.3212 126.916 64.5541 126.328 64.5541Z" fill="#CCCCCC"/>
<path d="M179.248 78.6522C190.88 78.6522 200.31 69.241 200.31 57.6317C200.31 46.0225 190.88 36.6113 179.248 36.6113C167.615 36.6113 158.186 46.0225 158.186 57.6317C158.186 69.241 167.615 78.6522 179.248 78.6522Z" fill="#F97E4E"/>
<path d="M177.241 66.505L170.937 58.4152L174.603 55.5695L177.588 59.3999L187.671 48.7764L191.043 51.9646L177.241 66.505Z" fill="white"/>
</g>
<defs>
<clipPath id="clip0_100_2543">
<rect width="200" height="145" fill="white"/>
</clipPath>
</defs>
</svg>
