<svg width="24" height="24" viewBox="0 0 24 24" fill="#F77D4E" xmlns="http://www.w3.org/2000/svg">
<path d="M4.125 0.810995C3.89531 0.885995 3.50156 1.28912 3.43125 1.52818C3.39844 1.636 3.375 1.92193 3.375 2.16568V2.61568L2.77969 2.63443C2.22656 2.6485 2.15625 2.66256 1.86562 2.7985C1.42969 3.00006 1.15781 3.26725 0.946875 3.69381L0.773438 4.05006V12.0001V19.9501L0.946875 20.3063C1.15781 20.7329 1.42969 20.9954 1.86562 21.2016L2.17969 21.3516L8.70469 21.3657L15.2297 21.3751L15.3937 21.6235C16.5281 23.3297 18.7359 24.0516 20.6672 23.3485C21.8391 22.9219 22.8516 21.9282 23.3156 20.761C23.5406 20.1797 23.5969 19.8563 23.5969 19.1251C23.5969 18.3141 23.5078 17.8969 23.175 17.2079C22.7578 16.3313 22.1344 15.661 21.3187 15.211L21 15.0376L20.9906 9.54849L20.9766 4.05475L20.8266 3.74068C20.6203 3.30475 20.3578 3.03287 19.9312 2.82662C19.5937 2.65787 19.5609 2.65318 18.9797 2.63443L18.375 2.61568V2.16568C18.375 1.60787 18.3141 1.40631 18.0609 1.12506C17.6156 0.628183 16.9547 0.618808 16.4766 1.10162C16.1859 1.38756 16.125 1.57506 16.125 2.17506V2.62506H15.1875H14.25V2.17506C14.25 1.60787 14.1891 1.40631 13.9359 1.12506C13.4906 0.628183 12.8297 0.618808 12.3516 1.10162C12.0609 1.38756 12 1.57506 12 2.17506V2.62506H10.875H9.75V2.17506C9.75 1.60787 9.68906 1.40631 9.43594 1.12506C8.99062 0.628183 8.32969 0.618808 7.85156 1.10162C7.56094 1.38756 7.5 1.57506 7.5 2.17506V2.62506H6.5625H5.625V2.17506C5.625 1.60787 5.56406 1.40631 5.31094 1.12506C5.00625 0.787558 4.57031 0.67037 4.125 0.810995ZM4.75781 1.61725L4.875 1.72975V3.00006V4.27037L4.75781 4.38287C4.6875 4.45787 4.58906 4.50006 4.5 4.50006C4.41094 4.50006 4.3125 4.45787 4.24219 4.38287L4.125 4.27037V3.00006V1.72975L4.24219 1.61725C4.3125 1.54225 4.41094 1.50006 4.5 1.50006C4.58906 1.50006 4.6875 1.54225 4.75781 1.61725ZM8.88281 1.61725L9 1.72975V3.00006V4.27037L8.88281 4.38287C8.8125 4.45787 8.71406 4.50006 8.625 4.50006C8.53594 4.50006 8.4375 4.45787 8.36719 4.38287L8.25 4.27037V3.00006V1.72975L8.36719 1.61725C8.4375 1.54225 8.53594 1.50006 8.625 1.50006C8.71406 1.50006 8.8125 1.54225 8.88281 1.61725ZM13.3828 1.61725L13.5 1.72975V3.00006V4.27037L13.3828 4.38287C13.3125 4.45787 13.2141 4.50006 13.125 4.50006C13.0359 4.50006 12.9375 4.45787 12.8672 4.38287L12.75 4.27037V3.00006V1.72975L12.8672 1.61725C12.9375 1.54225 13.0359 1.50006 13.125 1.50006C13.2141 1.50006 13.3125 1.54225 13.3828 1.61725ZM17.5078 1.61725L17.625 1.72975V3.00006V4.27037L17.5078 4.38287C17.4375 4.45787 17.3391 4.50006 17.25 4.50006C17.1609 4.50006 17.0625 4.45787 16.9922 4.38287L16.875 4.27037V3.00006V1.72975L16.9922 1.61725C17.0625 1.54225 17.1609 1.50006 17.25 1.50006C17.3391 1.50006 17.4375 1.54225 17.5078 1.61725ZM3.375 3.82506C3.375 4.42506 3.43594 4.61256 3.72656 4.89849C4.20469 5.38131 4.86562 5.37193 5.31094 4.87506C5.56406 4.59381 5.625 4.39225 5.625 3.82506V3.37506H6.5625H7.5V3.82506C7.5 4.42506 7.56094 4.61256 7.85156 4.89849C8.32969 5.38131 8.99062 5.37193 9.43594 4.87506C9.68906 4.59381 9.75 4.39225 9.75 3.82506V3.37506H10.875H12V3.82506C12 4.42506 12.0609 4.61256 12.3516 4.89849C12.8297 5.38131 13.4906 5.37193 13.9359 4.87506C14.1891 4.59381 14.25 4.39225 14.25 3.82506V3.37506H15.1875H16.125V3.82506C16.125 4.42506 16.1859 4.61256 16.4766 4.89849C16.9547 5.38131 17.6156 5.37193 18.0609 4.87506C18.3141 4.59381 18.375 4.39225 18.375 3.82506V3.37506H18.825C19.425 3.37506 19.6125 3.436 19.8984 3.72662C20.2266 4.05475 20.25 4.15787 20.25 5.36256V6.37506H10.875H1.5V5.36256C1.5 4.15787 1.52344 4.05475 1.85156 3.72662C2.14219 3.43131 2.28281 3.38443 2.89687 3.37975L3.375 3.37506V3.82506ZM20.25 10.9501V14.7751L20.1469 14.7516C19.7766 14.6579 19.2844 14.6157 18.8578 14.6438L18.375 14.6719V13.636V12.6047L18.2578 12.4922L18.1453 12.3751H16.875H15.6047L15.4922 12.4922L15.375 12.6047V13.8751V15.1454L15.4922 15.2579C15.6 15.3657 15.6375 15.3751 16.1109 15.3751L16.6172 15.3797L16.4531 15.5016C16.0969 15.7688 15.4875 16.4485 15.2766 16.8094C14.8078 17.6157 14.6531 18.1782 14.6531 19.1251C14.6531 19.6782 14.6719 19.8751 14.7562 20.1891C14.8125 20.4001 14.8594 20.5829 14.8594 20.5969C14.8594 20.611 12.0703 20.6251 8.66719 20.6251C3.9375 20.6251 2.42812 20.611 2.27812 20.5688C2.02031 20.4938 1.63125 20.1047 1.55625 19.8469C1.51406 19.6969 1.5 18.1688 1.5 13.3876V7.12506H10.875H20.25V10.9501ZM17.625 13.8751V14.6251H16.875H16.125V13.8751V13.1251H16.875H17.625V13.8751ZM20.0156 15.4829C20.9953 15.7501 21.7359 16.2844 22.2703 17.1001C22.6828 17.7282 22.8516 18.3094 22.8516 19.1251C22.8516 19.9407 22.6828 20.5219 22.2703 21.1501C21.1453 22.8657 18.9047 23.3813 17.175 22.3172C15.6516 21.3751 15.0047 19.5469 15.6047 17.8501C16.0406 16.6219 17.0906 15.7266 18.4219 15.4407C18.7969 15.361 19.65 15.3844 20.0156 15.4829Z" />
<path d="M3.11719 8.36719L3 8.47969V9.75V11.0203L3.11719 11.1328L3.22969 11.25H4.5H5.77031L5.88281 11.1328L6 11.0203V9.75V8.47969L5.88281 8.36719L5.77031 8.25H4.5H3.22969L3.11719 8.36719ZM5.25 9.75V10.5H4.5H3.75V9.75V9H4.5H5.25V9.75Z"/>
<path d="M7.24219 8.36719L7.125 8.47969V9.75V11.0203L7.24219 11.1328L7.35469 11.25H8.625H9.89531L10.0078 11.1328L10.125 11.0203V9.75V8.47969L10.0078 8.36719L9.89531 8.25H8.625H7.35469L7.24219 8.36719ZM9.375 9.75V10.5H8.625H7.875V9.75V9H8.625H9.375V9.75Z" />
<path d="M11.3672 8.36719L11.25 8.47969V9.75V11.0203L11.3672 11.1328L11.4797 11.25H12.75H14.0203L14.1328 11.1328L14.25 11.0203V9.75V8.47969L14.1328 8.36719L14.0203 8.25H12.75H11.4797L11.3672 8.36719ZM13.5 9.75V10.5H12.75H12V9.75V9H12.75H13.5V9.75Z" />
<path d="M15.4922 8.36719L15.375 8.47969V9.75V11.0203L15.4922 11.1328L15.6047 11.25H16.875H18.1453L18.2578 11.1328L18.375 11.0203V9.75V8.47969L18.2578 8.36719L18.1453 8.25H16.875H15.6047L15.4922 8.36719ZM17.625 9.75V10.5H16.875H16.125V9.75V9H16.875H17.625V9.75Z" />
<path d="M3.11719 12.4922L3 12.6047V13.875V15.1453L3.11719 15.2578L3.22969 15.375H4.5H5.77031L5.88281 15.2578L6 15.1453V13.875V12.6047L5.88281 12.4922L5.77031 12.375H4.5H3.22969L3.11719 12.4922ZM5.25 13.875V14.625H4.5H3.75V13.875V13.125H4.5H5.25V13.875Z" />
<path d="M7.24219 12.4922L7.125 12.6047V13.875V15.1453L7.24219 15.2578L7.35469 15.375H8.625H9.89531L10.0078 15.2578L10.125 15.1453V13.875V12.6047L10.0078 12.4922L9.89531 12.375H8.625H7.35469L7.24219 12.4922ZM9.375 13.875V14.625H8.625H7.875V13.875V13.125H8.625H9.375V13.875Z"/>
<path d="M11.3672 12.4922L11.25 12.6047V13.875V15.1453L11.3672 15.2578L11.4797 15.375H12.75H14.0203L14.1328 15.2578L14.25 15.1453V13.875V12.6047L14.1328 12.4922L14.0203 12.375H12.75H11.4797L11.3672 12.4922ZM13.5 13.875V14.625H12.75H12V13.875V13.125H12.75H13.5V13.875Z" />
<path d="M3.11719 16.6172L3 16.7297V18V19.2703L3.11719 19.3828L3.22969 19.5H4.5H5.77031L5.88281 19.3828L6 19.2703V18V16.7297L5.88281 16.6172L5.77031 16.5H4.5H3.22969L3.11719 16.6172ZM5.25 18V18.75H4.5H3.75V18V17.25H4.5H5.25V18Z" />
<path d="M7.24219 16.6172L7.125 16.7297V18V19.2703L7.24219 19.3828L7.35469 19.5H8.625H9.89531L10.0078 19.3828L10.125 19.2703V18V16.7297L10.0078 16.6172L9.89531 16.5H8.625H7.35469L7.24219 16.6172ZM9.375 18V18.75H8.625H7.875V18V17.25H8.625H9.375V18Z" />
<path d="M11.3672 16.6172L11.25 16.7297V18V19.2703L11.3672 19.3828L11.4797 19.5H12.75H14.0203L14.1328 19.3828L14.25 19.2703V18V16.7297L14.1328 16.6172L14.0203 16.5H12.75H11.4797L11.3672 16.6172ZM13.5 18V18.75H12.75H12V18V17.25H12.75H13.5V18Z" />
<path d="M18.75 17.3016V18.4781L18.6375 18.5672C18.4969 18.675 18.375 18.9328 18.375 19.111C18.375 19.2328 18.2906 19.3172 17.6953 19.7906L17.0156 20.3344L17.2359 20.6063C17.3531 20.761 17.4609 20.8922 17.4656 20.9016C17.475 20.911 17.7844 20.6766 18.1547 20.3766C18.8109 19.8516 18.8391 19.8375 19.0219 19.861C19.275 19.8938 19.5141 19.8047 19.6828 19.6172C19.9406 19.3219 19.9313 18.9141 19.6641 18.6281L19.5 18.4547V17.2922V16.125H19.125H18.75V17.3016Z" />
</svg>
