<svg width="18" height="18" viewBox="0 0 18 18" fill="white" xmlns="http://www.w3.org/2000/svg">
<mask id="mask0_2209_14836" style="mask-type:alpha" maskUnits="userSpaceOnUse" x="0" y="6" width="18" height="12">
<path fill-rule="evenodd" clip-rule="evenodd" d="M0.664062 6.32861H17.3304V17.7819H0.664062V6.32861Z" fill="white"/>
</mask>
<g mask="url(#mask0_2209_14836)">
<path fill-rule="evenodd" clip-rule="evenodd" d="M13.6349 17.7819H4.3599C2.3224 17.7819 0.664062 16.1244 0.664062 14.0861V10.0236C0.664062 7.98611 2.3224 6.32861 4.3599 6.32861H5.1374C5.4824 6.32861 5.7624 6.60861 5.7624 6.95361C5.7624 7.29861 5.4824 7.57861 5.1374 7.57861H4.3599C3.01073 7.57861 1.91406 8.67528 1.91406 10.0236V14.0861C1.91406 15.4353 3.01073 16.5319 4.3599 16.5319H13.6349C14.9832 16.5319 16.0807 15.4353 16.0807 14.0861V10.0161C16.0807 8.67195 14.9874 7.57861 13.6441 7.57861H12.8582C12.5132 7.57861 12.2332 7.29861 12.2332 6.95361C12.2332 6.60861 12.5132 6.32861 12.8582 6.32861H13.6441C15.6766 6.32861 17.3307 7.98278 17.3307 10.0161V14.0861C17.3307 16.1244 15.6724 17.7819 13.6349 17.7819Z" />
</g>
<mask id="mask1_2209_14836" style="mask-type:alpha" maskUnits="userSpaceOnUse" x="8" y="0" width="2" height="12">
<path fill-rule="evenodd" clip-rule="evenodd" d="M8.375 0.666992H9.625V11.9511H8.375V0.666992Z" fill="white"/>
</mask>
<g mask="url(#mask1_2209_14836)">
<path fill-rule="evenodd" clip-rule="evenodd" d="M9 11.9512C8.655 11.9512 8.375 11.6712 8.375 11.3262V1.29199C8.375 0.946992 8.655 0.666992 9 0.666992C9.345 0.666992 9.625 0.946992 9.625 1.29199V11.3262C9.625 11.6712 9.345 11.9512 9 11.9512Z" />
</g>
<path fill-rule="evenodd" clip-rule="evenodd" d="M6.57011 4.35751C6.41094 4.35751 6.25094 4.29668 6.12927 4.17501C5.88511 3.93168 5.88344 3.53668 6.12761 3.29168L8.55677 0.85168C8.79094 0.615846 9.20761 0.615846 9.44177 0.85168L11.8718 3.29168C12.1151 3.53668 12.1143 3.93168 11.8701 4.17501C11.6251 4.41835 11.2301 4.41835 10.9868 4.17335L8.99927 2.17835L7.01261 4.17335C6.89094 4.29668 6.73011 4.35751 6.57011 4.35751Z" />
</svg>
