<svg width="22" height="22" viewBox="0 0 22 22" fill="#F77D4E" xmlns="http://www.w3.org/2000/svg">
<path d="M2.5025 20L7.295 11L12.77 15.8675C12.9414 16.0198 13.1455 16.1308 13.3665 16.1919C13.5876 16.253 13.8197 16.2626 14.045 16.22C14.2724 16.1774 14.4868 16.0828 14.6716 15.9436C14.8563 15.8044 15.0064 15.6243 15.11 15.4175L19.25 7.175L17.885 6.5L13.7675 14.75L8.2925 9.8825C8.12541 9.72711 7.92506 9.61188 7.70672 9.5456C7.48837 9.47931 7.25778 9.46372 7.0325 9.5C6.81002 9.53691 6.59873 9.62351 6.41434 9.75336C6.22995 9.88321 6.07722 10.053 5.9675 10.25L2 17.75V0.5H0.5V20C0.5 20.3978 0.658035 20.7794 0.93934 21.0607C1.22064 21.342 1.60218 21.5 2 21.5H21.5V20H2.5025Z" />
</svg>
