<svg width="16" height="16" viewBox="0 0 16 16" fill="none" xmlns="http://www.w3.org/2000/svg">
<g clip-path="url(#clip0_1129_72153)">
<path d="M10.2507 8.5C10.1757 8.5 10.1007 8.525 10.0507 8.6C10.0007 8.65 10.0007 8.75 10.0007 8.825L10.7007 11.35C11.0007 12.45 10.6257 13.625 9.72573 14.325C8.70073 15.125 7.27573 15.125 6.25073 14.325L6.17573 14.25C5.32573 13.575 4.92573 12.475 5.17573 11.425L5.75073 8.8C5.77573 8.725 5.75073 8.65 5.70073 8.6C5.65073 8.525 5.57573 8.5 5.50073 8.5H0.500732V9H5.20073L4.67573 11.325C4.40073 12.55 4.87573 13.875 5.87573 14.65L5.97573 14.725C6.57573 15.2 7.30073 15.425 8.02573 15.425C8.75073 15.425 9.47573 15.2 10.0757 14.725C11.1257 13.9 11.5757 12.525 11.2257 11.225L10.5757 9H15.5007V8.5H10.2507Z" fill="white" fill-opacity="0.88"/>
<path d="M5.62576 11.0258C5.55076 11.7008 5.75076 12.3508 6.20076 12.8508L6.30076 12.9508C6.72576 13.4258 7.35076 13.7008 8.00076 13.7008C8.65076 13.7008 9.27576 13.4258 9.70076 12.9508C10.2008 12.3758 10.4008 11.6008 10.2258 10.8508C9.60076 8.35075 9.82576 5.70075 10.8758 3.35075L12.0008 0.825753C12.0508 0.725753 12.0008 0.575753 11.9008 0.525753C11.8008 0.450753 11.6758 0.475753 11.5758 0.550753L9.00076 3.27575C8.02576 4.30075 7.22576 5.50075 6.65076 6.80075C6.60076 6.90075 6.62576 7.00075 6.70076 7.07575L7.12576 7.50075H6.52576C6.42576 7.50075 6.32576 7.57575 6.30076 7.67575C6.02576 8.45075 5.85076 9.27575 5.72576 10.0758L5.62576 11.0258ZM6.12576 11.1008L6.25076 10.1508C6.35076 9.42575 6.50076 8.70075 6.75076 8.02575H7.75076C7.85076 8.02575 7.95076 7.97575 7.97576 7.87575C8.02576 7.77575 8.00076 7.67575 7.92576 7.60075L7.17576 6.85075C7.72576 5.65075 8.45076 4.57575 9.35076 3.62575L10.9258 1.97575L10.3758 3.20075C9.32576 5.62575 9.10076 8.40075 9.75076 11.0008C9.90076 11.5758 9.75076 12.2008 9.35076 12.6508C9.00076 13.0258 8.50076 13.2258 8.00076 13.2258C7.50076 13.2258 7.00076 13.0008 6.67576 12.6258L6.57576 12.5258C6.22576 12.1508 6.05076 11.6258 6.12576 11.1008Z" fill="white" fill-opacity="0.88"/>
<path d="M2.7507 7.25H6.0007C6.1007 7.25 6.2007 7.2 6.2257 7.1C6.2757 7 6.2507 6.9 6.1757 6.825L3.9257 4.575C3.8757 4.525 3.7757 4.5 3.7007 4.5C3.6257 4.525 3.5507 4.575 3.5257 4.65L2.5257 6.9C2.5007 6.975 2.5007 7.075 2.5507 7.15C2.6007 7.225 2.6757 7.25 2.7507 7.25ZM3.8257 5.175L5.4007 6.75H3.1507L3.8257 5.175Z" fill="white" fill-opacity="0.88"/>
</g>
<defs>
<clipPath id="clip0_1129_72153">
<rect width="16" height="16" fill="white" transform="translate(0.000732422)"/>
</clipPath>
</defs>
</svg>
