<svg width="22" height="16" viewBox="0 0 22 16" fill="white" xmlns="http://www.w3.org/2000/svg">
<path fill-rule="evenodd" clip-rule="evenodd" d="M21.0606 0.93918C21.3418 1.22047 21.4998 1.60193 21.4998 1.99968C21.4998 2.39743 21.3418 2.77889 21.0606 3.06018L9.06062 15.0602C8.77933 15.3414 8.39787 15.4994 8.00012 15.4994C7.60238 15.4994 7.22091 15.3414 6.93962 15.0602L0.939622 9.06018C0.666385 8.77728 0.515194 8.39837 0.518611 8.00508C0.522029 7.61178 0.679782 7.23556 0.957895 6.95745C1.23601 6.67934 1.61223 6.52159 2.00552 6.51817C2.39882 6.51475 2.77772 6.66594 3.06062 6.93918L8.00012 11.8787L18.9396 0.93918C19.2209 0.657973 19.6024 0.5 20.0001 0.5C20.3979 0.5 20.7793 0.657973 21.0606 0.93918Z"/>
</svg>
