<svg width="14" height="16" viewBox="0 0 14 16" fill="white" xmlns="http://www.w3.org/2000/svg">
<mask id="mask0_1050_5994" style="mask-type:alpha" maskUnits="userSpaceOnUse" x="0" y="0" width="14" height="16">
<path fill-rule="evenodd" clip-rule="evenodd" d="M0.333008 0.666016H13.9995V15.0027H0.333008V0.666016Z"/>
</mask>
<g mask="url(#mask0_1050_5994)">
<path fill-rule="evenodd" clip-rule="evenodd" d="M8.14434 10.1935C8.94701 10.1935 9.60034 10.8422 9.60034 11.6395V13.6902C9.60034 13.8615 9.73767 13.9988 9.91367 14.0028H11.1843C12.1857 14.0028 12.9997 13.1988 12.9997 12.2108V6.39485C12.995 6.05485 12.833 5.73485 12.555 5.52218L8.15967 2.01685C7.56967 1.54952 6.74434 1.54952 6.15234 2.01818L1.78701 5.52085C1.49834 5.74018 1.33634 6.06018 1.33301 6.40618V12.2108C1.33301 13.1988 2.14701 14.0028 3.14834 14.0028H4.43101C4.61167 14.0028 4.75834 13.8595 4.75834 13.6835C4.75834 13.6448 4.76301 13.6062 4.77101 13.5695V11.6395C4.77101 10.8468 5.42034 10.1988 6.21701 10.1935H8.14434ZM11.1843 15.0029H9.90167C9.16701 14.9855 8.60034 14.4089 8.60034 13.6902V11.6395C8.60034 11.3935 8.39567 11.1935 8.14434 11.1935H6.22034C5.97434 11.1948 5.77101 11.3955 5.77101 11.6395V13.6835C5.77101 13.7335 5.76434 13.7815 5.75034 13.8269C5.67834 14.4869 5.11434 15.0029 4.43101 15.0029H3.14834C1.59567 15.0029 0.333008 13.7502 0.333008 12.2108V6.40152C0.339674 5.73885 0.645008 5.13218 1.17234 4.73285L5.52901 1.23618C6.48834 0.476182 7.82501 0.476182 8.78234 1.23485L13.1703 4.73485C13.6857 5.12752 13.991 5.73285 13.9997 6.38752V12.2108C13.9997 13.7502 12.737 15.0029 11.1843 15.0029V15.0029Z"/>
</g>
</svg>
