<svg width="59" height="59" viewBox="0 0 59 59" fill="white" xmlns="http://www.w3.org/2000/svg">
<path d="M57.8686 52.7154L39.4694 34.3315C41.9858 30.796 43.4794 26.3966 43.4794 21.7615C43.4794 9.74157 33.7297 0 21.6998 0C9.67062 0.000647967 0 9.74224 0 21.7615C0 33.7814 9.74965 43.5229 21.7795 43.5229C26.497 43.5229 30.8216 42.0306 34.3599 39.5164L52.7591 57.9003C53.4667 58.6073 54.4103 59 55.354 59C56.2976 59 57.2412 58.6073 57.9488 57.9003C59.3633 56.408 59.3633 54.1296 57.8697 52.7149L57.8686 52.7154ZM7.23184 21.762C7.23184 13.7486 13.7582 7.30614 21.6997 7.30614C29.6411 7.30679 36.2458 13.7486 36.2458 21.762C36.2458 29.7753 29.7195 36.2178 21.778 36.2178C13.8366 36.2178 7.23184 29.6968 7.23184 21.762Z" />
</svg>
