<svg width="48" height="46" viewBox="0 0 48 46" fill="white" xmlns="http://www.w3.org/2000/svg">
<path d="M45.5 38V40.5C45.5 41.8261 44.9732 43.0979 44.0355 44.0355C43.0979 44.9732 41.8261 45.5 40.5 45.5H5.5C2.725 45.5 0.5 43.25 0.5 40.5V5.5C0.5 4.17392 1.02678 2.90215 1.96447 1.96447C2.90215 1.02678 4.17392 0.5 5.5 0.5H40.5C41.8261 0.5 43.0979 1.02678 44.0355 1.96447C44.9732 2.90215 45.5 4.17392 45.5 5.5V8H23C20.225 8 18 10.25 18 13V33C18 34.3261 18.5268 35.5979 19.4645 36.5355C20.4021 37.4732 21.6739 38 23 38H45.5ZM23 33H48V13H23V33ZM33 26.75C32.0054 26.75 31.0516 26.3549 30.3483 25.6517C29.6451 24.9484 29.25 23.9946 29.25 23C29.25 22.0054 29.6451 21.0516 30.3483 20.3483C31.0516 19.6451 32.0054 19.25 33 19.25C33.9946 19.25 34.9484 19.6451 35.6516 20.3483C36.3549 21.0516 36.75 22.0054 36.75 23C36.75 23.9946 36.3549 24.9484 35.6516 25.6517C34.9484 26.3549 33.9946 26.75 33 26.75Z"/>
</svg>
