<svg width="46" height="51" viewBox="0 0 46 51" fill="white" xmlns="http://www.w3.org/2000/svg">
<path d="M40.5 45.4996V17.9996H5.5V45.4996H40.5ZM33 0.499634H38V5.49963H40.5C41.8261 5.49963 43.0979 6.02642 44.0355 6.9641C44.9732 7.90178 45.5 9.17355 45.5 10.4996V45.4996C45.5 46.8257 44.9732 48.0975 44.0355 49.0352C43.0979 49.9728 41.8261 50.4996 40.5 50.4996H5.5C2.725 50.4996 0.5 48.2496 0.5 45.4996V10.4996C0.5 7.72463 2.725 5.49963 5.5 5.49963H8V0.499634H13V5.49963H33V0.499634ZM10.5 22.9996H15.5V27.9996H10.5V22.9996ZM30.5 22.9996H35.5V27.9996H30.5V22.9996ZM20.5 32.9996H25.5V37.9996H20.5V32.9996ZM30.5 32.9996H35.5V37.9996H30.5V32.9996Z" />
</svg>
