<svg width="60" height="52" viewBox="0 0 60 52" fill="white" xmlns="http://www.w3.org/2000/svg">
<path d="M50 48.225L56.125 51.95L54.5 44.925L60 40.225L52.775 39.6L50 33L47.175 39.6L40 40.225L45.45 44.925L43.75 51.95L50 48.225ZM35.2 45.5H5C2.375 45.5 0 43.125 0 40.5V5.5C0 2.875 2.375 0.5 5 0.5H55C57.625 0.5 60 2.875 60 5.5V31.825C57.35 29.45 53.85 28 50 28C41.725 28 35 34.725 35 43C35 43.85 35.075 44.7 35.2 45.5ZM20 27.775C15 27.775 5 30.5 5 35.5V38H35V35.5C35 30.5 25 27.775 20 27.775ZM20 8C15.875 8 12.5 11.375 12.5 15.5C12.5 19.625 15.875 23 20 23C24.125 23 27.5 19.625 27.5 15.5C27.5 11.375 24.125 8 20 8ZM52.5 18H35V20.5H52.5V18ZM55 13H35V15.5H55V13ZM55 8H35V10.5H55V8Z"/>
</svg>
