<svg width="16" height="16" viewBox="0 0 16 16" fill="none" xmlns="http://www.w3.org/2000/svg">
<g clip-path="url(#clip0_903_66635)">
<path d="M8 16C3.5824 16 0 12.4176 0 8C0 3.5824 3.5824 0 8 0C12.4176 0 16 3.5824 16 8C16 12.4176 12.4176 16 8 16Z" fill="url(#paint0_linear_903_66635)"/>
<path d="M8 3.52306C9.4576 3.52306 9.6304 3.52786 10.2064 3.55506C10.7392 3.57906 11.0288 3.66866 11.2208 3.74386C11.4752 3.84306 11.6576 3.96146 11.848 4.15186C12.0384 4.34226 12.1568 4.52466 12.256 4.77906C12.3312 4.97106 12.4192 5.26066 12.4448 5.79346C12.4704 6.36946 12.4768 6.54226 12.4768 7.99986C12.4768 9.45746 12.472 9.63026 12.4448 10.2063C12.4208 10.7391 12.3312 11.0287 12.256 11.2207C12.1568 11.4751 12.0384 11.6575 11.848 11.8479C11.6576 12.0383 11.4752 12.1567 11.2208 12.2559C11.0288 12.3311 10.7392 12.4191 10.2064 12.4447C9.6304 12.4703 9.4576 12.4767 8 12.4767C6.5424 12.4767 6.3696 12.4719 5.7936 12.4447C5.2608 12.4207 4.9712 12.3311 4.7792 12.2559C4.5248 12.1567 4.3424 12.0383 4.152 11.8479C3.9616 11.6575 3.8432 11.4751 3.744 11.2207C3.6688 11.0287 3.5808 10.7391 3.5552 10.2063C3.5296 9.63026 3.5232 9.45746 3.5232 7.99986C3.5232 6.54226 3.528 6.36946 3.5552 5.79346C3.5792 5.26066 3.6688 4.97106 3.744 4.77906C3.8432 4.52466 3.9616 4.34226 4.152 4.15186C4.3424 3.96146 4.5248 3.84306 4.7792 3.74386C4.9712 3.66866 5.2608 3.58066 5.7936 3.55506C6.3696 3.52786 6.5424 3.52306 8 3.52306ZM8 2.53906C6.5168 2.53906 6.3312 2.54546 5.7488 2.57266C5.168 2.59986 4.7712 2.69106 4.4224 2.82706C4.064 2.96466 3.7584 3.15186 3.456 3.45586C3.152 3.75986 2.9664 4.06386 2.8256 4.42386C2.6912 4.77106 2.5984 5.16786 2.5712 5.75026C2.544 6.33266 2.5376 6.51826 2.5376 8.00146C2.5376 9.48466 2.544 9.67026 2.5712 10.2527C2.5984 10.8335 2.6896 11.2303 2.8256 11.5791C2.9648 11.9359 3.152 12.2415 3.456 12.5439C3.76 12.8479 4.064 13.0335 4.424 13.1743C4.7712 13.3087 5.168 13.4015 5.7504 13.4287C6.3328 13.4559 6.5184 13.4623 8.0016 13.4623C9.4848 13.4623 9.6704 13.4559 10.2528 13.4287C10.8336 13.4015 11.2304 13.3103 11.5792 13.1743C11.936 13.0351 12.2416 12.8479 12.544 12.5439C12.848 12.2399 13.0336 11.9359 13.1744 11.5759C13.3088 11.2287 13.4016 10.8319 13.4288 10.2495C13.456 9.66706 13.4624 9.48146 13.4624 7.99826C13.4624 6.51506 13.456 6.32946 13.4288 5.74706C13.4016 5.16626 13.3104 4.76946 13.1744 4.42066C13.0352 4.06386 12.848 3.75826 12.544 3.45586C12.24 3.15186 11.936 2.96626 11.576 2.82546C11.2288 2.69106 10.832 2.59826 10.2496 2.57106C9.6688 2.54546 9.4832 2.53906 8 2.53906Z" fill="white"/>
<path d="M8.00011 5.19531C6.45131 5.19531 5.19531 6.45131 5.19531 8.00011C5.19531 9.54891 6.45131 10.8049 8.00011 10.8049C9.54891 10.8049 10.8049 9.54891 10.8049 8.00011C10.8049 6.45131 9.54891 5.19531 8.00011 5.19531ZM8.00011 9.82091C6.99531 9.82091 6.17931 9.00651 6.17931 8.00011C6.17931 6.99371 6.99531 6.17931 8.00011 6.17931C9.00491 6.17931 9.82091 6.99371 9.82091 8.00011C9.82091 9.00651 9.00491 9.82091 8.00011 9.82091Z" fill="white"/>
<path d="M10.9153 5.73973C11.2776 5.73973 11.5713 5.44603 11.5713 5.08373C11.5713 4.72144 11.2776 4.42773 10.9153 4.42773C10.553 4.42773 10.2593 4.72144 10.2593 5.08373C10.2593 5.44603 10.553 5.73973 10.9153 5.73973Z" fill="white"/>
</g>
<defs>
<linearGradient id="paint0_linear_903_66635" x1="2.34314" y1="13.6569" x2="13.6569" y2="2.34314" gradientUnits="userSpaceOnUse">
<stop stop-color="#FFD521"/>
<stop offset="0.0551048" stop-color="#FFD020"/>
<stop offset="0.1241" stop-color="#FEC01E"/>
<stop offset="0.2004" stop-color="#FCA71B"/>
<stop offset="0.2821" stop-color="#FA8316"/>
<stop offset="0.3681" stop-color="#F85510"/>
<stop offset="0.4563" stop-color="#F51E09"/>
<stop offset="0.5" stop-color="#F30005"/>
<stop offset="0.5035" stop-color="#F20007"/>
<stop offset="0.5966" stop-color="#E1003B"/>
<stop offset="0.6879" stop-color="#D30067"/>
<stop offset="0.7757" stop-color="#C70088"/>
<stop offset="0.8589" stop-color="#BF00A0"/>
<stop offset="0.9357" stop-color="#BB00AF"/>
<stop offset="1" stop-color="#B900B4"/>
</linearGradient>
<clipPath id="clip0_903_66635">
<rect width="16" height="16" fill="white"/>
</clipPath>
</defs>
</svg>
