<svg width="22" height="22" viewBox="0 0 22 22" fill="#F97E4E" xmlns="http://www.w3.org/2000/svg">
<path d="M15.3748 2.24984C16.5342 2.25331 17.6451 2.71539 18.4648 3.53517C19.2846 4.35495 19.7467 5.46582 19.7502 6.62516V15.3748C19.7467 16.5342 19.2846 17.6451 18.4648 18.4648C17.6451 19.2846 16.5342 19.7467 15.3748 19.7502H6.62516C5.46582 19.7467 4.35495 19.2846 3.53517 18.4648C2.71539 17.6451 2.25331 16.5342 2.24984 15.3748V6.62516C2.25331 5.46582 2.71539 4.35495 3.53517 3.53517C4.35495 2.71539 5.46582 2.25331 6.62516 2.24984H15.3748ZM15.3748 0.5H6.62516C3.25625 0.5 0.5 3.25625 0.5 6.62516V15.3748C0.5 18.7437 3.25625 21.5 6.62516 21.5H15.3748C18.7437 21.5 21.5 18.7437 21.5 15.3748V6.62516C21.5 3.25625 18.7437 0.5 15.3748 0.5Z" />
<path d="M16.6873 6.625C16.4278 6.625 16.174 6.54802 15.9582 6.4038C15.7423 6.25959 15.5741 6.0546 15.4748 5.81477C15.3754 5.57494 15.3494 5.31104 15.4001 5.05644C15.4507 4.80184 15.5757 4.56798 15.7593 4.38442C15.9428 4.20087 16.1767 4.07586 16.4313 4.02522C16.6859 3.97458 16.9498 4.00057 17.1896 4.09991C17.4294 4.19925 17.6344 4.36748 17.7786 4.58331C17.9229 4.79915 17.9998 5.05291 17.9998 5.3125C18.0002 5.48496 17.9665 5.6558 17.9007 5.81521C17.8349 5.97462 17.7382 6.11945 17.6163 6.24141C17.4943 6.36336 17.3495 6.46002 17.1901 6.52585C17.0306 6.59168 16.8598 6.62537 16.6873 6.625ZM11 7.49969C11.6923 7.49969 12.369 7.70497 12.9446 8.08957C13.5202 8.47417 13.9688 9.02082 14.2337 9.66039C14.4986 10.3 14.568 11.0037 14.4329 11.6827C14.2978 12.3617 13.9645 12.9853 13.475 13.4748C12.9855 13.9643 12.3618 14.2977 11.6828 14.4327C11.0039 14.5678 10.3001 14.4985 9.66055 14.2336C9.02098 13.9686 8.47433 13.52 8.08973 12.9444C7.70513 12.3688 7.49985 11.6921 7.49985 10.9998C7.50084 10.0718 7.86992 9.18215 8.52611 8.52596C9.18231 7.86976 10.072 7.50068 11 7.49969ZM11 5.74984C9.96165 5.74984 8.94662 6.05775 8.08326 6.63463C7.2199 7.21151 6.54699 8.03144 6.14963 8.99076C5.75227 9.95007 5.64831 11.0057 5.85088 12.0241C6.05345 13.0425 6.55347 13.9779 7.28769 14.7122C8.02192 15.4464 8.95738 15.9464 9.97578 16.149C10.9942 16.3515 12.0498 16.2476 13.0091 15.8502C13.9684 15.4529 14.7883 14.7799 15.3652 13.9166C15.9421 13.0532 16.25 12.0382 16.25 10.9998C16.25 9.60746 15.6969 8.2721 14.7123 7.28753C13.7277 6.30297 12.3924 5.74984 11 5.74984Z" />
</svg>
