<svg width="18" height="18" viewBox="0 0 18 18" fill="#fff" xmlns="http://www.w3.org/2000/svg">
<path d="M9.00033 0.666504C11.2645 0.666504 11.547 0.674837 12.4353 0.716504C13.3228 0.758171 13.927 0.897337 14.4587 1.104C15.0087 1.31567 15.472 1.60234 15.9353 2.06484C16.3591 2.48142 16.687 2.98533 16.8962 3.5415C17.102 4.07234 17.242 4.67734 17.2837 5.56484C17.3228 6.45317 17.3337 6.73567 17.3337 8.99984C17.3337 11.264 17.3253 11.5465 17.2837 12.4348C17.242 13.3223 17.102 13.9265 16.8962 14.4582C16.6876 15.0147 16.3596 15.5187 15.9353 15.9348C15.5186 16.3584 15.0147 16.6863 14.4587 16.8957C13.9278 17.1015 13.3228 17.2415 12.4353 17.2832C11.547 17.3223 11.2645 17.3332 9.00033 17.3332C6.73616 17.3332 6.45366 17.3248 5.56533 17.2832C4.67782 17.2415 4.07366 17.1015 3.54199 16.8957C2.9856 16.6869 2.4816 16.359 2.06533 15.9348C1.6415 15.5183 1.3136 15.0144 1.10449 14.4582C0.897826 13.9273 0.758659 13.3223 0.716992 12.4348C0.677825 11.5465 0.666992 11.264 0.666992 8.99984C0.666992 6.73567 0.675325 6.45317 0.716992 5.56484C0.758659 4.6765 0.897826 4.07317 1.10449 3.5415C1.31302 2.98499 1.641 2.48094 2.06533 2.06484C2.48172 1.64086 2.98568 1.31295 3.54199 1.104C4.07366 0.897337 4.67699 0.758171 5.56533 0.716504C6.45366 0.677337 6.73616 0.666504 9.00033 0.666504ZM9.00033 4.83317C7.89526 4.83317 6.83545 5.27216 6.05405 6.05356C5.27265 6.83496 4.83366 7.89477 4.83366 8.99984C4.83366 10.1049 5.27265 11.1647 6.05405 11.9461C6.83545 12.7275 7.89526 13.1665 9.00033 13.1665C10.1054 13.1665 11.1652 12.7275 11.9466 11.9461C12.728 11.1647 13.167 10.1049 13.167 8.99984C13.167 7.89477 12.728 6.83496 11.9466 6.05356C11.1652 5.27216 10.1054 4.83317 9.00033 4.83317ZM14.417 4.62484C14.417 4.34857 14.3072 4.08362 14.1119 3.88827C13.9165 3.69292 13.6516 3.58317 13.3753 3.58317C13.0991 3.58317 12.8341 3.69292 12.6388 3.88827C12.4434 4.08362 12.3337 4.34857 12.3337 4.62484C12.3337 4.9011 12.4434 5.16606 12.6388 5.36141C12.8341 5.55676 13.0991 5.6665 13.3753 5.6665C13.6516 5.6665 13.9165 5.55676 14.1119 5.36141C14.3072 5.16606 14.417 4.9011 14.417 4.62484ZM9.00033 6.49984C9.66337 6.49984 10.2993 6.76323 10.7681 7.23207C11.2369 7.70091 11.5003 8.3368 11.5003 8.99984C11.5003 9.66288 11.2369 10.2988 10.7681 10.7676C10.2993 11.2364 9.66337 11.4998 9.00033 11.4998C8.33728 11.4998 7.7014 11.2364 7.23256 10.7676C6.76372 10.2988 6.50033 9.66288 6.50033 8.99984C6.50033 8.3368 6.76372 7.70091 7.23256 7.23207C7.7014 6.76323 8.33728 6.49984 9.00033 6.49984Z" />
</svg>
