<svg width="25" height="24" viewBox="0 0 25 24" fill="white" xmlns="http://www.w3.org/2000/svg">
<path d="M4.97505 0.0409293C4.90936 0.0742989 4.27129 0.791741 3.55815 1.64266L2.25384 3.17765L1.68145 2.5047C1.06215 1.7817 0.949544 1.7094 0.578898 1.79282C0.349003 1.84288 0.0674995 2.17657 0.025274 2.44909C-0.0497937 2.92182 -0.0169516 2.98856 0.977695 4.16761C1.76121 5.0964 1.93012 5.26881 2.07556 5.29661C2.50251 5.39116 2.46966 5.41897 4.25721 3.30557C5.43484 1.91518 5.92747 1.29784 5.965 1.16437C6.06822 0.78618 5.95562 0.385746 5.66942 0.135476C5.52398 0.00755978 5.14864 -0.0424943 4.97505 0.0409293Z" />
<path d="M8.70611 1.84287C8.39177 2.00415 8.21348 2.43239 8.27916 2.84951C8.32139 3.11091 8.55598 3.41679 8.7671 3.48909C8.88909 3.53359 11.2115 3.54471 16.2457 3.53359C23.5367 3.5169 23.5507 3.5169 23.6774 3.40011C23.9261 3.18321 24.0011 3.00524 24.0011 2.65486C24.0011 2.30448 23.9261 2.12651 23.6774 1.90961C23.5507 1.79281 23.5414 1.79281 16.1988 1.78169C10.1559 1.77057 8.8234 1.78169 8.70611 1.84287Z" />
<path d="M4.97505 8.93986C4.90936 8.97322 4.27129 9.69067 3.55815 10.5416L2.25384 12.0766L1.68145 11.4036C1.06215 10.6806 0.949544 10.6083 0.578898 10.6917C0.349003 10.7418 0.0674995 11.0755 0.025274 11.348C-0.0497937 11.8207 -0.0169516 11.8875 0.977695 13.0665C1.76121 13.9953 1.93012 14.1677 2.07556 14.1955C2.50251 14.2901 2.46966 14.3179 4.25721 12.2045C5.43484 10.8141 5.92747 10.1968 5.965 10.0633C6.06822 9.68511 5.95562 9.28467 5.66942 9.0344C5.52398 8.90649 5.14864 8.85643 4.97505 8.93986Z" />
<path d="M8.70611 10.7418C8.39177 10.9031 8.21348 11.3313 8.27916 11.7484C8.32139 12.0098 8.55598 12.3157 8.7671 12.388C8.88909 12.4325 11.2115 12.4436 16.2457 12.4325C23.5367 12.4158 23.5507 12.4158 23.6774 12.299C23.9261 12.0821 24.0011 11.9042 24.0011 11.5538C24.0011 11.2034 23.9261 11.0254 23.6774 10.8085C23.5507 10.6917 23.5414 10.6917 16.1988 10.6806C10.1559 10.6695 8.8234 10.6806 8.70611 10.7418Z" />
<path d="M2.35313 16.976C1.83704 17.1095 1.2928 17.471 0.894006 17.9492C-0.278926 19.3396 -0.288309 21.5587 0.870547 22.9269C1.44294 23.5998 2.07163 23.9446 2.83638 23.9947C4.20637 24.0837 5.46375 23.0492 5.88131 21.4808C6.02676 20.9303 6.02676 19.9737 5.88131 19.4231C5.40745 17.6545 3.87325 16.5867 2.35313 16.976ZM3.71373 18.9003C4.02808 19.1005 4.17352 19.2785 4.3565 19.6956C4.45972 19.9347 4.47849 20.0515 4.47849 20.452C4.48318 20.8858 4.4691 20.9525 4.32366 21.2751C4.14537 21.6644 3.99524 21.8312 3.64336 22.0537C3.44161 22.176 3.34309 22.1983 3.00528 22.1983C2.66748 22.1983 2.56895 22.176 2.36721 22.0537C2.01533 21.8312 1.86519 21.6644 1.68691 21.2751C1.54146 20.9525 1.52739 20.8858 1.53208 20.452C1.53208 19.8958 1.64468 19.5621 1.94964 19.2006C2.41882 18.6444 3.11788 18.5277 3.71373 18.9003Z" />
<path d="M8.70611 19.6407C8.39177 19.802 8.21348 20.2302 8.27916 20.6474C8.32139 20.9088 8.55598 21.2146 8.7671 21.2869C8.88909 21.3314 11.2115 21.3426 16.2457 21.3314C23.5367 21.3148 23.5507 21.3148 23.6774 21.198C23.9261 20.9811 24.0011 20.8031 24.0011 20.4527C24.0011 20.1023 23.9261 19.9244 23.6774 19.7075C23.5507 19.5907 23.5414 19.5907 16.1988 19.5795C10.1559 19.5684 8.8234 19.5795 8.70611 19.6407Z" />
</svg>
