<svg xmlns="http://www.w3.org/2000/svg" fill="#FFF" width="19.141" height="16" viewBox="0 0 19.141 16">
    <g transform="translate(-15.997 -56)">
        <path data-name="Path 515" d="M90.943 57.732a.3.3 0 0 0-.109-.218 6.579 6.579 0 0 0-3.553-1.482 6.49 6.49 0 0 0-.656-.032h-.01c-.22 0-.44.011-.656.032a6.591 6.591 0 0 0-4.872 2.951 6.622 6.622 0 0 0 .429 7.847.3.3 0 0 0 .218.109h.014a.3.3 0 0 0 .213-.088l8.9-8.9a.3.3 0 0 0 .082-.219zm-5.3 4.587H83.8a8.854 8.854 0 0 1 .373-2.265 19.106 19.106 0 0 0 2.149.156v1.434zm-5.034 0a5.984 5.984 0 0 1 .861-2.819 19 19 0 0 0 2.1.463 9.458 9.458 0 0 0-.373 2.353zm5.521-5.7.188-.013v3a18.512 18.512 0 0 1-1.951-.136 8.772 8.772 0 0 1 1.764-2.848zm-1.089 6.3-1.134 1.134a8.922 8.922 0 0 1-.111-1.134zm1.879-2.709q.433-.007.866-.034l-.866.866zm1.522-.69c-.5.05-1.014.08-1.522.088v-3c.063 0 .126.008.188.013a8.806 8.806 0 0 1 1.655 2.579zm-3.226-2.754a9.343 9.343 0 0 0-1.46 2.621 18.429 18.429 0 0 1-1.928-.409 5.985 5.985 0 0 1 3.388-2.212zm-3.443 9.423a6.03 6.03 0 0 1-1.164-3.268h2.585a9.505 9.505 0 0 0 .2 1.65zm7.448-7.448a9.379 9.379 0 0 0-1.2-1.976 5.973 5.973 0 0 1 2.167 1.008z" transform="translate(-61.595)"/>
        <path data-name="Path 516" d="M150.916 117.752a6.642 6.642 0 0 0-.43-.582.3.3 0 0 0-.445-.021l-8.9 8.9a.3.3 0 0 0 .021.445 6.579 6.579 0 0 0 3.553 1.482 6.741 6.741 0 0 0 1.263.006v1.532a.3.3 0 0 0 .522.2l2.7-2.924a6.622 6.622 0 0 0 1.713-9.038zm-2.085 8.564a.3.3 0 0 0-.048.042l-2.2 2.382v-1.1a.3.3 0 0 0-.343-.3 7.592 7.592 0 0 1-.259.032 6.114 6.114 0 0 1-1.2 0 5.975 5.975 0 0 1-2.968-1.142l8.415-8.415q.1.132.186.267a6.02 6.02 0 0 1-1.583 8.233z" transform="translate(-119.215 -57.81)"/>
        <ellipse data-name="Ellipse 13" cx="1" cy=".5" rx="1" ry=".5" transform="translate(24.567 65.661)"/>
        <circle data-name="Ellipse 14" cx=".5" cy=".5" r=".5" transform="translate(26.668 65.661)"/>
        <circle data-name="Ellipse 15" cx=".5" cy=".5" r=".5" transform="translate(28.802 65.661)"/>
        <path data-name="Path 517" d="M18.4 80.672a.3.3 0 0 0-.336.261l-.025.2a7.825 7.825 0 0 1 .874-10.088.3.3 0 1 0-.424-.428 8.426 8.426 0 0 0-.957 10.842l-.254-.038a.3.3 0 1 0-.088.6l1.016.15a.3.3 0 0 0 .343-.26l.113-.9a.3.3 0 0 0-.261-.336z" transform="translate(0 -13.987)"/>
        <path data-name="Path 518" d="M417.449 80.6a.3.3 0 1 0 0-.6h-.9a.3.3 0 0 0-.3.3v.9a.3.3 0 1 0 .6 0v-.1a7.824 7.824 0 0 1-.76 10.119.3.3 0 1 0 .428.424 8.426 8.426 0 0 0 .709-11.045z" transform="translate(-383.816 -23.097)"/>
    </g>
</svg>
