<svg width="24" height="25" viewBox="0 0 24 25" fill="black" xmlns="http://www.w3.org/2000/svg">
<path d="M4.97505 0.268957C4.90936 0.302326 4.27129 1.01977 3.55815 1.87069L2.25384 3.40568L1.68145 2.73273C1.06215 2.00973 0.949544 1.93743 0.578898 2.02085C0.349003 2.07091 0.0674995 2.4046 0.025274 2.67712C-0.0497937 3.14985 -0.0169516 3.21659 0.977695 4.39564C1.76121 5.32442 1.93012 5.49683 2.07556 5.52464C2.50251 5.61919 2.46966 5.647 4.25721 3.5336C5.43484 2.14321 5.92747 1.52587 5.965 1.39239C6.06822 1.01421 5.95562 0.613774 5.66942 0.363503C5.52398 0.235587 5.14864 0.185533 4.97505 0.268957Z"/>
<path d="M8.70513 2.0709C8.39079 2.23218 8.2125 2.66042 8.27819 3.07754C8.32041 3.33893 8.555 3.64482 8.76613 3.71712C8.88811 3.76161 11.2105 3.77274 16.2447 3.76161C23.5357 3.74493 23.5498 3.74493 23.6764 3.62814C23.9251 3.41123 24.0002 3.23326 24.0002 2.88289C24.0002 2.53251 23.9251 2.35454 23.6764 2.13763C23.5498 2.02084 23.5404 2.02084 16.1978 2.00972C10.1549 1.9986 8.82243 2.00972 8.70513 2.0709Z"/>
<path d="M4.97505 9.16788C4.90936 9.20125 4.27129 9.91869 3.55815 10.7696L2.25384 12.3046L1.68145 11.6317C1.06215 10.9087 0.949544 10.8364 0.578898 10.9198C0.349003 10.9698 0.0674995 11.3035 0.025274 11.576C-0.0497937 12.0488 -0.0169516 12.1155 0.977695 13.2946C1.76121 14.2233 1.93012 14.3958 2.07556 14.4236C2.50251 14.5181 2.46966 14.5459 4.25721 12.4325C5.43484 11.0421 5.92747 10.4248 5.965 10.2913C6.06822 9.91313 5.95562 9.5127 5.66942 9.26243C5.52398 9.13451 5.14864 9.08446 4.97505 9.16788Z"/>
<path d="M8.70513 10.9698C8.39079 11.1311 8.2125 11.5593 8.27819 11.9765C8.32041 12.2379 8.555 12.5437 8.76613 12.616C8.88811 12.6605 11.2105 12.6717 16.2447 12.6605C23.5357 12.6439 23.5498 12.6439 23.6764 12.5271C23.9251 12.3102 24.0002 12.1322 24.0002 11.7818C24.0002 11.4314 23.9251 11.2535 23.6764 11.0366C23.5498 10.9198 23.5404 10.9198 16.1978 10.9086C10.1549 10.8975 8.82243 10.9086 8.70513 10.9698Z"/>
<path d="M2.35216 17.204C1.83607 17.3375 1.29183 17.699 0.893029 18.1773C-0.279903 19.5677 -0.289286 21.7867 0.869571 23.1549C1.44196 23.8278 2.07065 24.1726 2.8354 24.2227C4.20539 24.3117 5.46277 23.2772 5.88034 21.7089C6.02578 21.1583 6.02578 20.2017 5.88034 19.6511C5.40647 17.8825 3.87228 16.8147 2.35216 17.204ZM3.71276 19.1283C4.0271 19.3285 4.17255 19.5065 4.35552 19.9236C4.45874 20.1628 4.47751 20.2795 4.47751 20.68C4.4822 21.1138 4.46813 21.1805 4.32268 21.5031C4.1444 21.8924 3.99426 22.0593 3.64238 22.2817C3.44064 22.4041 3.34211 22.4263 3.00431 22.4263C2.6665 22.4263 2.56798 22.4041 2.36623 22.2817C2.01435 22.0593 1.86422 21.8924 1.68593 21.5031C1.54049 21.1805 1.52641 21.1138 1.5311 20.68C1.5311 20.1238 1.64371 19.7901 1.94867 19.4286C2.41784 18.8725 3.11691 18.7557 3.71276 19.1283Z"/>
<path d="M8.70513 19.8687C8.39079 20.03 8.2125 20.4583 8.27819 20.8754C8.32041 21.1368 8.555 21.4427 8.76613 21.515C8.88811 21.5595 11.2105 21.5706 16.2447 21.5595C23.5357 21.5428 23.5498 21.5428 23.6764 21.426C23.9251 21.2091 24.0002 21.0311 24.0002 20.6807C24.0002 20.3304 23.9251 20.1524 23.6764 19.9355C23.5498 19.8187 23.5404 19.8187 16.1978 19.8076C10.1549 19.7964 8.82243 19.8076 8.70513 19.8687Z"/>
</svg>
