<svg width="12" height="14" viewBox="0 0 12 14" fill="white" xmlns="http://www.w3.org/2000/svg">
<path fill-rule="evenodd" clip-rule="evenodd" d="M6.16691 4.66602C5.52358 4.66602 5.00024 5.18935 5.00024 5.83335C5.00024 6.47668 5.52358 6.99935 6.16691 6.99935C6.81024 6.99935 7.33358 6.47668 7.33358 5.83335C7.33358 5.18935 6.81024 4.66602 6.16691 4.66602M6.16691 7.99935C4.97224 7.99935 4.00024 7.02802 4.00024 5.83335C4.00024 4.63802 4.97224 3.66602 6.16691 3.66602C7.36158 3.66602 8.33358 4.63802 8.33358 5.83335C8.33358 7.02802 7.36158 7.99935 6.16691 7.99935" />
<mask id="mask0_326_65824" style="mask-type:alpha" maskUnits="userSpaceOnUse" x="0" y="0" width="12" height="14">
<path fill-rule="evenodd" clip-rule="evenodd" d="M0.666626 0.333008H11.6663V13.333H0.666626V0.333008Z" />
</mask>
<g mask="url(#mask0_326_65824)">
<path fill-rule="evenodd" clip-rule="evenodd" d="M6.16626 1.33301C3.68493 1.33301 1.66626 3.37101 1.66626 5.87501C1.66626 9.06101 5.41559 12.165 6.16626 12.3303C6.91693 12.1643 10.6663 9.06034 10.6663 5.87501C10.6663 3.37101 8.64759 1.33301 6.16626 1.33301ZM6.16626 13.333C4.97026 13.333 0.66626 9.63167 0.66626 5.87501C0.66626 2.81901 3.13359 0.333008 6.16626 0.333008C9.19893 0.333008 11.6663 2.81901 11.6663 5.87501C11.6663 9.63167 7.36226 13.333 6.16626 13.333Z" />
</g>
</svg>
