<svg width="16" height="16" viewBox="0 0 16 16" fill="#191919" xmlns="http://www.w3.org/2000/svg">
<path d="M8.42 1.69849C12.1067 1.69849 15.0933 4.55563 15.0933 8.04769C15.0933 11.5398 12.1067 14.3969 8.42 14.3969C6.08 14.3969 4.03333 13.2413 2.84 11.4953L3.89333 10.7017C4.83333 12.1556 6.50667 13.1271 8.42667 13.1271C9.84116 13.1271 11.1977 12.5919 12.1979 11.6393C13.1981 10.6868 13.76 9.39482 13.76 8.04769C13.76 6.70056 13.1981 5.40861 12.1979 4.45604C11.1977 3.50347 9.84116 2.96833 8.42667 2.96833C5.70667 2.96833 3.46667 4.91118 3.14 7.41277H4.98L2.48667 9.78103L0 7.41277H1.79333C2.12667 4.20642 4.96667 1.69849 8.42 1.69849ZM10.3933 6.93023C10.7267 6.93658 11 7.19055 11 7.51436V10.4413C11 10.7588 10.7267 11.0255 10.3867 11.0255H6.7C6.36 11.0255 6.08667 10.7588 6.08667 10.4413V7.51436C6.08667 7.19055 6.36 6.93658 6.69333 6.93023V6.28896C6.69333 5.31753 7.52667 4.53023 8.54 4.53023C9.56 4.53023 10.3933 5.31753 10.3933 6.28896V6.93023ZM8.54 5.41912C8.04 5.41912 7.62667 5.80642 7.62667 6.28896V6.93023H9.46V6.28896C9.46 5.80642 9.04667 5.41912 8.54 5.41912Z" />
</svg>
