<svg width="59" height="19" viewBox="0 0 59 19" fill="none" xmlns="http://www.w3.org/2000/svg">
<path d="M14.8245 16.2109C14.1238 16.2109 13.7734 16.5965 13.7734 17.3675C13.7734 18.1385 14.1238 18.5001 14.8245 18.5001C15.5252 18.5001 15.8551 18.1226 15.8551 17.3675C15.8551 16.6124 15.5122 16.2109 14.8245 16.2109Z" fill="white"/>
<path d="M17.5491 16.2109C16.8484 16.2109 16.498 16.5965 16.498 17.3675C16.498 18.1385 16.8484 18.5001 17.5491 18.5001C18.2498 18.5001 18.5797 18.1226 18.5797 17.3675C18.5797 16.6124 18.2368 16.2109 17.5491 16.2109Z" fill="white"/>
<path d="M2.54323 2.74617C3.22909 2.74617 3.57388 2.36864 3.57388 1.61358C3.57388 0.858525 3.23095 0.457031 2.54323 0.457031C1.85551 0.457031 1.49219 0.842545 1.49219 1.61358C1.49219 2.38462 1.84254 2.74617 2.54323 2.74617Z" fill="white"/>
<path d="M5.26686 2.74617C5.95272 2.74617 6.29751 2.36864 6.29751 1.61358C6.29751 0.858525 5.95458 0.457031 5.26686 0.457031C4.57914 0.457031 4.21582 0.842545 4.21582 1.61358C4.21582 2.38462 4.56617 2.74617 5.26686 2.74617Z" fill="white"/>
<path d="M23.5974 10.8868C23.5974 12.4269 22.8967 13.1979 21.4953 13.1979H19.9512C18.5498 13.1979 17.8491 12.4269 17.8491 10.8868V8.19219H16.0047V10.8868C16.0047 12.4269 15.304 13.1979 13.9026 13.1979H9.86901C8.4806 13.1979 7.78733 12.4269 7.78733 10.8868V4.55273H5.92066V5.5475C5.34788 5.11604 4.66943 4.9003 3.88347 4.9003C2.85282 4.9003 1.98158 5.29381 1.26606 6.07883C0.422637 6.98769 0 8.19019 0 9.68432C0 10.9328 0.307713 11.9894 0.923136 12.8504C1.66646 13.8671 2.66745 14.3765 3.9261 14.3765C4.94192 14.3765 5.79276 14.0229 6.47863 13.3138C7.12185 14.4863 8.1803 15.0716 9.65398 15.0716H14.1158C15.3022 15.0716 16.2401 14.6641 16.926 13.8471C17.6118 14.6641 18.5498 15.0716 19.7362 15.0716H21.7085C22.7947 15.0716 23.6752 14.732 24.3481 14.0549C25.0766 13.2998 25.4418 12.2671 25.4418 10.9567V8.19419H23.5974V10.8888V10.8868ZM3.98912 12.6666C3.3459 12.6666 2.82316 12.3969 2.42277 11.8576C2.02237 11.3183 1.82217 10.6012 1.82217 9.70829C1.82217 8.81541 2.02237 8.11829 2.42277 7.57097C2.82316 7.02366 3.33848 6.74999 3.96688 6.74999C4.73987 6.74999 5.39051 7.06559 5.91881 7.6968V10.9567C5.91881 11.1105 5.93364 11.3263 5.96145 11.6039C5.44612 12.313 4.78807 12.6666 3.98727 12.6666H3.98912Z" fill="white"/>
<path d="M24.3147 5.37703C24.9839 5.37703 25.3268 5.01148 25.3435 4.2764C25.3435 4.25842 25.3435 4.23845 25.3435 4.22047C25.3435 3.46542 25.0006 3.08789 24.3147 3.08789C23.6288 3.08789 23.2637 3.46542 23.2637 4.22047C23.2637 4.23845 23.2637 4.25842 23.2637 4.2764C23.2804 5.00949 23.6307 5.37703 24.3129 5.37703H24.3147Z" fill="white"/>
<path d="M34.1781 5.37703C34.864 5.37703 35.2087 4.99351 35.2087 4.22047C35.2087 4.18452 35.2087 4.14856 35.2069 4.1146C35.1754 3.42946 34.8343 3.08789 34.1799 3.08789C33.5256 3.08789 33.1623 3.43146 33.1308 4.1146C33.1289 4.14856 33.1289 4.18452 33.1289 4.22047C33.1289 4.99151 33.4793 5.37703 34.1799 5.37703H34.1781Z" fill="white"/>
<path d="M35.5291 2.67666C36.1872 2.67666 36.5153 2.31511 36.5153 1.59002C36.5153 0.864923 36.1853 0.527344 35.5291 0.527344C34.8729 0.527344 34.543 0.882901 34.543 1.59002C34.543 2.29713 34.8711 2.67666 35.5291 2.67666Z" fill="white"/>
<path d="M35.8534 4.11656C35.8516 4.15051 35.8516 4.18647 35.8516 4.22242C35.8516 4.99346 36.2019 5.37898 36.9026 5.37898C37.6033 5.37898 37.9314 4.99546 37.9314 4.22242C37.9314 4.18647 37.9314 4.15051 37.9295 4.11656C37.898 3.43141 37.5569 3.08984 36.9026 3.08984C36.2482 3.08984 35.8849 3.43341 35.8534 4.11656Z" fill="white"/>
<path d="M45.1614 10.6798C45.1614 12.3597 44.4181 13.2007 42.9296 13.2007H39.1759C37.7745 13.2007 37.0738 12.4296 37.0738 10.8896V8.19494H35.2294V10.8896C35.2294 12.4296 34.5287 13.2007 33.1273 13.2007H31.5832C30.18 13.2007 29.4811 12.4296 29.4811 10.8896V3.46684H27.6367V10.9595C27.6367 12.1 27.9222 13.0409 28.495 13.7799C29.166 14.6429 30.1262 15.0743 31.37 15.0743H33.3424C34.5306 15.0743 35.4667 14.6668 36.1525 13.8499C36.8384 14.6668 37.7745 15.0743 38.9627 15.0743H43.0816C43.66 15.0743 44.1846 14.9825 44.6535 14.7967C45.1225 14.6109 45.5359 14.3353 45.8918 13.9637C46.65 13.1627 47.0281 12.0761 47.0281 10.7038V3.46484H45.1614V10.6798Z" fill="white"/>
<path d="M56.8134 8.19294V10.8876C56.8134 12.4276 56.1127 13.1987 54.7113 13.1987H53.1672C51.7658 13.1987 51.0651 12.4276 51.0651 10.8876V3.46484H49.2207V10.9575C49.2207 12.098 49.5062 13.0389 50.0789 13.7779C50.7518 14.6409 51.7102 15.0723 52.954 15.0723H54.9282C56.0144 15.0723 56.8949 14.7328 57.566 14.0556C58.2945 13.3005 58.6597 12.2678 58.6597 10.9575V8.19492H56.8152L56.8134 8.19294Z" fill="white"/>
<path d="M56.7503 16.2109C56.0496 16.2109 55.6992 16.5885 55.6992 17.3435C55.6992 18.0986 56.0496 18.5001 56.7503 18.5001C57.451 18.5001 57.7809 18.1146 57.7809 17.3435C57.7809 16.5725 57.438 16.2109 56.7503 16.2109Z" fill="white"/>
</svg>
