<svg width="16" height="17" viewBox="0 0 16 17" fill="white" xmlns="http://www.w3.org/2000/svg">
<path d="M9.96551 1.3335C9.05379 1.33348 8.3189 1.33347 7.74093 1.41118C7.14086 1.49186 6.63561 1.66445 6.23433 2.06573C5.88438 2.41568 5.70755 2.84573 5.61473 3.35106C5.52453 3.8421 5.50728 4.44303 5.50326 5.16405C5.50173 5.44019 5.72433 5.66529 6.00047 5.66682C6.27661 5.66836 6.50171 5.44575 6.50325 5.16961C6.5073 4.44062 6.52624 3.92389 6.59827 3.53173C6.66768 3.15385 6.77913 2.93514 6.94144 2.77284C7.12595 2.58833 7.38499 2.46803 7.87418 2.40226C8.37774 2.33456 9.04515 2.3335 10.0021 2.3335H10.6688C11.6257 2.3335 12.2931 2.33456 12.7967 2.40226C13.2859 2.46803 13.5449 2.58833 13.7294 2.77284C13.9139 2.95735 14.0342 3.21639 14.1 3.70558C14.1677 4.20914 14.1688 4.87655 14.1688 5.8335V11.1668C14.1688 12.1238 14.1677 12.7912 14.1 13.2948C14.0342 13.7839 13.9139 14.043 13.7294 14.2275C13.5449 14.412 13.2859 14.5323 12.7967 14.5981C12.2931 14.6658 11.6257 14.6668 10.6688 14.6668H10.0021C9.04515 14.6668 8.37774 14.6658 7.87418 14.5981C7.38499 14.5323 7.12595 14.412 6.94144 14.2275C6.77913 14.0652 6.66768 13.8465 6.59827 13.4686C6.52624 13.0764 6.5073 12.5597 6.50325 11.8307C6.50171 11.5546 6.27661 11.332 6.00047 11.3335C5.72433 11.335 5.50173 11.5601 5.50326 11.8363C5.50728 12.5573 5.52453 13.1582 5.61473 13.6493C5.70755 14.1546 5.88438 14.5846 6.23433 14.9346C6.63561 15.3359 7.14086 15.5085 7.74093 15.5891C8.31891 15.6669 9.05379 15.6668 9.96552 15.6668H10.7053C11.6171 15.6668 12.352 15.6669 12.9299 15.5891C13.53 15.5085 14.0353 15.3359 14.4365 14.9346C14.8378 14.5333 15.0104 14.0281 15.0911 13.428C15.1688 12.85 15.1688 12.1151 15.1688 11.2034V5.79692C15.1688 4.88519 15.1688 4.15031 15.0911 3.57233C15.0104 2.97226 14.8378 2.46701 14.4365 2.06573C14.0353 1.66445 13.53 1.49186 12.9299 1.41118C12.352 1.33347 11.6171 1.33348 10.7054 1.3335H9.96551Z" fill-opacity="0.8"/>
<path d="M1.33594 7.99951C1.05979 7.99951 0.835938 8.22337 0.835938 8.49951C0.835938 8.77566 1.0598 8.99951 1.33594 8.99951L9.31764 8.99951L8.01054 10.1199C7.80088 10.2996 7.7766 10.6152 7.95631 10.8249C8.13602 11.0346 8.45167 11.0589 8.66133 10.8791L10.9947 8.87914C11.1055 8.78415 11.1693 8.64547 11.1693 8.49951C11.1693 8.35355 11.1055 8.21488 10.9947 8.11988L8.66133 6.11988C8.45167 5.94017 8.13602 5.96445 7.95631 6.17412C7.7766 6.38378 7.80088 6.69943 8.01054 6.87914L9.31764 7.99951L1.33594 7.99951Z" fill-opacity="0.8"/>
</svg>
