<svg width="50" height="40" viewBox="0 0 50 40" fill="white" xmlns="http://www.w3.org/2000/svg">
<path d="M33.95 32L25 26.25L16.05 32L18.75 21.7L10.525 15L21.15 14.35L25 4.5L28.85 14.35L39.475 15L31.25 21.7L33.95 32ZM45 20C45 17.225 47.25 15 50 15V5C50 2.225 47.75 0 45 0H5C3.67392 0 2.40215 0.526784 1.46447 1.46447C0.526784 2.40215 0 3.67392 0 5V15C2.775 15 5 17.25 5 20C5 21.3261 4.47322 22.5979 3.53553 23.5355C2.59785 24.4732 1.32608 25 0 25V35C0 36.3261 0.526784 37.5979 1.46447 38.5355C2.40215 39.4732 3.67392 40 5 40H45C46.3261 40 47.5979 39.4732 48.5355 38.5355C49.4732 37.5979 50 36.3261 50 35V25C48.6739 25 47.4021 24.4732 46.4645 23.5355C45.5268 22.5979 45 21.3261 45 20Z" />
</svg>
