<svg width="40" height="40" viewBox="0 0 40 40" fill="#F77D4E" xmlns="http://www.w3.org/2000/svg">
<g opacity="0.7">
<path d="M21.1678 23.6668C20.3426 22.4994 19.0174 21.786 17.5965 21.732C17.5664 21.7287 17.5359 21.7268 17.505 21.7268C15.6975 21.7268 14.204 20.3609 14.0004 18.6073C14.5208 18.2283 15.0009 17.7473 15.4265 17.1713C16.287 16.0062 16.8456 14.5504 17.0527 12.9761C17.1161 12.9071 17.1696 12.8268 17.2079 12.7354C17.5723 11.8677 17.7571 10.9414 17.7571 9.98213C17.7571 6.29299 14.9679 3.29175 11.5396 3.29175C10.6529 3.29175 9.79272 3.49315 8.97959 3.89058C8.67561 3.9162 8.37772 3.97089 8.0917 4.0537C5.22561 4.88175 3.6057 8.34721 4.48077 11.7787C4.56882 12.1239 4.68077 12.4635 4.81374 12.7877C4.84999 12.8763 4.90077 12.9542 4.96062 13.0221C5.29069 15.4457 6.4378 17.4622 8.00663 18.6029C7.80499 20.3587 6.31038 21.7269 4.5014 21.7269C4.47359 21.7269 4.44609 21.7284 4.4189 21.7311C1.96757 21.8177 0 23.8375 0 26.3095V31.2423C0 31.7026 0.373046 32.0756 0.83328 32.0756H15.556C16.0161 32.0756 16.3893 31.7026 16.3893 31.2423C16.3893 30.7821 16.0161 30.409 15.556 30.409H1.66648V26.3094C1.66648 24.7012 2.97476 23.393 4.58288 23.393C4.61069 23.393 4.63819 23.3916 4.66538 23.3889C5.26561 23.3701 5.84038 23.2494 6.37303 23.0429L10.3181 28.7369C10.4737 28.9615 10.7297 29.0956 11.003 29.0956C11.2764 29.0956 11.5323 28.9615 11.6879 28.7369L15.6331 23.0429C16.1658 23.2494 16.7405 23.3701 17.3407 23.3889C17.3679 23.3916 17.3954 23.393 17.4232 23.393C18.3689 23.393 19.26 23.8549 19.8068 24.6286C19.9692 24.8583 20.2265 24.9809 20.488 24.9809C20.6543 24.9809 20.8221 24.9312 20.9682 24.828C21.3441 24.5626 21.4333 24.0426 21.1678 23.6668ZM8.55405 5.6544C8.77264 5.59127 9.00381 5.55378 9.24123 5.54307C9.36358 5.5376 9.48295 5.50526 9.59139 5.44831C10.2106 5.12299 10.8659 4.958 11.5393 4.958C13.9979 4.958 16.006 7.12159 16.0865 9.81439C15.5854 9.43549 14.962 9.21025 14.2868 9.21025H9.92912C9.71209 9.21025 9.506 9.14213 9.33342 9.0133C9.18569 8.90307 9.07162 8.7551 9.00342 8.58502C8.846 8.1933 8.45655 7.94861 8.036 7.97518C7.61288 8.00229 7.25686 8.29635 7.15022 8.7065C6.93764 9.52314 6.54077 10.2837 6.00116 10.9295C5.56897 8.51346 6.65725 6.20245 8.55405 5.6544ZM6.59991 12.7113C7.32772 12.0441 7.9167 11.2355 8.32795 10.3425C8.33077 10.3446 8.33366 10.3467 8.33655 10.3488C8.79944 10.6943 9.35006 10.8768 9.92904 10.8768H14.2868C14.8102 10.8768 15.2623 11.1831 15.4769 11.625C15.4714 13.356 14.9782 14.973 14.0858 16.1809C13.2443 17.3199 12.1495 17.9473 11.0029 17.9473C9.9417 17.9473 8.90858 17.3991 8.09381 16.4038C7.30335 15.4382 6.7803 14.1385 6.59991 12.7113ZM11.0029 26.7992L7.81413 22.1967C8.66959 21.4869 9.29319 20.508 9.55686 19.3914C10.0212 19.5367 10.5054 19.6139 11.0029 19.6139C11.4977 19.6139 11.9823 19.5388 12.4497 19.3938C12.7137 20.5093 13.3371 21.4873 14.1919 22.1966L11.0029 26.7992Z"/>
<path d="M35.5812 26.3636C35.554 26.3609 35.5265 26.3595 35.4987 26.3595C33.6888 26.3595 32.1936 24.9898 31.9932 23.2327C33.0136 22.4895 33.855 21.3753 34.4096 20.0202C34.489 20.2799 34.6922 20.4896 34.9596 20.5725C35.0408 20.5977 35.1239 20.6099 35.2062 20.6099C35.4587 20.6099 35.7031 20.4949 35.8638 20.2885C37.0264 18.7954 37.6306 16.8521 37.5656 14.8166C37.5017 12.8197 36.7998 10.9451 35.5889 9.53823C34.3491 8.09777 32.7124 7.29613 30.9785 7.27957C30.8866 7.27582 30.6579 7.28371 30.621 7.28597C29.7302 6.88191 28.7889 6.69316 27.8196 6.72394C25.8176 6.78793 23.9761 7.78574 22.6345 9.53355C21.3308 11.2321 20.6536 13.4474 20.7279 15.7718C20.7405 16.1656 20.7716 16.5283 20.8219 16.8736C20.9576 17.8642 21.2305 18.8128 21.6329 19.6932C21.761 19.9734 22.0333 20.1602 22.3408 20.1786C22.6472 20.1971 22.9408 20.0444 23.1016 19.7815C23.1686 19.6719 23.2548 19.5352 23.3499 19.4013C23.7214 20.5299 24.2893 21.5438 25.0103 22.3442C25.3179 22.6857 25.65 22.9827 25.9999 23.2361C25.7979 24.9915 24.3034 26.3593 22.4947 26.3593C22.4669 26.3593 22.4394 26.3608 22.4122 26.3634C19.9611 26.4503 17.9937 28.4702 17.9937 30.9421V35.8749C17.9937 36.3351 18.3668 36.7082 18.8269 36.7082H39.1664C39.6266 36.7082 39.9997 36.3351 39.9997 35.8749V30.9421C39.9999 28.4704 38.0323 26.4505 35.5812 26.3636ZM22.6649 17.6269C22.5827 17.306 22.5183 16.9768 22.4722 16.6405C22.43 16.3508 22.4043 16.0492 22.3938 15.7187C22.3318 13.7783 22.8868 11.9421 23.9566 10.5484C24.9885 9.20402 26.3793 8.43745 27.8728 8.38972C27.9228 8.38808 28.9968 8.32761 30.0932 8.88011C30.2158 8.94183 30.3571 8.9705 30.4946 8.96659C30.5104 8.96613 30.9382 8.94589 30.9506 8.94605C32.2021 8.95433 33.4007 9.55081 34.3258 10.6255C35.2892 11.7449 35.8482 13.2522 35.8999 14.8699C35.928 15.7486 35.8046 16.6028 35.5431 17.3886C35.4644 17.1788 35.3766 16.9721 35.2799 16.7689C34.4754 15.0572 33.1211 13.7313 31.4665 13.0355C31.2569 12.9474 31.0205 12.9487 30.812 13.0392C30.6034 13.1296 30.4409 13.3013 30.3621 13.5146C30.2511 13.8142 30.1168 14.1062 29.9624 14.3822C29.5261 15.1624 28.6466 15.6265 27.6686 15.5923C27.5218 15.5873 27.3728 15.587 27.2259 15.5917C26.5054 15.6148 25.8027 15.7521 25.1337 16.0013C24.4729 16.2506 23.3625 16.8763 22.6649 17.6269ZM24.7148 18.0804C25.0307 17.8688 25.3669 17.6945 25.7189 17.5614C26.2146 17.3769 26.7395 17.2745 27.2791 17.2573C27.3893 17.2537 27.5008 17.2538 27.6108 17.2577C29.2197 17.3127 30.6746 16.5229 31.4169 15.1955C31.4625 15.1138 31.5069 15.031 31.5498 14.9473C32.3098 15.4155 32.9594 16.0754 33.4478 16.8763C33.4436 16.901 33.44 16.9258 33.438 16.9513C33.3102 18.5323 32.7648 19.9832 31.9022 21.0368C31.0875 22.0322 30.0543 22.5803 28.9932 22.5803C27.0314 22.5802 25.2863 20.7154 24.7148 18.0804ZM27.551 24.0227C28.02 24.1693 28.5036 24.2466 28.9932 24.2466C29.4919 24.2466 29.9773 24.169 30.4428 24.0229C30.7775 25.4419 31.695 26.6374 32.9285 27.3428C32.4474 29.0815 30.8483 30.3317 28.997 30.3317C27.1455 30.3317 25.5465 29.0814 25.0654 27.3427C26.2988 26.6374 27.2164 25.4418 27.551 24.0227ZM38.3334 35.0419H19.6604V30.9423C19.6604 29.3342 20.9686 28.0259 22.5768 28.0259C22.6046 28.0259 22.6321 28.0244 22.6593 28.0217C22.9462 28.0127 23.2275 27.9812 23.5011 27.9273C24.2249 30.3035 26.4396 31.9983 28.9969 31.9983C31.5542 31.9983 33.7689 30.3035 34.4928 27.9273C34.7663 27.9812 35.0476 28.0128 35.3345 28.0217C35.3617 28.0244 35.3892 28.0259 35.417 28.0259C37.0251 28.0259 38.3334 29.3341 38.3334 30.9423V35.0419Z"/>
</g>
</svg>
