<svg width="24" height="24" viewBox="0 0 24 24" fill="none" stroke="white" xmlns="http://www.w3.org/2000/svg">
<path d="M11.8158 0.597656C5.41252 0.597656 0.550854 5.22546 0.550854 10.9295C0.502556 12.2086 0.74981 13.4805 1.27008 14.6293C1.79035 15.7781 2.56709 16.7672 3.52952 17.5065V17.5065C3.85103 19.118 3.77313 20.7933 3.30378 22.3615C3.26462 22.504 3.2625 22.6556 3.29765 22.7993C3.3328 22.9431 3.40386 23.0736 3.50297 23.1763C3.60209 23.2789 3.72541 23.3499 3.85932 23.3813C3.99323 23.4126 4.13251 23.4032 4.2618 23.354L10.0925 21.1119C10.6868 21.2073 11.2866 21.2573 11.8874 21.2613C18.2907 21.2613 23.4497 16.6335 23.4497 10.9295C23.4497 5.22546 18.2191 0.597656 11.8158 0.597656Z"  stroke-opacity="0.88" stroke-width="2" stroke-linecap="round" stroke-linejoin="round"/>
<path d="M9.99398 21.1112C8.68464 20.8357 7.42197 20.3436 6.25 19.6523"  stroke-opacity="0.88" stroke-width="2" stroke-linecap="round" stroke-linejoin="round"/>
<path d="M7.07051 12.6993C7.79118 12.6993 8.3754 12.0649 8.3754 11.2823C8.3754 10.4997 7.79118 9.86523 7.07051 9.86523C6.34984 9.86523 5.76562 10.4997 5.76562 11.2823C5.76562 12.0649 6.34984 12.6993 7.07051 12.6993Z" fill="white" fill-opacity="0.88"/>
<path d="M12.1799 12.6993C12.9006 12.6993 13.4848 12.0649 13.4848 11.2823C13.4848 10.4997 12.9006 9.86523 12.1799 9.86523C11.4592 9.86523 10.875 10.4997 10.875 11.2823C10.875 12.0649 11.4592 12.6993 12.1799 12.6993Z" fill="white" fill-opacity="0.88"/>
<path d="M17.2893 12.6993C18.0099 12.6993 18.5941 12.0649 18.5941 11.2823C18.5941 10.4997 18.0099 9.86523 17.2893 9.86523C16.5686 9.86523 15.9844 10.4997 15.9844 11.2823C15.9844 12.0649 16.5686 12.6993 17.2893 12.6993Z" fill="white" fill-opacity="0.88"/>
</svg>
