<svg width="324" height="278" viewBox="0 0 324 278" fill="none" xmlns="http://www.w3.org/2000/svg">
<path d="M219.627 12.5508C219.627 12.5508 175.337 68.6521 104.473 35.1887C33.6094 1.72521 -37.2545 92.2733 23.7672 147.39C84.789 202.506 25.0746 232.792 66.5303 266.571C113.647 304.963 154.668 227.111 192.069 244.827C274.613 283.927 335.764 268.449 321.986 223.174C297.798 143.702 266.87 138.532 290.491 97.1944C314.111 55.8565 261.979 -30.0931 219.627 12.5508Z" fill="#DEE9FF"/>
<path d="M161.54 132.466V250.165L70.1558 210.694L70.5917 93.4199L161.54 132.466Z" fill="#4C4BE4"/>
<path d="M161.541 132.535V250.235L252.48 212.127V93.7949L161.541 132.535Z" fill="#A2BDFF"/>
<path d="M161.54 132.466L252.924 94.1898L162.257 54L70.1558 93.233L161.54 132.466Z" fill="#4C4BE4"/>
<path d="M45.2001 114.229L137.166 158.868C137.413 158.988 137.693 159.024 137.962 158.969C138.231 158.915 138.475 158.773 138.657 158.567L161.539 132.465L70.1555 93.2324L44.9954 112.097C44.8234 112.226 44.6874 112.397 44.6005 112.594C44.5137 112.791 44.4788 113.007 44.4994 113.221C44.5199 113.435 44.5952 113.64 44.7179 113.816C44.8406 113.993 45.0066 114.135 45.2001 114.229Z" fill="#3031D9"/>
<path d="M252.923 94.1895L278.303 117.135C278.458 117.275 278.576 117.452 278.645 117.648C278.714 117.845 278.734 118.056 278.701 118.263C278.668 118.469 278.584 118.663 278.457 118.829C278.33 118.995 278.164 119.126 277.973 119.211L187.141 159.749C186.899 159.858 186.628 159.886 186.368 159.831C186.109 159.775 185.873 159.639 185.696 159.441L161.539 132.466L252.923 94.1895Z" fill="#3031D9"/>
<path d="M162.257 54.0006L253.178 94.1904L266.253 91.1597C266.51 91.1002 266.742 90.961 266.915 90.762C267.089 90.563 267.195 90.3144 267.219 90.0516C267.243 89.7887 267.183 89.5251 267.048 89.2981C266.914 89.0711 266.711 88.8925 266.469 88.7875L183.447 52.8143C183.266 52.7356 183.068 52.701 182.87 52.7134L162.257 54.0006Z" fill="#3031D9"/>
<path d="M162.257 53.9997L71.8462 93.42L60.4171 91.4993C60.1525 91.45 59.9108 91.3168 59.7277 91.1194C59.5447 90.9221 59.43 90.6711 59.4006 90.4035C59.3712 90.1359 59.4287 89.866 59.5645 89.6336C59.7004 89.4013 59.9074 89.2188 60.155 89.1131L145.229 52.4497C145.417 52.3698 145.621 52.3369 145.825 52.354L162.257 53.9997Z" fill="#3031D9"/>
<path d="M256.488 231.883C268.954 231.883 279.06 221.777 279.06 209.311C279.06 196.844 268.954 186.738 256.488 186.738C244.021 186.738 233.915 196.844 233.915 209.311C233.915 221.777 244.021 231.883 256.488 231.883Z" fill="#4C4BE4" stroke="white" stroke-width="15" stroke-miterlimit="10"/>
<path d="M263.662 202.622C263.289 201.326 262.767 200.272 262.096 199.47C261.447 198.687 260.605 198.086 259.653 197.727C257.599 197.018 255.367 197.018 253.313 197.727C252.362 198.084 251.523 198.685 250.879 199.47C250.198 200.272 249.676 201.326 249.313 202.622C248.949 203.918 248.763 205.503 248.763 207.368V211.172C248.763 213.036 248.949 214.621 249.322 215.927C249.615 217.087 250.152 218.171 250.898 219.106C251.546 219.898 252.387 220.508 253.341 220.878C255.384 221.611 257.619 221.611 259.662 220.878C260.611 220.508 261.447 219.897 262.087 219.106C262.822 218.166 263.352 217.083 263.644 215.927C264.008 214.622 264.195 213.036 264.195 211.172H264.214V207.368C264.212 205.502 264.026 203.918 263.662 202.622ZM260.259 211.74C260.272 212.755 260.191 213.77 260.017 214.77C259.899 215.482 259.656 216.167 259.299 216.793C259.024 217.277 258.616 217.672 258.124 217.931C257.619 218.174 257.063 218.296 256.502 218.285C255.941 218.294 255.386 218.172 254.879 217.931C254.381 217.67 253.965 217.277 253.677 216.793C253.312 216.168 253.06 215.483 252.931 214.77C252.74 213.772 252.653 212.756 252.67 211.74V206.761C252.653 205.748 252.738 204.736 252.922 203.74C253.045 203.042 253.295 202.372 253.659 201.763C253.948 201.299 254.361 200.924 254.852 200.682C255.361 200.461 255.91 200.346 256.465 200.346C257.02 200.346 257.569 200.461 258.078 200.682C258.573 200.918 258.988 201.294 259.272 201.763C259.636 202.372 259.886 203.042 260.009 203.74C260.193 204.736 260.278 205.748 260.261 206.761V211.74H260.259Z" fill="white"/>
</svg>
