<svg width="172" height="244" viewBox="0 0 172 244" fill="none" xmlns="http://www.w3.org/2000/svg">
<path d="M171.809 122.37C171.809 164.311 164.659 195.151 150.852 214.641C136.798 234.131 115.348 244 86.2537 244C57.8996 244 36.6957 233.885 22.1488 213.407C7.84841 192.93 0.698242 162.584 0.698242 122.37C0.698242 80.182 7.60185 49.3428 21.9022 29.6057C35.956 9.86855 57.4065 0 86.5003 0C114.608 0 136.058 10.362 150.359 30.8392C164.659 51.3165 171.809 81.6623 171.809 122.37ZM64.3101 122.37C64.3101 149.262 66.036 167.765 69.2413 177.634C72.6931 187.749 78.1173 192.684 86.0072 192.684C93.897 192.684 99.5679 187.503 103.02 177.141C106.225 166.779 107.951 148.522 107.951 122.37C107.951 95.9717 106.225 77.7149 103.02 67.1062C99.5679 56.4975 94.1436 51.3165 86.2537 51.3165C78.3639 51.3165 72.6931 56.4975 69.4878 66.6127C66.036 76.728 64.3101 95.2315 64.3101 122.37Z" fill="#3031D9"/>
</svg>
