<svg width="22" height="23" viewBox="0 0 22 23" fill="white" xmlns="http://www.w3.org/2000/svg">
<path d="M7.29531 1.54531C6.72344 2.1125 6.625 2.23438 6.625 2.35625C6.625 2.46406 6.73281 2.64687 7.06562 3.0875L7.51094 3.67812L7.35156 3.82812C7.2625 3.9125 7.16875 4.04375 7.13594 4.11406L7.08437 4.25H4.95625C3.4375 4.25 2.8 4.26406 2.71094 4.30625C2.62187 4.34844 2.37344 4.75625 1.68906 5.98906C0.789062 7.62031 0.789062 7.62031 0.634375 7.625C0.414062 7.625 0.25 7.80312 0.25 8.0375C0.25 9.12969 1.01406 10.1375 2.125 10.5125C2.48125 10.6344 3.26875 10.6344 3.625 10.5125C4.69375 10.1516 5.39219 9.27969 5.48594 8.20156C5.50937 7.8875 5.50469 7.85938 5.39219 7.74687C5.3125 7.66719 5.21875 7.625 5.11562 7.625C4.96094 7.62031 4.95625 7.61094 4.25781 6.35C3.87344 5.65156 3.55 5.06094 3.54062 5.0375C3.53125 5.01875 4.32344 5 5.30312 5C7.07969 5 7.08906 5 7.11719 5.09844C7.16406 5.24844 7.45 5.54375 7.60937 5.60937L7.75 5.66562V10.9578V16.25H6.74687C5.86094 16.25 5.73437 16.2594 5.65 16.3297C5.54219 16.4234 4.75 18.3641 4.75 18.5375C4.75 18.5938 4.80156 18.6969 4.86719 18.7578L4.97969 18.875H8.125H11.2703L11.3828 18.7578C11.4484 18.6969 11.5 18.5938 11.5 18.5375C11.5 18.3641 10.7078 16.4234 10.6 16.3297C10.5156 16.2594 10.3891 16.25 9.50312 16.25H8.5V10.9578V5.66562L8.64062 5.60937C8.8 5.54375 9.08594 5.24844 9.13281 5.09844C9.16094 5 9.17031 5 10.9469 5C11.9266 5 12.7187 5.01875 12.7094 5.0375C12.7047 5.06094 12.3812 5.65156 11.9922 6.35C11.2937 7.61094 11.2891 7.62031 11.1344 7.625C10.9141 7.625 10.75 7.80312 10.75 8.0375C10.75 9.12969 11.5141 10.1375 12.625 10.5125C12.9812 10.6344 13.7687 10.6344 14.125 10.5125C15.1937 10.1516 15.8922 9.27969 15.9859 8.20156C16.0094 7.8875 16.0047 7.85938 15.8922 7.74687C15.8125 7.66719 15.7187 7.625 15.6156 7.625C15.4609 7.62031 15.4609 7.62031 14.5609 5.98906C13.8766 4.75625 13.6281 4.34844 13.5391 4.30625C13.45 4.26406 12.8125 4.25 11.2937 4.25H9.16562L9.11406 4.11406C9.08125 4.04375 8.9875 3.9125 8.89844 3.82812L8.73906 3.67812L9.18437 3.0875C9.51719 2.64687 9.625 2.46406 9.625 2.35625C9.625 2.23438 9.52656 2.1125 8.95469 1.54531C8.35469 0.945312 8.27031 0.875 8.125 0.875C7.97969 0.875 7.89531 0.945312 7.29531 1.54531ZM8.44844 2.1125L8.74844 2.4125L8.44844 2.81562C8.28437 3.03594 8.13906 3.21875 8.125 3.21875C8.11094 3.21875 7.96562 3.03594 7.80156 2.81562L7.50156 2.4125L7.80156 2.1125C7.96562 1.94844 8.11094 1.8125 8.125 1.8125C8.13906 1.8125 8.28437 1.94844 8.44844 2.1125ZM8.38281 4.36719C8.61719 4.59687 8.45312 5 8.125 5C7.93281 5 7.75 4.81719 7.75 4.625C7.75 4.43281 7.93281 4.25 8.125 4.25C8.21406 4.25 8.3125 4.29219 8.38281 4.36719ZM3.48437 6.48594C3.80781 7.07187 4.07969 7.56406 4.08437 7.5875C4.09375 7.60625 3.55 7.625 2.875 7.625C2.2 7.625 1.65625 7.60625 1.66562 7.5875C1.71719 7.46094 2.85625 5.42656 2.875 5.42656C2.88906 5.42656 3.16094 5.9 3.48437 6.48594ZM13.9844 6.48594C14.3078 7.07187 14.5797 7.56406 14.5844 7.5875C14.5937 7.60625 14.05 7.625 13.375 7.625C12.7 7.625 12.1562 7.60625 12.1656 7.5875C12.2172 7.46094 13.3562 5.42656 13.375 5.42656C13.3891 5.42656 13.6609 5.9 13.9844 6.48594ZM4.70312 8.44062C4.70312 8.47344 4.62812 8.65156 4.53906 8.82969C4.3375 9.23281 4.05625 9.50469 3.63437 9.70156C3.34844 9.8375 3.27812 9.85156 2.875 9.85156C2.47187 9.85156 2.40156 9.8375 2.11562 9.70156C1.69375 9.50469 1.4125 9.23281 1.21094 8.82969C1.12187 8.65156 1.04687 8.47344 1.04687 8.44062C1.04687 8.38437 1.36094 8.375 2.875 8.375C4.38906 8.375 4.70312 8.38437 4.70312 8.44062ZM15.2031 8.44062C15.2031 8.47344 15.1281 8.65156 15.0391 8.82969C14.8375 9.23281 14.5562 9.50469 14.1344 9.70156C13.8484 9.8375 13.7781 9.85156 13.375 9.85156C12.9719 9.85156 12.9016 9.8375 12.6156 9.70156C12.1937 9.50469 11.9125 9.23281 11.7109 8.82969C11.6219 8.65156 11.5469 8.47344 11.5469 8.44062C11.5469 8.38437 11.8609 8.375 13.375 8.375C14.8891 8.375 15.2031 8.38437 15.2031 8.44062ZM10.3234 17.5016C10.4359 17.7828 10.5344 18.0359 10.5484 18.0641C10.5672 18.1109 10.0656 18.125 8.125 18.125C6.18437 18.125 5.68281 18.1109 5.70156 18.0641C5.71562 18.0359 5.81406 17.7828 5.92656 17.5016L6.12344 17H8.125H10.1266L10.3234 17.5016Z" />
<path d="M16.4573 13.6719C15.4682 13.8312 14.5542 14.3141 13.8651 15.0453C12.1542 16.8641 12.2339 19.6812 14.0479 21.3875C14.6245 21.9312 15.2526 22.2781 16.0495 22.4937C16.5604 22.6297 17.6245 22.6391 18.1307 22.5172C19.8042 22.1 21.0417 20.8812 21.4917 19.2031C21.6464 18.6312 21.6464 17.6141 21.4964 17.0516C21.0464 15.3922 19.8417 14.1828 18.2104 13.7609C17.7979 13.6531 16.8745 13.6062 16.4573 13.6719ZM17.7839 14.4406C19.1245 14.6844 20.2026 15.5984 20.6526 16.8687C21.3417 18.8187 20.3245 20.9609 18.3839 21.65C16.7479 22.2266 14.9339 21.6125 13.987 20.1547C13.5698 19.5172 13.4011 18.9406 13.4011 18.125C13.4011 17.3094 13.5698 16.7328 13.987 16.0953C14.812 14.825 16.3073 14.1734 17.7839 14.4406Z" />
<path d="M16.4907 15.1999C15.6376 15.3827 14.8407 15.9967 14.4657 16.7655C14.0485 17.6139 14.0251 18.4717 14.386 19.3342C14.522 19.653 14.6954 19.7983 14.8876 19.7421C15.0142 19.7046 18.661 16.0811 18.7173 15.9358C18.7454 15.8702 18.7407 15.7764 18.7079 15.6827C18.6657 15.5655 18.6001 15.5092 18.3704 15.4061C17.7892 15.1436 17.1189 15.0686 16.4907 15.1999ZM17.6767 15.9452C17.7048 15.9733 15.0142 18.6874 14.9579 18.6874C14.9439 18.6874 14.911 18.5467 14.897 18.378C14.7751 17.2624 15.5017 16.2217 16.5985 15.9452C16.8517 15.8796 17.611 15.8796 17.6767 15.9452Z" />
<path d="M19.331 16.5172C19.2232 16.5547 15.581 20.1969 15.5341 20.3141C15.506 20.3797 15.5107 20.4734 15.5435 20.5672C15.5857 20.6844 15.6513 20.7406 15.881 20.8438C16.2185 20.9984 16.7857 21.125 17.1278 21.125C17.2591 21.125 17.531 21.0922 17.7278 21.05C19.5982 20.6703 20.6388 18.6266 19.8513 16.8828C19.7435 16.6484 19.6872 16.5828 19.5653 16.5359C19.481 16.5078 19.4107 16.4844 19.406 16.4891C19.4013 16.4891 19.3685 16.5031 19.331 16.5172ZM19.3544 17.8719C19.5091 19.2781 18.3278 20.4828 16.9216 20.3563C16.7388 20.3375 16.5841 20.3141 16.57 20.3C16.5419 20.2766 19.2419 17.5625 19.2935 17.5625C19.3075 17.5625 19.3403 17.7031 19.3544 17.8719Z" />
</svg>
