<svg width="31" height="30" viewBox="0 0 31 30" fill="white" xmlns="http://www.w3.org/2000/svg">
<path d="M11.5222 1.02533C10.5958 1.27143 9.94189 1.93353 9.74814 2.84174C9.70576 3.04096 9.69365 6.15814 9.6997 12.3632L9.71787 21.5917L9.85713 21.9316C10.1235 22.5644 10.5897 23.0097 11.2679 23.2792C11.5948 23.4081 11.619 23.4081 15.9845 23.4257C19.1147 23.4374 20.4165 23.4199 20.5315 23.373C20.8827 23.2382 20.8948 22.7167 20.5497 22.5644C20.4407 22.5175 19.1753 22.4999 16.1479 22.4999C13.2356 22.4999 11.8188 22.4765 11.6554 22.4355C11.3284 22.3476 10.8138 21.8496 10.7229 21.5331C10.6321 21.1992 10.6321 3.17572 10.7229 2.84174C10.8138 2.51947 11.3284 2.02728 11.6675 1.93939C11.8491 1.89252 13.272 1.87494 16.602 1.88666C21.7909 1.90424 21.4276 1.87494 21.8515 2.29682C22.2813 2.71869 22.245 2.2558 22.2813 8.29096C22.2995 11.2851 22.3358 13.7812 22.3601 13.8398C22.4448 14.0038 22.7354 14.0859 22.9413 14.0097C23.2077 13.8984 23.2501 13.7343 23.2501 12.7265V11.8066L25.9686 14.4433C28.2997 16.7109 28.7054 17.1269 28.8567 17.4316L29.0323 17.7831L29.0626 23.2617C29.0808 26.2734 29.1171 28.7812 29.1413 28.8398C29.1716 28.8925 29.2745 28.9687 29.3714 29.0038C29.5954 29.0976 29.8679 28.998 29.9647 28.7929C30.0556 28.5878 30.0616 18.1874 29.9647 17.7421C29.9284 17.5722 29.8013 17.2324 29.6862 16.9921C29.4804 16.5703 29.3532 16.4355 26.3622 13.5351L23.2501 10.5175V6.79096C23.2501 2.81244 23.244 2.73041 22.9413 2.15619C22.6567 1.61713 21.9847 1.13666 21.3247 1.00189C21.1007 0.955019 19.5991 0.937441 16.4204 0.9433C12.6726 0.9433 11.7765 0.960878 11.5222 1.02533Z"/>
<path d="M14.7916 2.88281C14.5979 2.97656 14.501 3.24023 14.5858 3.45117C14.7069 3.72656 14.8401 3.75 16.4688 3.75C17.4618 3.75 18.0309 3.72656 18.1278 3.68555C18.4608 3.5332 18.4608 3.0293 18.1278 2.87695C17.928 2.78906 14.9793 2.79492 14.7916 2.88281Z"/>
<path d="M15.5969 5.25581C14.7129 5.43745 13.8955 5.88277 13.2961 6.50386C11.6916 8.1855 11.734 10.7226 13.4051 12.3398C14.61 13.5 16.3174 13.8808 17.9219 13.3359C18.5455 13.1308 18.9754 12.8613 19.5021 12.3632C20.0047 11.8828 20.3861 11.3144 20.5799 10.746C20.7373 10.289 20.8402 9.65035 20.7918 9.46285C20.7131 9.16402 20.3014 9.04097 20.041 9.24605C19.9441 9.32222 19.8896 9.4687 19.823 9.8437C19.3568 12.5273 16.0449 13.5878 14.0832 11.6835C12.7512 10.4003 12.7512 8.34956 14.0832 7.06636C15.0096 6.16402 16.3658 5.87105 17.6252 6.29292C18.1701 6.47456 18.2852 6.48042 18.4728 6.33394C18.6545 6.19331 18.6666 5.84761 18.491 5.67769C18.3396 5.5312 17.6555 5.29683 17.1348 5.22066C16.608 5.13863 16.1055 5.15034 15.5969 5.25581Z"/>
<path d="M19.6234 6.83203C19.5446 6.88477 18.8241 7.57031 18.0128 8.35547C17.2015 9.14062 16.5173 9.78516 16.487 9.78516C16.4568 9.78516 16.1601 9.5332 15.8271 9.22852C15.5001 8.92383 15.1671 8.6543 15.0884 8.63672C14.8159 8.56055 14.4769 8.92383 14.5495 9.21094C14.5737 9.28711 14.9673 9.70898 15.4275 10.1543C16.1722 10.8691 16.2872 10.957 16.4749 10.957C16.6626 10.957 16.8261 10.8164 18.5093 9.18164C20.5255 7.23047 20.5194 7.24805 20.1683 6.9082C19.9685 6.71484 19.8292 6.69727 19.6234 6.83203Z"/>
<path d="M2.05859 7.55276C1.64082 7.67581 1.32598 7.93362 1.11406 8.32034C1.00508 8.5137 0.999023 8.75979 0.999023 13.5938C0.999023 18.4278 1.00508 18.6739 1.11406 18.8672C1.27148 19.1543 1.50156 19.3828 1.78613 19.5293C2.02227 19.6582 2.08281 19.6582 5.14648 19.6758C7.34434 19.6875 8.30703 19.6699 8.42207 19.6231C8.77324 19.4883 8.78535 18.9668 8.44023 18.8145C8.33125 18.7676 7.38066 18.75 5.26152 18.75H2.23418L2.08887 18.6035L1.9375 18.4629V15.791V13.125H5.11621C7.34434 13.125 8.33125 13.1074 8.44023 13.0606C8.77324 12.9082 8.77324 12.4043 8.44023 12.252C8.33125 12.2051 7.34434 12.1875 5.11621 12.1875H1.9375V11.7188V11.25H5.11621C7.34434 11.25 8.33125 11.2324 8.44023 11.1856C8.77324 11.0332 8.77324 10.5293 8.44023 10.377C8.33125 10.3301 7.34434 10.3125 5.11621 10.3125H1.9375V9.52151C1.9375 8.75393 1.94355 8.71877 2.08887 8.58401L2.23418 8.43752H5.26152C7.38066 8.43752 8.33125 8.41995 8.44023 8.37307C8.65215 8.27932 8.75508 8.01565 8.66426 7.79885C8.62187 7.71096 8.51895 7.60549 8.44023 7.56448C8.26465 7.48831 2.31289 7.47659 2.05859 7.55276Z"/>
<path d="M20.2468 13.1543C20.0106 13.3066 19.4415 14.0859 19.2235 14.543C18.939 15.1465 18.8421 15.7324 18.945 16.2891C19.0903 17.0625 19.2659 17.3027 20.6343 18.6445L21.8694 19.8516L21.7483 20.168C21.2882 21.3633 21.5606 22.8809 22.4143 23.8184C22.6081 24.0352 22.6929 24.082 22.8624 24.082C23.0864 24.082 23.3044 23.918 23.3165 23.748C23.3347 23.5195 23.2923 23.4141 23.0864 23.1562C22.4143 22.3125 22.2932 21.2051 22.7595 20.2383C22.8624 20.0273 22.9472 19.7988 22.9472 19.7285C22.9472 19.6523 22.4628 19.1367 21.5667 18.2578C19.9501 16.6758 19.8895 16.5879 19.8895 15.8145C19.8895 15.3574 19.9077 15.2812 20.1136 14.877C20.2407 14.6426 20.3981 14.3789 20.4647 14.3027L20.5858 14.168L22.2388 15.7148C23.1409 16.5703 24.3337 17.6895 24.8847 18.2051C25.4356 18.7207 25.9503 19.166 26.029 19.1895C26.3862 19.2949 26.7434 18.9023 26.5739 18.5801C26.5255 18.4863 25.4841 17.4668 24.2489 16.3184C23.0198 15.1641 21.7362 13.957 21.3972 13.6406C20.8643 13.1426 20.7554 13.0664 20.5798 13.0664C20.4647 13.0664 20.3134 13.1074 20.2468 13.1543Z"/>
<path d="M15.7604 20.6953C15.5666 20.7891 15.4698 21.0527 15.5545 21.2637C15.6575 21.498 15.8512 21.5625 16.4688 21.5625C17.0864 21.5625 17.2801 21.498 17.383 21.2637C17.4739 21.0469 17.3709 20.7832 17.159 20.6895C16.9713 20.6074 15.942 20.6133 15.7604 20.6953Z"/>
<path d="M19.1328 24.082C19.0541 24.1582 19.0117 24.2754 19.0117 24.416C19.0117 24.5859 19.0601 24.668 19.266 24.8613C19.4052 24.9902 19.708 25.2129 19.932 25.3535L20.3437 25.6113V26.8652V28.125H16.6201H12.8904L12.7451 28.2715C12.5634 28.4414 12.5513 28.7051 12.7088 28.8926L12.8238 29.0332L18.3457 29.0508L23.8615 29.0625L24.0431 28.8926C24.2672 28.6758 24.2672 28.5117 24.0431 28.2949L23.8675 28.125H22.59H21.3125V26.6895C21.3125 25.7637 21.2882 25.207 21.2459 25.1191C21.2035 25.0312 21.0037 24.8789 20.7615 24.7559C20.5314 24.6328 20.1923 24.4043 19.9986 24.2461C19.605 23.9297 19.3447 23.877 19.1328 24.082Z"/>
<path d="M10.741 28.2598C10.408 28.541 10.632 29.0625 11.0861 29.0625C11.3041 29.0625 11.625 28.7871 11.625 28.5938C11.625 28.5234 11.5463 28.3887 11.4494 28.2949C11.2254 28.084 10.9711 28.0723 10.741 28.2598Z"/>
</svg>
