<svg width="32" height="32" viewBox="0 0 32 32" fill="#525252" xmlns="http://www.w3.org/2000/svg">
<path d="M23.3333 16C22.8029 16 22.2942 15.7893 21.9191 15.4142C21.544 15.0391 21.3333 14.5304 21.3333 14C21.3333 13.4696 21.544 12.9609 21.9191 12.5858C22.2942 12.2107 22.8029 12 23.3333 12C23.8638 12 24.3725 12.2107 24.7475 12.5858C25.1226 12.9609 25.3333 13.4696 25.3333 14C25.3333 14.5304 25.1226 15.0391 24.7475 15.4142C24.3725 15.7893 23.8638 16 23.3333 16ZM19.3333 10.6667C18.8029 10.6667 18.2942 10.456 17.9191 10.0809C17.544 9.70581 17.3333 9.1971 17.3333 8.66667C17.3333 8.13623 17.544 7.62753 17.9191 7.25245C18.2942 6.87738 18.8029 6.66667 19.3333 6.66667C19.8638 6.66667 20.3725 6.87738 20.7475 7.25245C21.1226 7.62753 21.3333 8.13623 21.3333 8.66667C21.3333 9.1971 21.1226 9.70581 20.7475 10.0809C20.3725 10.456 19.8638 10.6667 19.3333 10.6667ZM12.6667 10.6667C12.1362 10.6667 11.6275 10.456 11.2525 10.0809C10.8774 9.70581 10.6667 9.1971 10.6667 8.66667C10.6667 8.13623 10.8774 7.62753 11.2525 7.25245C11.6275 6.87738 12.1362 6.66667 12.6667 6.66667C13.1971 6.66667 13.7058 6.87738 14.0809 7.25245C14.456 7.62753 14.6667 8.13623 14.6667 8.66667C14.6667 9.1971 14.456 9.70581 14.0809 10.0809C13.7058 10.456 13.1971 10.6667 12.6667 10.6667ZM8.66667 16C8.13623 16 7.62753 15.7893 7.25245 15.4142C6.87738 15.0391 6.66667 14.5304 6.66667 14C6.66667 13.4696 6.87738 12.9609 7.25245 12.5858C7.62753 12.2107 8.13623 12 8.66667 12C9.1971 12 9.70581 12.2107 10.0809 12.5858C10.456 12.9609 10.6667 13.4696 10.6667 14C10.6667 14.5304 10.456 15.0391 10.0809 15.4142C9.70581 15.7893 9.1971 16 8.66667 16ZM16 4C12.8174 4 9.76515 5.26428 7.51472 7.51472C5.26428 9.76515 4 12.8174 4 16C4 19.1826 5.26428 22.2348 7.51472 24.4853C9.76515 26.7357 12.8174 28 16 28C16.5304 28 17.0391 27.7893 17.4142 27.4142C17.7893 27.0391 18 26.5304 18 26C18 25.48 17.8 25.0133 17.48 24.6667C17.1733 24.3067 16.9733 23.84 16.9733 23.3333C16.9733 22.8029 17.184 22.2942 17.5591 21.9191C17.9342 21.544 18.4429 21.3333 18.9733 21.3333H21.3333C23.1014 21.3333 24.7971 20.631 26.0474 19.3807C27.2976 18.1305 28 16.4348 28 14.6667C28 8.77333 22.6267 4 16 4Z" />
</svg>
