<svg width="12" height="14" viewBox="0 0 12 14" fill="none" xmlns="http://www.w3.org/2000/svg">
<mask id="mask0_475_10964" style="mask-type:alpha" maskUnits="userSpaceOnUse" x="0" y="0" width="12" height="14">
<path fill-rule="evenodd" clip-rule="evenodd" d="M0 0.341797H11.3685V13.5775H0V0.341797Z" fill="white"/>
</mask>
<g mask="url(#mask0_475_10964)">
<path fill-rule="evenodd" clip-rule="evenodd" d="M3.04874 1.3418C1.94407 1.3418 1.02674 2.23646 1.00074 3.3398V10.4698C0.976069 11.6118 1.87607 12.5525 3.00674 12.5778H8.38274C9.4954 12.5318 10.3767 11.6071 10.3687 10.4738V4.56046L7.27874 1.3418H3.05674H3.04874ZM3.05674 13.5778H2.98407C1.30274 13.5398 -0.035931 12.1411 0.00073562 10.4591V3.3278C0.0394023 1.6738 1.4054 0.341797 3.0474 0.341797H3.05874H7.49207C7.62807 0.341797 7.75807 0.39713 7.85274 0.49513L11.2294 4.01313C11.3187 4.1058 11.3687 4.23046 11.3687 4.35913V10.4698C11.3807 12.1425 10.0781 13.5091 8.40274 13.5771L3.05674 13.5778Z" fill="white"/>
</g>
<path fill-rule="evenodd" clip-rule="evenodd" d="M10.8651 4.98998H9.02841C7.80841 4.98665 6.81641 3.99198 6.81641 2.77332V0.833984C6.81641 0.557984 7.04041 0.333984 7.31641 0.333984C7.59241 0.333984 7.81641 0.557984 7.81641 0.833984V2.77332C7.81641 3.44265 8.36107 3.98798 9.02974 3.98998H10.8651C11.1411 3.98998 11.3651 4.21398 11.3651 4.48998C11.3651 4.76598 11.1411 4.98998 10.8651 4.98998Z" fill="white"/>
<path fill-rule="evenodd" clip-rule="evenodd" d="M7.1918 9.74023H3.5918C3.3158 9.74023 3.0918 9.51623 3.0918 9.24023C3.0918 8.96423 3.3158 8.74023 3.5918 8.74023H7.1918C7.4678 8.74023 7.6918 8.96423 7.6918 9.24023C7.6918 9.51623 7.4678 9.74023 7.1918 9.74023Z" fill="white"/>
<path fill-rule="evenodd" clip-rule="evenodd" d="M5.82913 7.23828H3.5918C3.3158 7.23828 3.0918 7.01428 3.0918 6.73828C3.0918 6.46228 3.3158 6.23828 3.5918 6.23828H5.82913C6.10513 6.23828 6.32913 6.46228 6.32913 6.73828C6.32913 7.01428 6.10513 7.23828 5.82913 7.23828Z" fill="white"/>
</svg>
