<svg width="21" height="21" viewBox="0 0 21 21" fill="#797979" xmlns="http://www.w3.org/2000/svg">
<path d="M10.4795 14.8459C10.9427 14.8459 11.3869 14.6619 11.7145 14.3343C12.042 14.0068 12.226 13.5625 12.226 13.0993C12.226 12.13 11.4401 11.3527 10.4795 11.3527C10.0162 11.3527 9.572 11.5368 9.24445 11.8643C8.9169 12.1918 8.73289 12.6361 8.73289 13.0993C8.73289 13.5625 8.9169 14.0068 9.24445 14.3343C9.572 14.6619 10.0162 14.8459 10.4795 14.8459ZM15.7192 6.9863C16.1824 6.9863 16.6267 7.17032 16.9542 7.49787C17.2818 7.82541 17.4658 8.26966 17.4658 8.73288V17.4658C17.4658 17.929 17.2818 18.3732 16.9542 18.7008C16.6267 19.0283 16.1824 19.2123 15.7192 19.2123H5.23974C4.77652 19.2123 4.33227 19.0283 4.00472 18.7008C3.67718 18.3732 3.49316 17.929 3.49316 17.4658V8.73288C3.49316 7.76353 4.27912 6.9863 5.23974 6.9863H6.11303V5.23973C6.11303 4.08168 6.57306 2.97106 7.39193 2.15219C8.21079 1.33333 9.32141 0.873291 10.4795 0.873291C11.0529 0.873291 11.6207 0.986232 12.1504 1.20567C12.6802 1.4251 13.1615 1.74673 13.567 2.15219C13.9725 2.55765 14.2941 3.039 14.5135 3.56877C14.733 4.09853 14.8459 4.66632 14.8459 5.23973V6.9863H15.7192ZM10.4795 2.61987C9.78463 2.61987 9.11826 2.89589 8.62694 3.38721C8.13562 3.87853 7.8596 4.5449 7.8596 5.23973V6.9863H13.0993V5.23973C13.0993 4.5449 12.8233 3.87853 12.332 3.38721C11.8407 2.89589 11.1743 2.61987 10.4795 2.61987Z"  fill-opacity="0.88"/>
</svg>
