<svg width="14" height="16" viewBox="0 0 14 16" fill="none" stroke="white" xmlns="http://www.w3.org/2000/svg">
<path d="M0.5 12.5L1.8 10.4C2.55 9.25 3.8 8.5 5.2 8.5H8.5C8.5 9.6 7.6 10.5 6.5 10.5H5.5"  stroke-miterlimit="10" stroke-linecap="round" stroke-linejoin="round"/>
<path d="M6.5 10.5H10.5L11.1 9.7C11.65 8.95 12.55 8.5 13.5 8.5L12.15 10.9C11.45 12.2 10.05 13 8.6 13C6.25 13 3.95 13.7 2 15"  stroke-miterlimit="10" stroke-linecap="round" stroke-linejoin="round"/>
<path d="M12.5 1H1.5V7H12.5V1Z"  stroke-miterlimit="10" stroke-linecap="round" stroke-linejoin="round"/>
<path d="M12.5 3C11.4 3 10.5 2.1 10.5 1"  stroke-miterlimit="10" stroke-linecap="round" stroke-linejoin="round"/>
<path d="M1.5 5C2.6 5 3.5 5.9 3.5 7"  stroke-miterlimit="10" stroke-linecap="round" stroke-linejoin="round"/>
<path d="M7 5.5C7.82843 5.5 8.5 4.82843 8.5 4C8.5 3.17157 7.82843 2.5 7 2.5C6.17157 2.5 5.5 3.17157 5.5 4C5.5 4.82843 6.17157 5.5 7 5.5Z"  stroke-width="2" stroke-miterlimit="10" stroke-linecap="round" stroke-linejoin="round"/>
<path d="M3.5 1C3.5 2.1 2.6 3 1.5 3"  stroke-miterlimit="10" stroke-linecap="round" stroke-linejoin="round"/>
<path d="M12.5 5C11.4 5 10.5 5.9 10.5 7"  stroke-miterlimit="10" stroke-linecap="round" stroke-linejoin="round"/>
</svg>
