<svg width="22" height="22" viewBox="0 0 22 22" fill="white" xmlns="http://www.w3.org/2000/svg">
<path d="M9.42111 0.359375C6.72111 0.945312 4.87893 3.30312 5.01486 6.00781C5.16018 8.95156 7.56018 11.2344 10.5086 11.2344C11.7414 11.2344 12.8289 10.8687 13.8227 10.1187C15.318 8.99375 16.1664 7.07187 15.9696 5.25781C15.7164 2.87187 14.1367 1.02031 11.8492 0.420312C11.2117 0.251562 10.0492 0.223437 9.42111 0.359375ZM11.3196 1.84062C12.4774 2.07969 13.5133 2.87187 14.043 3.92656C14.3805 4.60625 14.4789 5.01875 14.4789 5.75C14.4789 6.48125 14.3805 6.89375 14.043 7.57344C13.5086 8.6375 12.468 9.425 11.2867 9.66406C10.7617 9.77187 9.90862 9.73906 9.40705 9.59375C8.3758 9.29844 7.48049 8.57187 6.97424 7.62031C5.72736 5.27187 7.06799 2.41719 9.6883 1.83125C10.0633 1.74687 10.893 1.75156 11.3196 1.84062Z"/>
<path d="M17.2156 11.2859C15.6219 11.5016 14.2766 12.7016 13.8828 14.2625C13.7891 14.6234 13.7656 14.8344 13.7656 15.3031V15.8938L12.5516 17.0938C11.525 18.1016 11.3281 18.3172 11.2859 18.4766C11.2578 18.5844 11.2344 19.1797 11.2344 19.8828C11.2344 21.0594 11.2391 21.1156 11.3422 21.3125C11.3984 21.4297 11.5156 21.5703 11.6047 21.6266C11.7594 21.7344 11.7922 21.7344 13.1141 21.7344C13.9484 21.7344 14.5109 21.7156 14.5953 21.6828C14.6656 21.6594 15.2656 21.0969 15.9266 20.4359L17.1266 19.2406L17.7547 19.2313C18.4953 19.2172 18.8516 19.1422 19.4609 18.8516C20.4875 18.3688 21.2797 17.4406 21.5938 16.3438C21.8234 15.5516 21.7625 14.4922 21.4438 13.7234C21.1438 13.0063 20.4547 12.2 19.8313 11.8344C19.0438 11.375 18.0688 11.1688 17.2156 11.2859ZM18.5234 12.8797C19.1 13.0578 19.7047 13.5734 19.9672 14.1172C20.6422 15.4906 19.9766 17.1359 18.5469 17.6188C18.2141 17.7313 17.6141 17.7594 17.0422 17.6844C16.7984 17.6516 16.7094 17.6609 16.5969 17.7172C16.5219 17.7594 15.9125 18.3406 15.2422 19.0109L14.0234 20.2344H13.3813H12.7344V19.6391V19.0391L13.9953 17.7734C15.4109 16.3531 15.4203 16.3438 15.3172 15.8469C15.1484 14.9938 15.3547 14.1828 15.8891 13.5922C16.5734 12.8422 17.5484 12.5797 18.5234 12.8797Z" />
<path d="M17.3071 14.2766C16.7352 14.5391 16.5196 15.1719 16.8055 15.7391C17.1899 16.4985 18.2399 16.536 18.6712 15.8047C18.9946 15.2516 18.7743 14.5391 18.1977 14.2766C17.954 14.1641 17.5509 14.1641 17.3071 14.2766Z" />
<path d="M9.17316 12.1578C8.30598 12.2375 7.8841 12.2891 7.31691 12.3828C3.45441 13.0297 0.740351 14.8297 0.313789 17.0281C0.280976 17.2016 0.266914 17.7078 0.276289 18.4063C0.290351 19.4891 0.290351 19.5125 0.416914 19.775C0.576289 20.1172 0.899726 20.4406 1.24191 20.6L1.5091 20.7266L5.61535 20.7406L9.71691 20.75L9.87629 20.6469C10.1107 20.4875 10.2138 20.3141 10.2372 20.0609C10.2607 19.7563 10.1154 19.4984 9.82941 19.3531L9.62316 19.25H5.75129C2.80285 19.25 1.86535 19.2359 1.82316 19.1938C1.78098 19.1516 1.76691 18.8703 1.76691 18.2188C1.76691 17.4266 1.78098 17.2578 1.85598 17.0328C2.31535 15.7063 4.40129 14.4828 7.15754 13.9344C8.36223 13.6906 8.80285 13.6578 10.5935 13.6484C12.1919 13.6391 12.2763 13.6344 12.3982 13.5453C12.8482 13.2125 12.8482 12.6313 12.4029 12.2984C12.3232 12.2422 12.1497 12.1953 11.9341 12.1672C11.6107 12.1297 9.5341 12.1203 9.17316 12.1578Z" />
</svg>
