<svg width="14" height="14" viewBox="0 0 14 14" fill="white" xmlns="http://www.w3.org/2000/svg">
<path fill-rule="evenodd" clip-rule="evenodd" d="M1.90634 2.37403C1.90767 2.37403 1.87434 2.4087 1.83234 2.45003C1.67101 2.6067 1.33701 2.9327 1.33367 3.6147C1.32834 4.5687 1.95567 6.34003 4.97634 9.36003C7.98234 12.3654 9.75101 13 10.7077 13H10.7217C11.4037 12.996 11.729 12.662 11.8857 12.5014C11.933 12.4527 11.9717 12.416 11.999 12.394C12.6637 11.7254 13.0037 11.2287 13.0003 10.9094C12.9963 10.584 12.5917 10.2 12.0323 9.66737C11.8543 9.4987 11.661 9.31403 11.457 9.11003C10.9277 8.5827 10.667 8.6727 10.0903 8.87537C9.29367 9.1547 8.20234 9.53737 6.50167 7.83537C4.80034 6.1347 5.18167 5.04337 5.45967 4.24603C5.66101 3.67003 5.75301 3.40803 5.22434 2.8787C5.01767 2.67203 4.83167 2.47603 4.66034 2.29603C4.13101 1.74003 3.74901 1.33803 3.42567 1.33337H3.42034C3.10101 1.33337 2.60501 1.6747 1.90301 2.3767C1.90501 2.3747 1.90567 2.37403 1.90634 2.37403ZM10.7077 14C9.04634 14 6.88034 12.6774 4.26967 10.0674C1.64834 7.4467 0.323674 5.27403 0.333674 3.60937C0.339674 2.50937 0.916341 1.94603 1.13301 1.7347C1.14434 1.7207 1.18301 1.6827 1.19634 1.66937C2.15301 0.712701 2.81034 0.319368 3.43834 0.333368C4.18301 0.343368 4.71367 0.901368 5.38501 1.60737C5.55101 1.78137 5.73034 1.97137 5.93101 2.17137C6.90367 3.1447 6.62701 3.9387 6.40367 4.57603C6.16101 5.27137 5.95101 5.87137 7.20834 7.1287C8.46567 8.38603 9.06501 8.17603 9.75967 7.93137C10.3977 7.7087 11.1897 7.43003 12.1643 8.40337C12.3623 8.60137 12.549 8.7787 12.7223 8.94337C13.431 9.61803 13.991 10.1507 14.0003 10.8974C14.0077 11.5334 13.621 12.1827 12.6663 13.1374L12.2437 12.8507L12.6017 13.1994C12.3903 13.416 11.8283 13.9934 10.7277 14H10.7077Z" />
</svg>
