<svg width="22" height="22" viewBox="0 0 22 22" fill="none" xmlns="http://www.w3.org/2000/svg">
<path fill-rule="evenodd" clip-rule="evenodd" d="M11.25 15.1551C10.836 15.1551 10.5 14.8191 10.5 14.4051V7.07812C10.5 6.66412 10.836 6.32812 11.25 6.32812C11.664 6.32812 12 6.66412 12 7.07812V14.4051C12 14.8191 11.664 15.1551 11.25 15.1551Z" fill="white" fill-opacity="0.88"/>
<path fill-rule="evenodd" clip-rule="evenodd" d="M14.9165 11.4902H7.5835C7.1685 11.4902 6.8335 11.1542 6.8335 10.7402C6.8335 10.3262 7.1685 9.99023 7.5835 9.99023H14.9165C15.3305 9.99023 15.6665 10.3262 15.6665 10.7402C15.6665 11.1542 15.3305 11.4902 14.9165 11.4902Z" fill="white" fill-opacity="0.88"/>
<path fill-rule="evenodd" clip-rule="evenodd" d="M6.564 1.5C3.792 1.5 2 3.397 2 6.335V15.165C2 18.103 3.792 20 6.564 20H15.936C18.709 20 20.5 18.103 20.5 15.165V6.335C20.5 3.397 18.709 1.5 15.936 1.5H6.564ZM15.936 21.5H6.564C2.937 21.5 0.5 18.954 0.5 15.165V6.335C0.5 2.546 2.937 0 6.564 0H15.936C19.563 0 22 2.546 22 6.335V15.165C22 18.954 19.563 21.5 15.936 21.5Z" fill="white" fill-opacity="0.88"/>
</svg>
