<svg width="24" height="24" viewBox="0 0 24 24" fill="white" xmlns="http://www.w3.org/2000/svg">
<g clip-path="url(#clip0_1360_80191)">
<path d="M12.8016 0.6562C12.5484 0.717138 12.2766 0.93745 12.1453 1.19526C12.0234 1.42495 12.0234 1.42964 12.0234 2.64839C12.0234 3.98901 12.0422 4.10151 12.2953 4.39214C12.5953 4.72964 12.5953 4.73433 14.6859 4.73433H16.5469V5.3437V5.95308H9.99375C2.72813 5.95308 3.11719 5.93901 2.63906 6.26245C2.38594 6.43589 2.20312 6.67495 2.07188 6.99839C1.99688 7.17651 1.99219 7.69683 1.97813 12.8953L1.96406 18.5953L1.6875 18.6281C1.31719 18.6703 1.00781 18.8765 0.84375 19.1953L0.726562 19.425V21V22.575L0.848438 22.8046C0.979688 23.0671 1.25156 23.2828 1.52813 23.3437C1.77188 23.4046 22.2281 23.4046 22.4719 23.3437C22.7484 23.2828 23.0203 23.0671 23.1516 22.8046L23.2734 22.575V21V19.425L23.1562 19.1953C22.9922 18.8765 22.6875 18.6703 22.3125 18.6281L22.0359 18.5953L22.0219 12.8953L22.0078 7.19526L21.8719 6.90464C21.7172 6.56245 21.3891 6.22964 21.0563 6.07964C20.8453 5.9812 20.7656 5.97651 19.1625 5.96245L17.4844 5.94839V5.33901V4.73433H19.3031C20.3531 4.73433 21.1875 4.71558 21.2859 4.68745C21.5016 4.62651 21.8109 4.35933 21.9188 4.13901C21.9938 3.97964 22.0031 3.82495 22.0078 2.69526V1.42964L21.8859 1.19526C21.7547 0.932762 21.4875 0.717138 21.2063 0.6562C20.9813 0.599951 13.0266 0.604637 12.8016 0.6562ZM21.0281 1.58901C21.0516 1.61714 21.0656 2.07651 21.0563 2.71401L21.0422 3.79683H17.0156H12.9844V2.70464C12.9844 2.09995 12.9984 1.5937 13.0172 1.57964C13.0641 1.52808 20.9766 1.54214 21.0281 1.58901ZM20.6906 6.9562C20.775 6.98901 20.8875 7.07808 20.9438 7.14839L21.0469 7.27964V12.9421V18.6093H11.9766H2.90625L2.91563 12.9703C2.92969 7.62651 2.93438 7.32651 3.01406 7.20464C3.06094 7.12964 3.16406 7.0312 3.24844 6.98433C3.39375 6.89058 3.55781 6.89058 11.9672 6.89058C19.1438 6.89058 20.5594 6.89995 20.6906 6.9562ZM22.3125 20.9765C22.3266 21.7359 22.3313 22.3828 22.3219 22.4062C22.3078 22.439 18.7734 22.4531 12 22.4531C2.64844 22.4531 1.69688 22.4484 1.66875 22.3781C1.62188 22.2562 1.63594 19.664 1.68281 19.6125C1.71094 19.589 5.56406 19.575 12.0094 19.5796L22.2891 19.589L22.3125 20.9765Z"/>
<path d="M4.06854 8.23125C3.80135 8.37656 3.75916 8.73281 3.97947 8.95781L4.11541 9.09375H4.78104H5.44666L5.5826 8.95781C5.81229 8.72344 5.7326 8.31094 5.4326 8.20781C5.20291 8.12813 4.22322 8.14219 4.06854 8.23125Z"/>
<path d="M6.74124 8.22656C6.44593 8.39062 6.41312 8.76094 6.66624 8.97656C6.79749 9.08906 6.8303 9.09375 7.46312 9.09375H8.11937L8.2553 8.95781C8.4428 8.77031 8.4428 8.54062 8.2553 8.33437L8.11937 8.17969L7.49124 8.16562C7.00374 8.16094 6.83968 8.17031 6.74124 8.22656Z"/>
<path d="M9.37406 8.25937C9.16312 8.40469 9.10219 8.60156 9.20531 8.82187C9.31781 9.06094 9.435 9.09375 10.1381 9.09375C10.6537 9.09375 10.7756 9.07969 10.8553 9.00937C11.0991 8.81719 11.1131 8.49844 10.8928 8.29219C10.7803 8.18906 10.7334 8.17969 10.1569 8.16562C9.57094 8.15156 9.52875 8.15625 9.37406 8.25937Z"/>
<path d="M12.2486 8.25C12.1502 8.31094 12.0846 8.39531 12.0518 8.51719C11.9861 8.75156 11.9861 11.2594 12.0471 11.4937C12.0752 11.5875 12.1502 11.7094 12.2205 11.7656C12.3377 11.8594 12.3846 11.8594 15.9893 11.8594H19.6408L19.7908 11.7234L19.9455 11.5875L19.9596 10.0687C19.969 8.62031 19.9643 8.55 19.8752 8.4C19.8236 8.31562 19.7252 8.22656 19.6596 8.20312C19.5846 8.175 18.1783 8.15625 15.9705 8.15625C12.5158 8.15625 12.394 8.16094 12.2486 8.25ZM19.0315 10.0078V10.9219H16.008H12.9846V10.0078V9.09375H16.008H19.0315V10.0078Z"/>
<path d="M4.0692 10.9968C3.79733 11.1421 3.75983 11.4984 3.98483 11.7281L4.12545 11.864L4.80983 11.85C5.4942 11.8359 5.4942 11.8359 5.6067 11.7046C5.79889 11.4796 5.72389 11.0953 5.46139 10.9781C5.27858 10.8937 4.22858 10.9078 4.0692 10.9968Z"/>
<path d="M6.79669 10.9547C6.44981 11.0812 6.39356 11.5312 6.68887 11.7656C6.79669 11.85 6.88106 11.8594 7.41544 11.8594C8.05294 11.8594 8.24512 11.8125 8.34356 11.6297C8.45606 11.4141 8.34356 11.0719 8.12325 10.9734C8.01075 10.9219 6.92794 10.9078 6.79669 10.9547Z"/>
<path d="M9.44531 10.9641C9.27187 11.0391 9.16406 11.2031 9.16406 11.4C9.16406 11.5547 9.19219 11.6109 9.31875 11.7234C9.46875 11.8594 9.47344 11.8594 10.0781 11.8594C10.7437 11.8594 10.8891 11.8219 10.9969 11.6203C11.1047 11.4094 11.0766 11.2547 10.9031 11.0812L10.7437 10.9219L10.1437 10.9266C9.81094 10.9266 9.49687 10.9453 9.44531 10.9641Z"/>
<path d="M3.98906 13.8094C3.87188 13.9078 3.84375 13.9641 3.84375 14.1187C3.84375 14.5312 4.0125 14.625 4.74844 14.625C5.04375 14.625 5.34844 14.6016 5.42813 14.5734C5.7375 14.4656 5.82188 14.0625 5.58281 13.8234L5.44688 13.6875H4.79063C4.15313 13.6875 4.12969 13.6922 3.98906 13.8094Z"/>
<path d="M6.6665 13.8047C6.48837 13.9547 6.45087 14.1094 6.53525 14.3156C6.64775 14.5875 6.80712 14.6344 7.51025 14.6156L8.11962 14.6016L8.25556 14.4469C8.33056 14.3625 8.3915 14.2406 8.3915 14.175C8.3915 14.0203 8.27431 13.7953 8.16181 13.7344C8.11025 13.7109 7.78681 13.6875 7.43525 13.6875C6.83056 13.6875 6.79775 13.6922 6.6665 13.8047Z"/>
<path d="M9.37969 13.753C9.25781 13.8233 9.14531 13.9921 9.14062 14.1233C9.14062 14.2687 9.27656 14.4796 9.42656 14.5593C9.54375 14.6155 9.69375 14.6296 10.1813 14.6155L10.7906 14.6015L10.9266 14.4468C11.0016 14.3624 11.0625 14.2405 11.0625 14.1749C11.0625 14.0202 10.9453 13.7952 10.8328 13.7343C10.6969 13.664 9.51562 13.678 9.37969 13.753Z"/>
<path d="M12.1922 13.8094C12.075 13.9078 12.0469 13.9641 12.0469 14.1187C12.0469 14.3531 12.1078 14.4656 12.2812 14.5547C12.3984 14.6156 12.8953 14.625 15.9937 14.625C19.4859 14.625 19.575 14.6203 19.725 14.5312C20.0016 14.3625 20.0297 14.0437 19.7953 13.8094L19.6734 13.6875H16.0031H12.3375L12.1922 13.8094Z"/>
<path d="M3.98907 16.5749C3.69845 16.8187 3.84376 17.2968 4.23751 17.3671C4.33126 17.3859 4.63595 17.3952 4.9172 17.3812C5.41407 17.3671 5.43751 17.3624 5.57345 17.2265C5.77501 17.039 5.77501 16.7859 5.58282 16.589L5.44688 16.453H4.79063C4.15313 16.453 4.1297 16.4577 3.98907 16.5749Z"/>
<path d="M6.67041 16.5374C6.39854 16.7483 6.45479 17.189 6.76885 17.3202C6.98916 17.414 7.86572 17.414 8.08135 17.3249C8.40947 17.189 8.49385 16.8327 8.25479 16.589L8.11885 16.453H7.44385C6.88135 16.453 6.75479 16.4671 6.67041 16.5374Z"/>
<path d="M9.30482 16.5656C9.14544 16.725 9.11263 16.8984 9.20638 17.0953C9.32357 17.3437 9.51576 17.4 10.1767 17.3812C10.6501 17.3671 10.7486 17.3531 10.8611 17.2687C11.1048 17.0859 11.1236 16.7906 10.8986 16.5656C10.7908 16.4578 10.7626 16.4531 10.1017 16.4531C9.44076 16.4531 9.41263 16.4578 9.30482 16.5656Z"/>
<path d="M12.1927 16.575C11.9068 16.814 12.0474 17.2875 12.4271 17.3625C12.5115 17.3765 14.1334 17.3906 16.0412 17.3906C19.8521 17.3906 19.749 17.4 19.899 17.1047C19.9646 16.9781 19.9693 16.9218 19.9271 16.7765C19.824 16.4297 20.0818 16.4531 16.0037 16.4531H12.3381L12.1927 16.575Z"/>
<path d="M9.35169 20.6437C9.19232 20.8031 9.15951 20.9765 9.25326 21.1734C9.39857 21.4734 9.37982 21.4734 12.0704 21.4593C14.4189 21.4452 14.4798 21.4406 14.6064 21.3468C14.8501 21.1687 14.8689 20.864 14.6486 20.6437L14.5361 20.5312H12.0001H9.46419L9.35169 20.6437Z"/>
</g>
<defs>
<clipPath id="clip0_1360_80191">
<rect width="24" height="24"/>
</clipPath>
</defs>
</svg>
