<svg width="22" height="22" viewBox="0 0 22 22" fill="white" xmlns="http://www.w3.org/2000/svg">
<path fill-rule="evenodd" clip-rule="evenodd" d="M11 1.75C5.89137 1.75 1.75 5.89137 1.75 11C1.75 12.4811 2.09753 13.8788 2.7148 15.1181C2.96254 15.6155 3.05794 16.2103 2.90163 16.7945L2.30602 19.0205C2.19663 19.4293 2.57066 19.8034 2.97949 19.694L5.20553 19.0984C5.78973 18.9421 6.38451 19.0375 6.88191 19.2852C8.12121 19.9025 9.51894 20.25 11 20.25C16.1086 20.25 20.25 16.1086 20.25 11C20.25 5.89137 16.1086 1.75 11 1.75ZM0.25 11C0.25 5.06294 5.06294 0.25 11 0.25C16.9371 0.25 21.75 5.06294 21.75 11C21.75 16.9371 16.9371 21.75 11 21.75C9.28169 21.75 7.65552 21.3463 6.21315 20.6279C5.99791 20.5207 5.77814 20.4979 5.59324 20.5474L3.3672 21.143C1.84337 21.5507 0.449273 20.1566 0.856996 18.6328L1.4526 16.4068C1.50208 16.2219 1.47933 16.0021 1.37213 15.7869C0.653707 14.3445 0.25 12.7183 0.25 11ZM14.272 6.82214C15.507 7.28392 16.25 8.53897 16.25 10.1084C16.25 11.0241 15.8154 11.8821 15.2951 12.5946C14.766 13.3192 14.0855 13.9787 13.4574 14.513C13.4262 14.5396 13.3952 14.566 13.3644 14.5923C12.6274 15.2207 12.0148 15.7431 11 15.7431C9.98517 15.7431 9.37259 15.2207 8.63564 14.5923C8.60486 14.566 8.57385 14.5396 8.54259 14.513C7.91448 13.9786 7.23403 13.3192 6.70492 12.5946C6.18465 11.8821 5.75 11.0241 5.75 10.1084C5.75 8.53898 6.49299 7.28393 7.72797 6.82214C8.77086 6.43218 9.9575 6.6854 11 7.4956C12.0425 6.6854 13.2291 6.43218 14.272 6.82214ZM13.7467 8.22713C13.2295 8.03374 12.4049 8.13696 11.5359 9.02451C11.3948 9.1686 11.2017 9.2498 11 9.2498C10.7983 9.2498 10.6052 9.1686 10.4641 9.02451C9.59508 8.13696 8.77052 8.03374 8.25333 8.22713C7.74454 8.41738 7.25 9.00068 7.25 10.1084C7.25 10.5612 7.47476 11.1053 7.91635 11.71C8.34909 12.3027 8.93292 12.8757 9.51455 13.3705C10.3828 14.1091 10.586 14.2431 11 14.2431C11.414 14.2431 11.6172 14.1091 12.4855 13.3705C13.0671 12.8757 13.6509 12.3027 14.0837 11.71C14.5252 11.1053 14.75 10.5612 14.75 10.1084C14.75 9.00067 14.2555 8.41738 13.7467 8.22713Z" />
</svg>
