<svg width="21" height="21" viewBox="0 0 21 21" fill="none" xmlns="http://www.w3.org/2000/svg">
<path d="M17.6592 9.66667V10.8409C17.6592 13.8016 17.6592 15.2819 16.914 16.3251C16.6575 16.6842 16.3433 16.9983 15.9843 17.2548C14.9411 18 13.4608 18 10.5001 18V18C7.5394 18 6.05906 18 5.01593 17.2548C4.65684 16.9983 4.34267 16.6842 4.08615 16.3251C3.341 15.2819 3.341 13.8016 3.341 10.8409V10.1591C3.341 7.1984 3.341 5.71806 4.08615 4.67493C4.34267 4.31584 4.65684 4.00167 5.01593 3.74515C6.05906 3 7.5394 3 10.5001 3V3" stroke="white" stroke-opacity="0.88" stroke-width="2"/>
<path fill-rule="evenodd" clip-rule="evenodd" d="M15.6592 11.1966C14.4274 10.3298 12.6738 10.6735 11.8766 11.9917L8.09235 7.36655C7.74262 6.9391 7.1126 6.8761 6.68515 7.22583C6.25771 7.57556 6.1947 8.20558 6.54443 8.63302L10.4938 13.46C11.341 14.4955 12.9774 14.2978 13.5537 13.0904C13.7498 12.6794 14.2967 12.592 14.6112 12.9214L15.5914 13.9483C15.6513 13.2869 15.6584 12.4316 15.6592 11.1966Z" fill="white" fill-opacity="0.88"/>
<path d="M17.6592 3V2H18.6592V3H17.6592ZM14.3242 7.09976C13.901 7.45451 13.2702 7.39895 12.9155 6.97567C12.5607 6.55239 12.6163 5.92166 13.0396 5.56691L14.3242 7.09976ZM16.6592 7.16667V3H18.6592V7.16667H16.6592ZM17.6592 4H13.6819V2H17.6592V4ZM18.3015 3.76642L14.3242 7.09976L13.0396 5.56691L17.0168 2.23358L18.3015 3.76642Z" fill="white" fill-opacity="0.88"/>
</svg>
