<svg width="22" height="22" viewBox="0 0 22 22" fill="white" xmlns="http://www.w3.org/2000/svg">
<path fill-rule="evenodd" clip-rule="evenodd" d="M11 1.75C5.89137 1.75 1.75 5.89137 1.75 11C1.75 16.1086 5.89137 20.25 11 20.25C16.1086 20.25 20.25 16.1086 20.25 11C20.25 5.89137 16.1086 1.75 11 1.75ZM0.25 11C0.25 5.06294 5.06294 0.25 11 0.25C16.9371 0.25 21.75 5.06294 21.75 11C21.75 16.9371 16.9371 21.75 11 21.75C5.06294 21.75 0.25 16.9371 0.25 11ZM7.55339 15.3975C8.5258 14.6767 9.71503 14.25 11 14.25C12.285 14.25 13.4742 14.6767 14.4466 15.3975C14.7794 15.6441 14.8492 16.1138 14.6025 16.4466C14.3559 16.7794 13.8862 16.8492 13.5534 16.6025C12.825 16.0627 11.9459 15.75 11 15.75C10.0541 15.75 9.17495 16.0627 8.44661 16.6025C8.11385 16.8492 7.64413 16.7794 7.39747 16.4466C7.15082 16.1138 7.22062 15.6441 7.55339 15.3975Z" />
<path d="M15 9.5C15 10.3284 14.5523 11 14 11C13.4477 11 13 10.3284 13 9.5C13 8.67157 13.4477 8 14 8C14.5523 8 15 8.67157 15 9.5Z" />
<path d="M9 9.5C9 10.3284 8.55229 11 8 11C7.44772 11 7 10.3284 7 9.5C7 8.67157 7.44772 8 8 8C8.55229 8 9 8.67157 9 9.5Z" />
</svg>
