<svg width="24" height="24" viewBox="0 0 24 24" fill="white" xmlns="http://www.w3.org/2000/svg">
<path d="M6.21532 0.0700121C5.97157 0.154387 5.71376 0.370012 5.59188 0.590325C5.49813 0.759075 5.23563 1.6872 5.26844 1.7247C5.27782 1.72939 5.33876 1.71532 5.40438 1.68251C5.47001 1.65439 5.65282 1.59345 5.81688 1.55126L6.11219 1.47626L6.17782 1.21845C6.25751 0.8997 6.38876 0.7497 6.58563 0.7497C6.67001 0.7497 10.3919 1.58407 14.8638 2.60126C22.0356 4.2372 23.0013 4.46689 23.1091 4.57001C23.1888 4.64501 23.3388 4.70595 23.5731 4.75751C23.7606 4.79501 23.9341 4.84189 23.9575 4.85595C24.0184 4.88876 24.0091 4.71064 23.9434 4.49501C23.8731 4.25595 23.6153 3.96064 23.3809 3.83876C23.2122 3.75439 21.0231 3.24814 10.0497 0.7497C8.24032 0.3372 6.67938 -0.000300407 6.58094 -0.000300407C6.47782 0.00438738 6.31844 0.0325122 6.21532 0.0700121Z" />
<path d="M6.03281 2.31537C5.7375 2.42318 5.49844 2.61068 5.36719 2.83568C5.27344 2.98568 5.18906 3.29506 5.05781 3.94193C4.95937 4.43412 4.875 4.84193 4.875 4.85599C4.875 4.86537 4.93125 4.85131 5.00625 4.82318C5.07656 4.79506 5.25937 4.75756 5.41406 4.74349L5.69531 4.71068L5.84531 3.98412C5.97187 3.35599 6.00937 3.24349 6.11719 3.15443C6.19219 3.08881 6.3 3.04662 6.39844 3.04662C6.48281 3.04662 8.43281 3.42631 10.7297 3.89037L14.9109 4.73412L16.7719 4.72943C17.9344 4.72943 18.5906 4.71068 18.5156 4.68256C18.45 4.65912 16.2984 4.21849 13.7344 3.70287C11.1703 3.18724 8.50312 2.64818 7.81406 2.50756C6.47812 2.23568 6.31406 2.21693 6.03281 2.31537Z" />
<path d="M5.76563 5.47969C5.44219 5.57812 5.15625 5.82187 4.9875 6.14062C4.90313 6.29531 4.89844 6.49219 4.89844 10.3125C4.89844 14.1328 4.90313 14.3297 4.9875 14.4844C5.10938 14.7141 5.33438 14.9437 5.55469 15.0609L5.74219 15.1641H14.4375H23.1328L23.3203 15.0609C23.5406 14.9437 23.7656 14.7141 23.8875 14.4844C23.9719 14.3297 23.9766 14.1328 23.9766 10.3125C23.9766 6.49219 23.9719 6.29531 23.8875 6.14062C23.7656 5.91094 23.5406 5.68125 23.3203 5.56406L23.1328 5.46094L14.5078 5.45156C9.76406 5.44687 5.83125 5.46094 5.76563 5.47969ZM22.9922 6.24375C23.2594 6.36562 23.25 6.23438 23.25 10.3125C23.25 14.3906 23.2594 14.2594 22.9922 14.3812C22.8984 14.4234 20.8734 14.4375 14.4328 14.4375C5.25469 14.4375 5.80313 14.4516 5.68125 14.1797C5.63906 14.0906 5.625 13.1156 5.625 10.2984C5.62969 6.26719 5.62031 6.38906 5.86406 6.25312C6.01875 6.16406 22.8047 6.15469 22.9922 6.24375Z" />
<path d="M8.49952 7.00781C8.44327 7.05 8.36827 7.19062 8.3214 7.33594C8.16671 7.87031 7.81515 8.10469 7.16358 8.10938C6.5214 8.10938 6.56358 7.95 6.56358 10.3125C6.56358 12.6797 6.50733 12.4969 7.20577 12.525C7.5714 12.5391 7.70265 12.5625 7.85265 12.6469C8.08233 12.7781 8.23702 12.9937 8.33077 13.3078C8.4339 13.6687 8.48077 13.6875 9.34327 13.6875C10.0651 13.6875 10.0839 13.6828 10.1964 13.5703C10.3511 13.4203 10.3511 13.2047 10.1964 13.0547C10.0886 12.9422 10.0558 12.9375 9.54952 12.9375H9.01046L8.88858 12.6797C8.65421 12.2062 8.11983 11.85 7.53858 11.7797L7.31358 11.7516V10.3125V8.87344L7.53858 8.84531C8.11983 8.775 8.65421 8.41875 8.88858 7.94531L9.01046 7.6875H9.54952C10.0558 7.6875 10.0886 7.68281 10.1964 7.57031C10.2714 7.5 10.3136 7.40156 10.3136 7.3125C10.3136 7.22344 10.2714 7.125 10.1964 7.05469C10.0839 6.94219 10.0651 6.9375 9.34327 6.9375C8.75733 6.9375 8.57921 6.95156 8.49952 7.00781Z" />
<path d="M13.6672 6.98418C12.9875 7.11074 12.3969 7.4248 11.8812 7.94043C11.4594 8.3623 11.2109 8.76074 11.0281 9.31855C10.925 9.63262 10.9062 9.75918 10.9062 10.3123C10.9062 10.8654 10.925 10.992 11.0281 11.3061C11.2109 11.8639 11.4594 12.2623 11.8812 12.6842C12.3031 13.1061 12.7016 13.3545 13.2594 13.5373C13.5734 13.6404 13.7 13.6592 14.2531 13.6592C14.8062 13.6592 14.9328 13.6404 15.2469 13.5373C15.8047 13.3545 16.2031 13.1061 16.625 12.6842C17.0469 12.2623 17.2953 11.8639 17.4781 11.3061C17.5812 10.992 17.6 10.8654 17.6 10.3123C17.6 9.75918 17.5812 9.63262 17.4781 9.31855C17.2953 8.76074 17.0469 8.3623 16.625 7.94043C15.9781 7.29824 15.2844 6.99355 14.3937 6.96074C14.1219 6.95137 13.7984 6.96074 13.6672 6.98418ZM14.7922 7.71074C15.9969 7.96387 16.925 9.09355 16.925 10.3123C16.925 11.2592 16.3156 12.2482 15.4719 12.6701C14.6609 13.0732 13.8453 13.0732 13.0344 12.6701C12.1859 12.2436 11.5812 11.2639 11.5812 10.3123C11.5812 9.35605 12.1906 8.36699 13.0391 7.9498C13.6297 7.65918 14.1828 7.58418 14.7922 7.71074Z" />
<path d="M14.0711 8.13721C13.982 8.19814 13.968 8.24971 13.968 8.50283C13.968 8.79346 13.968 8.79346 13.8039 8.85439C13.5976 8.92939 13.3773 9.11221 13.2883 9.28564C13.1758 9.50127 13.1992 9.93252 13.3305 10.1294C13.4336 10.2794 13.7851 10.4997 13.9211 10.4997C13.9492 10.4997 13.968 10.6919 13.968 10.9919C13.968 11.2638 13.9492 11.4841 13.9258 11.4841C13.8742 11.4841 13.6773 11.2497 13.5273 11.0153C13.3445 10.7247 13.0773 10.8278 13.143 11.17C13.1898 11.4278 13.4383 11.7231 13.7195 11.8591C13.9633 11.9763 13.9633 11.9763 13.9773 12.2106C13.9914 12.4075 14.0101 12.4544 14.1226 12.5153C14.2351 12.5763 14.2633 12.5763 14.3805 12.5153C14.4883 12.4544 14.507 12.4075 14.5211 12.2013C14.5351 11.9997 14.5492 11.9575 14.6383 11.9341C14.6945 11.92 14.8445 11.845 14.9664 11.7653C15.3273 11.5356 15.4633 11.1278 15.3039 10.7435C15.2008 10.4997 15.0601 10.3638 14.7789 10.2372L14.5305 10.1247V9.70283C14.5305 9.47314 14.5492 9.28096 14.568 9.28096C14.6289 9.28096 14.8398 9.52471 14.9242 9.68877C15.0601 9.95596 15.2992 9.99814 15.3555 9.76377C15.4305 9.47783 15.0086 8.91064 14.6664 8.83564C14.5351 8.80752 14.5305 8.79814 14.5305 8.50752C14.5305 8.24971 14.5164 8.19814 14.4273 8.13721C14.3711 8.09502 14.2914 8.06221 14.2492 8.06221C14.207 8.06221 14.1273 8.09502 14.0711 8.13721ZM13.968 9.66064V10.0403L13.8648 9.97471C13.6914 9.86221 13.6211 9.67471 13.6867 9.51064C13.743 9.38408 13.8461 9.28564 13.9351 9.28096C13.9539 9.28096 13.968 9.45439 13.968 9.66064ZM14.8586 10.9169C14.8914 10.9966 14.9055 11.1091 14.8867 11.17C14.8586 11.2872 14.643 11.531 14.5726 11.531C14.5492 11.531 14.5305 11.3294 14.5305 11.0856V10.6356L14.6664 10.706C14.7367 10.7435 14.8258 10.8419 14.8586 10.9169Z"/>
<path d="M18.6797 7.05469C18.6047 7.125 18.5625 7.22344 18.5625 7.3125C18.5625 7.40156 18.6047 7.5 18.6797 7.57031C18.7875 7.68281 18.8203 7.6875 19.3266 7.6875H19.8656L19.9875 7.94531C20.2219 8.41875 20.7562 8.775 21.3375 8.84531L21.5625 8.87344V10.3125V11.7516L21.3375 11.7797C20.7562 11.85 20.2219 12.2062 19.9875 12.6797L19.8656 12.9375H19.3266C18.8203 12.9375 18.7875 12.9422 18.6797 13.0547C18.6047 13.125 18.5625 13.2234 18.5625 13.3125C18.5625 13.4016 18.6047 13.5 18.6797 13.5703C18.7922 13.6828 18.8109 13.6875 19.5328 13.6875C20.4047 13.6875 20.4422 13.6734 20.5547 13.2891C20.7094 12.7547 21.0609 12.5203 21.7125 12.5156C22.3547 12.5156 22.3125 12.675 22.3125 10.3125C22.3125 8.40469 22.3078 8.35312 22.2141 8.23125C22.125 8.11875 22.0922 8.10938 21.7594 8.10938C21.5625 8.10938 21.3141 8.08594 21.2109 8.05781C20.9344 7.97812 20.6531 7.67344 20.5547 7.34531C20.4422 6.95156 20.4094 6.9375 19.5328 6.9375C18.8109 6.9375 18.7922 6.94219 18.6797 7.05469Z" />
<path d="M0 19.406V23.817L1.67813 23.8029C3.57656 23.7888 3.57188 23.7888 4.00781 23.3857C4.3125 23.1045 4.45312 22.8045 4.48594 22.3779L4.51406 22.031L5.12813 21.6935L5.74219 21.3513H6.11719C6.68906 21.356 7.05 21.4967 9.38906 22.6217C11.6625 23.7185 11.8734 23.8029 12.7266 23.9295C13.7906 24.0888 14.9813 23.9623 16.35 23.5498C17.2594 23.2732 21.4781 21.6607 22.3453 21.2576C23.3625 20.7842 23.9156 20.2404 23.9859 19.6404C24.0656 18.9467 23.5406 18.4076 22.7812 18.4076C22.5891 18.4076 21.2859 18.6326 19.2188 19.0217C15.6563 19.6967 15.7781 19.6638 15.7781 19.9967C15.7781 20.2029 15.9234 20.3435 16.1297 20.3435C16.2094 20.3435 17.6766 20.0763 19.3969 19.7529C21.1172 19.4295 22.6219 19.1623 22.7438 19.1576C23.1281 19.1482 23.3063 19.3217 23.2266 19.6263C23.1797 19.8279 22.7438 20.2029 22.2844 20.4467C21.6562 20.7748 17.8875 22.2467 16.4719 22.7154C14.5219 23.3623 13.0125 23.4138 11.6953 22.8842C11.5688 22.8326 10.7766 22.4623 9.94219 22.0545C7.45781 20.8592 6.975 20.6623 6.34688 20.6013C5.80781 20.5451 5.45156 20.6435 4.79531 21.0185L4.5 21.1873V19.2701V17.3576L5.63906 17.0154C7.04063 16.5935 7.20938 16.556 7.85625 16.5185C8.5875 16.4717 9.2625 16.5795 9.9375 16.8373C10.3078 16.9779 13.3406 18.6748 13.7063 18.942C14.2125 19.317 14.4047 19.6638 14.2313 19.9029C14.0672 20.1232 13.0125 19.917 11.2266 19.3123C10.6875 19.1295 10.1672 18.9795 10.0781 18.9748C9.89062 18.9748 9.70312 19.1529 9.70312 19.3357C9.70312 19.5795 9.85781 19.6638 11.0625 20.0576C12.5297 20.5404 13.0688 20.6717 13.6922 20.7045C14.4375 20.7467 14.7375 20.6154 14.9438 20.1654C15.0422 19.9498 15.0563 19.8607 15.0328 19.6123C14.9953 19.1342 14.6953 18.7217 14.0484 18.2623C13.7672 18.0654 11.2406 16.6404 10.5703 16.2982C9.79219 15.9092 8.86875 15.7263 7.89844 15.7638C7.16719 15.7967 6.9375 15.8435 5.60156 16.242C5.03438 16.4107 4.56094 16.5467 4.54219 16.5467C4.52813 16.5467 4.5 16.4388 4.48594 16.3076C4.42969 15.8248 4.09688 15.3701 3.63281 15.1404L3.39844 15.0232L1.70156 15.0092L0 14.9951V19.406ZM3.40313 15.8717C3.47344 15.9232 3.57656 16.0263 3.62813 16.0967C3.72656 16.2232 3.72656 16.2654 3.72656 19.406C3.72656 22.5467 3.72656 22.5888 3.62813 22.7154C3.57656 22.7857 3.47344 22.8888 3.40313 22.9404C3.28125 23.0342 3.20156 23.0388 2.01094 23.0529L0.75 23.067V19.406V15.7451L2.01094 15.7592C3.20156 15.7732 3.28125 15.7779 3.40313 15.8717Z" />
</svg>
