<svg width="18" height="22" viewBox="0 0 18 22" fill="none" stroke="white" xmlns="http://www.w3.org/2000/svg">
<path d="M1.7998 1.40039H16.1998M1.7998 20.6004H16.1998M14.3998 1.40039V4.32512C14.3998 4.99706 14.1742 5.64954 13.7592 6.178L10.7495 10.0105C10.226 10.677 10.2385 11.6185 10.7794 12.271L13.7094 15.8057C14.1556 16.3439 14.3998 17.0211 14.3998 17.7202V20.6004M3.5998 1.40039V4.32512C3.5998 4.99706 3.82539 5.64954 4.2404 6.178L7.25012 10.0105C7.77358 10.677 7.76114 11.6185 7.22025 12.271L4.29017 15.8057C3.84399 16.3439 3.5998 17.0211 3.5998 17.7202V20.6004"  stroke-width="2" stroke-linecap="round" stroke-linejoin="round"/>
</svg>
