<svg width="16" height="13" viewBox="0 0 16 13" fill="none" xmlns="http://www.w3.org/2000/svg">
<path fill-rule="evenodd" clip-rule="evenodd" d="M15.166 7.30273H1.16602C0.890016 7.30273 0.666016 7.07873 0.666016 6.80273C0.666016 6.52673 0.890016 6.30273 1.16602 6.30273H15.166C15.442 6.30273 15.666 6.52673 15.666 6.80273C15.666 7.07873 15.442 7.30273 15.166 7.30273Z" fill="white"/>
<path fill-rule="evenodd" clip-rule="evenodd" d="M13.919 4.49667C13.643 4.49667 13.419 4.27267 13.419 3.99667V2.98733C13.419 1.892 12.527 1 11.4303 1H10.627C10.351 1 10.127 0.776 10.127 0.5C10.127 0.224 10.351 0 10.627 0H11.4303C13.0783 0 14.419 1.34067 14.419 2.98733V3.99667C14.419 4.27267 14.195 4.49667 13.919 4.49667Z" fill="white"/>
<path fill-rule="evenodd" clip-rule="evenodd" d="M2.41211 4.49667C2.13611 4.49667 1.91211 4.27267 1.91211 3.99667V2.98733C1.91211 1.34067 3.25278 0 4.90078 0H5.72478C6.00078 0 6.22478 0.224 6.22478 0.5C6.22478 0.776 6.00078 1 5.72478 1H4.90078C3.80411 1 2.91211 1.892 2.91211 2.98733V3.99667C2.91211 4.27267 2.68811 4.49667 2.41211 4.49667Z" fill="white"/>
<path fill-rule="evenodd" clip-rule="evenodd" d="M11.4303 12.5074H10.627C10.351 12.5074 10.127 12.2834 10.127 12.0074C10.127 11.7314 10.351 11.5074 10.627 11.5074H11.4303C12.527 11.5074 13.419 10.6154 13.419 9.5194V6.80273C13.419 6.52673 13.643 6.30273 13.919 6.30273C14.195 6.30273 14.419 6.52673 14.419 6.80273V9.5194C14.419 11.1667 13.0783 12.5074 11.4303 12.5074Z" fill="white"/>
<path fill-rule="evenodd" clip-rule="evenodd" d="M5.72478 12.5074H4.90078C3.25278 12.5074 1.91211 11.1667 1.91211 9.5194V6.80273C1.91211 6.52673 2.13611 6.30273 2.41211 6.30273C2.68811 6.30273 2.91211 6.52673 2.91211 6.80273V9.5194C2.91211 10.6154 3.80411 11.5074 4.90078 11.5074H5.72478C6.00078 11.5074 6.22478 11.7314 6.22478 12.0074C6.22478 12.2834 6.00078 12.5074 5.72478 12.5074Z" fill="white"/>
</svg>
