<svg width="52" height="50" viewBox="0 0 52 50" fill="white" xmlns="http://www.w3.org/2000/svg">
<path d="M40.9718 40C38.166 40 35.9162 42.225 35.9162 45C35.9162 46.3261 36.4489 47.5979 37.397 48.5355C38.3451 49.4732 39.631 50 40.9718 50C42.3126 50 43.5985 49.4732 44.5466 48.5355C45.4947 47.5979 46.0273 46.3261 46.0273 45C46.0273 42.225 43.7523 40 40.9718 40ZM0.527344 0V5H5.5829L14.6829 23.975L11.2451 30.1C10.866 30.8 10.6385 31.625 10.6385 32.5C10.6385 33.8261 11.1711 35.0979 12.1192 36.0355C13.0673 36.9732 14.3532 37.5 15.694 37.5H46.0273V32.5H16.7557C16.5881 32.5 16.4273 32.4342 16.3088 32.3169C16.1903 32.1997 16.1237 32.0408 16.1237 31.875C16.1237 31.75 16.149 31.65 16.1996 31.575L18.4746 27.5H37.3065C39.2023 27.5 40.8707 26.45 41.7301 24.925L50.7796 8.75C50.9565 8.35 51.0829 7.925 51.0829 7.5C51.0829 6.83696 50.8166 6.20107 50.3425 5.73223C49.8685 5.26339 49.2255 5 48.5551 5H11.1693L8.79318 0H0.527344ZM15.694 40C12.8882 40 10.6385 42.225 10.6385 45C10.6385 46.3261 11.1711 47.5979 12.1192 48.5355C13.0673 49.4732 14.3532 50 15.694 50C17.0348 50 18.3207 49.4732 19.2688 48.5355C20.2169 47.5979 20.7496 46.3261 20.7496 45C20.7496 42.225 18.4746 40 15.694 40Z" />
</svg>
