<svg width="55" height="48" viewBox="0 0 55 48" fill="white" xmlns="http://www.w3.org/2000/svg">
<path d="M11.5899 47.5C9.66256 47.5 7.98233 46.375 7.16692 44.75L0.717796 21.1L0.470703 20C0.470703 19.337 0.731032 18.7011 1.19442 18.2322C1.65781 17.7634 2.2863 17.5 2.94163 17.5H14.2585L25.6248 1.075C26.0695 0.425 26.8108 0 27.6509 0C28.4911 0 29.257 0.425 29.7018 1.1L41.0434 17.5H52.3602C53.0156 17.5 53.6441 17.7634 54.1074 18.2322C54.5708 18.7011 54.8312 19.337 54.8312 20L54.7323 20.725L48.1349 44.75C47.3195 46.375 45.6393 47.5 43.712 47.5H11.5899ZM27.6509 6.85L20.2381 17.5H35.0637L27.6509 6.85ZM27.6509 27.5C26.3403 27.5 25.0833 28.0268 24.1565 28.9645C23.2297 29.9021 22.7091 31.1739 22.7091 32.5C22.7091 33.8261 23.2297 35.0979 24.1565 36.0355C25.0833 36.9732 26.3403 37.5 27.6509 37.5C28.9616 37.5 30.2186 36.9732 31.1454 36.0355C32.0721 35.0979 32.5928 33.8261 32.5928 32.5C32.5928 31.1739 32.0721 29.9021 31.1454 28.9645C30.2186 28.0268 28.9616 27.5 27.6509 27.5Z"/>
</svg>
