<svg width="14" height="14" viewBox="0 0 14 14" fill="white" xmlns="http://www.w3.org/2000/svg">
<mask id="mask0_475_10946" style="mask-type:alpha" maskUnits="userSpaceOnUse" x="3" y="0" width="7" height="6">
<path fill-rule="evenodd" clip-rule="evenodd" d="M3.80859 0.333984H9.84993V5.87112H3.80859V0.333984Z"/>
</mask>
<g mask="url(#mask0_475_10946)">
<path fill-rule="evenodd" clip-rule="evenodd" d="M9.34993 5.87132C9.07393 5.87132 8.84993 5.64732 8.84993 5.37132V3.34998C8.84993 2.23865 7.94659 1.33398 6.83526 1.33398C6.29459 1.35265 5.78793 1.53932 5.40526 1.91798C5.02259 2.29732 4.81059 2.80198 4.80859 3.33998V5.37132C4.80859 5.64732 4.58459 5.87132 4.30859 5.87132C4.03259 5.87132 3.80859 5.64732 3.80859 5.37132V3.34998C3.81193 2.53065 4.12859 1.77465 4.70126 1.20798C5.27326 0.640651 6.04126 0.357318 6.83726 0.333984C8.49793 0.333984 9.84993 1.68732 9.84993 3.34998V5.37132C9.84993 5.64732 9.62593 5.87132 9.34993 5.87132Z"/>
</g>
<mask id="mask1_475_10946" style="mask-type:alpha" maskUnits="userSpaceOnUse" x="0" y="3" width="14" height="11">
<path fill-rule="evenodd" clip-rule="evenodd" d="M0.333984 3.31641H13.3339V13.6664H0.333984V3.31641Z"/>
</mask>
<g mask="url(#mask1_475_10946)">
<path fill-rule="evenodd" clip-rule="evenodd" d="M3.67265 4.31641C2.38332 4.31641 1.33398 5.36441 1.33398 6.65307V10.3304C1.33398 11.6184 2.38332 12.6664 3.67265 12.6664H9.99532C11.2847 12.6664 12.334 11.6184 12.334 10.3304V6.65307C12.334 5.36441 11.2847 4.31641 9.99532 4.31641H3.67265ZM9.99532 13.6664H3.67265C1.83198 13.6664 0.333984 12.1697 0.333984 10.3304V6.65307C0.333984 4.81307 1.83198 3.31641 3.67265 3.31641H9.99532C11.8367 3.31641 13.334 4.81307 13.334 6.65307V10.3304C13.334 12.1697 11.8367 13.6664 9.99532 13.6664Z"/>
</g>
</svg>
