<svg width="25" fill="white" height="25" viewBox="0 0 25 25" fill="none" xmlns="http://www.w3.org/2000/svg">
<path d="M12.9575 7.90002C13.7859 7.90002 14.4575 7.22845 14.4575 6.40002C14.4575 5.5716 13.7859 4.90002 12.9575 4.90002C12.1291 4.90002 11.4575 5.5716 11.4575 6.40002C11.4575 7.22845 12.1291 7.90002 12.9575 7.90002Z" fill-opacity="0.88"/>
<path d="M12.9575 13.9C13.7859 13.9 14.4575 13.2285 14.4575 12.4C14.4575 11.5716 13.7859 10.9 12.9575 10.9C12.1291 10.9 11.4575 11.5716 11.4575 12.4C11.4575 13.2285 12.1291 13.9 12.9575 13.9Z" fill-opacity="0.88"/>
<path d="M12.9575 19.9C13.7859 19.9 14.4575 19.2285 14.4575 18.4C14.4575 17.5716 13.7859 16.9 12.9575 16.9C12.1291 16.9 11.4575 17.5716 11.4575 18.4C11.4575 19.2285 12.1291 19.9 12.9575 19.9Z" fill-opacity="0.88"/>
</svg>
