<svg width="24" height="22" viewBox="0 0 24 22" fill="none" xmlns="http://www.w3.org/2000/svg">
<path d="M12.3189 0.0123901C9.98923 0.223328 7.8611 1.11864 6.10798 2.61864C4.34079 4.1327 3.08923 6.2327 2.58766 8.52489L2.45641 9.12489H1.35016C0.182976 9.12489 0.0282882 9.15301 0.000163158 9.34051C-0.00921184 9.41551 0.384538 9.92645 1.4111 11.1686C2.19391 12.1202 2.8736 12.9311 2.91579 12.964C3.0611 13.0811 3.30485 13.053 3.45954 12.8936C3.72204 12.6311 6.1361 9.52333 6.16423 9.41551C6.17829 9.3452 6.16423 9.27489 6.11266 9.22801C6.04704 9.1577 5.89235 9.14833 5.02985 9.13426C3.87204 9.11551 3.97048 9.17645 4.1111 8.58583C4.50485 6.95458 5.38141 5.42176 6.61423 4.19833C8.02048 2.80614 9.73141 1.93427 11.733 1.59677C12.3892 1.48426 13.9455 1.48426 14.5924 1.59208C16.6174 1.94364 18.3611 2.83426 19.7533 4.23583C21.1595 5.64208 22.0314 7.36239 22.383 9.3827C22.5049 10.0905 22.4908 11.6374 22.3595 12.3593C21.7174 15.8608 19.3267 18.6124 15.9986 19.6858C13.7158 20.4218 11.1892 20.2296 9.03298 19.1608C8.17048 18.7296 7.61735 18.3499 6.80173 17.6233C6.33766 17.2155 6.18766 17.1499 5.86423 17.2108C5.63454 17.253 5.35329 17.5343 5.3111 17.764C5.24548 18.1108 5.3111 18.2608 5.70016 18.6405C7.27516 20.1921 9.44548 21.2233 11.8267 21.5515C12.3845 21.6311 14.0111 21.6311 14.5455 21.5561C17.3627 21.153 19.8892 19.728 21.6002 17.5811C22.8002 16.0765 23.5783 14.2905 23.883 12.3593C23.9955 11.6093 23.9955 10.0155 23.883 9.26551C23.3252 5.69833 21.1689 2.72177 17.9861 1.13739C16.9174 0.603014 15.9142 0.284266 14.733 0.101452C14.2783 0.026453 12.7502 -0.0251102 12.3189 0.0123901Z" fill="#F77D4E"/>
<path d="M12.7881 3.8375C12.7037 3.89844 12.5865 4.00625 12.535 4.07656C12.4365 4.20781 12.4365 4.23125 12.4365 7.64844C12.4365 11.0469 12.4365 11.0891 12.535 11.2156C12.5865 11.2859 12.6896 11.3891 12.76 11.4406C12.8865 11.5391 12.9334 11.5391 15.9475 11.5391H19.0084L19.1725 11.4125C19.6131 11.0797 19.5568 10.4094 19.0693 10.1516C18.9193 10.0672 18.7506 10.0625 16.4115 10.0625H13.9131L13.9037 7.1375C13.8896 4.25 13.8896 4.20781 13.7912 4.07656C13.6271 3.85156 13.4068 3.73437 13.1631 3.73437C13.0131 3.73437 12.8959 3.76719 12.7881 3.8375Z" fill="#F77D4E"/>
</svg>
