<svg width="24" height="22" viewBox="0 0 24 22" fill="#F97E4E" xmlns="http://www.w3.org/2000/svg">
<path d="M23.1638 1.39981L23.9638 1.34701C23.9534 1.18995 23.897 1.03945 23.8014 0.914342C23.7059 0.789234 23.5756 0.695081 23.4269 0.64367C23.2781 0.59226 23.1175 0.585876 22.9651 0.625318C22.8127 0.66476 22.6754 0.748276 22.5702 0.865409L23.1638 1.39981ZM22.367 6.13421C22.367 5.92204 22.2827 5.71855 22.1327 5.56852C21.9827 5.4185 21.7792 5.33421 21.567 5.33421C21.3549 5.33421 21.1514 5.4185 21.0013 5.56852C20.8513 5.71855 20.767 5.92204 20.767 6.13421H22.367ZM11.983 6.26541H11.183H11.983ZM11.983 7.79981H12.783H11.983ZM0.799027 18.9998V18.1998C0.62725 18.1996 0.459967 18.2547 0.321924 18.3569C0.183882 18.4592 0.0824123 18.6031 0.0325259 18.7675C-0.0173606 18.9319 -0.013014 19.1079 0.0449225 19.2696C0.102859 19.4313 0.211308 19.5701 0.354227 19.6654L0.799027 18.9998ZM2.39583 1.39981L3.14623 1.11981C3.0917 0.973742 2.99567 0.846792 2.86996 0.754568C2.74424 0.662344 2.59432 0.608865 2.43862 0.600706C2.28292 0.592547 2.12822 0.630063 1.99356 0.708643C1.85889 0.787223 1.75013 0.903441 1.68063 1.04301L2.39583 1.39981ZM8.78623 15.7998L9.35263 16.3646C9.44872 16.2682 9.51863 16.1489 9.55574 16.0179C9.59285 15.887 9.59593 15.7487 9.56469 15.6162C9.53346 15.4837 9.46893 15.3614 9.37723 15.2608C9.28552 15.1602 9.16967 15.0847 9.04063 15.0414L8.78623 15.7998ZM20.3446 2.95661L19.7526 3.49421L20.0406 3.81261L20.4646 3.74861L20.3446 2.95661ZM22.367 1.45261C22.4486 2.69741 22.3718 3.45261 22.1702 4.02221C21.975 4.57421 21.6326 5.02861 21.0134 5.62221L22.1206 6.77741C22.8214 6.10541 23.3622 5.44621 23.679 4.55661C23.9878 3.68301 24.0502 2.67181 23.9622 1.34701L22.3654 1.45261H22.367ZM22.367 7.29901V6.13581H20.767V7.30061H22.367V7.29901ZM11.183 6.26541V7.79981H12.783V6.26541H11.183ZM11.183 7.79981V8.59981H12.783V7.79981H11.183ZM16.839 0.599809C16.0954 0.600229 15.3592 0.747108 14.6724 1.03206C13.9855 1.31701 13.3616 1.73445 12.836 2.26055C12.3105 2.78665 11.8938 3.4111 11.6096 4.09826C11.3255 4.78541 11.1794 5.52181 11.1798 6.26541H12.7798C12.7794 5.73179 12.8841 5.20332 13.088 4.71018C13.2919 4.21704 13.5909 3.7689 13.968 3.39136C14.3451 3.01381 14.7929 2.71425 15.2858 2.50981C15.7787 2.30536 16.307 2.20002 16.8406 2.19981V0.599809H16.839ZM20.7654 7.29901C20.767 14.2046 15.1782 19.7998 8.28703 19.7998V21.3998C16.063 21.3998 22.367 15.0862 22.367 7.29901H20.767H20.7654ZM1.64703 1.67981C2.51743 4.00301 5.78143 8.59981 11.983 8.59981V6.99981C6.67743 6.99981 3.87263 3.06381 3.14463 1.11981L1.64543 1.67981H1.64703ZM1.68063 1.04301C0.00542717 4.39661 -0.252173 7.65101 0.965427 10.4222C2.17983 13.1854 4.79263 15.3102 8.53343 16.5582L9.04063 15.0414C5.59263 13.8894 3.41183 12.0142 2.42943 9.77741C1.45023 7.54861 1.59263 4.80141 3.11263 1.75661L1.68063 1.04301ZM8.21983 15.235C7.25663 16.1998 4.36063 18.1998 0.799027 18.1998V19.7998C4.90463 19.7998 8.18623 17.5342 9.35263 16.3646L8.21983 15.235ZM20.9382 2.42061C20.4209 1.84693 19.7888 1.38839 19.0829 1.07472C18.377 0.761042 17.6131 0.599242 16.8406 0.599809V2.19981C17.9942 2.19981 19.0326 2.69741 19.7526 3.49421L20.9366 2.42061H20.9382ZM20.4646 3.74861C21.7391 3.54039 22.903 2.89968 23.7606 1.93421L22.5702 0.865409C21.9602 1.55459 21.1323 2.01373 20.2246 2.16621L20.4646 3.74861ZM0.354227 19.6654C2.97983 21.4158 5.73183 21.3998 8.28703 21.3998V19.7998C5.67903 19.7998 3.41023 19.7822 1.24383 18.3342L0.354227 19.6654Z" />
</svg>
