<svg width="12" height="12" viewBox="0 0 12 12" fill="none" stroke="#3031D9" xmlns="http://www.w3.org/2000/svg">
<g clip-path="url(#clip0_1704_91326)">
<path d="M7.68219 8.40001C7.68219 8.40001 9.67707 8.40001 9.86571 8.40001C10.9133 8.40001 11.7622 7.55113 11.7622 6.50377C11.7622 5.45641 10.9133 4.60729 9.86571 4.60729C9.86091 4.60729 9.85659 4.60801 9.85179 4.60801C9.86643 4.48945 9.87651 4.36945 9.87651 4.24705C9.87651 2.63665 8.57115 1.33105 6.96051 1.33105C5.70555 1.33105 4.63923 2.12521 4.22787 3.23689C3.96699 2.97553 3.60603 2.81353 3.20763 2.81353C2.41107 2.81353 1.76547 3.45913 1.76547 4.25545C1.76547 4.27585 1.76787 4.29553 1.76859 4.31569C0.888988 4.55881 0.242188 5.36257 0.242188 6.31945C0.242188 7.46857 1.17363 8.40001 2.32299 8.40001C2.52147 8.40001 4.32219 8.40001 4.32219 8.40001"  stroke-width="0.5" stroke-miterlimit="10" stroke-linecap="round" stroke-linejoin="round"/>
<path d="M4.79688 6.71953L5.99688 5.51953L7.19688 6.71953" stroke-width="0.5" stroke-miterlimit="10" stroke-linecap="round"/>
<path d="M6 10.3197V5.59961"  stroke-width="0.5" stroke-miterlimit="10" stroke-linecap="round"/>
</g>
<defs>
<clipPath id="clip0_1704_91326">
<rect width="12" height="12" fill="white"/>
</clipPath>
</defs>
</svg>
