<svg width="15" height="17" viewBox="0 0 15 17" fill="white" xmlns="http://www.w3.org/2000/svg">
<mask id="mask0_981_18389" style="mask-type:alpha" maskUnits="userSpaceOnUse" x="0" y="10" width="15" height="7">
<path fill-rule="evenodd" clip-rule="evenodd" d="M0.990234 10.5146H14.9541V16.5299H0.990234V10.5146Z"/>
</mask>
<g mask="url(#mask0_981_18389)">
<path fill-rule="evenodd" clip-rule="evenodd" d="M7.97311 11.7382C4.21676 11.7382 2.31258 12.3353 2.31258 13.5141C2.31258 14.7035 4.21676 15.3063 7.97311 15.3063C11.7286 15.3063 13.6319 14.7092 13.6319 13.5304C13.6319 12.3411 11.7286 11.7382 7.97311 11.7382ZM7.97311 16.5299C6.24612 16.5299 0.990234 16.5299 0.990234 13.5141C0.990234 10.8254 4.97579 10.5146 7.97311 10.5146C9.7001 10.5146 14.9542 10.5146 14.9542 13.5304C14.9542 16.2191 10.9695 16.5299 7.97311 16.5299Z"/>
</g>
<mask id="mask1_981_18389" style="mask-type:alpha" maskUnits="userSpaceOnUse" x="3" y="0" width="10" height="9">
<path fill-rule="evenodd" clip-rule="evenodd" d="M3.29102 0.32103H12.6533V8.98312H3.29102V0.32103Z"/>
</mask>
<g mask="url(#mask1_981_18389)">
<path fill-rule="evenodd" clip-rule="evenodd" d="M7.97303 1.4856C6.0856 1.4856 4.54992 2.90581 4.54992 4.65232C4.54375 6.39313 6.06797 7.81253 7.94747 7.81905L7.97303 8.4015V7.81905C9.85958 7.81905 11.3944 6.39802 11.3944 4.65232C11.3944 2.90581 9.85958 1.4856 7.97303 1.4856ZM7.97303 8.98312H7.94482C5.36889 8.97578 3.28223 7.03186 3.29104 4.64988C3.29104 2.26382 5.39093 0.320709 7.97303 0.320709C10.5543 0.320709 12.6533 2.26382 12.6533 4.65232C12.6533 7.04083 10.5543 8.98312 7.97303 8.98312Z"/>
</g>
</svg>
