<svg width="16" height="12" viewBox="0 0 16 12" fill="none" xmlns="http://www.w3.org/2000/svg">
<path fill-rule="evenodd" clip-rule="evenodd" d="M11.9233 6.09686C11.678 6.09686 11.464 5.91619 11.4287 5.66619C11.3907 5.39219 11.5807 5.13952 11.8547 5.10152C12.548 5.00419 13.0713 4.40286 13.0727 3.70152C13.0727 3.00619 12.574 2.41819 11.8867 2.30552C11.6147 2.26086 11.43 2.00352 11.4747 1.73086C11.52 1.45819 11.7753 1.27552 12.0493 1.31886C13.2213 1.51152 14.0727 2.51419 14.0727 3.70286C14.07 4.89952 13.176 5.92619 11.9927 6.09219C11.9693 6.09552 11.946 6.09686 11.9233 6.09686Z" fill="white"/>
<mask id="mask0_475_11008" style="mask-type:alpha" maskUnits="userSpaceOnUse" x="12" y="7" width="4" height="4">
<path fill-rule="evenodd" clip-rule="evenodd" d="M12.6523 7.33398H15.1817V10.3537H12.6523V7.33398Z" fill="white"/>
</mask>
<g mask="url(#mask0_475_11008)">
<path fill-rule="evenodd" clip-rule="evenodd" d="M13.9079 10.3537C13.7065 10.3537 13.5165 10.231 13.4405 10.0317C13.3419 9.7737 13.4719 9.48436 13.7299 9.38636C14.1819 9.21436 14.1819 9.02436 14.1819 8.93303C14.1819 8.64103 13.8105 8.43703 13.0785 8.3277C12.8059 8.28636 12.6172 8.03236 12.6579 7.75836C12.6985 7.48503 12.9519 7.30303 13.2272 7.33836C14.8425 7.58036 15.1819 8.33903 15.1819 8.93303C15.1819 9.2957 15.0392 9.9577 14.0859 10.321C14.0272 10.343 13.9672 10.3537 13.9079 10.3537Z" fill="white"/>
</g>
<path fill-rule="evenodd" clip-rule="evenodd" d="M7.92384 8.60938C6.33984 8.60938 4.45117 8.80404 4.45117 9.73071C4.45117 10.6647 6.33984 10.8607 7.92384 10.8607C9.50784 10.8607 11.3958 10.6667 11.3958 9.74204C11.3958 8.80604 9.50784 8.60938 7.92384 8.60938ZM7.92384 11.8607C6.81784 11.8607 3.45117 11.8607 3.45117 9.73071C3.45117 7.60938 6.81784 7.60938 7.92384 7.60938C9.02984 7.60938 12.3958 7.60938 12.3958 9.74204C12.3958 11.8607 9.14717 11.8607 7.92384 11.8607Z" fill="white"/>
<path fill-rule="evenodd" clip-rule="evenodd" d="M7.92427 1.66602C6.79627 1.66602 5.87893 2.58402 5.87893 3.71202C5.87693 4.25868 6.08627 4.77002 6.4696 5.15602C6.85293 5.54202 7.3636 5.75602 7.9076 5.75802L7.92427 6.25802V5.75802C9.05227 5.75802 9.97027 4.84068 9.97027 3.71202C9.97027 2.58402 9.05227 1.66602 7.92427 1.66602ZM7.92427 6.75801H7.90627C7.09293 6.75535 6.33093 6.43668 5.76027 5.86068C5.18827 5.28535 4.8756 4.52135 4.87893 3.71002C4.87893 2.03268 6.24493 0.666016 7.92427 0.666016C9.60427 0.666016 10.9703 2.03268 10.9703 3.71201C10.9703 5.39135 9.60427 6.75801 7.92427 6.75801Z" fill="white"/>
<path fill-rule="evenodd" clip-rule="evenodd" d="M3.92406 6.09698C3.90139 6.09698 3.87806 6.09565 3.85472 6.09232C2.67139 5.92632 1.77806 4.89965 1.77539 3.70432C1.77539 2.51432 2.62672 1.51165 3.79872 1.31898C4.07939 1.27498 4.32806 1.45965 4.37339 1.73098C4.41806 2.00365 4.23339 2.26098 3.96139 2.30565C3.27406 2.41832 2.77539 3.00632 2.77539 3.70298C2.77672 4.40298 3.30006 5.00498 3.99272 5.10165C4.26672 5.13965 4.45672 5.39232 4.41872 5.66632C4.38339 5.91632 4.16939 6.09698 3.92406 6.09698Z" fill="white"/>
<path fill-rule="evenodd" clip-rule="evenodd" d="M1.94068 10.3536C1.88135 10.3536 1.82135 10.3429 1.76268 10.3209C0.808682 9.95689 0.666016 9.29489 0.666016 8.93289C0.666016 8.33956 1.00535 7.58022 2.62135 7.33822C2.89668 7.30356 3.14868 7.48489 3.19002 7.75822C3.23068 8.03222 3.04202 8.28622 2.76935 8.32756C2.03735 8.43689 1.66602 8.64089 1.66602 8.93289C1.66602 9.02422 1.66602 9.21356 2.11868 9.38622C2.37668 9.48422 2.50668 9.77356 2.40802 10.0316C2.33202 10.2309 2.14202 10.3536 1.94068 10.3536Z" fill="white"/>
</svg>
