<svg width="14" height="10" viewBox="0 0 14 10" fill="white" xmlns="http://www.w3.org/2000/svg">
<path d="M13.125 0H0.875C0.390625 0 0.003125 0.390625 0 0.875V0.884375V9.11563V9.125C0.00625 9.60938 0.390625 10 0.875 10H13.125C13.6125 10 14 9.60313 14 9.11563V0.884375C14 0.396875 13.6125 0 13.125 0ZM1.40937 1H12.5875C12.8031 1 12.9656 1.15937 12.9969 1.375V2H1V1.36562C1.03125 1.15312 1.19687 1 1.40937 1ZM12.5906 9H1.40937C1.19375 9 1.03125 8.84687 1 8.63437V5H13V8.625C12.9688 8.84062 12.8031 9 12.5906 9Z" />
</svg>
