<svg width="37" height="34" viewBox="0 0 37 34" fill="white" xmlns="http://www.w3.org/2000/svg">
<path d="M34.0383 0.503906H3.6183C2.07992 0.503906 0.828125 2.25838 0.828125 4.41454V7.02812V12.6602V29.5938C0.828125 31.75 2.07992 33.5039 3.6183 33.5039H34.0383C35.5767 33.5039 36.8281 31.75 36.8281 29.5938V12.6602V7.02812V4.41454C36.8281 2.25838 35.5767 0.503906 34.0383 0.503906ZM1.98645 4.41454C1.98684 3.15322 2.71837 2.12792 3.61792 2.12792H34.0379C34.9375 2.12792 35.669 3.15376 35.669 4.41454V6.21611H1.98645V4.41454ZM35.6694 29.5933C35.6694 30.8535 34.9375 31.8793 34.0383 31.8793H3.6183C2.71876 31.8793 1.98684 30.8535 1.98684 29.5933V13.4717H35.6694V29.5933V29.5933ZM35.6694 11.8477H1.98684V7.83958H35.6694V11.8477Z" fill-opacity="0.88"/>
<path d="M5.96071 28.6788C6.98214 28.6788 7.81275 27.4093 7.81275 25.8492C7.81275 24.288 6.98214 23.0175 5.96071 23.0175C4.93998 23.0175 4.10938 24.288 4.10938 25.8492C4.10938 27.4093 4.93998 28.6788 5.96071 28.6788ZM5.96071 24.6415C6.39619 24.6415 6.75059 25.1833 6.75059 25.8492C6.75059 26.514 6.39619 27.0548 5.96071 27.0548C5.52558 27.0548 5.17153 26.514 5.17153 25.8492C5.17153 25.1833 5.52558 24.6415 5.96071 24.6415Z" fill-opacity="0.88"/>
<path d="M9.92072 26.7557H24.8843C25.1778 26.7557 25.4154 26.3925 25.4154 25.9437C25.4154 25.495 25.1778 25.1317 24.8843 25.1317H9.92072C9.62722 25.1317 9.38965 25.495 9.38965 25.9437C9.38965 26.3925 9.62722 26.7557 9.92072 26.7557Z" fill-opacity="0.88"/>
</svg>
