<svg width="20" height="20" viewBox="0 0 20 20" fill="#fff" xmlns="http://www.w3.org/2000/svg">
<path fill-rule="evenodd" clip-rule="evenodd" d="M10 0C15.5191 0 20 4.48086 20 10C20 15.5191 15.5191 20 10 20C4.48086 20 0 15.5191 0 10C0 4.48086 4.48086 0 10 0ZM14.7471 5.26734C13.55 4.06922 11.958 3.4091 10.2619 3.40844C6.76707 3.40844 3.9227 6.25172 3.92133 9.74656C3.92086 10.8637 4.21281 11.9542 4.76766 12.9154L3.86812 16.2L7.22938 15.3186C8.15547 15.8236 9.19816 16.0896 10.2594 16.0901H10.262C13.7565 16.0901 16.6011 13.2465 16.6025 9.7516C16.6032 8.05793 15.9443 6.46539 14.7471 5.26734ZM10.262 15.0196H10.2598C9.31418 15.0192 8.38668 14.7652 7.57754 14.2852L7.38508 14.171L5.39051 14.6941L5.92289 12.75L5.79758 12.5507C5.27004 11.7119 4.99145 10.7424 4.99184 9.74695C4.99301 6.84219 7.35715 4.47895 10.2641 4.47895C11.6717 4.47949 12.9948 5.02824 13.9898 6.02402C14.9848 7.01984 15.5325 8.34352 15.532 9.75121C15.5308 12.6562 13.1667 15.0195 10.262 15.0196ZM13.1527 11.0739C12.9943 10.9946 12.2154 10.6114 12.0701 10.5586C11.9249 10.5057 11.8193 10.4793 11.7137 10.6379C11.608 10.7964 11.3044 11.1532 11.212 11.2589C11.1196 11.3645 11.0272 11.3778 10.8687 11.2985C10.7103 11.2193 10.1998 11.052 9.59473 10.5124C9.12375 10.0925 8.80578 9.57375 8.71336 9.41523C8.62098 9.25668 8.70352 9.17098 8.78285 9.09199C8.8541 9.02106 8.94125 8.90703 9.02047 8.81453C9.09969 8.72203 9.12609 8.65598 9.17891 8.55031C9.23172 8.44457 9.20531 8.35211 9.1657 8.27281C9.12609 8.19355 8.80926 7.41398 8.67723 7.09687C8.54867 6.78805 8.41805 6.82984 8.32078 6.825C8.22848 6.82039 8.12277 6.81941 8.01715 6.81941C7.91152 6.81941 7.73992 6.85906 7.59465 7.01762C7.44945 7.17617 7.0402 7.55934 7.0402 8.33887C7.0402 9.11844 7.60789 9.87152 7.68711 9.97727C7.76633 10.083 8.80426 11.6827 10.3935 12.3687C10.7715 12.5319 11.0666 12.6293 11.2967 12.7023C11.6762 12.8229 12.0216 12.8059 12.2946 12.7651C12.5989 12.7196 13.2319 12.3819 13.3639 12.012C13.4959 11.642 13.4959 11.3249 13.4563 11.2589C13.4167 11.1928 13.3111 11.1532 13.1527 11.0739Z"/>
</svg>
