<svg width="20" height="20" viewBox="0 0 20 20" fill="#F97E4E" xmlns="http://www.w3.org/2000/svg">
<path d="M10.0408 5.95696e-05C4.58078 5.95696e-05 0.130781 4.45006 0.130781 9.91006C0.130781 11.6601 0.590781 13.3601 1.45078 14.8601L0.0507812 20.0001L5.30078 18.6201C6.75078 19.4101 8.38078 19.8301 10.0408 19.8301C15.5008 19.8301 19.9508 15.3801 19.9508 9.92006C19.9508 7.27006 18.9208 4.78006 17.0508 2.91006C16.134 1.98399 15.042 1.24973 13.8384 0.750111C12.6349 0.250494 11.3439 -0.00448012 10.0408 5.95696e-05ZM10.0508 1.67006C12.2508 1.67006 14.3108 2.53006 15.8708 4.09006C16.6364 4.85541 17.2434 5.76438 17.6569 6.76482C18.0705 7.76526 18.2825 8.83751 18.2808 9.92006C18.2808 14.4601 14.5808 18.1501 10.0408 18.1501C8.56078 18.1501 7.11078 17.7601 5.85078 17.0001L5.55078 16.8301L2.43078 17.6501L3.26078 14.6101L3.06078 14.2901C2.23472 12.9787 1.79779 11.4599 1.80078 9.91006C1.81078 5.37006 5.50078 1.67006 10.0508 1.67006ZM6.53078 5.33006C6.37078 5.33006 6.10078 5.39006 5.87078 5.64006C5.65078 5.89006 5.00078 6.50006 5.00078 7.71006C5.00078 8.93006 5.89078 10.1001 6.00078 10.2701C6.14078 10.4401 7.76078 12.9401 10.2508 14.0001C10.8408 14.2701 11.3008 14.4201 11.6608 14.5301C12.2508 14.7201 12.7908 14.6901 13.2208 14.6301C13.7008 14.5601 14.6808 14.0301 14.8908 13.4501C15.1008 12.8701 15.1008 12.3801 15.0408 12.2701C14.9708 12.1701 14.8108 12.1101 14.5608 12.0001C14.3108 11.8601 13.0908 11.2601 12.8708 11.1801C12.6408 11.1001 12.5008 11.0601 12.3108 11.3001C12.1508 11.5501 11.6708 12.1101 11.5308 12.2701C11.3808 12.4401 11.2408 12.4601 11.0008 12.3401C10.7408 12.2101 9.94078 11.9501 9.00078 11.1101C8.26078 10.4501 7.77078 9.64006 7.62078 9.39006C7.50078 9.15006 7.61078 9.00006 7.73078 8.89006C7.84078 8.78006 8.00078 8.60006 8.10078 8.45006C8.23078 8.31006 8.27078 8.20006 8.35078 8.04006C8.43078 7.87006 8.39078 7.73006 8.33078 7.61006C8.27078 7.50006 7.77078 6.26006 7.56078 5.77006C7.36078 5.29006 7.16078 5.35006 7.00078 5.34006C6.86078 5.34006 6.70078 5.33006 6.53078 5.33006Z" />
</svg>
