<svg width="14" height="14" viewBox="0 0 14 14" fill="none" xmlns="http://www.w3.org/2000/svg">
<path fill-rule="evenodd" clip-rule="evenodd" d="M6.99805 10.6191C6.72205 10.6191 6.49805 10.3951 6.49805 10.1191V8.42773C6.49805 8.15173 6.72205 7.92773 6.99805 7.92773C7.27405 7.92773 7.49805 8.15173 7.49805 8.42773V10.1191C7.49805 10.3951 7.27405 10.6191 6.99805 10.6191Z" fill="white"/>
<mask id="mask0_475_11037" style="mask-type:alpha" maskUnits="userSpaceOnUse" x="0" y="2" width="14" height="7">
<path fill-rule="evenodd" clip-rule="evenodd" d="M0.333984 2.05469H13.6605V8.92869H0.333984V2.05469Z" fill="white"/>
</mask>
<g mask="url(#mask0_475_11037)">
<path fill-rule="evenodd" clip-rule="evenodd" d="M1.33398 6.59669C2.91798 7.45735 4.91532 7.92869 6.99398 7.92869C9.07665 7.92869 11.076 7.45735 12.6607 6.59669V4.59535C12.6607 3.74535 11.9733 3.05469 11.1273 3.05469H2.87398C2.02465 3.05469 1.33398 3.74269 1.33398 4.58869V6.59669ZM6.99398 8.92869C4.63065 8.92869 2.35265 8.35669 0.581318 7.31935C0.427984 7.23002 0.333984 7.06602 0.333984 6.88802V4.58869C0.333984 3.19135 1.47332 2.05469 2.87398 2.05469H11.1273C12.5247 2.05469 13.6607 3.19402 13.6607 4.59535V6.88802C13.6607 7.06602 13.566 7.23002 13.4133 7.31935C11.642 8.35669 9.36198 8.92869 6.99398 8.92869Z" fill="white"/>
</g>
<mask id="mask1_475_11037" style="mask-type:alpha" maskUnits="userSpaceOnUse" x="4" y="0" width="6" height="4">
<path fill-rule="evenodd" clip-rule="evenodd" d="M4.16406 0.333984H9.83073V3.05125H4.16406V0.333984Z" fill="white"/>
</mask>
<g mask="url(#mask1_475_11037)">
<path fill-rule="evenodd" clip-rule="evenodd" d="M9.33073 3.05132C9.05473 3.05132 8.83073 2.82732 8.83073 2.55132V2.30732C8.83073 1.77065 8.39406 1.33398 7.8574 1.33398H6.1374C5.60073 1.33398 5.16406 1.77065 5.16406 2.30732V2.55132C5.16406 2.82732 4.94006 3.05132 4.66406 3.05132C4.38806 3.05132 4.16406 2.82732 4.16406 2.55132V2.30732C4.16406 1.21932 5.0494 0.333984 6.1374 0.333984H7.8574C8.9454 0.333984 9.83073 1.21932 9.83073 2.30732V2.55132C9.83073 2.82732 9.60673 3.05132 9.33073 3.05132Z" fill="white"/>
</g>
<path fill-rule="evenodd" clip-rule="evenodd" d="M10.8637 13.4946H3.13037C1.74703 13.4946 0.582367 12.414 0.4777 11.034L0.351034 9.3613C0.330367 9.08597 0.537034 8.8453 0.812367 8.82463C1.08903 8.81463 1.3277 9.00997 1.34903 9.28597L1.47503 10.958C1.54037 11.8193 2.26703 12.4946 3.13037 12.4946H10.8637C11.727 12.4946 12.4544 11.8193 12.519 10.958L12.6457 9.28597C12.667 9.00997 12.9117 8.81397 13.1824 8.82463C13.4577 8.8453 13.6637 9.08597 13.643 9.3613L13.5164 11.034C13.4117 12.414 12.247 13.4946 10.8637 13.4946Z" fill="white"/>
</svg>
